<?xml version="1.0" encoding="utf-8"?>
<!-- Generator: Adobe Illustrator 16.0.3, SVG Export Plug-In . SVG Version: 6.00 Build 0)  -->
<!DOCTYPE svg PUBLIC "-//W3C//DTD SVG 1.1//EN" "http://www.w3.org/Graphics/SVG/1.1/DTD/svg11.dtd">
<svg version="1.1" id="文" xmlns="http://www.w3.org/2000/svg" xmlns:xlink="http://www.w3.org/1999/xlink" x="0px" y="0px"
	 width="58.125px" height="642.469px" viewBox="0 0 58.125 642.469" enable-background="new 0 0 58.125 642.469"
	 xml:space="preserve">
<g>
	<path fill="#C19694" d="M31.531,4.438c-4.25-0.021-7.584,1.01-10,3.094c-2.417,2.083-3.625,4.531-3.625,7.344
		c0,1.875,0.516,3.505,1.547,4.891c1.031,1.385,2.797,2.547,5.297,3.484l-0.625,0.969c-2.854-0.438-5.453-1.709-7.797-3.813
		c-2.344-2.104-3.516-4.74-3.516-7.906c0-3.438,1.338-6.381,4.016-8.828C19.505,1.224,23.104,0,27.625,0
		c4.896,0,8.713,1.255,11.453,3.766c2.739,2.51,4.109,5.661,4.109,9.453c0,3.208-1.058,5.844-3.172,7.906
		c-2.115,2.063-4.943,3.094-8.484,3.094V4.438z M33.344,4.438v13.25c1.833-0.104,3.125-0.323,3.875-0.656
		c1.166-0.521,2.083-1.297,2.75-2.328c0.666-1.031,1-2.109,1-3.234c0-1.729-0.672-3.276-2.016-4.641
		C37.609,5.463,35.739,4.666,33.344,4.438z"/>
	<path fill="#C19694" d="M37.094,36.375c4.041,3.354,6.063,6.552,6.063,9.594c0,1.563-0.391,2.906-1.172,4.031
		s-2.068,2.021-3.859,2.688c-1.25,0.458-3.167,0.688-5.75,0.688H20.156c-1.813,0-3.042,0.146-3.688,0.438
		c-0.521,0.229-0.928,0.599-1.219,1.109c-0.292,0.51-0.438,1.453-0.438,2.828h-1.125V43.594h1.125v0.594
		c0,1.333,0.203,2.266,0.609,2.797s1.005,0.9,1.797,1.109c0.313,0.083,1.291,0.125,2.938,0.125h11.719
		c2.604,0,4.494-0.339,5.672-1.016c1.177-0.678,1.766-1.818,1.766-3.422c0-2.479-1.354-4.948-4.063-7.406H20.156
		c-1.938,0-3.136,0.114-3.594,0.344c-0.604,0.291-1.047,0.692-1.328,1.203c-0.281,0.51-0.422,1.547-0.422,3.109h-1.125V26.875h1.125
		V27.5c0,1.458,0.369,2.442,1.109,2.953c0.739,0.51,2.15,0.766,4.234,0.766h10.625c3.438,0,5.531-0.078,6.281-0.234
		s1.26-0.396,1.531-0.719C38.864,29.942,39,29.51,39,28.969c0-0.584-0.156-1.281-0.469-2.094l1.125-0.469l3.5,8.625v1.344H37.094z"
		/>
	<path fill="#C19694" d="M42.313,58.563v13.469h-1.156v-0.875c0-0.813-0.198-1.433-0.594-1.859
		c-0.396-0.428-0.928-0.641-1.594-0.641c-0.729,0-1.594,0.219-2.594,0.656l-15.813,6.656l16.406,6.688
		c1.166,0.479,2.052,0.719,2.656,0.719c0.291,0,0.531-0.084,0.719-0.25c0.313-0.229,0.525-0.521,0.641-0.875
		c0.114-0.354,0.172-1.073,0.172-2.156h1.156v9.344h-1.156c-0.084-1.084-0.303-1.834-0.656-2.25
		c-0.625-0.729-1.667-1.386-3.125-1.969L12.813,75.063v-1.281l24.156-10.219c1.125-0.459,1.932-0.896,2.422-1.313
		c0.489-0.417,0.9-0.948,1.234-1.594c0.188-0.354,0.364-1.053,0.531-2.094H42.313z"/>
	<path fill="#C19694" d="M43.156,101.906h-23c-1.792,0-2.984,0.13-3.578,0.391c-0.594,0.26-1.037,0.646-1.328,1.156
		c-0.292,0.51-0.438,1.442-0.438,2.797h-1.125V92.344h1.125c0,1.396,0.135,2.333,0.406,2.813c0.271,0.479,0.719,0.859,1.344,1.141
		s1.822,0.422,3.594,0.422h11.031c3.104,0,5.114-0.094,6.031-0.281c0.666-0.146,1.13-0.375,1.391-0.688
		C38.869,95.438,39,95.01,39,94.469c0-0.584-0.156-1.292-0.469-2.125l1.125-0.438l3.5,8.625V101.906z M58.125,99.313
		c0,0.875-0.308,1.619-0.922,2.234c-0.615,0.614-1.359,0.922-2.234,0.922s-1.625-0.308-2.25-0.922
		c-0.625-0.615-0.938-1.359-0.938-2.234s0.313-1.625,0.938-2.25s1.375-0.938,2.25-0.938s1.619,0.307,2.234,0.922
		C57.817,97.661,58.125,98.416,58.125,99.313z"/>
	<path fill="#C19694" d="M43.156,118.188h-6.438c4.291,2.396,6.438,4.854,6.438,7.375c0,1.146-0.35,2.094-1.047,2.844
		c-0.698,0.75-1.506,1.125-2.422,1.125c-0.813,0-1.5-0.271-2.063-0.813c-0.563-0.542-0.844-1.188-0.844-1.938
		c0-0.729,0.359-1.547,1.078-2.453s1.078-1.578,1.078-2.016c0-0.375-0.209-0.781-0.625-1.219c-0.854-0.938-2.261-1.906-4.219-2.906
		H20.375c-1.584,0-2.781,0.197-3.594,0.594c-0.563,0.271-1.031,0.75-1.406,1.438s-0.563,1.677-0.563,2.969h-1.125v-14.656h1.125
		c0,1.458,0.229,2.541,0.688,3.25c0.333,0.521,0.864,0.885,1.594,1.094c0.354,0.104,1.364,0.156,3.031,0.156h11.094
		c3.333,0,5.317-0.068,5.953-0.203c0.635-0.136,1.099-0.386,1.391-0.75c0.291-0.365,0.438-0.818,0.438-1.359
		c0-0.646-0.156-1.375-0.469-2.188l1.125-0.313l3.5,8.656V118.188z"/>
	<path fill="#C19694" d="M43.156,145.125c0,4.333-1.646,7.813-4.938,10.438c-2.813,2.229-6.042,3.344-9.688,3.344
		c-2.563,0-5.156-0.615-7.781-1.844c-2.625-1.229-4.604-2.922-5.938-5.078s-2-4.558-2-7.203c0-4.313,1.719-7.74,5.156-10.281
		c2.896-2.146,6.146-3.219,9.75-3.219c2.625,0,5.234,0.65,7.828,1.953c2.594,1.302,4.51,3.016,5.75,5.141
		C42.536,140.5,43.156,142.75,43.156,145.125z M41.125,144.156c0-1.104-0.328-2.214-0.984-3.328
		c-0.656-1.115-1.808-2.016-3.453-2.703c-1.646-0.688-3.761-1.031-6.344-1.031c-4.167,0-7.761,0.828-10.781,2.484
		c-3.021,1.656-4.531,3.838-4.531,6.547c0,2.021,0.833,3.688,2.5,5c1.666,1.313,4.531,1.969,8.594,1.969
		c5.083,0,9.083-1.094,12-3.281C40.125,148.333,41.125,146.447,41.125,144.156z"/>
	<path fill="#C19694" d="M37.094,171.469c4.041,3.354,6.063,6.552,6.063,9.594c0,1.563-0.391,2.906-1.172,4.031
		s-2.068,2.021-3.859,2.688c-1.25,0.458-3.167,0.688-5.75,0.688H20.156c-1.813,0-3.042,0.146-3.688,0.438
		c-0.521,0.229-0.928,0.599-1.219,1.109c-0.292,0.51-0.438,1.453-0.438,2.828h-1.125v-14.156h1.125v0.594
		c0,1.333,0.203,2.266,0.609,2.797s1.005,0.9,1.797,1.109c0.313,0.083,1.291,0.125,2.938,0.125h11.719
		c2.604,0,4.494-0.339,5.672-1.016c1.177-0.678,1.766-1.818,1.766-3.422c0-2.479-1.354-4.948-4.063-7.406H20.156
		c-1.938,0-3.136,0.114-3.594,0.344c-0.604,0.291-1.047,0.692-1.328,1.203c-0.281,0.51-0.422,1.547-0.422,3.109h-1.125v-14.156
		h1.125v0.625c0,1.458,0.369,2.442,1.109,2.953c0.739,0.51,2.15,0.766,4.234,0.766h10.625c3.438,0,5.531-0.078,6.281-0.234
		s1.26-0.396,1.531-0.719c0.271-0.323,0.406-0.756,0.406-1.297c0-0.584-0.156-1.281-0.469-2.094l1.125-0.469l3.5,8.625v1.344H37.094
		z"/>
	<path fill="#C19694" d="M37.063,203.625c2.083,2.083,3.281,3.313,3.594,3.688c0.791,0.938,1.406,1.947,1.844,3.031
		c0.438,1.083,0.656,2.156,0.656,3.219c0,1.791-0.521,3.333-1.563,4.625c-1.042,1.291-2.553,2.156-4.531,2.594
		c2.5,2.146,4.141,3.958,4.922,5.438c0.781,1.479,1.172,3,1.172,4.563c0,1.521-0.391,2.869-1.172,4.047
		c-0.781,1.177-2.058,2.109-3.828,2.797c-1.209,0.458-3.104,0.688-5.688,0.688H20.156c-1.792,0-3.021,0.135-3.688,0.406
		c-0.459,0.208-0.85,0.594-1.172,1.156c-0.323,0.563-0.484,1.479-0.484,2.75h-1.125V228.5h1.125v0.594
		c0,1.229,0.239,2.188,0.719,2.875c0.333,0.479,0.864,0.822,1.594,1.031c0.354,0.083,1.364,0.125,3.031,0.125h12.313
		c2.333,0,3.979-0.281,4.938-0.844c1.333-0.813,2-2.115,2-3.906c0-1.104-0.276-2.214-0.828-3.328
		C38.025,223.932,37,222.583,35.5,221l-0.344-0.063L33.813,221H20.156c-1.959,0-3.178,0.109-3.656,0.328
		c-0.479,0.219-0.881,0.63-1.203,1.234c-0.323,0.604-0.484,1.635-0.484,3.094h-1.125v-14.469h1.125c0,1.583,0.188,2.672,0.563,3.266
		s0.938,1.005,1.688,1.234c0.354,0.104,1.385,0.156,3.094,0.156h12.313c2.333,0,4.01-0.344,5.031-1.031c1.333-0.917,2-2.198,2-3.844
		c0-1.125-0.303-2.24-0.906-3.344c-0.917-1.729-1.948-3.063-3.094-4H20.156c-1.875,0-3.094,0.13-3.656,0.391
		c-0.563,0.26-0.984,0.646-1.266,1.156c-0.281,0.51-0.422,1.547-0.422,3.109h-1.125v-14.156h1.125c0,1.313,0.141,2.229,0.422,2.75
		c0.281,0.521,0.729,0.916,1.344,1.188c0.614,0.271,1.807,0.406,3.578,0.406h10.938c3.146,0,5.177-0.094,6.094-0.281
		c0.688-0.146,1.161-0.375,1.422-0.688c0.26-0.313,0.391-0.74,0.391-1.281c0-0.584-0.156-1.281-0.469-2.094l1.125-0.469l3.5,8.625
		v1.344H37.063z"/>
	<path fill="#C19694" d="M31.531,249.719c-4.25-0.021-7.584,1.01-10,3.094c-2.417,2.083-3.625,4.531-3.625,7.344
		c0,1.875,0.516,3.505,1.547,4.891c1.031,1.385,2.797,2.547,5.297,3.484l-0.625,0.969c-2.854-0.438-5.453-1.709-7.797-3.813
		c-2.344-2.104-3.516-4.74-3.516-7.906c0-3.438,1.338-6.381,4.016-8.828c2.677-2.448,6.275-3.672,10.797-3.672
		c4.896,0,8.713,1.255,11.453,3.766c2.739,2.51,4.109,5.661,4.109,9.453c0,3.208-1.058,5.844-3.172,7.906
		c-2.115,2.063-4.943,3.094-8.484,3.094V249.719z M33.344,249.719v13.25c1.833-0.104,3.125-0.323,3.875-0.656
		c1.166-0.521,2.083-1.297,2.75-2.328c0.666-1.031,1-2.109,1-3.234c0-1.729-0.672-3.276-2.016-4.641
		C37.609,250.744,35.739,249.947,33.344,249.719z"/>
	<path fill="#C19694" d="M37.094,281.656c4.041,3.354,6.063,6.552,6.063,9.594c0,1.563-0.391,2.906-1.172,4.031
		s-2.068,2.021-3.859,2.688c-1.25,0.458-3.167,0.688-5.75,0.688H20.156c-1.813,0-3.042,0.146-3.688,0.438
		c-0.521,0.229-0.928,0.599-1.219,1.109c-0.292,0.51-0.438,1.453-0.438,2.828h-1.125v-14.156h1.125v0.594
		c0,1.333,0.203,2.266,0.609,2.797s1.005,0.9,1.797,1.109c0.313,0.083,1.291,0.125,2.938,0.125h11.719
		c2.604,0,4.494-0.339,5.672-1.016c1.177-0.678,1.766-1.818,1.766-3.422c0-2.479-1.354-4.948-4.063-7.406H20.156
		c-1.938,0-3.136,0.114-3.594,0.344c-0.604,0.291-1.047,0.692-1.328,1.203c-0.281,0.51-0.422,1.547-0.422,3.109h-1.125v-14.156
		h1.125v0.625c0,1.458,0.369,2.442,1.109,2.953c0.739,0.51,2.15,0.766,4.234,0.766h10.625c3.438,0,5.531-0.078,6.281-0.234
		s1.26-0.396,1.531-0.719c0.271-0.323,0.406-0.756,0.406-1.297c0-0.584-0.156-1.281-0.469-2.094l1.125-0.469l3.5,8.625v1.344H37.094
		z"/>
	<path fill="#C19694" d="M51.719,313.625h-9.406v6.688h-2.188v-6.688H21.563c-1.854,0-3.104,0.266-3.75,0.797
		c-0.646,0.531-0.969,1.213-0.969,2.047c0,0.688,0.213,1.354,0.641,2c0.427,0.646,1.057,1.146,1.891,1.5v1.219
		c-2.042-0.729-3.578-1.761-4.609-3.094c-1.031-1.334-1.547-2.709-1.547-4.125c0-0.959,0.266-1.896,0.797-2.813
		c0.531-0.917,1.291-1.594,2.281-2.031c0.989-0.438,2.516-0.656,4.578-0.656h19.25v-4.531h1.031
		c0.458,1.146,1.234,2.317,2.328,3.516c1.094,1.197,2.391,2.266,3.891,3.203c0.791,0.479,2.239,1.146,4.344,2V313.625z"/>
	<path fill="#C19694" d="M17.813,339.313c-2.271-2.938-3.584-4.781-3.938-5.531c-0.521-1.125-0.781-2.323-0.781-3.594
		c0-1.979,0.677-3.609,2.031-4.891c1.354-1.281,3.135-1.922,5.344-1.922c1.396,0,2.604,0.313,3.625,0.938
		c1.416,0.854,2.75,2.338,4,4.453c1.25,2.114,2.771,5.63,4.563,10.547h1.125c2.854,0,4.813-0.453,5.875-1.359
		s1.594-2.225,1.594-3.953c0-1.313-0.354-2.354-1.063-3.125c-0.709-0.792-1.521-1.188-2.438-1.188l-1.813,0.063
		c-0.959,0-1.698-0.245-2.219-0.734c-0.521-0.49-0.781-1.131-0.781-1.922c0-0.771,0.271-1.401,0.813-1.891
		c0.541-0.49,1.281-0.734,2.219-0.734c1.791,0,3.438,0.916,4.938,2.75c1.5,1.833,2.25,4.406,2.25,7.719
		c0,2.541-0.428,4.625-1.281,6.25c-0.646,1.229-1.656,2.135-3.031,2.719c-0.896,0.375-2.729,0.563-5.5,0.563h-9.719
		c-2.729,0-4.401,0.052-5.016,0.156c-0.615,0.104-1.026,0.275-1.234,0.516c-0.209,0.239-0.313,0.516-0.313,0.828
		c0,0.333,0.072,0.625,0.219,0.875c0.271,0.438,1.031,1.281,2.281,2.531h-1.75c-3.125-2.334-4.688-4.563-4.688-6.688
		c0-1.021,0.354-1.834,1.063-2.438C14.896,339.646,16.104,339.333,17.813,339.313z M19.844,339.313H30.75
		c-1.25-3.146-2.136-5.178-2.656-6.094c-0.917-1.646-1.875-2.823-2.875-3.531c-1-0.709-2.094-1.063-3.281-1.063
		c-1.5,0-2.745,0.447-3.734,1.344c-0.99,0.896-1.484,1.927-1.484,3.094C16.719,334.646,17.76,336.729,19.844,339.313z"/>
	<path fill="#C19694" d="M58.125,361.344H20.156c-1.792,0-2.979,0.13-3.563,0.391c-0.584,0.26-1.026,0.661-1.328,1.203
		c-0.303,0.541-0.453,1.552-0.453,3.031h-1.125v-14.031h1.125c0,1.313,0.135,2.208,0.406,2.688c0.271,0.479,0.719,0.854,1.344,1.125
		c0.625,0.271,1.822,0.406,3.594,0.406h26c3.229,0,5.213-0.073,5.953-0.219c0.739-0.146,1.244-0.381,1.516-0.703
		c0.271-0.323,0.406-0.734,0.406-1.234c0-0.542-0.167-1.229-0.5-2.063l1.094-0.531l3.5,8.531V361.344z"/>
	<path fill="#C19694" d="M39.469,383.219l3.563,8.813v1.188h-6.688c2.521,1.479,4.286,2.963,5.297,4.453
		c1.01,1.489,1.516,3.057,1.516,4.703c0,2.875-1.125,5.271-3.375,7.188c-2.75,2.354-6.334,3.531-10.75,3.531
		c-4.938,0-9.021-1.417-12.25-4.25c-2.646-2.334-3.969-5.271-3.969-8.813c0-1.542,0.219-2.875,0.656-4
		c0.313-0.834,0.938-1.771,1.875-2.813H6.625c-1.958,0-3.203,0.119-3.734,0.359c-0.531,0.239-0.953,0.656-1.266,1.25
		s-0.469,1.672-0.469,3.234H0v-15h1.156v0.781c-0.021,1.146,0.198,2.125,0.656,2.938c0.229,0.396,0.6,0.703,1.109,0.922
		c0.511,0.219,1.808,0.328,3.891,0.328h27.063c1.854,0,3.031-0.084,3.531-0.25c0.5-0.167,0.875-0.433,1.125-0.797
		c0.25-0.365,0.375-0.859,0.375-1.484c0-0.5-0.146-1.136-0.438-1.906L39.469,383.219z M34.5,393.219H23.813
		c-2.313,0-3.834,0.094-4.563,0.281c-1.209,0.291-2.271,1.005-3.188,2.141c-0.917,1.135-1.375,2.567-1.375,4.297
		c0,2.083,0.813,3.771,2.438,5.063c2.125,1.688,5.114,2.531,8.969,2.531c4.375,0,7.739-0.959,10.094-2.875
		c1.625-1.334,2.438-2.917,2.438-4.75c0-1-0.25-1.99-0.75-2.969C37.5,396.188,36.375,394.947,34.5,393.219z"/>
	<path fill="#C19694" d="M43.156,425.656h-6.438c4.291,2.396,6.438,4.854,6.438,7.375c0,1.146-0.35,2.094-1.047,2.844
		c-0.698,0.75-1.506,1.125-2.422,1.125c-0.813,0-1.5-0.271-2.063-0.813c-0.563-0.542-0.844-1.188-0.844-1.938
		c0-0.729,0.359-1.547,1.078-2.453s1.078-1.578,1.078-2.016c0-0.375-0.209-0.781-0.625-1.219c-0.854-0.938-2.261-1.906-4.219-2.906
		H20.375c-1.584,0-2.781,0.197-3.594,0.594c-0.563,0.271-1.031,0.75-1.406,1.438s-0.563,1.677-0.563,2.969h-1.125V416h1.125
		c0,1.458,0.229,2.541,0.688,3.25c0.333,0.521,0.864,0.885,1.594,1.094c0.354,0.104,1.364,0.156,3.031,0.156h11.094
		c3.333,0,5.317-0.068,5.953-0.203c0.635-0.136,1.099-0.386,1.391-0.75c0.291-0.365,0.438-0.818,0.438-1.359
		c0-0.646-0.156-1.375-0.469-2.188l1.125-0.313l3.5,8.656V425.656z"/>
	<path fill="#C19694" d="M43.156,452.594c0,4.333-1.646,7.813-4.938,10.438c-2.813,2.229-6.042,3.344-9.688,3.344
		c-2.563,0-5.156-0.615-7.781-1.844c-2.625-1.229-4.604-2.922-5.938-5.078s-2-4.558-2-7.203c0-4.313,1.719-7.74,5.156-10.281
		c2.896-2.146,6.146-3.219,9.75-3.219c2.625,0,5.234,0.65,7.828,1.953c2.594,1.302,4.51,3.016,5.75,5.141
		C42.536,447.969,43.156,450.219,43.156,452.594z M41.125,451.625c0-1.104-0.328-2.214-0.984-3.328
		c-0.656-1.115-1.808-2.016-3.453-2.703c-1.646-0.688-3.761-1.031-6.344-1.031c-4.167,0-7.761,0.828-10.781,2.484
		c-3.021,1.656-4.531,3.838-4.531,6.547c0,2.021,0.833,3.688,2.5,5c1.666,1.313,4.531,1.969,8.594,1.969
		c5.083,0,9.083-1.094,12-3.281C40.125,455.802,41.125,453.916,41.125,451.625z"/>
	<path fill="#C19694" d="M51.719,478.906h-9.406v6.688h-2.188v-6.688H21.563c-1.854,0-3.104,0.266-3.75,0.797
		c-0.646,0.531-0.969,1.213-0.969,2.047c0,0.688,0.213,1.354,0.641,2c0.427,0.646,1.057,1.146,1.891,1.5v1.219
		c-2.042-0.729-3.578-1.761-4.609-3.094c-1.031-1.334-1.547-2.709-1.547-4.125c0-0.959,0.266-1.896,0.797-2.813
		c0.531-0.917,1.291-1.594,2.281-2.031c0.989-0.438,2.516-0.656,4.578-0.656h19.25v-4.531h1.031
		c0.458,1.146,1.234,2.317,2.328,3.516c1.094,1.197,2.391,2.266,3.891,3.203c0.791,0.479,2.239,1.146,4.344,2V478.906z"/>
	<path fill="#C19694" d="M31.531,493.188c-4.25-0.021-7.584,1.01-10,3.094c-2.417,2.083-3.625,4.531-3.625,7.344
		c0,1.875,0.516,3.505,1.547,4.891c1.031,1.385,2.797,2.547,5.297,3.484l-0.625,0.969c-2.854-0.438-5.453-1.709-7.797-3.813
		c-2.344-2.104-3.516-4.74-3.516-7.906c0-3.438,1.338-6.381,4.016-8.828c2.677-2.448,6.275-3.672,10.797-3.672
		c4.896,0,8.713,1.255,11.453,3.766c2.739,2.51,4.109,5.661,4.109,9.453c0,3.208-1.058,5.844-3.172,7.906
		c-2.115,2.063-4.943,3.094-8.484,3.094V493.188z M33.344,493.188v13.25c1.833-0.104,3.125-0.323,3.875-0.656
		c1.166-0.521,2.083-1.297,2.75-2.328c0.666-1.031,1-2.109,1-3.234c0-1.729-0.672-3.276-2.016-4.641
		C37.609,494.213,35.739,493.416,33.344,493.188z"/>
	<path fill="#C19694" d="M24.563,541.094c-3.771-0.771-6.672-2.281-8.703-4.531s-3.047-4.74-3.047-7.469
		c0-3.25,1.364-6.084,4.094-8.5c2.729-2.417,6.416-3.625,11.063-3.625c4.5,0,8.156,1.338,10.969,4.016
		c2.813,2.677,4.219,5.891,4.219,9.641c0,2.813-0.745,5.125-2.234,6.938c-1.49,1.813-3.037,2.719-4.641,2.719
		c-0.792,0-1.433-0.256-1.922-0.766c-0.49-0.511-0.734-1.225-0.734-2.141c0-1.229,0.396-2.156,1.188-2.781
		c0.438-0.354,1.271-0.589,2.5-0.703c1.229-0.115,2.166-0.537,2.813-1.266c0.625-0.729,0.938-1.74,0.938-3.031
		c0-2.084-0.771-3.761-2.313-5.031c-2.042-1.688-4.74-2.531-8.094-2.531c-3.417,0-6.433,0.838-9.047,2.516
		c-2.615,1.677-3.922,3.942-3.922,6.797c0,2.041,0.697,3.875,2.094,5.5c0.958,1.146,2.697,2.26,5.219,3.344L24.563,541.094z"/>
	<path fill="#C19694" d="M51.719,553.5h-9.406v6.688h-2.188V553.5H21.563c-1.854,0-3.104,0.266-3.75,0.797
		c-0.646,0.531-0.969,1.213-0.969,2.047c0,0.688,0.213,1.354,0.641,2c0.427,0.646,1.057,1.146,1.891,1.5v1.219
		c-2.042-0.729-3.578-1.761-4.609-3.094c-1.031-1.334-1.547-2.709-1.547-4.125c0-0.959,0.266-1.896,0.797-2.813
		c0.531-0.917,1.291-1.594,2.281-2.031c0.989-0.438,2.516-0.656,4.578-0.656h19.25v-4.531h1.031
		c0.458,1.146,1.234,2.317,2.328,3.516c1.094,1.197,2.391,2.266,3.891,3.203c0.791,0.479,2.239,1.146,4.344,2V553.5z"/>
	<path fill="#C19694" d="M43.156,572.844h-23c-1.792,0-2.984,0.13-3.578,0.391c-0.594,0.26-1.037,0.646-1.328,1.156
		c-0.292,0.51-0.438,1.442-0.438,2.797h-1.125v-13.906h1.125c0,1.396,0.135,2.333,0.406,2.813c0.271,0.479,0.719,0.859,1.344,1.141
		s1.822,0.422,3.594,0.422h11.031c3.104,0,5.114-0.094,6.031-0.281c0.666-0.146,1.13-0.375,1.391-0.688
		c0.26-0.313,0.391-0.74,0.391-1.281c0-0.584-0.156-1.292-0.469-2.125l1.125-0.438l3.5,8.625V572.844z M58.125,570.25
		c0,0.875-0.308,1.619-0.922,2.234c-0.615,0.614-1.359,0.922-2.234,0.922s-1.625-0.308-2.25-0.922
		c-0.625-0.615-0.938-1.359-0.938-2.234s0.313-1.625,0.938-2.25s1.375-0.938,2.25-0.938s1.619,0.307,2.234,0.922
		C57.817,568.599,58.125,569.354,58.125,570.25z"/>
	<path fill="#C19694" d="M43.156,594.75c0,4.333-1.646,7.813-4.938,10.438c-2.813,2.229-6.042,3.344-9.688,3.344
		c-2.563,0-5.156-0.615-7.781-1.844c-2.625-1.229-4.604-2.922-5.938-5.078s-2-4.558-2-7.203c0-4.313,1.719-7.74,5.156-10.281
		c2.896-2.146,6.146-3.219,9.75-3.219c2.625,0,5.234,0.65,7.828,1.953c2.594,1.302,4.51,3.016,5.75,5.141
		C42.536,590.125,43.156,592.375,43.156,594.75z M41.125,593.781c0-1.104-0.328-2.214-0.984-3.328
		c-0.656-1.115-1.808-2.016-3.453-2.703c-1.646-0.688-3.761-1.031-6.344-1.031c-4.167,0-7.761,0.828-10.781,2.484
		c-3.021,1.656-4.531,3.838-4.531,6.547c0,2.021,0.833,3.688,2.5,5c1.666,1.313,4.531,1.969,8.594,1.969
		c5.083,0,9.083-1.094,12-3.281C40.125,597.958,41.125,596.072,41.125,593.781z"/>
	<path fill="#C19694" d="M37.094,621.094c4.041,3.354,6.063,6.552,6.063,9.594c0,1.563-0.391,2.906-1.172,4.031
		s-2.068,2.021-3.859,2.688c-1.25,0.458-3.167,0.688-5.75,0.688H20.156c-1.813,0-3.042,0.146-3.688,0.438
		c-0.521,0.229-0.928,0.599-1.219,1.109c-0.292,0.51-0.438,1.453-0.438,2.828h-1.125v-14.156h1.125v0.594
		c0,1.333,0.203,2.266,0.609,2.797s1.005,0.9,1.797,1.109c0.313,0.083,1.291,0.125,2.938,0.125h11.719
		c2.604,0,4.494-0.339,5.672-1.016c1.177-0.678,1.766-1.818,1.766-3.422c0-2.479-1.354-4.948-4.063-7.406H20.156
		c-1.938,0-3.136,0.114-3.594,0.344c-0.604,0.291-1.047,0.692-1.328,1.203c-0.281,0.51-0.422,1.547-0.422,3.109h-1.125v-14.156
		h1.125v0.625c0,1.458,0.369,2.442,1.109,2.953c0.739,0.51,2.15,0.766,4.234,0.766h10.625c3.438,0,5.531-0.078,6.281-0.234
		s1.26-0.396,1.531-0.719c0.271-0.323,0.406-0.756,0.406-1.297c0-0.584-0.156-1.281-0.469-2.094l1.125-0.469l3.5,8.625v1.344H37.094
		z"/>
</g>
</svg>
