<?xml version="1.0" encoding="utf-8"?>
<!-- Generator: Adobe Illustrator 16.0.3, SVG Export Plug-In . SVG Version: 6.00 Build 0)  -->
<!DOCTYPE svg PUBLIC "-//W3C//DTD SVG 1.1//EN" "http://www.w3.org/Graphics/SVG/1.1/DTD/svg11.dtd">
<svg version="1.1" id="文" xmlns="http://www.w3.org/2000/svg" xmlns:xlink="http://www.w3.org/1999/xlink" x="0px" y="0px"
	 width="58.188px" height="159.125px" viewBox="0 0 58.188 159.125" enable-background="new 0 0 58.188 159.125"
	 xml:space="preserve">
<g>
	<path fill="#C19694" d="M57.156,25.344H42.5v-1.156c2.813-0.375,5.052-1.047,6.719-2.016c1.666-0.969,2.989-2.35,3.969-4.141
		c0.979-1.792,1.469-3.646,1.469-5.563c0-2.167-0.662-3.959-1.984-5.375c-1.323-1.417-2.828-2.125-4.516-2.125
		c-1.292,0-2.469,0.447-3.531,1.344c-1.563,1.291-3.646,4.364-6.25,9.219c-2.125,3.958-3.756,6.661-4.891,8.109
		c-1.136,1.447-2.475,2.563-4.016,3.344c-1.542,0.781-3.156,1.172-4.844,1.172c-3.209,0-5.975-1.245-8.297-3.734
		c-2.323-2.49-3.484-5.693-3.484-9.609c0-1.229,0.094-2.386,0.281-3.469c0.104-0.646,0.484-1.984,1.141-4.016
		S15.25,4.01,15.25,3.469c0-0.521-0.156-0.933-0.469-1.234c-0.313-0.303-0.959-0.526-1.938-0.672V0.406h14.531v1.156
		c-3.042,0.541-5.318,1.271-6.828,2.188c-1.511,0.916-2.766,2.317-3.766,4.203c-1,1.885-1.5,3.953-1.5,6.203
		c0,2.604,0.688,4.661,2.063,6.172c1.375,1.51,3,2.266,4.875,2.266c1.041,0,2.094-0.287,3.156-0.859
		c1.063-0.573,2.052-1.464,2.969-2.672c0.625-0.813,1.953-3.031,3.984-6.656s3.65-6.203,4.859-7.734
		c1.208-1.531,2.541-2.693,4-3.484C42.646,0.396,44.25,0,46,0c3.041,0,5.661,1.166,7.859,3.5c2.197,2.333,3.297,5.302,3.297,8.906
		c0,2.25-0.553,4.635-1.656,7.156c-0.521,1.166-0.781,1.989-0.781,2.469c0,0.541,0.161,0.984,0.484,1.328
		c0.322,0.344,0.974,0.619,1.953,0.828V25.344z"/>
	<path fill="#C19694" d="M17.938,49.813c-2.271-2.938-3.584-4.781-3.938-5.531c-0.521-1.125-0.781-2.323-0.781-3.594
		c0-1.979,0.677-3.609,2.031-4.891c1.354-1.281,3.135-1.922,5.344-1.922c1.396,0,2.604,0.313,3.625,0.938
		c1.416,0.854,2.75,2.338,4,4.453c1.25,2.114,2.771,5.63,4.563,10.547h1.125c2.854,0,4.813-0.453,5.875-1.359
		s1.594-2.225,1.594-3.953c0-1.313-0.354-2.354-1.063-3.125c-0.709-0.792-1.521-1.188-2.438-1.188l-1.813,0.063
		c-0.959,0-1.698-0.245-2.219-0.734c-0.521-0.49-0.781-1.131-0.781-1.922c0-0.771,0.271-1.401,0.813-1.891
		c0.541-0.49,1.281-0.734,2.219-0.734c1.791,0,3.438,0.916,4.938,2.75c1.5,1.833,2.25,4.406,2.25,7.719
		c0,2.541-0.428,4.625-1.281,6.25c-0.646,1.229-1.656,2.135-3.031,2.719c-0.896,0.375-2.729,0.563-5.5,0.563H23.75
		c-2.729,0-4.401,0.052-5.016,0.156c-0.615,0.104-1.026,0.275-1.234,0.516c-0.209,0.239-0.313,0.516-0.313,0.828
		c0,0.333,0.072,0.625,0.219,0.875c0.271,0.438,1.031,1.281,2.281,2.531h-1.75c-3.125-2.334-4.688-4.563-4.688-6.688
		c0-1.021,0.354-1.834,1.063-2.438C15.021,50.146,16.229,49.833,17.938,49.813z M19.969,49.813h10.906
		c-1.25-3.146-2.136-5.178-2.656-6.094c-0.917-1.646-1.875-2.823-2.875-3.531c-1-0.709-2.094-1.063-3.281-1.063
		c-1.5,0-2.745,0.447-3.734,1.344c-0.99,0.896-1.484,1.927-1.484,3.094C16.844,45.146,17.885,47.229,19.969,49.813z"/>
	<path fill="#C19694" d="M40.188,73.188H21.375c-2.667,0-4.354,0.291-5.063,0.875c-0.917,0.771-1.375,1.802-1.375,3.094v2.594
		h-1.125V62.656h1.125v1.281c0,0.833,0.208,1.594,0.625,2.281c0.416,0.688,0.979,1.161,1.688,1.422
		c0.708,0.26,2.083,0.391,4.125,0.391h18.813v-5.563h2.25v5.563h1.875c2.854,0,5.271,0.458,7.25,1.375
		c1.979,0.916,3.578,2.317,4.797,4.203c1.219,1.885,1.828,4.005,1.828,6.359c0,2.188-0.709,4.197-2.125,6.031
		c-0.938,1.208-1.99,1.813-3.156,1.813c-0.625,0-1.214-0.271-1.766-0.813c-0.553-0.542-0.828-1.125-0.828-1.75
		c0-0.479,0.172-0.984,0.516-1.516s1.083-1.183,2.219-1.953c1.135-0.771,1.9-1.479,2.297-2.125c0.396-0.646,0.594-1.365,0.594-2.156
		c0-0.959-0.256-1.771-0.766-2.438c-0.511-0.667-1.303-1.146-2.375-1.438c-1.073-0.292-3.839-0.438-8.297-0.438h-2.063v7.375h-2.25
		V73.188z"/>
	<path fill="#C19694" d="M31.656,88.125c-4.25-0.021-7.584,1.01-10,3.094c-2.417,2.083-3.625,4.531-3.625,7.344
		c0,1.875,0.516,3.505,1.547,4.891c1.031,1.385,2.797,2.547,5.297,3.484l-0.625,0.969c-2.854-0.438-5.453-1.709-7.797-3.813
		c-2.344-2.104-3.516-4.74-3.516-7.906c0-3.438,1.338-6.381,4.016-8.828c2.677-2.448,6.275-3.672,10.797-3.672
		c4.896,0,8.713,1.255,11.453,3.766c2.739,2.51,4.109,5.661,4.109,9.453c0,3.208-1.058,5.844-3.172,7.906
		c-2.115,2.063-4.943,3.094-8.484,3.094V88.125z M33.469,88.125v13.25c1.833-0.104,3.125-0.323,3.875-0.656
		c1.166-0.521,2.083-1.297,2.75-2.328c0.666-1.031,1-2.109,1-3.234c0-1.729-0.672-3.276-2.016-4.641
		C37.734,89.15,35.864,88.354,33.469,88.125z"/>
	<path fill="#C19694" d="M51.844,120.031h-9.406v6.688H40.25v-6.688H21.688c-1.854,0-3.104,0.266-3.75,0.797
		c-0.646,0.531-0.969,1.213-0.969,2.047c0,0.688,0.213,1.354,0.641,2c0.427,0.646,1.057,1.146,1.891,1.5v1.219
		c-2.042-0.729-3.578-1.761-4.609-3.094c-1.031-1.334-1.547-2.709-1.547-4.125c0-0.959,0.266-1.896,0.797-2.813
		c0.531-0.917,1.291-1.594,2.281-2.031c0.989-0.438,2.516-0.656,4.578-0.656h19.25v-4.531h1.031
		c0.458,1.146,1.234,2.317,2.328,3.516c1.094,1.197,2.391,2.266,3.891,3.203c0.791,0.479,2.239,1.146,4.344,2V120.031z"/>
	<path fill="#C19694" d="M42.438,127.875v13.344h-1.156v-0.656c0-0.938-0.203-1.641-0.609-2.109s-0.912-0.703-1.516-0.703
		c-0.813,0-1.938,0.344-3.375,1.031l-14.438,6.969l15.813,6.406c0.854,0.354,1.697,0.531,2.531,0.531
		c0.375,0,0.656-0.073,0.844-0.219c0.229-0.167,0.411-0.428,0.547-0.781c0.135-0.354,0.203-0.979,0.203-1.875h1.156v9.313h-1.156
		c-0.084-0.771-0.25-1.365-0.5-1.781c-0.25-0.417-0.719-0.875-1.406-1.375c-0.292-0.188-1.094-0.542-2.406-1.063L8.406,143.25
		c-2.771-1.125-4.864-2.6-6.281-4.422C0.709,137.005,0,135.25,0,133.563c0-1.229,0.354-2.24,1.063-3.031
		c0.709-0.792,1.521-1.188,2.438-1.188c0.875,0,1.578,0.286,2.109,0.859c0.531,0.572,0.797,1.359,0.797,2.359
		c0,0.688-0.229,1.625-0.688,2.813c-0.313,0.833-0.469,1.354-0.469,1.563c0,0.625,0.323,1.307,0.969,2.047
		c0.646,0.739,1.896,1.484,3.75,2.234l4.969,2.031l21.594-10.281c0.646-0.313,1.447-0.813,2.406-1.5
		c0.729-0.521,1.219-0.948,1.469-1.281c0.333-0.479,0.625-1.25,0.875-2.313H42.438z"/>
</g>
</svg>
