<?xml version="1.0" encoding="utf-8"?>
<!-- Generator: Adobe Illustrator 16.0.3, SVG Export Plug-In . SVG Version: 6.00 Build 0)  -->
<!DOCTYPE svg PUBLIC "-//W3C//DTD SVG 1.1//EN" "http://www.w3.org/Graphics/SVG/1.1/DTD/svg11.dtd">
<svg version="1.1" id="圖層_1" xmlns="http://www.w3.org/2000/svg" xmlns:xlink="http://www.w3.org/1999/xlink" x="0px" y="0px"
	 width="112.333px" height="135.333px" viewBox="0 0 112.333 135.333" enable-background="new 0 0 112.333 135.333"
	 xml:space="preserve">
<g>
	<g>
		<polygon fill="none" stroke="#FFFFFF" stroke-width="8" stroke-linecap="round" stroke-linejoin="round" points="56.333,4.878 
			5.106,109.833 56.333,94.272 107.56,109.833 		"/>
		<polygon fill="none" stroke="#FFFFFF" stroke-width="8" stroke-linecap="round" stroke-linejoin="round" points="59.782,64.316 
			54.167,59.168 70.724,38.966 38.084,58.533 44.832,64.316 46.772,65.98 53.057,71.367 37.609,90.381 68.505,72.318 61.595,65.98 
					"/>
		<g>
			<path fill="none" stroke="#FFFFFF" stroke-width="8" stroke-linecap="round" stroke-linejoin="round" d="M19.835,124.106v-2.895
				h7.477v6.844c-0.727,0.703-1.779,1.322-3.158,1.857s-2.775,0.803-4.189,0.803c-1.797,0-3.363-0.377-4.699-1.131
				s-2.34-1.832-3.012-3.234s-1.008-2.928-1.008-4.576c0-1.789,0.375-3.379,1.125-4.77s1.848-2.457,3.293-3.199
				c1.102-0.57,2.473-0.855,4.113-0.855c2.133,0,3.799,0.447,4.998,1.342s1.971,2.131,2.314,3.709l-3.445,0.645
				c-0.242-0.844-0.697-1.51-1.365-1.998s-1.502-0.732-2.502-0.732c-1.516,0-2.721,0.48-3.615,1.441s-1.342,2.387-1.342,4.277
				c0,2.039,0.453,3.568,1.359,4.588s2.094,1.529,3.563,1.529c0.727,0,1.455-0.143,2.186-0.428s1.357-0.631,1.881-1.037v-2.18
				H19.835z"/>
			<path fill="none" stroke="#FFFFFF" stroke-width="8" stroke-linecap="round" stroke-linejoin="round" d="M29.808,121.938
				c0-1.75,0.262-3.219,0.785-4.406c0.391-0.875,0.924-1.66,1.6-2.355s1.416-1.211,2.221-1.547c1.07-0.453,2.305-0.68,3.703-0.68
				c2.531,0,4.557,0.785,6.076,2.355s2.279,3.754,2.279,6.551c0,2.773-0.754,4.943-2.262,6.51s-3.523,2.35-6.047,2.35
				c-2.555,0-4.586-0.779-6.094-2.338S29.808,124.673,29.808,121.938z M33.382,121.821c0,1.945,0.449,3.42,1.348,4.424
				s2.039,1.506,3.422,1.506s2.518-0.498,3.404-1.494s1.33-2.49,1.33-4.482c0-1.969-0.432-3.438-1.295-4.406
				s-2.01-1.453-3.439-1.453s-2.582,0.49-3.457,1.471S33.382,119.845,33.382,121.821z"/>
			<path fill="none" stroke="#FFFFFF" stroke-width="8" stroke-linecap="round" stroke-linejoin="round" d="M59.714,130.423v-14.273
				h-5.098v-2.906h13.652v2.906h-5.086v14.273H59.714z"/>
			<path fill="none" stroke="#FFFFFF" stroke-width="8" stroke-linecap="round" stroke-linejoin="round" d="M69.37,121.938
				c0-1.75,0.262-3.219,0.785-4.406c0.391-0.875,0.924-1.66,1.6-2.355s1.416-1.211,2.221-1.547c1.07-0.453,2.305-0.68,3.703-0.68
				c2.531,0,4.557,0.785,6.076,2.355s2.279,3.754,2.279,6.551c0,2.773-0.754,4.943-2.262,6.51s-3.523,2.35-6.047,2.35
				c-2.555,0-4.586-0.779-6.094-2.338S69.37,124.673,69.37,121.938z M72.944,121.821c0,1.945,0.449,3.42,1.348,4.424
				s2.039,1.506,3.422,1.506s2.518-0.498,3.404-1.494s1.33-2.49,1.33-4.482c0-1.969-0.432-3.438-1.295-4.406
				s-2.01-1.453-3.439-1.453s-2.582,0.49-3.457,1.471S72.944,119.845,72.944,121.821z"/>
			<path fill="none" stroke="#FFFFFF" stroke-width="8" stroke-linecap="round" stroke-linejoin="round" d="M88.741,130.423v-17.18
				h5.566c2.109,0,3.484,0.086,4.125,0.258c0.984,0.258,1.809,0.818,2.473,1.682s0.996,1.979,0.996,3.346
				c0,1.055-0.191,1.941-0.574,2.66s-0.869,1.283-1.459,1.693s-1.189,0.682-1.799,0.814c-0.828,0.164-2.027,0.246-3.598,0.246H92.21
				v6.48H88.741z M92.21,116.149v4.875h1.898c1.367,0,2.281-0.09,2.742-0.27s0.822-0.461,1.084-0.844s0.393-0.828,0.393-1.336
				c0-0.625-0.184-1.141-0.551-1.547s-0.832-0.66-1.395-0.762c-0.414-0.078-1.246-0.117-2.496-0.117H92.21z"/>
		</g>
	</g>
	<g>
		<polygon fill-rule="evenodd" clip-rule="evenodd" points="56.333,4.878 5.106,109.833 56.333,94.272 107.56,109.833 		"/>
		<polygon fill-rule="evenodd" clip-rule="evenodd" fill="#FFC500" points="59.782,64.316 54.167,59.168 70.724,38.966 
			38.084,58.533 44.832,64.316 46.772,65.98 53.057,71.367 37.609,90.381 68.505,72.318 61.595,65.98 		"/>
		<g>
			<path d="M19.835,124.106v-2.895h7.477v6.844c-0.727,0.703-1.779,1.322-3.158,1.857s-2.775,0.803-4.189,0.803
				c-1.797,0-3.363-0.377-4.699-1.131s-2.34-1.832-3.012-3.234s-1.008-2.928-1.008-4.576c0-1.789,0.375-3.379,1.125-4.77
				s1.848-2.457,3.293-3.199c1.102-0.57,2.473-0.855,4.113-0.855c2.133,0,3.799,0.447,4.998,1.342s1.971,2.131,2.314,3.709
				l-3.445,0.645c-0.242-0.844-0.697-1.51-1.365-1.998s-1.502-0.732-2.502-0.732c-1.516,0-2.721,0.48-3.615,1.441
				s-1.342,2.387-1.342,4.277c0,2.039,0.453,3.568,1.359,4.588s2.094,1.529,3.563,1.529c0.727,0,1.455-0.143,2.186-0.428
				s1.357-0.631,1.881-1.037v-2.18H19.835z"/>
			<path d="M29.808,121.938c0-1.75,0.262-3.219,0.785-4.406c0.391-0.875,0.924-1.66,1.6-2.355s1.416-1.211,2.221-1.547
				c1.07-0.453,2.305-0.68,3.703-0.68c2.531,0,4.557,0.785,6.076,2.355s2.279,3.754,2.279,6.551c0,2.773-0.754,4.943-2.262,6.51
				s-3.523,2.35-6.047,2.35c-2.555,0-4.586-0.779-6.094-2.338S29.808,124.673,29.808,121.938z M33.382,121.821
				c0,1.945,0.449,3.42,1.348,4.424s2.039,1.506,3.422,1.506s2.518-0.498,3.404-1.494s1.33-2.49,1.33-4.482
				c0-1.969-0.432-3.438-1.295-4.406s-2.01-1.453-3.439-1.453s-2.582,0.49-3.457,1.471S33.382,119.845,33.382,121.821z"/>
			<path d="M59.714,130.423v-14.273h-5.098v-2.906h13.652v2.906h-5.086v14.273H59.714z"/>
			<path d="M69.37,121.938c0-1.75,0.262-3.219,0.785-4.406c0.391-0.875,0.924-1.66,1.6-2.355s1.416-1.211,2.221-1.547
				c1.07-0.453,2.305-0.68,3.703-0.68c2.531,0,4.557,0.785,6.076,2.355s2.279,3.754,2.279,6.551c0,2.773-0.754,4.943-2.262,6.51
				s-3.523,2.35-6.047,2.35c-2.555,0-4.586-0.779-6.094-2.338S69.37,124.673,69.37,121.938z M72.944,121.821
				c0,1.945,0.449,3.42,1.348,4.424s2.039,1.506,3.422,1.506s2.518-0.498,3.404-1.494s1.33-2.49,1.33-4.482
				c0-1.969-0.432-3.438-1.295-4.406s-2.01-1.453-3.439-1.453s-2.582,0.49-3.457,1.471S72.944,119.845,72.944,121.821z"/>
			<path d="M88.741,130.423v-17.18h5.566c2.109,0,3.484,0.086,4.125,0.258c0.984,0.258,1.809,0.818,2.473,1.682
				s0.996,1.979,0.996,3.346c0,1.055-0.191,1.941-0.574,2.66s-0.869,1.283-1.459,1.693s-1.189,0.682-1.799,0.814
				c-0.828,0.164-2.027,0.246-3.598,0.246H92.21v6.48H88.741z M92.21,116.149v4.875h1.898c1.367,0,2.281-0.09,2.742-0.27
				s0.822-0.461,1.084-0.844s0.393-0.828,0.393-1.336c0-0.625-0.184-1.141-0.551-1.547s-0.832-0.66-1.395-0.762
				c-0.414-0.078-1.246-0.117-2.496-0.117H92.21z"/>
		</g>
	</g>
</g>
</svg>
