<?xml version="1.0" encoding="utf-8"?>
<!-- Generator: Adobe Illustrator 16.0.3, SVG Export Plug-In . SVG Version: 6.00 Build 0)  -->
<!DOCTYPE svg PUBLIC "-//W3C//DTD SVG 1.1//EN" "http://www.w3.org/Graphics/SVG/1.1/DTD/svg11.dtd">
<svg version="1.1" id="文" xmlns="http://www.w3.org/2000/svg" xmlns:xlink="http://www.w3.org/1999/xlink" x="0px" y="0px"
	 width="58.25px" height="190.531px" viewBox="0 0 58.25 190.531" enable-background="new 0 0 58.25 190.531" xml:space="preserve">
<g>
	<path fill="#C19694" d="M36.531,12.063V31.75h12.125c2.166,0,3.594-0.136,4.281-0.406c0.521-0.209,0.969-0.646,1.344-1.313
		c0.5-0.896,0.75-1.844,0.75-2.844v-1.5h1.156v18.125h-1.156v-1.5c0-1-0.24-1.948-0.719-2.844c-0.334-0.667-0.839-1.12-1.516-1.359
		c-0.678-0.24-2.058-0.359-4.141-0.359H21.313c-2.146,0-3.563,0.135-4.25,0.406c-0.521,0.208-0.969,0.635-1.344,1.281
		c-0.5,0.916-0.75,1.875-0.75,2.875v1.5h-1.156V25.688h1.156v1.5c0,1.729,0.51,2.989,1.531,3.781
		c0.666,0.521,2.271,0.781,4.813,0.781h12.906V12.063H21.313c-2.146,0-3.563,0.135-4.25,0.406c-0.521,0.208-0.969,0.646-1.344,1.313
		c-0.5,0.896-0.75,1.844-0.75,2.844v1.531h-1.156V0h1.156v1.5c0,1.75,0.51,3.021,1.531,3.813c0.666,0.5,2.271,0.75,4.813,0.75
		h27.344c2.166,0,3.594-0.136,4.281-0.406c0.521-0.209,0.969-0.636,1.344-1.281c0.5-0.917,0.75-1.875,0.75-2.875V0h1.156v18.156
		h-1.156v-1.531c0-1-0.24-1.948-0.719-2.844c-0.334-0.646-0.839-1.094-1.516-1.344c-0.678-0.25-2.058-0.375-4.141-0.375H36.531z"/>
	<path fill="#C19694" d="M43.281,57h-23c-1.792,0-2.984,0.13-3.578,0.391c-0.594,0.26-1.037,0.646-1.328,1.156
		c-0.292,0.51-0.438,1.442-0.438,2.797h-1.125V47.438h1.125c0,1.396,0.135,2.333,0.406,2.813c0.271,0.479,0.719,0.859,1.344,1.141
		s1.822,0.422,3.594,0.422h11.031c3.104,0,5.114-0.094,6.031-0.281c0.666-0.146,1.13-0.375,1.391-0.688
		c0.26-0.313,0.391-0.74,0.391-1.281c0-0.584-0.156-1.292-0.469-2.125L39.781,47l3.5,8.625V57z M58.25,54.406
		c0,0.875-0.308,1.619-0.922,2.234c-0.615,0.614-1.359,0.922-2.234,0.922s-1.625-0.308-2.25-0.922
		c-0.625-0.615-0.938-1.359-0.938-2.234s0.313-1.625,0.938-2.25s1.375-0.938,2.25-0.938s1.619,0.307,2.234,0.922
		C57.942,52.755,58.25,53.51,58.25,54.406z"/>
	<path fill="#C19694" d="M43.281,83.406h-9.75v-1.031c3.063-0.792,5.146-1.808,6.25-3.047c1.104-1.24,1.656-2.818,1.656-4.734
		c0-1.459-0.386-2.636-1.156-3.531c-0.771-0.896-1.625-1.344-2.563-1.344c-1.167,0-2.167,0.333-3,1
		c-0.854,0.646-1.761,1.958-2.719,3.938l-2.219,4.563c-2.063,4.229-4.781,6.344-8.156,6.344c-2.604,0-4.703-0.984-6.297-2.953
		S12.938,78.438,12.938,76c0-1.75,0.313-3.75,0.938-6c0.208-0.688,0.313-1.25,0.313-1.688c0-0.479-0.271-0.854-0.813-1.125v-1.031
		h10.219v1.031c-2.917,0.583-5.115,1.697-6.594,3.344c-1.479,1.646-2.219,3.489-2.219,5.531c0,1.438,0.422,2.609,1.266,3.516
		s1.859,1.359,3.047,1.359c1.438,0,2.646-0.506,3.625-1.516c0.979-1.011,2.219-3.026,3.719-6.047c1.5-3.021,2.854-5,4.063-5.938
		c1.188-0.938,2.688-1.406,4.5-1.406c2.354,0,4.322,0.807,5.906,2.422c1.583,1.614,2.375,3.703,2.375,6.266
		c0,1.125-0.24,2.489-0.719,4.094c-0.313,1.063-0.469,1.771-0.469,2.125c0,0.333,0.072,0.594,0.219,0.781
		c0.146,0.188,0.469,0.406,0.969,0.656V83.406z"/>
	<path fill="#C19694" d="M51.844,98.125h-9.406v6.688H40.25v-6.688H21.688c-1.854,0-3.104,0.266-3.75,0.797
		c-0.646,0.531-0.969,1.213-0.969,2.047c0,0.688,0.213,1.354,0.641,2c0.427,0.646,1.057,1.146,1.891,1.5v1.219
		c-2.042-0.729-3.578-1.761-4.609-3.094c-1.031-1.334-1.547-2.709-1.547-4.125c0-0.959,0.266-1.896,0.797-2.813
		c0.531-0.917,1.291-1.594,2.281-2.031c0.989-0.438,2.516-0.656,4.578-0.656h19.25v-4.531h1.031
		c0.458,1.146,1.234,2.317,2.328,3.516C44.703,93.15,46,94.219,47.5,95.156c0.791,0.479,2.239,1.146,4.344,2V98.125z"/>
	<path fill="#C19694" d="M43.281,121.594c0,4.333-1.646,7.813-4.938,10.438c-2.813,2.229-6.042,3.344-9.688,3.344
		c-2.563,0-5.156-0.615-7.781-1.844c-2.625-1.229-4.604-2.922-5.938-5.078s-2-4.558-2-7.203c0-4.313,1.719-7.74,5.156-10.281
		c2.896-2.146,6.146-3.219,9.75-3.219c2.625,0,5.234,0.65,7.828,1.953c2.594,1.302,4.51,3.016,5.75,5.141
		C42.661,116.969,43.281,119.219,43.281,121.594z M41.25,120.625c0-1.104-0.328-2.214-0.984-3.328
		c-0.656-1.115-1.808-2.016-3.453-2.703c-1.646-0.688-3.761-1.031-6.344-1.031c-4.167,0-7.761,0.828-10.781,2.484
		c-3.021,1.656-4.531,3.838-4.531,6.547c0,2.021,0.833,3.688,2.5,5c1.666,1.313,4.531,1.969,8.594,1.969
		c5.083,0,9.083-1.094,12-3.281C40.25,124.802,41.25,122.916,41.25,120.625z"/>
	<path fill="#C19694" d="M43.281,147.969h-6.438c4.291,2.396,6.438,4.854,6.438,7.375c0,1.146-0.35,2.094-1.047,2.844
		c-0.698,0.75-1.506,1.125-2.422,1.125c-0.813,0-1.5-0.271-2.063-0.813c-0.563-0.542-0.844-1.188-0.844-1.938
		c0-0.729,0.359-1.547,1.078-2.453s1.078-1.578,1.078-2.016c0-0.375-0.209-0.781-0.625-1.219c-0.854-0.938-2.261-1.906-4.219-2.906
		H20.5c-1.584,0-2.781,0.197-3.594,0.594c-0.563,0.271-1.031,0.75-1.406,1.438s-0.563,1.677-0.563,2.969h-1.125v-14.656h1.125
		c0,1.458,0.229,2.541,0.688,3.25c0.333,0.521,0.864,0.885,1.594,1.094c0.354,0.104,1.364,0.156,3.031,0.156h11.094
		c3.333,0,5.317-0.068,5.953-0.203c0.635-0.136,1.099-0.386,1.391-0.75c0.291-0.365,0.438-0.818,0.438-1.359
		c0-0.646-0.156-1.375-0.469-2.188L39.781,138l3.5,8.656V147.969z"/>
	<path fill="#C19694" d="M42.438,159.281v13.344h-1.156v-0.656c0-0.938-0.203-1.641-0.609-2.109s-0.912-0.703-1.516-0.703
		c-0.813,0-1.938,0.344-3.375,1.031l-14.438,6.969l15.813,6.406c0.854,0.354,1.697,0.531,2.531,0.531
		c0.375,0,0.656-0.073,0.844-0.219c0.229-0.167,0.411-0.428,0.547-0.781c0.135-0.354,0.203-0.979,0.203-1.875h1.156v9.313h-1.156
		c-0.084-0.771-0.25-1.365-0.5-1.781c-0.25-0.417-0.719-0.875-1.406-1.375c-0.292-0.188-1.094-0.542-2.406-1.063L8.406,174.656
		c-2.771-1.125-4.864-2.6-6.281-4.422C0.709,168.411,0,166.656,0,164.969c0-1.229,0.354-2.24,1.063-3.031
		c0.709-0.792,1.521-1.188,2.438-1.188c0.875,0,1.578,0.286,2.109,0.859c0.531,0.572,0.797,1.359,0.797,2.359
		c0,0.688-0.229,1.625-0.688,2.813c-0.313,0.833-0.469,1.354-0.469,1.563c0,0.625,0.323,1.307,0.969,2.047
		c0.646,0.739,1.896,1.484,3.75,2.234l4.969,2.031l21.594-10.281c0.646-0.313,1.447-0.813,2.406-1.5
		c0.729-0.521,1.219-0.948,1.469-1.281c0.333-0.479,0.625-1.25,0.875-2.313H42.438z"/>
</g>
</svg>
