<?xml version="1.0" encoding="utf-8"?>
<!-- Generator: Adobe Illustrator 16.0.3, SVG Export Plug-In . SVG Version: 6.00 Build 0)  -->
<!DOCTYPE svg PUBLIC "-//W3C//DTD SVG 1.1//EN" "http://www.w3.org/Graphics/SVG/1.1/DTD/svg11.dtd">
<svg version="1.1" id="分離模式" xmlns="http://www.w3.org/2000/svg" xmlns:xlink="http://www.w3.org/1999/xlink" x="0px"
	 y="0px" width="57px" height="60px" viewBox="0 0 57 60" enable-background="new 0 0 57 60" xml:space="preserve">
<g>
	<g>
		<path fill="#F4193E" d="M15.219,0L0,15.182h15.219V0z M15.219,0"/>
	</g>
	<g>
		<polygon fill="#F4193E" points="28,0 28,17.532 28,17.545 28,39.729 28,39.729 28,41.436 28,45.189 28,47.285 28,51.248 28,60 
			57,60 57,0 		"/>
		<polygon fill="#FF7098" points="28,19.252 28,0 15,0 15,15 0,15 0,60 28,60 28,53.441 28,51.248 28,45.189 28,39.729 28,36.804 
			28,36.804 28,30.953 28,30.953 28,25.103 28,25.103 28,19.252 		"/>
	</g>
	<g>
		<path fill="#FFFFFF" d="M5.47,45.227v-17.8h5.768c2.186,0,3.61,0.089,4.274,0.267c1.02,0.267,1.873,0.848,2.561,1.743
			c0.688,0.894,1.032,2.05,1.032,3.466c0,1.094-0.198,2.012-0.595,2.757c-0.396,0.744-0.9,1.329-1.512,1.754
			c-0.611,0.425-1.232,0.706-1.863,0.844c-0.858,0.17-2.101,0.255-3.728,0.255H9.064v6.715H5.47z M9.064,30.438v5.051h1.967
			c1.417,0,2.364-0.093,2.841-0.28c0.478-0.186,0.852-0.477,1.123-0.874c0.271-0.397,0.407-0.858,0.407-1.384
			c0-0.647-0.19-1.181-0.57-1.603c-0.381-0.42-0.862-0.684-1.445-0.789c-0.429-0.081-1.292-0.122-2.586-0.122H9.064z"/>
		<path fill="#FFFFFF" d="M22.044,27.427h6.569c1.481,0,2.611,0.113,3.387,0.339c1.044,0.308,1.939,0.855,2.684,1.639
			c0.745,0.786,1.312,1.747,1.7,2.884c0.389,1.138,0.583,2.541,0.583,4.208c0,1.465-0.182,2.728-0.546,3.788
			c-0.446,1.296-1.081,2.344-1.907,3.145c-0.623,0.608-1.465,1.081-2.525,1.421c-0.793,0.25-1.854,0.376-3.181,0.376h-6.763V27.427z
			 M25.638,30.438v11.79h2.683c1.004,0,1.728-0.057,2.173-0.17c0.583-0.146,1.067-0.392,1.451-0.74
			c0.385-0.348,0.698-0.921,0.941-1.719c0.243-0.797,0.365-1.884,0.365-3.26s-0.122-2.433-0.365-3.169
			c-0.243-0.736-0.583-1.312-1.02-1.724c-0.437-0.413-0.992-0.691-1.663-0.837c-0.502-0.113-1.486-0.17-2.951-0.17H25.638z"/>
		<path fill="#FFFFFF" d="M40.039,45.227v-17.8h12.203v3.011h-8.609v4.213h7.431v3.012h-7.431v7.565H40.039z"/>
	</g>
</g>
</svg>
