<?xml version="1.0" encoding="utf-8"?>
<!-- Generator: Adobe Illustrator 16.0.3, SVG Export Plug-In . SVG Version: 6.00 Build 0)  -->
<!DOCTYPE svg PUBLIC "-//W3C//DTD SVG 1.1//EN" "http://www.w3.org/Graphics/SVG/1.1/DTD/svg11.dtd">
<svg version="1.1" id="footer" xmlns="http://www.w3.org/2000/svg" xmlns:xlink="http://www.w3.org/1999/xlink" x="0px" y="0px"
	 width="694.894px" height="590.334px" viewBox="0 0 694.894 590.334" enable-background="new 0 0 694.894 590.334"
	 xml:space="preserve">
<g>
	<rect x="181.792" y="381.334" fill="#C19694" width="356" height="297"/>
	<rect x="87.792" y="460.334" fill="#C19694" width="356" height="218"/>
	<g>
		<path fill="none" stroke="#A86F76" stroke-miterlimit="10" d="M461.72,127.184c-13.367-1.791-21.64-4.265-21.64-7.002
			c0-5.459,32.944-9.882,73.585-9.882c6.147,0,12.118,0.099,17.825,0.292"/>
		<path fill="none" stroke="#A86F76" stroke-miterlimit="10" d="M440.08,201.574c0-5.456,32.944-9.88,73.585-9.88
			c7.499,0,14.734,0.149,21.549,0.43"/>
		<path fill="none" stroke="#A86F76" stroke-miterlimit="10" d="M528.352,85.055c-4.696-0.198-9.84-0.418-14.993-0.418
			c-28.69,0-52.067,2.818-52.067,6.67v13.027"/>
		<path fill="#C19694" d="M534.792,151.057c-7-0.439-14.093-0.688-21.936-0.688c-28.69,0-52.064,2.933-52.064,6.784v30.729
			c0-3.852,23.925-6.783,52.609-6.783c7.453,0,14.391,0.225,21.391,0.623V151.057z"/>
		<path fill="#C19694" d="M534.792,254.217c-7-0.441-13.639-0.69-21.501-0.69c-28.685,0-52.499,2.933-52.499,6.784v-37.313
			c0-3.852,23.263-6.784,51.953-6.784c7.602,0,15.047,0.233,22.047,0.649V254.217z"/>
		<path fill="none" stroke="#A86F76" stroke-miterlimit="10" d="M516.688,105.466c-1.125-0.01-2.254-0.013-3.391-0.013
			c-39.827,0-71.331,4.069-71.331,9.418"/>
		<line fill="none" stroke="#A86F76" stroke-miterlimit="10" x1="461.292" y1="133.334" x2="461.292" y2="151.334"/>
		<path fill="none" stroke="#A86F76" stroke-miterlimit="10" d="M461.72,212.965c-13.367-1.79-21.64-4.264-21.64-6.998
			c0-5.459,32.944-9.885,73.585-9.885c7.602,0,14.932,0.154,21.829,0.443"/>
	</g>
	<rect x="289.792" y="215.334" fill="#C19694" width="62" height="44"/>
	<polyline fill="none" stroke="#A86F76" stroke-miterlimit="10" points="532.792,267.834 185.292,267.834 185.292,364.834 
		527.792,364.834 	"/>
	<g>
		<polyline fill="none" stroke="#A86F76" stroke-width="4" stroke-miterlimit="10" points="535.256,361.834 481.051,411.334 
			457.792,411.334 		"/>
		<polyline fill="none" stroke="#A86F76" stroke-width="4" stroke-miterlimit="10" points="535.256,465.834 481.051,515.334 
			457.792,515.334 		"/>
		<polyline fill="none" stroke="#A86F76" stroke-width="4" stroke-miterlimit="10" points="481.623,410.498 539.818,460.334 
			569.792,460.334 		"/>
		<polyline fill="none" stroke="#A86F76" stroke-width="4" stroke-miterlimit="10" points="481.623,514.498 539.818,564.334 
			569.792,564.334 		"/>
		<polyline fill="none" stroke="#A86F76" stroke-width="4" stroke-miterlimit="10" points="535.256,574.834 481.051,624.334 
			457.792,624.334 		"/>
		<polyline fill="none" stroke="#A86F76" stroke-width="4" stroke-miterlimit="10" points="535.256,793.834 481.051,843.334 
			457.792,843.334 		"/>
		<polyline fill="none" stroke="#A86F76" stroke-width="4" stroke-miterlimit="10" points="481.623,623.499 539.818,673.334 
			569.792,673.334 		"/>
		<polyline fill="none" stroke="#A86F76" stroke-width="4" stroke-miterlimit="10" points="535.43,685.834 481.051,735.334 
			369.792,735.334 		"/>
		<polyline fill="none" stroke="#A86F76" stroke-width="4" stroke-miterlimit="10" points="481.623,734.499 539.818,784.334 
			569.792,784.334 		"/>
	</g>
	<circle fill="#D6D6D6" cx="494.334" cy="336.359" r="15.006"/>
	<circle fill="#D6D6D6" cx="405.368" cy="336.359" r="15.006"/>
	<circle fill="#D6D6D6" cx="320.368" cy="336.359" r="15.006"/>
	<g>
		<path fill="none" stroke="#A86F76" stroke-width="16" stroke-linecap="round" stroke-linejoin="round" stroke-miterlimit="10" d="
			M372.792,259.334v181l-28.203,16c0,0-25.797-11.567-25.797,8.277c0,19.846,0,264.5,0,264.5s0.237,5.766,4.354,10.708
			s7.646,9.06,7.646,27.184s0,66.331,0,66.331"/>
		
			<polyline fill="none" stroke="#A86F76" stroke-width="16" stroke-linecap="round" stroke-linejoin="round" stroke-miterlimit="10" points="
			440.792,268.334 456.792,268.334 456.792,306.334 		"/>
		
			<line fill="none" stroke="#A86F76" stroke-width="16" stroke-linecap="round" stroke-linejoin="round" stroke-miterlimit="10" x1="310.792" y1="249.334" x2="310.792" y2="272.334"/>
		
			<polyline fill="none" stroke="#A86F76" stroke-width="16" stroke-linecap="round" stroke-linejoin="round" stroke-miterlimit="10" points="
			307.792,258.334 266.792,258.334 266.792,284.334 		"/>
		
			<polyline fill="none" stroke="#A86F76" stroke-width="16" stroke-linecap="round" stroke-linejoin="round" stroke-miterlimit="10" points="
			297.792,320.334 197.792,320.334 197.792,400.434 174.685,430.609 		"/>
		
			<line fill="none" stroke="#A86F76" stroke-width="16" stroke-linecap="round" stroke-linejoin="round" stroke-miterlimit="10" x1="237.914" y1="409.083" x2="195.698" y2="451.3"/>
	</g>
	<polyline fill="none" stroke="#A86F76" stroke-width="2" stroke-miterlimit="10" points="398.792,721.334 374.792,721.334 
		374.792,676.334 438.792,676.334 438.792,709.334 	"/>
	<g>
		
			<line fill="none" stroke="#A86F76" stroke-width="2" stroke-miterlimit="10" x1="478.792" y1="427.334" x2="478.792" y2="504.334"/>
		
			<line fill="none" stroke="#A86F76" stroke-width="2" stroke-miterlimit="10" x1="473.792" y1="427.334" x2="473.792" y2="504.334"/>
		
			<line fill="none" stroke="#A86F76" stroke-width="2" stroke-miterlimit="10" x1="468.792" y1="427.334" x2="468.792" y2="504.334"/>
		
			<line fill="none" stroke="#A86F76" stroke-width="2" stroke-miterlimit="10" x1="463.792" y1="427.334" x2="463.792" y2="504.334"/>
	</g>
	<g>
		
			<line fill="none" stroke="#A86F76" stroke-width="2" stroke-miterlimit="10" x1="478.792" y1="529.334" x2="478.792" y2="610.334"/>
		
			<line fill="none" stroke="#A86F76" stroke-width="2" stroke-miterlimit="10" x1="473.792" y1="529.334" x2="473.792" y2="610.334"/>
		
			<line fill="none" stroke="#A86F76" stroke-width="2" stroke-miterlimit="10" x1="468.792" y1="529.334" x2="468.792" y2="610.334"/>
		
			<line fill="none" stroke="#A86F76" stroke-width="2" stroke-miterlimit="10" x1="463.792" y1="529.334" x2="463.792" y2="610.334"/>
	</g>
	<g>
		
			<line fill="none" stroke="#A86F76" stroke-width="2" stroke-miterlimit="10" x1="478.792" y1="635.334" x2="478.792" y2="716.334"/>
		
			<line fill="none" stroke="#A86F76" stroke-width="2" stroke-miterlimit="10" x1="473.792" y1="635.334" x2="473.792" y2="716.334"/>
		
			<line fill="none" stroke="#A86F76" stroke-width="2" stroke-miterlimit="10" x1="468.792" y1="635.334" x2="468.792" y2="716.334"/>
		
			<line fill="none" stroke="#A86F76" stroke-width="2" stroke-miterlimit="10" x1="463.792" y1="635.334" x2="463.792" y2="716.334"/>
	</g>
	<g>
		<polyline fill="none" stroke="#A86F76" stroke-width="2" stroke-miterlimit="10" points="426.792,427.334 426.792,562.334 
			372.792,562.334 372.792,575.334 424.792,575.334 424.792,672.334 		"/>
		<polyline fill="none" stroke="#A86F76" stroke-width="2" stroke-miterlimit="10" points="383.792,669.334 419.792,669.334 
			419.792,582.334 367.792,582.334 367.792,555.334 419.792,555.334 419.792,427.334 		"/>
		<polyline fill="none" stroke="#A86F76" stroke-width="2" stroke-miterlimit="10" points="411.792,393.334 411.792,548.334 
			362.792,548.334 362.792,590.334 411.792,590.334 411.792,662.334 		"/>
		<polyline fill="none" stroke="#A86F76" stroke-width="2" stroke-miterlimit="10" points="404.792,393.334 404.792,540.334 
			357.792,540.334 357.792,595.334 404.792,595.334 404.792,662.334 		"/>
		<polyline fill="none" stroke="#A86F76" stroke-width="2" stroke-miterlimit="10" points="399.792,393.334 399.792,535.334 
			349.792,535.334 349.792,604.334 396.792,604.334 396.792,662.334 		"/>
	</g>
	<g>
		<g>
			
				<polyline fill="none" stroke="#A86F76" stroke-width="2" stroke-linecap="round" stroke-linejoin="round" stroke-miterlimit="10" points="
				1,665.773 27.637,303.695 23.792,300.201 23.792,299.334 40.026,299.334 55.792,299.334 55.792,300.201 51.925,303.695 
				78.464,665.773 			"/>
			
				<polygon fill="none" stroke="#A86F76" stroke-width="2" stroke-linecap="round" stroke-linejoin="round" stroke-miterlimit="10" points="
				54.419,343.334 27.496,316.334 51.943,316.334 25.896,343.334 			"/>
			
				<polygon fill="none" stroke="#A86F76" stroke-width="2" stroke-linecap="round" stroke-linejoin="round" stroke-miterlimit="10" points="
				56.147,373.334 25.961,343.334 53.37,343.334 24.168,373.334 			"/>
			
				<polygon fill="none" stroke="#A86F76" stroke-width="2" stroke-linecap="round" stroke-linejoin="round" stroke-miterlimit="10" points="
				58.643,403.334 23.75,373.334 55.431,373.334 21.673,403.334 			"/>
			
				<polygon fill="none" stroke="#A86F76" stroke-width="2" stroke-linecap="round" stroke-linejoin="round" stroke-miterlimit="10" points="
				60.781,432.334 21.849,403.334 57.199,403.334 19.534,432.334 			"/>
			
				<polygon fill="none" stroke="#A86F76" stroke-width="2" stroke-linecap="round" stroke-linejoin="round" stroke-miterlimit="10" points="
				62.533,462.334 20.292,432.334 58.645,432.334 17.782,462.334 			"/>
			
				<polygon fill="none" stroke="#A86F76" stroke-width="2" stroke-linecap="round" stroke-linejoin="round" stroke-miterlimit="10" points="
				65.762,491.334 17.425,462.334 61.312,462.334 14.556,491.334 			"/>
			
				<polygon fill="none" stroke="#A86F76" stroke-width="2" stroke-linecap="round" stroke-linejoin="round" stroke-miterlimit="10" points="
				66.109,521.334 14.925,491.334 63.638,491.334 11.739,521.334 			"/>
			
				<polygon fill="none" stroke="#A86F76" stroke-width="2" stroke-linecap="round" stroke-linejoin="round" stroke-miterlimit="10" points="
				68.578,551.334 11.739,521.334 66.109,521.334 9.498,551.334 			"/>
			
				<polygon fill="none" stroke="#A86F76" stroke-width="2" stroke-linecap="round" stroke-linejoin="round" stroke-miterlimit="10" points="
				71.537,580.334 11.477,551.334 66.351,551.334 9.01,580.334 			"/>
			
				<polygon fill="none" stroke="#A86F76" stroke-width="2" stroke-linecap="round" stroke-linejoin="round" stroke-miterlimit="10" points="
				73.173,610.334 9.97,580.334 67.714,580.334 7.374,610.334 			"/>
			
				<polygon fill="none" stroke="#A86F76" stroke-width="2" stroke-linecap="round" stroke-linejoin="round" stroke-miterlimit="10" points="
				75.326,640.334 7.987,610.334 69.51,610.334 5.221,640.334 			"/>
		</g>
		
			<line fill="none" stroke="#A86F76" stroke-width="2" stroke-linecap="round" stroke-linejoin="round" stroke-miterlimit="10" x1="28.792" y1="285.334" x2="28.792" y2="297.334"/>
		
			<line fill="none" stroke="#A86F76" stroke-width="2" stroke-linecap="round" stroke-linejoin="round" stroke-miterlimit="10" x1="50.792" y1="285.334" x2="50.792" y2="297.334"/>
	</g>
	<g>
		<path fill="none" stroke="#A86F76" stroke-miterlimit="10" d="M553.054,48.533c-15.05-2.016-24.365-4.803-24.365-7.883
			c0-6.146,37.093-11.127,82.853-11.127s82.853,4.98,82.853,11.127c0,3.135-9.656,5.969-25.19,7.99"/>
		<path fill="none" stroke="#A86F76" stroke-miterlimit="10" d="M528.688,132.295c0-6.146,37.093-11.128,82.853-11.128
			s82.853,4.981,82.853,11.128"/>
		<path fill="none" stroke="#A86F76" stroke-miterlimit="10" d="M668.292,22.334V8.575c0-4.339-25.7-8.075-58-8.075
			s-58,3.301-58,7.639v14.195"/>
		<path fill="#C19694" d="M551.792,116.873c0-4.336,26.317-7.638,58.618-7.638c28.161,0,52.382,2.843,57.382,6.444V82.713
			c0-4.34-25.7-8.075-58-8.075s-58,3.302-58,7.638V116.873z"/>
		<path fill="#C19694" d="M551.792,198.426c0-4.338,26.317-7.639,58.618-7.639c28.161,0,52.382,2.843,57.382,6.443v-40.38
			c0-4.339-25.7-8.075-58-8.075s-58,3.302-58,7.639V198.426z"/>
		<path fill="none" stroke="#A86F76" stroke-miterlimit="10" d="M552.292,385.834h59.454h56.546V206.275
			c0-4.339-25.7-8.074-58-8.074s-58,3.301-58,7.638V385.834z"/>
		<path fill="none" stroke="#A86F76" stroke-miterlimit="10" d="M691.444,35.276c0-6.024-35.472-11.21-80.316-11.21
			c-44.845,0-80.316,4.582-80.316,10.602"/>
		<line fill="none" stroke="#A86F76" stroke-miterlimit="10" x1="552.292" y1="54.334" x2="552.292" y2="74.334"/>
		<line fill="none" stroke="#A86F76" stroke-miterlimit="10" x1="668.292" y1="54.334" x2="668.292" y2="74.334"/>
		<path fill="none" stroke="#A86F76" stroke-miterlimit="10" d="M553.054,145.119c-15.05-2.016-24.365-4.803-24.365-7.882
			c0-6.147,37.093-11.128,82.853-11.128s82.853,4.98,82.853,11.128c0,3.135-9.656,5.968-25.19,7.991"/>
		<rect x="544.292" y="392.834" fill="none" stroke="#A86F76" stroke-miterlimit="10" width="129" height="17"/>
		<g>
			<line fill="none" stroke="#A86F76" stroke-miterlimit="10" x1="553.292" y1="393.334" x2="553.292" y2="410.334"/>
			<line fill="none" stroke="#A86F76" stroke-miterlimit="10" x1="563.292" y1="393.334" x2="563.292" y2="410.334"/>
			<line fill="none" stroke="#A86F76" stroke-miterlimit="10" x1="573.292" y1="393.334" x2="573.292" y2="410.334"/>
			<line fill="none" stroke="#A86F76" stroke-miterlimit="10" x1="584.292" y1="393.334" x2="584.292" y2="410.334"/>
			<line fill="none" stroke="#A86F76" stroke-miterlimit="10" x1="594.292" y1="393.334" x2="594.292" y2="410.334"/>
			<line fill="none" stroke="#A86F76" stroke-miterlimit="10" x1="604.292" y1="393.334" x2="604.292" y2="410.334"/>
			<line fill="none" stroke="#A86F76" stroke-miterlimit="10" x1="615.292" y1="393.334" x2="615.292" y2="410.334"/>
			<line fill="none" stroke="#A86F76" stroke-miterlimit="10" x1="625.292" y1="393.334" x2="625.292" y2="410.334"/>
			<line fill="none" stroke="#A86F76" stroke-miterlimit="10" x1="635.292" y1="393.334" x2="635.292" y2="410.334"/>
			<line fill="none" stroke="#A86F76" stroke-miterlimit="10" x1="646.292" y1="393.334" x2="646.292" y2="410.334"/>
			<line fill="none" stroke="#A86F76" stroke-miterlimit="10" x1="656.292" y1="393.334" x2="656.292" y2="410.334"/>
			<line fill="none" stroke="#A86F76" stroke-miterlimit="10" x1="666.292" y1="393.334" x2="666.292" y2="410.334"/>
		</g>
		<rect x="552.292" y="417.834" fill="none" stroke="#A86F76" stroke-miterlimit="10" width="116" height="457"/>
		<rect x="652.792" y="213.334" fill="#C19694" width="10" height="36"/>
		<rect x="632.792" y="239.334" fill="#C19694" width="10" height="102"/>
		<rect x="611.792" y="256.334" fill="#C19694" width="10" height="102"/>
		<rect x="632.792" y="462.334" fill="#C19694" width="10" height="102"/>
		<rect x="611.792" y="440.334" fill="#C19694" width="10" height="102"/>
	</g>
	<rect x="551.792" y="338.334" fill="#C19694" width="10" height="38"/>
</g>
</svg>
