<?xml version="1.0" encoding="utf-8"?>
<!-- Generator: Adobe Illustrator 16.0.3, SVG Export Plug-In . SVG Version: 6.00 Build 0)  -->
<!DOCTYPE svg PUBLIC "-//W3C//DTD SVG 1.1//EN" "http://www.w3.org/Graphics/SVG/1.1/DTD/svg11.dtd">
<svg version="1.1" id="圖層_2" xmlns="http://www.w3.org/2000/svg" xmlns:xlink="http://www.w3.org/1999/xlink" x="0px" y="0px"
	 width="347.404px" height="41.974px" viewBox="0 0 347.404 41.974" enable-background="new 0 0 347.404 41.974"
	 xml:space="preserve">
<g>
	<g>
		<g>
			<path fill="#FFFFFF" d="M142.192,4.796c0.25,0.165,0.375,0.421,0.375,0.767c-0.105,7.96-0.238,12.504-0.401,13.633
				c-0.07,0.61-0.192,0.915-0.366,0.915c-0.183,0-0.365-0.167-0.548-0.5c-0.249-0.417-0.374-0.842-0.374-1.275
				c0-0.303,0.032-0.575,0.097-0.817c0.139-0.696,0.251-1.71,0.337-3.043c0.097-1.271,0.145-3.414,0.145-6.427
				c0-1.302-0.137-2.226-0.41-2.771c-0.103-0.197-0.153-0.341-0.153-0.432c0-0.182,0.125-0.273,0.374-0.273
				C141.634,4.574,141.942,4.648,142.192,4.796z M154.728,4.286c0.396,0.28,0.593,0.504,0.593,0.672
				c0,0.125-0.057,0.278-0.169,0.458c-0.183,0.5-0.274,1.445-0.274,2.834c0,2.971,0.051,5.203,0.155,6.695
				c0.044,1.085,0.067,2.259,0.067,3.52c0,0.562-0.129,1.067-0.386,1.517c-0.258,0.421-0.503,0.632-0.736,0.632l-0.614-2.4
				c0.082,0,0.139-0.161,0.171-0.481c0.065-0.601,0.098-2.292,0.098-5.07c0-2.166-0.082-4.259-0.247-6.279
				c-0.068-0.757-0.192-1.242-0.37-1.455c-0.151-0.106-0.377-0.16-0.679-0.16c-1.322,0-2.707,0.084-4.154,0.251
				c-1.934,0.195-3.35,0.37-4.247,0.523c-0.474,0.084-0.861,0.126-1.16,0.126c-0.194,0-0.444-0.091-0.748-0.273
				c-0.264-0.167-0.395-0.321-0.395-0.461c0-0.112,0.107-0.168,0.323-0.168c2.992-0.168,5.896-0.406,8.71-0.714
				c0.596-0.056,1.147-0.154,1.655-0.294c0.431-0.112,0.703-0.168,0.817-0.168C153.491,3.593,154.021,3.824,154.728,4.286z
				 M152.454,17.623c0,0,0.222,0.107,0.666,0.321c0.348,0.234,0.521,0.429,0.521,0.584c0,0.107-0.159,0.162-0.476,0.162
				c-1.269,0-2.433,0.036-3.49,0.108l-4.918,0.243c-0.899,0.054-1.587,0.081-2.063,0.081c-0.411,0-0.69-0.075-0.839-0.225
				s-0.224-0.29-0.224-0.42c0-0.187,0.118-0.28,0.354-0.28c2.698-0.077,5.213-0.22,7.544-0.43c1.288-0.095,2.146-0.144,2.576-0.144
				C152.338,17.623,152.454,17.623,152.454,17.623z M147.87,14.064c0.096,0,0.145,0.058,0.145,0.173
				c0,0.037-0.048,0.082-0.144,0.134c-0.392,0.239-0.993,0.568-1.805,0.987c-0.439,0.231-0.96,0.527-1.562,0.885
				c-0.076,0.067-0.143,0.101-0.2,0.101c-0.241,0-0.541-0.146-0.902-0.438c-0.284-0.259-0.426-0.465-0.426-0.616
				c0-0.024,0.04-0.04,0.118-0.046c0.216-0.012,0.427-0.046,0.634-0.101c0.815-0.177,2.01-0.491,3.583-0.942
				C147.624,14.11,147.811,14.064,147.87,14.064z M143.646,10.537c0,0,0.08,0.031,0.241,0.092c0.352,0.123,0.528,0.271,0.528,0.443
				c0,0.134,0.011,0.273,0.033,0.418c0.139,0.889,0.208,1.502,0.208,1.839c0,0.169-0.025,0.303-0.077,0.403
				c-0.051,0.109-0.112,0.164-0.183,0.164c-0.082,0-0.164-0.066-0.245-0.198c-0.123-0.172-0.189-0.354-0.199-0.547l-0.161-0.854
				c-0.063-0.444-0.13-0.756-0.202-0.934c-0.044-0.184-0.161-0.353-0.349-0.507c-0.071-0.042-0.107-0.071-0.107-0.089
				c0-0.154,0.065-0.231,0.196-0.231C143.54,10.537,143.646,10.537,143.646,10.537z M150.109,7.632
				c0.339,0.121,0.509,0.224,0.509,0.31c0,0.138-0.206,0.25-0.617,0.335c-0.517,0.06-0.954,0.119-1.312,0.179
				c-0.318,0.06-1.132,0.208-2.443,0.446c-0.715,0.119-1.232,0.179-1.549,0.179c-0.263,0-0.481-0.026-0.656-0.079
				c-0.262-0.087-0.394-0.184-0.394-0.289c0-0.157,0.206-0.245,0.617-0.262c1.509-0.21,2.977-0.484,4.402-0.821
				c0.419-0.084,0.65-0.126,0.692-0.126C149.483,7.502,149.734,7.546,150.109,7.632z M146.545,9.964c0,0,0.235,0.113,0.706,0.338
				c0.214,0.127,0.321,0.268,0.321,0.423c0,0.117-0.057,0.233-0.171,0.35c-0.127,0.175-0.241,0.418-0.342,0.728l-0.304,0.99
				c-0.085,0.175-0.228,0.263-0.426,0.263c-0.285,0-0.427-0.061-0.427-0.184c0-0.042,0.004-0.126,0.012-0.252
				c0.032-0.335,0.056-0.629,0.072-0.88c0.016-0.272,0.024-0.492,0.024-0.66c0-0.105-0.066-0.158-0.197-0.158
				c-0.148,0-0.337,0.028-0.568,0.083c-0.471,0.099-0.78,0.148-0.928,0.148c-0.14,0-0.279-0.063-0.418-0.189
				c-0.167-0.098-0.251-0.168-0.251-0.21c0-0.084,0.07-0.126,0.21-0.126c0.454-0.038,0.838-0.101,1.154-0.189
				c0.327-0.076,0.644-0.196,0.949-0.361c0.126-0.076,0.222-0.114,0.285-0.114C146.445,9.964,146.545,9.964,146.545,9.964z
				 M146.299,12.489c0,0,0.148,0.071,0.444,0.214c0.231,0.156,0.348,0.286,0.348,0.389c0,0.098-0.033,0.146-0.097,0.146
				c-0.258,0-0.496,0.033-0.711,0.098l-1.002,0.219c-0.184,0.049-0.324,0.073-0.42,0.073c-0.273,0-0.46-0.05-0.559-0.15
				c-0.1-0.1-0.149-0.193-0.149-0.28c0-0.125,0.079-0.187,0.236-0.187c0.448-0.07,0.865-0.2,1.252-0.392
				c0.214-0.087,0.356-0.13,0.428-0.13C146.222,12.489,146.299,12.489,146.299,12.489z M151.425,9.52
				c0.319,0.184,0.479,0.385,0.479,0.603c0,0.088-0.024,0.176-0.072,0.264c-0.262,0.44-0.453,0.77-0.572,0.99
				c-0.453,1.188-0.966,2.178-1.538,2.97c-0.691,1.012-1.479,1.738-2.361,2.178c-0.429,0.264-0.715,0.396-0.858,0.396
				c-0.063,0-0.095-0.031-0.095-0.095c0.882-0.813,1.636-1.67,2.262-2.57c0.483-0.686,0.924-1.542,1.323-2.57
				c0.256-0.643,0.384-1.242,0.384-1.799l-0.11-0.445c0-0.165,0.075-0.248,0.227-0.248C150.745,9.193,151.056,9.302,151.425,9.52z
				 M147.606,5.414c0,0,0.182,0.07,0.548,0.211c0.189,0.077,0.283,0.269,0.283,0.576c0,0.909,0.157,1.914,0.472,3.014
				c0.332,1.18,0.734,2.208,1.207,3.085c0.35,0.733,0.83,1.419,1.442,2.057c0.192,0.223,0.341,0.335,0.446,0.335
				c0.067,0,0.144-0.19,0.23-0.569l0.201-0.871c0.038-0.13,0.076-0.195,0.115-0.195c0.065,0,0.115,0.08,0.147,0.239
				c0.082,1.204,0.263,2.057,0.542,2.56c0.147,0.234,0.221,0.406,0.221,0.516c0,0.254-0.136,0.38-0.407,0.38
				c-0.23,0-0.569-0.135-1.015-0.405c-0.477-0.36-0.884-0.78-1.223-1.26c-0.6-0.81-1.153-1.732-1.66-2.767
				c-0.595-1.298-1.227-3.161-1.894-5.591c-0.087-0.347-0.203-0.611-0.348-0.792c-0.131-0.121-0.196-0.234-0.196-0.34
				c0-0.122,0.119-0.184,0.359-0.184C147.429,5.414,147.606,5.414,147.606,5.414z M150.805,5.931
				c0.529,0.129,0.926,0.272,1.19,0.427c0.233,0.181,0.35,0.427,0.35,0.738c0,0.446-0.184,0.669-0.551,0.669
				c-0.137,0-0.281-0.062-0.435-0.187c-0.291-0.224-0.7-0.697-1.229-1.42c-0.068-0.074-0.102-0.13-0.102-0.168
				c0.025-0.104,0.082-0.157,0.17-0.157C150.385,5.833,150.587,5.866,150.805,5.931z M152.985,18.175
				c0.189,0.026,0.315,0.04,0.378,0.04l0.614,2.4c-0.134,0-0.254-0.106-0.361-0.317c-0.242-0.537-0.55-1.098-0.925-1.683
				c-0.174-0.195-0.261-0.317-0.261-0.366c0-0.102,0.04-0.153,0.12-0.153C152.65,18.095,152.795,18.122,152.985,18.175z"/>
			<path fill="#FFFFFF" d="M167.902,11.806c0.283,0.288,0.425,0.549,0.425,0.783c0,0.158-0.037,0.316-0.11,0.475
				c-0.129,0.158-0.285,0.395-0.469,0.711c-0.442,1.147-1.021,2.175-1.739,3.084c-0.699,0.91-1.5,1.661-2.4,2.253
				c-0.865,0.554-1.592,0.831-2.18,0.831c-0.16,0-0.239-0.028-0.239-0.085c0-0.071,0.074-0.143,0.224-0.214
				c0.802-0.499,1.697-1.318,2.686-2.458c0.989-1.104,1.698-2.191,2.127-3.26c0.354-0.784,0.531-1.497,0.531-2.138
				c0.018-0.33,0.115-0.495,0.292-0.495S167.511,11.464,167.902,11.806z M176,10.512c0.532,0.292,0.798,0.555,0.798,0.791
				c0,0.208-0.367,0.312-1.103,0.312c-0.88-0.026-1.829-0.04-2.846-0.04c-1.063,0-2.451,0.075-4.167,0.224
				c-1.229,0.074-2.542,0.289-3.939,0.643c-0.395,0.112-0.638,0.167-0.729,0.167c-0.238,0-0.596-0.104-1.073-0.311
				c-0.505-0.221-0.757-0.401-0.757-0.54c0-0.166,0.164-0.263,0.492-0.291c1.561-0.017,2.705-0.103,3.433-0.257
				c1.379-0.188,2.896-0.333,4.547-0.437c1.561-0.154,2.758-0.325,3.592-0.514c0.348-0.068,0.568-0.103,0.659-0.103
				C175.006,10.159,175.37,10.277,176,10.512z M165.444,6.808c0.645,0.18,1.129,0.377,1.452,0.593
				c0.285,0.251,0.427,0.593,0.427,1.023c0,0.625-0.257,0.937-0.771,0.937c-0.162,0-0.333-0.086-0.514-0.26
				c-0.343-0.312-0.827-0.969-1.451-1.974c-0.081-0.104-0.121-0.182-0.121-0.233c0.035-0.147,0.115-0.221,0.239-0.221
				C164.932,6.673,165.179,6.718,165.444,6.808z M170.04,3.245c0.439,0.193,0.658,0.458,0.658,0.796
				c0,0.021-0.078,0.113-0.235,0.279c-0.079,0.104-0.196,0.578-0.353,1.424l-0.181,5.632h-1.231l0.034-5.89
				c0-0.425-0.058-0.883-0.173-1.375c-0.017-0.235-0.107-0.425-0.272-0.57c-0.132-0.123-0.198-0.202-0.198-0.235
				c0-0.331,0.179-0.496,0.536-0.496C169.016,2.81,169.488,2.955,170.04,3.245z M171.131,11.704c0.404,0.235,0.606,0.49,0.606,0.764
				c-0.017,0.048-0.067,0.179-0.15,0.395c-0.1,0.191-0.217,0.621-0.35,1.29c-0.101,0.669-0.15,1.35-0.15,2.042
				c0,1.104,0.248,1.855,0.745,2.257c0.479,0.401,1.26,0.602,2.345,0.602c1.207,0,2.051-0.181,2.53-0.541
				c0.632-0.283,1.054-1.467,1.265-3.552c0-0.206,0.029-0.309,0.086-0.309c0.105,0,0.192,0.174,0.263,0.521
				c0.21,1.069,0.446,1.923,0.708,2.564c0.192,0.347,0.289,0.614,0.289,0.801c0,0.41-0.354,0.829-1.061,1.257
				c-0.93,0.546-2.205,0.819-3.823,0.819c-1.545,0-2.657-0.334-3.335-1.004c-0.792-0.733-1.188-1.896-1.188-3.489
				c0-0.491-0.005-1.085-0.014-1.782c-0.01-0.362-0.015-0.698-0.015-1.008c0-0.466-0.057-0.854-0.169-1.165
				c-0.132-0.252-0.198-0.437-0.198-0.554c0-0.213,0.125-0.32,0.375-0.32C170.255,11.292,170.669,11.43,171.131,11.704z
				 M173.62,5.162c0.186,0,0.536,0.175,1.05,0.525c0.56,0.444,0.84,0.748,0.84,0.912c0,0.122-0.11,0.224-0.331,0.305
				c-0.8,0.386-2.068,0.895-3.805,1.526c-0.166,0.061-0.317,0.091-0.455,0.091c-0.065,0-0.099-0.046-0.099-0.138
				c0-0.021,0.047-0.064,0.143-0.129c0.538-0.494,0.996-0.966,1.376-1.417c0.506-0.559,0.854-1.042,1.043-1.45
				C173.445,5.237,173.524,5.162,173.62,5.162z"/>
			<path fill="#FFFFFF" d="M184.669,5.582c0.157,0,0.325,0.206,0.502,0.617c0.118,0.373,0.177,0.706,0.177,1
				c0,0.274-0.119,0.649-0.355,1.125c-0.259,0.493-0.496,0.841-0.711,1.042c-0.172,0.11-0.323,0.165-0.453,0.165
				c-0.183,0-0.364-0.105-0.546-0.316c-0.101-0.172-0.152-0.373-0.152-0.603c0-0.206,0.055-0.374,0.164-0.505
				c0.305-0.374,0.687-1.131,1.145-2.271C184.483,5.666,184.56,5.582,184.669,5.582z M197.764,5.051c0,0,0.27,0.227,0.808,0.681
				c0.628,0.527,0.943,0.908,0.943,1.145c0,0.271-0.263,0.428-0.789,0.468c-0.779,0.108-1.713,0.333-2.803,0.672
				c-0.08,0-0.12-0.04-0.12-0.12c0.791-0.937,1.187-1.493,1.187-1.669c0-0.114-0.131-0.17-0.393-0.17
				c-2.439,0.041-5.857,0.379-10.253,1.013c-0.357,0.041-0.568,0.062-0.631,0.062c-0.417,0-0.723-0.09-0.917-0.271
				c-0.253-0.196-0.38-0.347-0.38-0.452s0.084-0.166,0.252-0.181h0.618c3.17-0.074,6.893-0.417,11.168-1.03
				c0.511-0.098,0.849-0.147,1.012-0.147C197.665,5.051,197.764,5.051,197.764,5.051z M189.242,9.361c0.086,0,0.13,0.034,0.13,0.101
				c0,0.037-0.041,0.101-0.123,0.192c-0.327,0.275-0.735,0.542-1.225,0.798c-0.436,0.257-0.803,0.477-1.102,0.66
				c-0.245,0.129-0.449,0.193-0.612,0.193c-0.133,0-0.352-0.143-0.655-0.428c-0.266-0.304-0.398-0.522-0.398-0.655
				c0-0.07,0.062-0.105,0.185-0.105c0.344,0,0.886-0.069,1.624-0.209c0.738-0.156,1.402-0.322,1.993-0.496
				C189.131,9.378,189.193,9.361,189.242,9.361z M186.241,12.216c0,0,0.11,0.042,0.332,0.126c0.483,0.168,0.725,0.372,0.725,0.61
				c0,0.243,0.019,0.498,0.056,0.762c0.233,1.62,0.35,2.736,0.35,3.35c0,0.232-0.035,0.417-0.105,0.554
				c-0.07,0.15-0.154,0.226-0.252,0.226c-0.112,0-0.225-0.09-0.337-0.272c-0.168-0.237-0.259-0.488-0.273-0.753l-0.236-1.535
				c-0.092-0.799-0.19-1.359-0.295-1.679c-0.066-0.331-0.236-0.634-0.512-0.911c-0.105-0.075-0.157-0.128-0.157-0.16
				c0-0.211,0.09-0.317,0.27-0.317C186.096,12.216,186.241,12.216,186.241,12.216z M195.893,11.909
				c0.363,0.207,0.545,0.362,0.545,0.465c0,0.13-0.051,0.26-0.151,0.39c-0.081,0.151-0.161,0.379-0.241,0.682
				c-0.422,1.494-0.815,2.727-1.177,3.7c-0.281,0.242-0.529,0.362-0.744,0.362c-0.108,0-0.206-0.083-0.292-0.247
				c-0.086-0.165-0.129-0.339-0.129-0.524c0-0.043,0.028-0.142,0.084-0.294c0.113-0.24,0.226-0.849,0.339-1.829
				c0.113-0.762,0.17-1.383,0.17-1.862c0-0.252-0.163-0.378-0.488-0.378c-0.299,0-1.101,0.065-2.407,0.195
				c-1.567,0.155-2.649,0.272-3.247,0.35c-0.373,0.078-0.653,0.117-0.839,0.117c-0.189,0-0.389-0.063-0.599-0.189
				c-0.188-0.147-0.283-0.263-0.283-0.347c0-0.069,0.128-0.116,0.384-0.139c1.504-0.093,3.041-0.255,4.608-0.487
				c1.313-0.209,2.176-0.349,2.593-0.418c0.256-0.07,0.464-0.105,0.624-0.105C194.855,11.35,195.272,11.537,195.893,11.909z
				 M188.569,7.893c0.259,0.241,0.389,0.448,0.389,0.623c0,0.284-0.142,0.425-0.425,0.425c-0.323,0-0.959-0.31-1.908-0.929
				c-0.114-0.075-0.171-0.15-0.171-0.226c0-0.057,0.085-0.091,0.255-0.103c0.291-0.057,0.479-0.086,0.564-0.086
				C187.856,7.597,188.288,7.696,188.569,7.893z M194.951,3.123c0.256,0.112,0.384,0.25,0.384,0.417c0,0.081-0.169,0.145-0.507,0.19
				c-0.392,0.081-1.263,0.185-2.614,0.312c-2.045,0.173-3.379,0.259-4.002,0.259c-0.572,0-0.97-0.064-1.193-0.192
				c-0.223-0.157-0.334-0.292-0.334-0.406c0-0.07,0.246-0.11,0.738-0.122c1.159-0.07,2.434-0.186,3.822-0.349
				c0.966-0.104,1.748-0.215,2.346-0.332c0.211-0.046,0.352-0.069,0.422-0.069C194.254,2.831,194.567,2.929,194.951,3.123z
				 M194.354,13.833c0.374,0.132,0.561,0.246,0.561,0.34c0,0.151-0.227,0.274-0.678,0.369c-0.591,0.051-1.09,0.103-1.499,0.153
				c-0.363,0.051-1.294,0.179-2.792,0.383c-0.817,0.103-1.407,0.154-1.771,0.154c-0.289,0-0.529-0.029-0.722-0.087
				c-0.289-0.096-0.433-0.202-0.433-0.317c0-0.173,0.226-0.27,0.678-0.289c1.728-0.189,3.407-0.434,5.039-0.736
				c0.479-0.076,0.744-0.113,0.792-0.113C193.667,13.691,193.942,13.739,194.354,13.833z M193.461,16.122
				c0,0,0.178,0.085,0.533,0.257c0.278,0.187,0.417,0.343,0.417,0.468c0,0.111-0.091,0.166-0.273,0.166
				c-0.729,0-1.397,0.037-2.005,0.111l-2.825,0.249c-0.517,0.055-0.912,0.083-1.185,0.083c-0.329,0-0.552-0.06-0.671-0.179
				c-0.12-0.12-0.179-0.231-0.179-0.336c0-0.149,0.095-0.224,0.283-0.224c1.501-0.079,2.899-0.228,4.195-0.445
				c0.716-0.099,1.193-0.148,1.432-0.148C193.368,16.122,193.461,16.122,193.461,16.122z M190.591,3.818c0,0,0.167,0.06,0.502,0.178
				c0.35,0.163,0.525,0.349,0.525,0.556c0,0.094-0.015,0.292-0.043,0.596c-0.04,0.374-0.06,0.783-0.06,1.227v3.924
				c0,0.391-0.068,0.707-0.204,0.947c-0.121,0.256-0.272,0.383-0.453,0.383c-0.151,0-0.294-0.166-0.43-0.498
				c-0.106-0.271-0.159-0.498-0.159-0.679c0-0.364,0.015-0.774,0.044-1.229c0.017-0.607,0.025-1.533,0.025-2.777
				c0-0.966-0.053-1.615-0.159-1.948c-0.106-0.287-0.167-0.43-0.182-0.43c0-0.166,0.076-0.249,0.229-0.249
				C190.47,3.818,190.591,3.818,190.591,3.818z M190.49,12.384c0,0,0.17,0.083,0.511,0.247c0.322,0.165,0.483,0.338,0.483,0.521
				c0,0.038-0.044,0.137-0.132,0.299c-0.118,0.348-0.221,1.84-0.309,4.477c0,0.525,0.116,0.878,0.349,1.062
				c0.213,0.182,0.523,0.296,0.931,0.342c0.407,0.091,1.153,0.137,2.238,0.137c0.554,0,1.165-0.083,1.833-0.249
				c0.535-0.213,0.869-0.593,1.002-1.137c0.153-0.402,0.267-0.947,0.344-1.634c0.038-0.189,0.076-0.284,0.114-0.284
				c0.075,0,0.14,0.086,0.196,0.259l0.476,1.517c0.112,0.345,0.243,0.604,0.392,0.777c0.187,0.197,0.28,0.345,0.28,0.444
				c0,0.235-0.104,0.442-0.313,0.623c-0.247,0.253-0.73,0.497-1.451,0.731c-0.797,0.234-1.755,0.352-2.874,0.352
				c-0.913,0-1.702-0.062-2.368-0.186c-0.78-0.145-1.35-0.423-1.711-0.836c-0.286-0.33-0.428-0.918-0.428-1.765
				c0.089-2.439,0.134-3.946,0.134-4.519c0-0.073-0.017-0.228-0.051-0.466c-0.051-0.219-0.085-0.355-0.103-0.41
				c0-0.201,0.107-0.301,0.322-0.301C190.445,12.384,190.49,12.384,190.49,12.384z M194.369,6.673c0.144,0,0.386,0.133,0.727,0.4
				c0.314,0.242,0.472,0.464,0.472,0.668c0,0.083-0.095,0.149-0.284,0.199c-0.344,0.075-0.73,0.187-1.16,0.336
				c-0.774,0.274-1.238,0.412-1.392,0.412c-0.067,0-0.101-0.037-0.101-0.11c0-0.049,0.024-0.079,0.072-0.092
				c0.333-0.229,0.622-0.479,0.867-0.749c0.2-0.21,0.411-0.52,0.633-0.93C194.247,6.718,194.302,6.673,194.369,6.673z
				 M195.106,9.626c0.324,0.285,0.486,0.53,0.486,0.737c0,0.284-0.142,0.425-0.425,0.425c-0.388,0-1.152-0.354-2.293-1.064
				c-0.137-0.086-0.206-0.172-0.206-0.258c0-0.057,0.085-0.091,0.255-0.103c0.291-0.057,0.479-0.086,0.564-0.086
				C194.216,9.277,194.755,9.394,195.106,9.626z"/>
			<path fill="#FFFFFF" d="M212.634,3.166c0.53,0.313,0.795,0.577,0.795,0.792c0,0.125-0.066,0.311-0.197,0.559
				c-0.132,0.373-0.274,0.945-0.427,1.715c-0.417,2.287-0.865,4.188-1.347,5.705c-0.592,1.69-1.457,3.256-2.596,4.698
				c-1.095,1.342-2.311,2.237-3.647,2.685c-0.482,0.199-0.844,0.323-1.084,0.373c-0.171,0-0.257-0.043-0.257-0.128
				c0-0.127,0.159-0.279,0.476-0.456c1.608-1.267,2.718-2.293,3.33-3.078c0.657-0.811,1.291-1.9,1.903-3.269
				c0.453-1.039,0.86-2.369,1.223-3.991c0.272-1.267,0.431-2.546,0.476-3.838c0-0.529-0.059-0.989-0.177-1.381
				c-0.079-0.216-0.117-0.363-0.117-0.441c0.098-0.255,0.265-0.382,0.5-0.382C211.721,2.726,212.104,2.873,212.634,3.166z
				 M218.205,7.468c0.623,0.371,0.935,0.699,0.935,0.982c0,0.138-0.102,0.346-0.304,0.623c-0.253,0.415-0.468,1.199-0.646,2.352
				c-0.354,2.675-0.671,4.496-0.949,5.464c-0.431,1.43-0.988,2.398-1.671,2.905c-0.43,0.323-0.772,0.484-1.025,0.484l-0.128-2.48
				c0.247,0,0.463-0.188,0.649-0.563c0.463-0.75,0.88-2.138,1.251-4.164c0.278-1.576,0.417-2.927,0.417-4.052
				c0-0.428-0.288-0.643-0.864-0.643c-0.621,0-1.582,0.118-2.883,0.354c-1.479,0.283-2.958,0.661-4.436,1.134
				c-0.384,0.095-0.666,0.142-0.843,0.142c-0.304,0-0.64-0.122-1.008-0.366c-0.369-0.222-0.553-0.4-0.553-0.533
				c0.065-0.111,0.218-0.167,0.459-0.167c1.096-0.038,2.671-0.266,4.727-0.685c2.247-0.381,3.973-0.78,5.179-1.199
				c0.274-0.076,0.452-0.114,0.534-0.114C217.174,6.944,217.561,7.119,218.205,7.468z M214.416,17.799l0.128,2.48
				c-0.209,0-0.408-0.222-0.598-0.667c-0.361-0.706-0.864-1.477-1.509-2.313c0-0.085,0.03-0.128,0.092-0.128
				C213.495,17.59,214.124,17.799,214.416,17.799z"/>
			<path fill="#FFFFFF" d="M227.188,4.973c0,0,0.199,0.094,0.596,0.284c0.307,0.151,0.46,0.321,0.46,0.51
				c0,0.092-0.042,0.23-0.124,0.414c-0.109,0.46-0.178,0.951-0.205,1.472l-0.042,2.807c-0.027,1.38-0.151,2.654-0.37,3.819
				c-0.219,1.135-0.507,2.056-0.863,2.761c-0.302,0.675-0.781,1.319-1.438,1.933c-0.631,0.521-1.028,0.782-1.192,0.782
				c-0.086,0-0.13-0.034-0.13-0.101c0.808-0.982,1.38-1.831,1.716-2.545c0.438-0.893,0.74-1.905,0.909-3.037
				c0.236-1.131,0.354-2.381,0.354-3.751V8.801c0-0.9-0.04-1.63-0.12-2.189c-0.016-0.341-0.071-0.652-0.167-0.932
				c-0.127-0.217-0.191-0.357-0.191-0.419c0-0.192,0.116-0.289,0.347-0.289C227.035,4.973,227.188,4.973,227.188,4.973z
				 M231.456,5.036c0.365,0.24,0.548,0.437,0.548,0.591c0,0.12-0.053,0.265-0.157,0.435c-0.174,0.41-0.262,1.16-0.262,2.25
				c0,2.446,0.017,4.268,0.051,5.466c0.033,0.912,0.05,1.918,0.05,3.021c0,0.869-0.141,1.542-0.422,2.02
				c-0.333,0.511-0.624,0.767-0.87,0.767l-0.548-1.978c0.161,0,0.294-0.136,0.402-0.407c0.161-0.61,0.241-2.374,0.241-5.291
				c0-1.37-0.026-3.164-0.078-5.379c-0.018-0.408-0.052-0.656-0.104-0.744c-0.086-0.117-0.199-0.175-0.338-0.175
				c-0.079,0-0.307,0.027-0.683,0.082c-0.613,0.136-1.049,0.244-1.306,0.326c-0.119,0.054-0.198,0.081-0.237,0.081
				c-0.135,0-0.295-0.069-0.48-0.209c-0.152-0.139-0.228-0.252-0.228-0.339c0-0.061,0.056-0.099,0.168-0.114
				c0.524-0.061,1.142-0.175,1.854-0.342c0.487-0.151,0.871-0.288,1.152-0.41c0.187-0.076,0.29-0.114,0.309-0.114
				C230.638,4.574,230.951,4.728,231.456,5.036z M230.515,11.355c0.086,0,0.13,0.034,0.13,0.101c0,0.053-0.027,0.147-0.082,0.28
				c-0.219,0.401-0.493,0.788-0.821,1.162c-0.292,0.374-0.539,0.694-0.74,0.961c-0.164,0.187-0.301,0.281-0.411,0.281
				c-0.133,0-0.352-0.143-0.655-0.428c-0.266-0.304-0.398-0.522-0.398-0.655c0-0.138,0.046-0.207,0.138-0.207
				c0.257,0,0.662-0.137,1.213-0.413c0.551-0.309,1.047-0.636,1.489-0.98C230.433,11.39,230.479,11.355,230.515,11.355z
				 M229.258,8.347c0.505,0.129,0.834,0.258,0.987,0.387c0.153,0.145,0.23,0.289,0.23,0.433c0,0.508-0.223,0.761-0.669,0.761
				c-0.285,0-0.662-0.228-1.13-0.685c-0.536-0.509-0.804-0.825-0.804-0.948c0-0.077,0.057-0.12,0.17-0.131
				C228.378,8.164,228.784,8.225,229.258,8.347z M228.696,17.21c0.688,0.266,1.071,0.398,1.149,0.398l0.548,1.978
				c-0.098,0-0.212-0.098-0.343-0.292c-0.49-0.648-0.963-1.224-1.42-1.726c-0.18-0.162-0.27-0.268-0.27-0.316
				c0-0.067,0.034-0.101,0.101-0.101C228.493,17.15,228.571,17.17,228.696,17.21z M238.573,11.104c0,0,0.274,0.122,0.824,0.365
				c0.275,0.167,0.413,0.35,0.413,0.548c0,0.094-0.056,0.207-0.167,0.338c-0.279,0.319-0.481,0.61-0.606,0.872
				c-0.781,1.839-1.52,3.087-2.216,3.744c-0.613,0.582-1.429,1.088-2.446,1.52c-0.906,0.394-1.617,0.591-2.133,0.591
				c-0.42,0-0.63-0.063-0.63-0.189c0-0.02,0.062-0.048,0.184-0.086c0.968-0.328,1.821-0.732,2.558-1.213
				c0.887-0.577,1.535-1.174,1.944-1.79c0.409-0.578,0.757-1.271,1.043-2.079c0.218-0.654,0.328-1.087,0.328-1.299
				c0-0.115-0.074-0.173-0.221-0.173c-0.108,0-0.251,0.038-0.431,0.112l-1.401,0.448c-0.503,0.187-0.827,0.28-0.97,0.28
				c-0.273,0-0.562-0.105-0.865-0.316c-0.243-0.15-0.364-0.271-0.364-0.361c0-0.1,0.113-0.15,0.339-0.15
				c1.017-0.125,1.808-0.262,2.373-0.412c0.701-0.2,1.299-0.413,1.797-0.638c0.181-0.075,0.305-0.112,0.373-0.112
				C238.481,11.104,238.573,11.104,238.573,11.104z M234.454,4.637c0,0,0.217,0.094,0.65,0.284c0.335,0.151,0.503,0.321,0.503,0.51
				c0,0.04-0.026,0.101-0.078,0.18c-0.07,0.201-0.114,0.415-0.131,0.642l-0.026,1.222c-0.018,0.602-0.096,1.156-0.235,1.664
				c-0.14,0.495-0.323,0.896-0.549,1.203c-0.192,0.294-0.497,0.574-0.916,0.841c-0.401,0.228-0.654,0.341-0.758,0.341
				c-0.086,0-0.13-0.034-0.13-0.101c0.39-0.453,0.667-0.844,0.829-1.173c0.211-0.411,0.357-0.878,0.439-1.399
				c0.113-0.521,0.17-1.098,0.17-1.729v-0.7c0-0.38-0.051-0.689-0.154-0.925c-0.021-0.144-0.093-0.275-0.216-0.394
				c-0.165-0.092-0.247-0.151-0.247-0.177c0-0.192,0.116-0.289,0.347-0.289C234.286,4.637,234.454,4.637,234.454,4.637z
				 M234.231,12.477c0.327,0.256,0.841,0.87,1.542,1.842c0.825,1.075,1.658,1.907,2.5,2.496c1.043,0.921,2.764,1.714,5.162,2.379
				c0.265,0.077,0.397,0.192,0.397,0.346c0,0.08-0.123,0.159-0.367,0.239c-1.317,0.375-2.397,0.563-3.239,0.563
				c-0.444,0-0.819-0.129-1.125-0.388c-0.505-0.353-1.975-2.291-4.41-5.815c-0.353-0.47-0.728-0.846-1.125-1.128
				c-0.322-0.165-0.482-0.353-0.482-0.564c0-0.159,0.142-0.239,0.426-0.239C233.756,12.208,233.998,12.298,234.231,12.477z
				 M238.876,4.29c0.381,0.193,0.572,0.368,0.572,0.522c0,0.136-0.061,0.338-0.182,0.609c-0.46,1.049-0.69,1.929-0.69,2.64
				c0,0.452,0.089,0.765,0.268,0.938c0.148,0.139,0.356,0.208,0.623,0.208c0.314,0,0.668-0.072,1.061-0.217
				c0.235-0.125,0.402-0.187,0.501-0.187c0.458,0,0.879,0.1,1.265,0.3c0.241,0.14,0.361,0.31,0.361,0.509
				c0,0.216-0.157,0.382-0.47,0.5c-0.448,0.157-1.042,0.235-1.781,0.235c-1.121,0-1.884-0.166-2.288-0.497
				c-0.404-0.356-0.605-0.916-0.605-1.679c0-0.373,0-0.829,0-1.369c0.103-0.498,0.155-0.892,0.155-1.182
				c0-0.368-0.104-0.551-0.313-0.551c-0.159,0-0.396,0.028-0.714,0.085c-0.793,0.2-1.299,0.3-1.517,0.3
				c-0.175,0-0.349-0.057-0.524-0.169c-0.116-0.038-0.174-0.104-0.174-0.198c0-0.087,0.107-0.152,0.322-0.196
				c0.742-0.152,1.561-0.424,2.458-0.816c0.254-0.109,0.419-0.163,0.498-0.163C238.003,3.913,238.394,4.039,238.876,4.29z"/>
			<path fill="#FFFFFF" d="M251.324,4.07c0.609,0.399,0.913,0.745,0.913,1.039c0,0.115-0.095,0.248-0.285,0.4
				c-0.167,0.229-0.345,0.515-0.535,0.857c-0.856,1.563-1.712,2.859-2.568,3.888c-0.689,0.838-1.474,1.563-2.354,2.172
				c-0.594,0.419-0.986,0.629-1.177,0.629c-0.105,0-0.157-0.026-0.157-0.079c0-0.072,0.075-0.161,0.225-0.268
				c0.802-0.786,1.604-1.732,2.405-2.84c0.727-1,1.391-2.143,1.992-3.429c0.376-0.786,0.563-1.518,0.563-2.197
				c0-0.284,0.095-0.425,0.284-0.425C250.799,3.818,251.03,3.902,251.324,4.07z M249.704,9.43c0.38,0.489,0.57,0.818,0.57,0.986
				c0,0.087-0.039,0.328-0.114,0.722c-0.092,0.526-0.138,1.85-0.138,3.973l-0.073,3.415c0,0.289-0.084,0.67-0.252,1.143
				c-0.107,0.351-0.229,0.526-0.367,0.526c-0.184,0-0.352-0.197-0.504-0.591c-0.26-0.592-0.389-1.009-0.389-1.251
				c0.021-0.141,0.093-0.457,0.219-0.95c0.291-0.96,0.437-3.011,0.437-6.152c0-0.729-0.115-1.451-0.346-2.166
				c0-0.152,0.106-0.228,0.319-0.228C249.157,8.857,249.37,9.048,249.704,9.43z M254.994,6.552c0.366,0.278,0.542,0.499,0.528,0.661
				c0,0.092-0.031,0.185-0.093,0.278c-0.557,0.556-1.006,1.065-1.346,1.528c-0.526,0.695-1.083,1.296-1.671,1.806
				c-0.372,0.324-0.82,0.602-1.346,0.833c-0.155,0.092-0.279,0.139-0.372,0.139c-0.131,0-0.197-0.04-0.197-0.118
				c1.494-1.606,2.391-2.738,2.69-3.397c0.298-0.494,0.467-1.132,0.504-1.915c0.023-0.131,0.105-0.197,0.247-0.197
				C254.149,6.169,254.5,6.297,254.994,6.552z M255.917,12.462c0.374,0.214,0.561,0.413,0.561,0.597
				c-0.026,0.077-0.06,0.147-0.099,0.21c-0.092,0.153-0.191,0.401-0.296,0.745c-0.408,0.98-0.816,1.789-1.224,2.426
				c-0.368,0.586-0.796,1.07-1.283,1.452c-0.513,0.42-1.02,0.732-1.52,0.937c-0.329,0.127-0.559,0.191-0.69,0.191
				c-0.115,0-0.173-0.034-0.173-0.101c0.69-0.517,1.176-0.939,1.459-1.268c0.37-0.34,0.739-0.833,1.108-1.476
				c0.283-0.517,0.517-1.091,0.702-1.722c0.16-0.504,0.24-0.902,0.24-1.192c0-0.198-0.008-0.358-0.023-0.48
				c-0.062-0.214-0.093-0.359-0.093-0.435c0.063-0.198,0.171-0.297,0.327-0.297C255.115,12.048,255.45,12.186,255.917,12.462z
				 M260.745,11.085c0.489,0.318,0.734,0.599,0.734,0.842c0,0.097-0.073,0.242-0.219,0.435c-0.182,0.29-0.337,0.838-0.465,1.644
				c-0.256,1.87-0.484,3.143-0.684,3.819c-0.311,0.999-0.711,1.676-1.204,2.031c-0.311,0.226-0.556,0.338-0.739,0.338l-0.101-1.949
				c0.162,0,0.304-0.125,0.426-0.374c0.304-0.499,0.578-1.42,0.822-2.766c0.182-1.046,0.273-1.943,0.273-2.691
				c0-0.367-0.227-0.551-0.679-0.551c-0.376,0-0.958,0.067-1.747,0.202c-0.896,0.161-1.792,0.377-2.688,0.646
				c-0.233,0.054-0.403,0.081-0.511,0.081c-0.26,0-0.548-0.104-0.864-0.313c-0.316-0.19-0.474-0.343-0.474-0.457
				c0.056-0.095,0.188-0.143,0.394-0.143c0.715-0.023,1.744-0.166,3.085-0.426c1.467-0.237,2.593-0.486,3.38-0.747
				c0.179-0.047,0.295-0.071,0.349-0.071C259.935,10.636,260.239,10.786,260.745,11.085z M255.311,3.253
				c0,0,0.131,0.021,0.394,0.062c0.858,0.11,1.471,0.434,1.839,0.971c1.401,1.736,2.338,2.762,2.812,3.079
				c0.858,0.606,1.664,1.047,2.417,1.323l1.603,0.62c0.565,0.269,0.848,0.432,0.848,0.489c0,0.127-0.042,0.205-0.128,0.233
				c-0.853,0.113-1.747,0.17-2.685,0.17c-0.157,0-0.375-0.014-0.652-0.042c-0.296-0.069-0.574-0.235-0.835-0.497
				c-0.54-0.456-1.827-2.03-3.862-4.724c-0.313-0.373-0.835-0.615-1.565-0.725c-0.402-0.139-0.603-0.354-0.603-0.646
				c0-0.208,0.104-0.313,0.313-0.313C255.275,3.253,255.311,3.253,255.311,3.253z M258.067,18.246l0.101,1.949
				c-0.224,0-0.437-0.168-0.64-0.503c-0.386-0.533-0.925-1.116-1.616-1.747c0-0.067,0.024-0.101,0.072-0.101
				C257.051,18.112,257.745,18.246,258.067,18.246z"/>
			<path fill="#FFFFFF" d="M276.509,2.841c0.407,0.234,0.611,0.451,0.611,0.651c-0.048,0.16-0.109,0.307-0.181,0.44
				c-0.17,0.321-0.351,0.842-0.545,1.563c-0.75,2.057-1.5,3.753-2.25,5.089c-0.678,1.229-1.464,2.244-2.359,3.046
				c-0.944,0.882-1.875,1.536-2.795,1.963c-0.605,0.268-1.029,0.401-1.271,0.401c-0.126,0-0.189-0.037-0.189-0.11
				c1.504-1.113,2.564-2.022,3.182-2.728c0.806-0.733,1.611-1.791,2.417-3.175c0.618-1.113,1.128-2.348,1.531-3.705
				c0.349-1.086,0.523-1.94,0.523-2.565c0-0.216-0.008-0.391-0.025-0.524c-0.067-0.233-0.101-0.391-0.101-0.474
				c0.068-0.216,0.187-0.324,0.357-0.324C275.634,2.39,276,2.541,276.509,2.841z M283.637,5.738c0.586,0.367,0.879,0.647,0.879,0.84
				c-0.018,0.192-0.293,0.297-0.827,0.315c-2.01,0.053-4.307,0.227-6.891,0.521c-1.462,0.161-3.393,0.467-5.795,0.921
				c-0.47,0.107-0.757,0.16-0.861,0.16c-0.366,0-0.732-0.097-1.098-0.291c-0.436-0.176-0.654-0.343-0.654-0.502
				c0-0.07,0.164-0.141,0.492-0.211c4.813-0.6,8.765-1.164,11.854-1.692c1.081-0.216,1.763-0.324,2.046-0.324
				C282.873,5.475,283.157,5.563,283.637,5.738z M274.441,10.772c0.47,0.192,0.705,0.401,0.705,0.627
				c0,0.07-0.024,0.201-0.071,0.393c-0.031,0.261-0.047,0.427-0.047,0.497l0.001,0.432c0,1.445-0.065,2.541-0.194,3.288
				c-0.093,0.905-0.426,1.77-1,2.595c-0.315,0.501-0.806,0.973-1.474,1.416c-0.445,0.285-0.732,0.427-0.861,0.427
				c-0.092,0-0.138-0.04-0.138-0.118c0.971-1.007,1.622-2.057,1.952-3.152c0.33-0.87,0.496-2.355,0.496-4.457
				c-0.092-0.932-0.267-1.486-0.524-1.663c-0.203-0.118-0.304-0.187-0.304-0.206c0-0.21,0.165-0.315,0.496-0.315
				C273.685,10.537,274.006,10.615,274.441,10.772z M280.575,10.117c0.398,0.262,0.597,0.477,0.597,0.645
				c0,0.13-0.057,0.289-0.171,0.474c-0.19,0.447-0.286,1.265-0.286,2.455c0,1.337,0.019,2.333,0.055,2.989
				c0.037,0.498,0.055,1.048,0.055,1.651c0,0.948-0.166,1.682-0.496,2.203c-0.392,0.558-0.733,0.836-1.021,0.836l-0.599-2.157
				c0.202,0,0.371-0.091,0.505-0.273c0.202-0.409,0.303-1.59,0.303-3.544c0-1.012-0.028-2.335-0.085-3.972
				c-0.019-0.301-0.057-0.484-0.113-0.549c-0.095-0.086-0.218-0.129-0.369-0.129c-0.154,0-0.597,0.029-1.328,0.087
				c-1.193,0.146-2.04,0.263-2.541,0.35c-0.231,0.058-0.385,0.087-0.462,0.087c-0.147,0-0.321-0.076-0.523-0.228
				c-0.166-0.152-0.248-0.275-0.248-0.37c0-0.066,0.092-0.107,0.276-0.124c0.858-0.066,1.869-0.188,3.034-0.37
				c0.797-0.165,1.425-0.313,1.885-0.444c0.307-0.082,0.475-0.124,0.505-0.124C279.683,9.613,280.024,9.781,280.575,10.117z
				 M279.034,14.912c0.408,0.145,0.611,0.269,0.611,0.372c0,0.166-0.247,0.3-0.74,0.403c-0.329,0.03-0.607,0.061-0.834,0.091
				c-0.203,0.03-0.721,0.106-1.555,0.228c-0.455,0.061-0.784,0.091-0.986,0.091c-0.315,0-0.577-0.031-0.787-0.094
				c-0.315-0.105-0.473-0.221-0.473-0.347c0-0.189,0.247-0.294,0.74-0.315c0.925-0.129,1.825-0.297,2.699-0.505
				c0.257-0.052,0.398-0.078,0.424-0.078C278.283,14.757,278.583,14.809,279.034,14.912z M279.034,12.476
				c0.408,0.145,0.611,0.269,0.611,0.372c0,0.166-0.247,0.3-0.74,0.403c-0.32,0.03-0.592,0.061-0.813,0.091
				c-0.197,0.03-0.703,0.106-1.516,0.228c-0.444,0.061-0.764,0.091-0.961,0.091c-0.315,0-0.577-0.031-0.787-0.094
				c-0.315-0.105-0.473-0.221-0.473-0.347c0-0.189,0.247-0.294,0.74-0.315c0.9-0.129,1.776-0.297,2.626-0.505
				c0.25-0.052,0.388-0.078,0.413-0.078C278.283,12.321,278.583,12.373,279.034,12.476z M277.324,19.118
				c0.83,0.063,1.292,0.096,1.386,0.096l0.599,2.157c-0.115,0-0.249-0.09-0.401-0.27c-0.573-0.6-1.126-1.131-1.661-1.596
				c-0.21-0.15-0.315-0.248-0.315-0.292c0-0.074,0.037-0.11,0.11-0.11C277.079,19.103,277.173,19.107,277.324,19.118z"/>
			<path fill="#FFFFFF" d="M291.579,5.161c0.38,0.167,0.571,0.385,0.571,0.653c-0.104,1.004-0.156,1.929-0.156,2.775
				c0,3.23-0.104,6.085-0.313,8.563c0,1.003-0.104,1.741-0.313,2.211c-0.163,0.387-0.31,0.58-0.44,0.58
				c-0.147,0-0.318-0.197-0.514-0.592c-0.229-0.542-0.343-0.954-0.343-1.233c0-0.132,0.069-0.462,0.208-0.99
				c0.277-1.275,0.451-2.551,0.52-3.826c0.069-1.583,0.104-3.408,0.104-5.475c0-0.972-0.09-1.689-0.271-2.15
				c-0.115-0.198-0.172-0.338-0.172-0.42c0-0.214,0.083-0.33,0.248-0.346C291.023,4.91,291.313,4.994,291.579,5.161z M295.464,4.58
				c0.346,0.196,0.519,0.384,0.519,0.563c0,0.14-0.108,0.323-0.323,0.55c-0.801,0.75-1.329,1.353-1.583,1.806
				c-0.118,0.209-0.176,0.41-0.176,0.602c0,0.15,0.083,0.375,0.249,0.674c0.91,1.434,1.366,2.408,1.366,2.921
				c0,0.356-0.116,0.664-0.348,0.922c-0.249,0.292-0.48,0.437-0.696,0.437l-0.72-1.387c0.232,0,0.349-0.162,0.349-0.487
				c0-0.654-0.22-1.444-0.66-2.37c-0.22-0.293-0.33-0.53-0.33-0.711c0-0.284,0.214-0.915,0.642-1.892
				c0.114-0.231,0.171-0.408,0.171-0.533c0-0.11-0.043-0.166-0.129-0.166c-0.156,0-0.351,0.035-0.585,0.104
				c-0.78,0.163-1.267,0.245-1.462,0.245c-0.256,0-0.455-0.034-0.599-0.102c-0.128-0.067-0.191-0.144-0.191-0.229
				c0-0.087,0.137-0.166,0.412-0.236c0.924-0.228,1.723-0.526,2.396-0.894c0.225-0.14,0.412-0.21,0.562-0.21
				C294.609,4.188,294.987,4.319,295.464,4.58z M293.752,11.66l0.735,1.396c-0.095,0-0.256-0.096-0.484-0.288
				c-0.551-0.499-1.064-0.892-1.539-1.18c0-0.085,0.03-0.128,0.092-0.128L293.752,11.66z M297.928,4.727
				c0.413,0.172,0.619,0.408,0.619,0.708c-0.069,1.726-0.196,3.954-0.38,6.686c-0.139,2.876-0.208,4.602-0.208,5.177
				c0,0.11,0.085,0.166,0.257,0.166c0.022,0,0.723-0.362,2.102-1.085c0.158-0.087,0.271-0.13,0.339-0.13
				c0.085,0,0.128,0.049,0.128,0.147c0,0.048-0.057,0.144-0.171,0.287c-1.325,1.434-2.193,2.401-2.604,2.903
				c-0.183,0.239-0.309,0.358-0.377,0.358c-0.24,0-0.447-0.12-0.622-0.36c-0.284-0.458-0.425-0.84-0.425-1.146
				c0-0.101,0.057-0.302,0.171-0.604c0.137-0.402,0.217-1.106,0.24-2.113c0.068-1.71,0.125-3.169,0.171-4.377
				c0-0.922-0.032-2.2-0.096-3.833c-0.043-1.136-0.15-1.846-0.322-2.13c-0.107-0.213-0.182-0.39-0.225-0.532
				c0-0.126,0.022-0.231,0.065-0.315c0.086-0.084,0.185-0.126,0.293-0.126C297.102,4.406,297.449,4.513,297.928,4.727z
				 M301.967,3.739c0,0,0.344,0.163,1.031,0.488c0.505,0.3,0.758,0.547,0.758,0.743c0,0.099-0.047,0.226-0.141,0.382
				c-0.188,0.241-0.354,0.679-0.495,1.315l-0.896,3.606c-0.142,0.455-0.404,0.683-0.786,0.683c-0.199,0-0.369-0.245-0.51-0.733
				c0-0.057,0.037-0.186,0.109-0.386c0.145-0.372,0.3-1.159,0.463-2.36c0.127-0.858,0.191-1.602,0.191-2.231
				c0-0.294-0.114-0.441-0.341-0.441c-0.17,0-0.802,0.11-1.895,0.329c-0.592,0.146-1.179,0.219-1.76,0.219
				c-0.404,0-0.606-0.189-0.606-0.569c1.394-0.069,2.671-0.334,3.832-0.794c0.422-0.167,0.708-0.25,0.855-0.25
				C301.904,3.739,301.967,3.739,301.967,3.739z M301.317,6.947c0.374,0.132,0.561,0.246,0.561,0.34
				c0,0.151-0.227,0.274-0.678,0.369c-0.23,0.032-0.426,0.065-0.585,0.097c-0.142,0.033-0.505,0.114-1.09,0.244
				c-0.319,0.065-0.55,0.098-0.691,0.098c-0.289,0-0.529-0.029-0.722-0.087c-0.289-0.096-0.433-0.202-0.433-0.317
				c0-0.173,0.226-0.27,0.678-0.289c0.633-0.133,1.248-0.305,1.845-0.518c0.176-0.053,0.272-0.08,0.29-0.08
				C300.629,6.805,300.904,6.852,301.317,6.947z M300.586,9.602c0,0,0.163,0.079,0.489,0.236c0.255,0.171,0.382,0.314,0.382,0.428
				c0,0.066-0.043,0.099-0.13,0.099c-0.348,0-0.667,0.022-0.957,0.066l-1.348,0.148c-0.247,0.033-0.435,0.049-0.565,0.049
				c-0.301,0-0.506-0.055-0.615-0.164c-0.109-0.11-0.164-0.213-0.164-0.309c0-0.137,0.086-0.206,0.26-0.206
				c0.638-0.046,1.233-0.133,1.784-0.261c0.305-0.058,0.508-0.087,0.609-0.087C300.501,9.602,300.586,9.602,300.586,9.602z
				 M299.579,11.772c1.432,1.687,2.628,2.876,3.589,3.567c0.944,0.709,2.361,1.459,4.25,2.252c0.394,0.135,0.59,0.253,0.59,0.354
				c0,0.076-0.148,0.146-0.445,0.211c-0.828,0.238-1.726,0.358-2.694,0.358c-0.641,0-1.078-0.156-1.312-0.468
				c-0.813-0.804-2.194-2.652-4.146-5.543c-0.203-0.345-0.305-0.591-0.305-0.739c0-0.147,0.055-0.221,0.166-0.221
				C299.318,11.544,299.421,11.621,299.579,11.772z M303.431,10.537c0.17,0,0.457,0.158,0.859,0.474
				c0.372,0.286,0.557,0.549,0.557,0.789c0,0.199-0.127,0.358-0.381,0.477c-0.462,0.179-0.981,0.447-1.559,0.805
				c-1.039,0.656-1.663,0.983-1.87,0.983c-0.08,0-0.12-0.043-0.12-0.13c0-0.058,0.028-0.094,0.085-0.108
				c0.485-0.417,0.906-0.87,1.263-1.359c0.291-0.38,0.599-0.942,0.922-1.685C303.253,10.618,303.334,10.537,303.431,10.537z"/>
			<path fill="#FFFFFF" d="M316.257,6.421c0.609,0.399,0.913,0.745,0.913,1.039c0,0.095-0.087,0.206-0.261,0.333
				c-0.152,0.19-0.316,0.427-0.49,0.712c-0.783,1.298-1.566,2.375-2.349,3.23c-0.631,0.697-1.349,1.298-2.154,1.805
				c-0.544,0.348-0.903,0.522-1.077,0.522c-0.105,0-0.157-0.026-0.157-0.079c0-0.061,0.066-0.136,0.2-0.227
				c0.71-0.665,1.421-1.466,2.133-2.403c0.644-0.846,1.232-1.813,1.766-2.902c0.333-0.665,0.5-1.285,0.5-1.859
				c0-0.284,0.095-0.425,0.284-0.425C315.732,6.169,315.963,6.253,316.257,6.421z M318.541,10.789c0.163,0,0.457,0.194,0.884,0.581
				c0.366,0.408,0.549,0.754,0.549,1.04c0,0.153-0.069,0.275-0.208,0.368c-0.201,0.214-0.384,0.429-0.547,0.643
				c-2.1,2.787-3.149,4.211-3.149,4.272c0,0.114,0.091,0.17,0.273,0.17c0.431,0,2.371-0.244,5.819-0.733
				c0.509-0.084,0.872-0.126,1.087-0.126c0.182,0,0.273,0.063,0.273,0.188c0,0.114-0.159,0.218-0.475,0.313
				c-3.898,1.021-5.857,1.532-5.877,1.532c-0.891,0.246-1.484,0.454-1.781,0.625c-0.198,0.132-0.347,0.199-0.445,0.199
				c-0.201,0-0.472-0.213-0.813-0.641c-0.402-0.509-0.603-0.824-0.603-0.946c0-0.133,0.075-0.239,0.226-0.319
				c0.465-0.292,1-0.835,1.602-1.632c0.808-1.035,1.562-2.176,2.26-3.423c0.411-0.717,0.63-1.313,0.657-1.792
				C318.301,10.895,318.39,10.789,318.541,10.789z M318.592,2.983c0,0,0.144,0.029,0.431,0.086c0.938,0.154,1.608,0.606,2.011,1.356
				c1.532,2.424,2.557,3.858,3.074,4.3c0.938,0.847,1.819,1.462,2.643,1.847l1.752,0.866c0.598,0.285,0.897,0.458,0.897,0.518
				c0,0.135-0.046,0.217-0.14,0.247c-0.928,0.12-1.903,0.18-2.924,0.18c-0.171,0-0.409-0.02-0.713-0.058
				c-0.323-0.096-0.627-0.329-0.912-0.696c-0.589-0.638-1.995-2.843-4.218-6.615c-0.342-0.522-0.912-0.861-1.71-1.016
				c-0.425-0.147-0.638-0.375-0.638-0.685c0-0.221,0.11-0.331,0.331-0.331C318.554,2.983,318.592,2.983,318.592,2.983z
				 M321.681,14.627c0.566,0.288,1.118,0.623,1.656,1.006c0.707,0.575,1.174,1.102,1.401,1.581c0.169,0.416,0.254,0.878,0.254,1.389
				c0,0.211-0.053,0.449-0.157,0.713c-0.123,0.193-0.28,0.291-0.473,0.291c-0.095,0-0.236-0.099-0.424-0.294
				c-0.314-0.281-0.707-0.87-1.178-1.768c-0.628-1.122-1.1-1.879-1.414-2.272c-0.251-0.28-0.377-0.491-0.377-0.631
				c0-0.104,0.04-0.157,0.118-0.157C321.2,14.484,321.398,14.532,321.681,14.627z"/>
			<path fill="#FFFFFF" d="M335.148,11.125c0,0,0.11,0.042,0.332,0.126c0.483,0.168,0.725,0.372,0.725,0.61
				c0,0.213,0.015,0.436,0.044,0.668c0.185,1.421,0.278,2.4,0.278,2.939c0,0.232-0.035,0.417-0.105,0.554
				c-0.07,0.15-0.154,0.226-0.252,0.226c-0.112,0-0.225-0.09-0.337-0.272c-0.168-0.237-0.259-0.488-0.273-0.753l-0.22-1.354
				c-0.085-0.706-0.177-1.199-0.274-1.481c-0.061-0.292-0.22-0.56-0.476-0.804c-0.098-0.065-0.146-0.113-0.146-0.141
				c0-0.211,0.09-0.317,0.27-0.317C335.003,11.125,335.148,11.125,335.148,11.125z M341.927,7.238
				c0.256,0.112,0.384,0.25,0.384,0.417c0,0.117-0.135,0.208-0.405,0.274c-0.313,0.116-1.01,0.266-2.09,0.449
				c-1.635,0.25-2.702,0.374-3.2,0.374c-0.572,0-0.97-0.064-1.193-0.192c-0.223-0.157-0.334-0.292-0.334-0.406
				c0-0.097,0.198-0.153,0.594-0.169c0.934-0.096,1.959-0.257,3.077-0.483c0.778-0.145,1.408-0.298,1.889-0.458
				c0.169-0.064,0.283-0.097,0.339-0.097C341.23,6.946,341.543,7.044,341.927,7.238z M341.207,10.229c0,0,0.306,0.146,0.917,0.439
				c0.278,0.165,0.417,0.349,0.417,0.55c0,0.188-0.089,0.376-0.268,0.565c-0.198,0.283-0.377,0.675-0.536,1.177l-0.476,1.601
				c-0.111,0.228-0.296,0.341-0.554,0.341c-0.37,0-0.555-0.08-0.555-0.239c0-0.07,0.013-0.209,0.04-0.419
				c0.106-0.559,0.186-1.047,0.239-1.466c0.053-0.454,0.08-0.821,0.08-1.1c0-0.137-0.085-0.205-0.256-0.205
				c-0.425,0-0.968,0.089-1.631,0.266c-1.353,0.32-2.241,0.479-2.665,0.479c-0.182,0-0.363-0.082-0.543-0.246
				c-0.218-0.127-0.327-0.218-0.327-0.273c0-0.109,0.091-0.164,0.273-0.164c1.036-0.075,1.915-0.199,2.638-0.374
				c0.747-0.149,1.469-0.386,2.167-0.71c0.289-0.15,0.506-0.225,0.651-0.225C341.077,10.229,341.207,10.229,341.207,10.229z
				 M340.447,14.211c0,0,0.207,0.1,0.622,0.3c0.324,0.218,0.486,0.4,0.486,0.545c0,0.109-0.068,0.163-0.205,0.163
				c-0.547,0-1.049,0.036-1.505,0.109l-2.12,0.245c-0.388,0.054-0.684,0.082-0.889,0.082c-0.383,0-0.644-0.069-0.783-0.209
				c-0.14-0.14-0.209-0.271-0.209-0.393c0-0.174,0.11-0.262,0.331-0.262c1.053-0.078,2.034-0.223,2.942-0.435
				c0.502-0.097,0.837-0.145,1.005-0.145C340.338,14.211,340.447,14.211,340.447,14.211z M346.496,3.867
				c0.496,0.373,0.744,0.637,0.744,0.793c0,0.117-0.059,0.283-0.176,0.497c-0.177,0.39-0.265,1.295-0.265,2.718
				c0,2.117,0.012,3.945,0.037,5.484c0.024,1.091,0.037,2.374,0.037,3.849c0,1.173-0.271,2.083-0.811,2.728
				c-0.441,0.508-0.851,0.763-1.231,0.763l-0.367-2.48c0.219,0,0.408-0.282,0.567-0.846c0.199-1.034,0.298-3.477,0.298-7.33
				c0-2.477-0.087-4.154-0.262-5.032c-0.078-0.234-0.339-0.351-0.785-0.351c-0.968,0-2.022,0.071-3.165,0.212
				c-1.075,0.165-1.888,0.306-2.439,0.423c-0.363,0.118-0.679,0.176-0.947,0.176c-0.312,0-0.652-0.127-1.022-0.383
				c-0.409-0.217-0.613-0.413-0.613-0.59c0-0.097,0.191-0.146,0.573-0.146c1.189-0.041,2.547-0.159,4.075-0.353
				c1.469-0.207,2.636-0.421,3.502-0.643c0.47-0.11,0.764-0.166,0.881-0.166C345.306,3.19,345.762,3.416,346.496,3.867z
				 M342.58,17.552c1.127,0.445,1.755,0.667,1.883,0.667l0.367,2.48c-0.149,0-0.298-0.128-0.447-0.384
				c-0.423-0.64-1.07-1.44-1.94-2.4c-0.174-0.171-0.261-0.288-0.261-0.352c0-0.037,0.042-0.055,0.128-0.055
				C342.388,17.507,342.478,17.522,342.58,17.552z"/>
		</g>
		<g>
			<path fill="#FFFFFF" d="M144.916,34.075l3.613,3.592c0.592,0.593,1.098,0.996,1.518,1.21c0.419,0.214,0.838,0.336,1.257,0.365
				v0.268h-4.661v-0.268c0.279,0,0.48-0.047,0.604-0.141c0.123-0.094,0.184-0.199,0.184-0.314s-0.023-0.219-0.069-0.311
				c-0.045-0.092-0.196-0.263-0.452-0.513l-3.382-3.346v3.158c0,0.496,0.031,0.824,0.094,0.983c0.048,0.121,0.149,0.224,0.304,0.311
				c0.207,0.116,0.426,0.173,0.658,0.173h0.333v0.268h-4.177v-0.268h0.347c0.404,0,0.698-0.118,0.881-0.354
				c0.116-0.154,0.173-0.525,0.173-1.113v-6.331c0-0.496-0.031-0.826-0.094-0.99c-0.048-0.116-0.147-0.217-0.296-0.304
				c-0.212-0.116-0.434-0.173-0.665-0.173h-0.347V29.71h4.177v0.268h-0.333c-0.227,0-0.446,0.055-0.658,0.166
				c-0.149,0.077-0.253,0.193-0.311,0.347c-0.058,0.154-0.087,0.472-0.087,0.954v2.999c0.096-0.091,0.426-0.397,0.99-0.917
				c1.431-1.311,2.295-2.185,2.594-2.624c0.13-0.192,0.195-0.361,0.195-0.506c0-0.111-0.05-0.208-0.151-0.292
				c-0.102-0.084-0.272-0.126-0.513-0.126h-0.224V29.71h3.599v0.268c-0.212,0.005-0.404,0.034-0.578,0.086
				c-0.173,0.053-0.385,0.156-0.636,0.307c-0.25,0.152-0.559,0.396-0.925,0.734c-0.106,0.096-0.595,0.59-1.467,1.481L144.916,34.075
				z"/>
			<path fill="#FFFFFF" d="M158.241,29.978V29.71h3.469v0.268h-0.369c-0.386,0-0.682,0.161-0.889,0.484
				c-0.101,0.149-0.151,0.497-0.151,1.041v3.975c0,0.982-0.098,1.745-0.293,2.287c-0.195,0.542-0.578,1.007-1.149,1.395
				s-1.348,0.582-2.331,0.582c-1.069,0-1.881-0.186-2.436-0.557c-0.554-0.371-0.946-0.87-1.178-1.496
				c-0.154-0.429-0.231-1.233-0.231-2.414v-3.83c0-0.602-0.083-0.997-0.249-1.185c-0.167-0.188-0.435-0.282-0.806-0.282h-0.369
				V29.71h4.235v0.268h-0.376c-0.405,0-0.694,0.127-0.867,0.383c-0.121,0.173-0.181,0.535-0.181,1.084v4.271
				c0,0.381,0.035,0.816,0.105,1.308c0.07,0.491,0.196,0.875,0.379,1.149c0.183,0.274,0.447,0.501,0.791,0.679
				c0.345,0.178,0.767,0.268,1.269,0.268c0.641,0,1.214-0.14,1.72-0.419c0.506-0.279,0.852-0.637,1.037-1.073
				s0.278-1.174,0.278-2.215v-3.967c0-0.612-0.068-0.995-0.203-1.149c-0.188-0.212-0.467-0.318-0.838-0.318H158.241z"/>
			<path fill="#FFFFFF" d="M167.281,29.486c1.272,0,2.374,0.483,3.306,1.449s1.398,2.171,1.398,3.617
				c0,1.489-0.47,2.725-1.409,3.708c-0.939,0.982-2.077,1.474-3.411,1.474c-1.349,0-2.482-0.479-3.4-1.438
				c-0.918-0.959-1.376-2.199-1.376-3.722c0-1.556,0.53-2.826,1.59-3.809C164.899,29.913,166,29.486,167.281,29.486z
				 M167.144,30.014c-0.877,0-1.58,0.325-2.11,0.976c-0.66,0.809-0.99,1.995-0.99,3.555c0,1.6,0.342,2.831,1.026,3.693
				c0.525,0.655,1.219,0.983,2.082,0.983c0.92,0,1.68-0.359,2.28-1.077c0.6-0.718,0.9-1.85,0.9-3.396c0-1.677-0.33-2.927-0.99-3.75
				C168.811,30.342,168.079,30.014,167.144,30.014z"/>
			<path fill="#FFFFFF" d="M180.68,34.075l3.613,3.592c0.592,0.593,1.098,0.996,1.518,1.21c0.419,0.214,0.838,0.336,1.257,0.365
				v0.268h-4.661v-0.268c0.279,0,0.48-0.047,0.604-0.141c0.123-0.094,0.184-0.199,0.184-0.314s-0.023-0.219-0.069-0.311
				c-0.045-0.092-0.196-0.263-0.452-0.513l-3.382-3.346v3.158c0,0.496,0.031,0.824,0.094,0.983c0.048,0.121,0.149,0.224,0.304,0.311
				c0.207,0.116,0.426,0.173,0.658,0.173h0.333v0.268h-4.177v-0.268h0.347c0.404,0,0.698-0.118,0.881-0.354
				c0.116-0.154,0.173-0.525,0.173-1.113v-6.331c0-0.496-0.031-0.826-0.094-0.99c-0.048-0.116-0.147-0.217-0.296-0.304
				c-0.212-0.116-0.434-0.173-0.665-0.173h-0.347V29.71h4.177v0.268h-0.333c-0.227,0-0.446,0.055-0.658,0.166
				c-0.149,0.077-0.253,0.193-0.311,0.347c-0.058,0.154-0.087,0.472-0.087,0.954v2.999c0.096-0.091,0.426-0.397,0.99-0.917
				c1.431-1.311,2.295-2.185,2.594-2.624c0.13-0.192,0.195-0.361,0.195-0.506c0-0.111-0.05-0.208-0.151-0.292
				c-0.102-0.084-0.272-0.126-0.513-0.126h-0.224V29.71h3.599v0.268c-0.212,0.005-0.404,0.034-0.578,0.086
				c-0.173,0.053-0.385,0.156-0.636,0.307c-0.25,0.152-0.559,0.396-0.925,0.734c-0.106,0.096-0.595,0.59-1.467,1.481L180.68,34.075z
				"/>
			<path fill="#FFFFFF" d="M194.005,29.978V29.71h3.469v0.268h-0.369c-0.386,0-0.682,0.161-0.889,0.484
				c-0.101,0.149-0.151,0.497-0.151,1.041v3.975c0,0.982-0.098,1.745-0.293,2.287c-0.195,0.542-0.578,1.007-1.149,1.395
				s-1.348,0.582-2.331,0.582c-1.069,0-1.881-0.186-2.436-0.557c-0.554-0.371-0.946-0.87-1.178-1.496
				c-0.154-0.429-0.231-1.233-0.231-2.414v-3.83c0-0.602-0.083-0.997-0.249-1.185c-0.167-0.188-0.435-0.282-0.806-0.282h-0.369
				V29.71h4.235v0.268h-0.376c-0.405,0-0.694,0.127-0.867,0.383c-0.121,0.173-0.181,0.535-0.181,1.084v4.271
				c0,0.381,0.035,0.816,0.105,1.308c0.07,0.491,0.196,0.875,0.379,1.149c0.183,0.274,0.447,0.501,0.791,0.679
				c0.345,0.178,0.767,0.268,1.269,0.268c0.641,0,1.214-0.14,1.72-0.419c0.506-0.279,0.852-0.637,1.037-1.073
				s0.278-1.174,0.278-2.215v-3.967c0-0.612-0.068-0.995-0.203-1.149c-0.188-0.212-0.467-0.318-0.838-0.318H194.005z"/>
			<path fill="#FFFFFF" d="M204.405,36.229h-3.794l-0.665,1.546c-0.164,0.381-0.246,0.665-0.246,0.853
				c0,0.149,0.071,0.281,0.213,0.394s0.449,0.187,0.921,0.22v0.268h-3.085v-0.268c0.409-0.072,0.674-0.166,0.795-0.282
				c0.246-0.231,0.518-0.701,0.816-1.409l3.447-8.065h0.253l3.411,8.152c0.275,0.655,0.524,1.08,0.748,1.275
				s0.536,0.305,0.936,0.329v0.268h-3.866v-0.268c0.39-0.019,0.654-0.084,0.791-0.195c0.138-0.111,0.206-0.246,0.206-0.405
				c0-0.212-0.096-0.547-0.289-1.004L204.405,36.229z M204.202,35.694l-1.662-3.96l-1.706,3.96H204.202z"/>
			<path fill="#FFFFFF" d="M208.126,29.71h2.66l5.991,7.35v-5.651c0-0.602-0.067-0.978-0.202-1.127
				c-0.179-0.202-0.46-0.303-0.846-0.303h-0.34V29.71h3.411v0.268h-0.347c-0.415,0-0.708,0.125-0.882,0.375
				c-0.106,0.154-0.159,0.506-0.159,1.055v8.26h-0.26l-6.461-7.892v6.034c0,0.602,0.065,0.978,0.195,1.127
				c0.183,0.202,0.465,0.303,0.846,0.303h0.347v0.268h-3.411v-0.268h0.34c0.419,0,0.715-0.125,0.889-0.375
				c0.106-0.154,0.159-0.506,0.159-1.055v-6.814c-0.284-0.333-0.5-0.552-0.647-0.658s-0.362-0.205-0.646-0.296
				c-0.14-0.043-0.352-0.065-0.636-0.065V29.71z"/>
			<path fill="#FFFFFF" d="M228.093,29.486l0.253,3.093h-0.253c-0.255-0.771-0.585-1.352-0.99-1.742
				c-0.583-0.563-1.332-0.846-2.248-0.846c-1.248,0-2.197,0.494-2.847,1.481c-0.544,0.833-0.816,1.826-0.816,2.978
				c0,0.935,0.181,1.788,0.542,2.558c0.361,0.771,0.834,1.336,1.42,1.695s1.186,0.538,1.803,0.538c0.361,0,0.711-0.045,1.048-0.137
				c0.337-0.091,0.663-0.226,0.976-0.405v-2.833c0-0.492-0.037-0.813-0.112-0.965s-0.19-0.268-0.347-0.347
				c-0.157-0.08-0.433-0.12-0.828-0.12v-0.274h3.794v0.274h-0.181c-0.376,0-0.634,0.125-0.773,0.376
				c-0.096,0.178-0.145,0.53-0.145,1.055v2.999c-0.554,0.299-1.101,0.518-1.64,0.658s-1.14,0.209-1.799,0.209
				c-1.894,0-3.332-0.607-4.314-1.821c-0.737-0.911-1.105-1.96-1.105-3.151c0-0.862,0.207-1.688,0.621-2.479
				c0.492-0.939,1.166-1.662,2.023-2.168c0.718-0.419,1.566-0.629,2.544-0.629c0.356,0,0.681,0.029,0.972,0.087
				c0.291,0.058,0.705,0.186,1.239,0.383c0.27,0.102,0.45,0.152,0.542,0.152c0.091,0,0.17-0.042,0.235-0.126
				c0.065-0.084,0.104-0.249,0.119-0.495H228.093z"/>
			<path fill="#FFFFFF" d="M236.433,34.921v2.854c0,0.617,0.067,1,0.202,1.149c0.183,0.212,0.46,0.318,0.831,0.318h0.376v0.268
				h-4.199v-0.268h0.369c0.414,0,0.71-0.135,0.889-0.404c0.097-0.149,0.145-0.503,0.145-1.063v-6.331c0-0.617-0.065-1-0.195-1.149
				c-0.188-0.212-0.467-0.318-0.838-0.318h-0.369V29.71h3.592c0.876,0,1.568,0.09,2.074,0.271s0.933,0.485,1.279,0.914
				c0.347,0.429,0.521,0.938,0.521,1.525c0,0.8-0.264,1.45-0.792,1.951s-1.273,0.751-2.237,0.751c-0.236,0-0.491-0.017-0.766-0.05
				C237.04,35.039,236.746,34.988,236.433,34.921z M236.433,34.509c0.255,0.048,0.482,0.084,0.679,0.108
				c0.198,0.024,0.366,0.036,0.506,0.036c0.501,0,0.934-0.194,1.297-0.582s0.545-0.89,0.545-1.507c0-0.424-0.086-0.818-0.26-1.182
				c-0.173-0.363-0.419-0.636-0.737-0.816s-0.679-0.271-1.084-0.271c-0.246,0-0.562,0.046-0.947,0.137V34.509z"/>
			<path fill="#FFFFFF" d="M247.041,29.486c1.272,0,2.374,0.483,3.306,1.449s1.398,2.171,1.398,3.617
				c0,1.489-0.47,2.725-1.409,3.708c-0.939,0.982-2.077,1.474-3.411,1.474c-1.349,0-2.482-0.479-3.4-1.438
				c-0.918-0.959-1.376-2.199-1.376-3.722c0-1.556,0.53-2.826,1.59-3.809C244.659,29.913,245.76,29.486,247.041,29.486z
				 M246.904,30.014c-0.877,0-1.58,0.325-2.11,0.976c-0.66,0.809-0.99,1.995-0.99,3.555c0,1.6,0.342,2.831,1.026,3.693
				c0.525,0.655,1.219,0.983,2.082,0.983c0.92,0,1.68-0.359,2.28-1.077c0.6-0.718,0.9-1.85,0.9-3.396c0-1.677-0.33-2.927-0.99-3.75
				C248.571,30.342,247.838,30.014,246.904,30.014z"/>
			<path fill="#FFFFFF" d="M266.17,29.71v0.268c-0.255,0-0.463,0.046-0.622,0.137c-0.159,0.092-0.311,0.263-0.456,0.513
				c-0.096,0.168-0.248,0.571-0.455,1.207l-2.731,7.899h-0.289l-2.233-6.266l-2.218,6.266h-0.26l-2.912-8.137
				c-0.217-0.607-0.354-0.966-0.412-1.077c-0.096-0.183-0.228-0.319-0.394-0.408c-0.166-0.089-0.391-0.134-0.675-0.134V29.71h3.627
				v0.268h-0.173c-0.255,0-0.451,0.058-0.585,0.173s-0.202,0.255-0.202,0.419c0,0.169,0.106,0.557,0.318,1.164l1.93,5.5l1.626-4.676
				l-0.289-0.824l-0.231-0.658c-0.101-0.241-0.214-0.453-0.34-0.636c-0.063-0.091-0.14-0.168-0.231-0.231
				c-0.121-0.086-0.241-0.149-0.361-0.188c-0.092-0.029-0.236-0.043-0.434-0.043V29.71h3.815v0.268h-0.26
				c-0.27,0-0.467,0.058-0.592,0.173c-0.125,0.116-0.188,0.272-0.188,0.47c0,0.246,0.108,0.674,0.325,1.286l1.879,5.326l1.864-5.398
				c0.212-0.597,0.318-1.012,0.318-1.243c0-0.111-0.035-0.214-0.105-0.311c-0.07-0.096-0.158-0.164-0.264-0.202
				c-0.183-0.067-0.422-0.101-0.715-0.101V29.71H266.17z"/>
			<path fill="#FFFFFF" d="M269.378,30.245v3.874h2.154c0.559,0,0.932-0.084,1.12-0.253c0.25-0.222,0.39-0.612,0.419-1.17h0.268
				v3.411h-0.268c-0.067-0.477-0.135-0.783-0.202-0.917c-0.087-0.169-0.229-0.301-0.426-0.397c-0.198-0.097-0.501-0.145-0.911-0.145
				h-2.154v3.23c0,0.434,0.02,0.697,0.058,0.792c0.039,0.094,0.106,0.168,0.202,0.224c0.096,0.055,0.279,0.083,0.549,0.083h1.662
				c0.554,0,0.956-0.039,1.207-0.116c0.25-0.077,0.491-0.229,0.723-0.455c0.298-0.299,0.604-0.75,0.917-1.352h0.289l-0.845,2.457
				h-7.552v-0.268h0.347c0.231,0,0.45-0.055,0.658-0.166c0.154-0.077,0.259-0.193,0.314-0.347c0.055-0.154,0.083-0.47,0.083-0.947
				v-6.367c0-0.622-0.063-1.004-0.188-1.149c-0.173-0.193-0.462-0.289-0.867-0.289h-0.347V29.71h7.552l0.108,2.146h-0.282
				c-0.101-0.516-0.213-0.87-0.336-1.063c-0.123-0.192-0.305-0.339-0.545-0.441c-0.193-0.072-0.533-0.108-1.019-0.108H269.378z"/>
			<path fill="#FFFFFF" d="M285.327,39.51h-2.616l-3.317-4.582c-0.246,0.01-0.445,0.014-0.6,0.014c-0.063,0-0.13-0.001-0.202-0.003
				s-0.147-0.006-0.224-0.011v2.847c0,0.617,0.067,1,0.202,1.149c0.183,0.212,0.458,0.318,0.824,0.318h0.383v0.268h-4.199v-0.268
				h0.369c0.414,0,0.71-0.135,0.889-0.404c0.101-0.149,0.152-0.503,0.152-1.063v-6.331c0-0.617-0.067-1-0.202-1.149
				c-0.188-0.212-0.468-0.318-0.838-0.318h-0.369V29.71h3.57c1.041,0,1.808,0.076,2.302,0.228c0.494,0.152,0.913,0.432,1.257,0.838
				c0.345,0.407,0.517,0.893,0.517,1.456c0,0.603-0.196,1.125-0.589,1.568s-1.001,0.756-1.825,0.939l2.023,2.811
				c0.462,0.646,0.86,1.075,1.192,1.287s0.766,0.347,1.301,0.404V39.51z M278.368,34.473c0.091,0,0.171,0.001,0.238,0.004
				s0.123,0.003,0.167,0.003c0.935,0,1.639-0.202,2.114-0.607c0.474-0.405,0.711-0.92,0.711-1.546c0-0.612-0.191-1.109-0.574-1.492
				c-0.383-0.383-0.89-0.575-1.521-0.575c-0.279,0-0.657,0.046-1.134,0.137V34.473z"/>
			<path fill="#FFFFFF" d="M297.808,29.486l0.224,3.332h-0.224c-0.298-0.997-0.725-1.715-1.279-2.153
				c-0.554-0.438-1.219-0.658-1.995-0.658c-0.65,0-1.238,0.165-1.763,0.495c-0.525,0.33-0.938,0.856-1.239,1.579
				c-0.301,0.723-0.452,1.621-0.452,2.695c0,0.887,0.142,1.655,0.426,2.305s0.712,1.149,1.283,1.496
				c0.571,0.347,1.222,0.52,1.955,0.52c0.636,0,1.197-0.136,1.684-0.408c0.486-0.272,1.021-0.813,1.604-1.622l0.224,0.145
				c-0.491,0.872-1.065,1.51-1.72,1.915c-0.655,0.404-1.434,0.607-2.334,0.607c-1.624,0-2.881-0.602-3.772-1.807
				c-0.665-0.896-0.998-1.951-0.998-3.166c0-0.978,0.219-1.876,0.658-2.695s1.042-1.454,1.81-1.904
				c0.769-0.45,1.608-0.676,2.519-0.676c0.708,0,1.407,0.174,2.096,0.521c0.203,0.106,0.347,0.159,0.434,0.159
				c0.13,0,0.243-0.046,0.34-0.138c0.125-0.13,0.214-0.311,0.267-0.542H297.808z"/>
			<path fill="#FFFFFF" d="M304.181,29.486c1.272,0,2.374,0.483,3.306,1.449s1.398,2.171,1.398,3.617
				c0,1.489-0.47,2.725-1.409,3.708c-0.939,0.982-2.077,1.474-3.411,1.474c-1.349,0-2.482-0.479-3.4-1.438
				c-0.918-0.959-1.376-2.199-1.376-3.722c0-1.556,0.53-2.826,1.59-3.809C301.799,29.913,302.9,29.486,304.181,29.486z
				 M304.044,30.014c-0.877,0-1.58,0.325-2.11,0.976c-0.66,0.809-0.99,1.995-0.99,3.555c0,1.6,0.342,2.831,1.026,3.693
				c0.525,0.655,1.219,0.983,2.082,0.983c0.92,0,1.68-0.359,2.28-1.077c0.6-0.718,0.9-1.85,0.9-3.396c0-1.677-0.33-2.927-0.99-3.75
				C305.711,30.342,304.979,30.014,304.044,30.014z"/>
			<path fill="#FFFFFF" d="M311.307,38.108c0.226,0,0.417,0.078,0.571,0.235s0.231,0.346,0.231,0.567s-0.079,0.411-0.235,0.567
				c-0.157,0.157-0.346,0.235-0.567,0.235s-0.411-0.078-0.567-0.235c-0.157-0.156-0.235-0.345-0.235-0.567
				c0-0.227,0.078-0.417,0.235-0.571C310.896,38.185,311.085,38.108,311.307,38.108z"/>
			<path fill="#FFFFFF" d="M313.952,41.974v-0.318c0.496-0.164,0.88-0.418,1.153-0.763c0.272-0.344,0.408-0.709,0.408-1.095
				c0-0.092-0.022-0.168-0.065-0.231c-0.034-0.043-0.068-0.065-0.102-0.065c-0.053,0-0.168,0.048-0.347,0.145
				c-0.087,0.043-0.178,0.065-0.274,0.065c-0.236,0-0.424-0.07-0.564-0.209s-0.209-0.333-0.209-0.578
				c0-0.236,0.09-0.438,0.271-0.607s0.401-0.253,0.661-0.253c0.318,0,0.601,0.139,0.849,0.416s0.372,0.645,0.372,1.102
				c0,0.496-0.172,0.958-0.517,1.384C315.244,41.392,314.698,41.729,313.952,41.974z"/>
			<path fill="#FFFFFF" d="M329.041,36.8l0.239,0.051l-0.838,2.659h-7.588v-0.268h0.369c0.414,0,0.71-0.135,0.889-0.404
				c0.101-0.154,0.152-0.511,0.152-1.07v-6.323c0-0.612-0.067-0.995-0.203-1.149c-0.188-0.212-0.467-0.318-0.838-0.318h-0.369V29.71
				h4.437v0.268c-0.521-0.005-0.885,0.043-1.095,0.145s-0.353,0.229-0.43,0.383c-0.077,0.154-0.116,0.523-0.116,1.106v6.157
				c0,0.4,0.039,0.675,0.116,0.824c0.058,0.102,0.147,0.176,0.268,0.224c0.12,0.048,0.496,0.072,1.127,0.072h0.715
				c0.751,0,1.279-0.055,1.583-0.166s0.581-0.307,0.831-0.589C328.54,37.851,328.79,37.407,329.041,36.8z"/>
			<path fill="#FFFFFF" d="M336.802,29.71l0.108,2.298h-0.274c-0.053-0.405-0.125-0.694-0.217-0.867
				c-0.149-0.28-0.348-0.485-0.596-0.618c-0.249-0.132-0.575-0.199-0.979-0.199h-1.38v7.487c0,0.602,0.065,0.978,0.195,1.127
				c0.183,0.202,0.465,0.303,0.846,0.303h0.339v0.268h-4.155v-0.268h0.347c0.414,0,0.708-0.125,0.881-0.375
				c0.106-0.154,0.159-0.506,0.159-1.055v-7.487h-1.178c-0.458,0-0.783,0.034-0.976,0.101c-0.25,0.092-0.465,0.268-0.643,0.528
				s-0.284,0.612-0.318,1.055h-0.274l0.115-2.298H336.802z"/>
			<path fill="#FFFFFF" d="M337.532,39.51v-0.268h0.369c0.414,0,0.708-0.132,0.881-0.397c0.106-0.159,0.159-0.515,0.159-1.069
				v-6.331c0-0.612-0.067-0.995-0.202-1.149c-0.188-0.212-0.468-0.318-0.838-0.318h-0.369V29.71h3.989
				c1.464,0,2.579,0.167,3.342,0.499c0.763,0.333,1.377,0.887,1.843,1.662c0.465,0.776,0.697,1.672,0.697,2.688
				c0,1.363-0.415,2.503-1.243,3.418c-0.93,1.021-2.346,1.532-4.249,1.532H337.532z M340.329,38.802
				c0.612,0.135,1.125,0.202,1.539,0.202c1.118,0,2.045-0.393,2.782-1.178c0.737-0.786,1.105-1.85,1.105-3.194
				c0-1.354-0.368-2.421-1.105-3.201c-0.737-0.781-1.684-1.171-2.84-1.171c-0.434,0-0.928,0.07-1.481,0.209V38.802z"/>
		</g>
	</g>
	<g>
		<polygon fill-rule="evenodd" clip-rule="evenodd" fill="#FFFFFF" points="21.794,0 16,4.696 16,0 0,0 0,9 11.066,9 25.648,0.257 
			18.484,9 33.101,9 43.591,0 		"/>
		<g>
			<polygon fill-rule="evenodd" clip-rule="evenodd" fill="#FFFFFF" points="9.058,10 0,10 0,20 5.971,20 0.842,15.265 			"/>
			<polygon fill-rule="evenodd" clip-rule="evenodd" fill="#FFFFFF" points="17.496,10 13.065,15.747 17.333,20 21.132,20 
				31.731,10 			"/>
		</g>
		<g>
			<polygon fill-rule="evenodd" clip-rule="evenodd" fill="#FFFFFF" points="7.445,21 0,21 0,30 8.403,30 12.222,25.196 			"/>
			<polygon fill-rule="evenodd" clip-rule="evenodd" fill="#FFFFFF" points="32.168,30 21.794,21 18.71,21 23.963,25.919 17.157,30 
							"/>
		</g>
		<polygon fill-rule="evenodd" clip-rule="evenodd" fill="#FFFFFF" points="33.589,31 15.098,31 0.481,39.545 7.425,31 0,31 0,40 
			16,40 16,34.439 22.639,40 44.191,40 		"/>
		<g>
			<polygon fill="#FFFFFF" points="65.93,29.807 59.425,21.012 51.778,21.012 57.746,29.807 			"/>
			<polygon fill="#FFFFFF" points="47.563,29.807 47.563,24.745 51.778,21.012 42.206,21.012 40.459,21.012 40.459,29.807 			"/>
			<rect x="40.459" y="31.011" fill="#FFFFFF" width="7.104" height="1.801"/>
			<polygon fill="#FFFFFF" points="58.562,31.011 59.785,32.812 68.154,32.812 66.822,31.011 			"/>
		</g>
		<g>
			<polygon fill-rule="evenodd" clip-rule="evenodd" fill="#FFFFFF" points="65.611,9.224 67.854,7.104 58.882,7.104 56.48,9.224 
							"/>
			<polygon fill-rule="evenodd" clip-rule="evenodd" fill="#FFFFFF" points="64.335,10.427 55.117,10.427 47.624,17.038 
				47.624,10.427 40.459,10.427 40.459,19.747 58.582,19.747 56.956,17.399 			"/>
			<rect x="40.459" y="7.104" fill-rule="evenodd" clip-rule="evenodd" fill="#FFFFFF" width="7.164" height="2.12"/>
		</g>
		<g>
			<rect x="70.08" y="31.011" fill-rule="evenodd" clip-rule="evenodd" fill="#FFFFFF" width="7.407" height="1.801"/>
			<path fill-rule="evenodd" clip-rule="evenodd" fill="#FFFFFF" d="M77.487,29.807v-6.206h6.562c0,0,4.095-0.12,7.046-2.589H74.897
				H70.08v8.794H77.487z"/>
		</g>
		<g>
			<path fill-rule="evenodd" clip-rule="evenodd" fill="#FFFFFF" d="M118.147,9.224c-2.58-1.821-5.884-2.118-7.186-2.12
				c-2.769-0.001-5.591,0.424-8.315,2.12H118.147z"/>
			<path fill-rule="evenodd" clip-rule="evenodd" fill="#FFFFFF" d="M101.018,10.427c-2.366,2.086-4.145,5.338-4.145,9.32h6.682
				c0,0-0.24-2.468,1.627-4.575c1.866-2.107,3.775-2.228,5.599-2.228c1.143,0,3.853,0.902,4.695,2.89l6.983-0.782
				c0,0-0.75-2.387-2.922-4.625H101.018z"/>
		</g>
		<g>
			<path fill-rule="evenodd" clip-rule="evenodd" fill="#FFFFFF" d="M101.098,29.807h18.49c2.616-2.544,3.187-5.573,3.187-5.573
				l-6.375-1.436c-0.882,2.65-3.05,4.657-5.94,4.657c-2.168,0-4.414-0.883-5.699-2.57c-1.285-1.686-1.205-3.873-1.205-3.873h-6.682
				C96.874,22.642,97.657,26.823,101.098,29.807z"/>
			<path fill-rule="evenodd" clip-rule="evenodd" fill="#FFFFFF" d="M102.732,31.011c3.457,2.215,6.265,2.176,8.049,2.224
				c1.195,0.031,4.274-0.068,7.35-2.224H102.732z"/>
		</g>
		<g>
			<path fill-rule="evenodd" clip-rule="evenodd" fill="#FFFFFF" d="M70.08,10.427v9.32h22.459c0,0,1.083-1.203,1.083-4.214
				c0-1.811-0.451-3.622-1.832-5.105H70.08z M83.687,18.302h-6.26v-2.83v-2.83h6.26c0,0,3.493,0.161,3.493,2.83
				C87.18,18.143,83.687,18.302,83.687,18.302z"/>
			<path fill-rule="evenodd" clip-rule="evenodd" fill="#FFFFFF" d="M90.333,9.224c-0.337-0.218-0.703-0.425-1.107-0.615
				c-3.431-1.625-8.639-1.505-8.639-1.505H70.08v2.12H90.333z"/>
		</g>
	</g>
</g>
</svg>
