<?xml version="1.0" encoding="utf-8"?>
<!-- Generator: Adobe Illustrator 16.0.3, SVG Export Plug-In . SVG Version: 6.00 Build 0)  -->
<!DOCTYPE svg PUBLIC "-//W3C//DTD SVG 1.1//EN" "http://www.w3.org/Graphics/SVG/1.1/DTD/svg11.dtd">
<svg version="1.1" id="圖" xmlns="http://www.w3.org/2000/svg" xmlns:xlink="http://www.w3.org/1999/xlink" x="0px" y="0px"
	 width="948.598px" height="309.052px" viewBox="0 0 948.598 309.052" enable-background="new 0 0 948.598 309.052"
	 xml:space="preserve">
<g>
	<g>
		<polygon fill-rule="evenodd" clip-rule="evenodd" fill="#FFFFFF" points="255.746,71.272 336.796,0 168.387,0 126.526,36.278 
			126.526,0 0,0 0,71.272 		"/>
		<polygon fill-rule="evenodd" clip-rule="evenodd" fill="#FFFFFF" points="0,80.567 0,152.572 163.271,152.572 245.163,80.567 		
			"/>
	</g>
	<g>
		<polygon fill-rule="evenodd" clip-rule="evenodd" fill="#FFFFFF" points="248.543,230.295 168.387,162.342 0,162.342 0,230.295 		
			"/>
		<polygon fill-rule="evenodd" clip-rule="evenodd" fill="#FFFFFF" points="0,239.596 0,309.052 126.526,309.052 126.526,266.089 
			174.914,309.052 341.432,309.052 259.522,239.596 		"/>
	</g>
	<g>
		<polygon fill-rule="evenodd" clip-rule="evenodd" fill="#F5F5F5" points="142.816,71.272 198.164,3.72 85.503,71.272 		"/>
		<polygon fill-rule="evenodd" clip-rule="evenodd" fill="#F5F5F5" points="135.18,80.567 69.986,80.567 6.509,118.611 
			46.132,152.572 133.92,152.572 100.944,122.338 		"/>
	</g>
	<g>
		<polygon fill-rule="evenodd" clip-rule="evenodd" fill="#F5F5F5" points="64.923,230.295 132.563,230.295 185.148,199.556 
			144.56,162.342 57.525,162.342 94.429,193.973 		"/>
		<polygon fill-rule="evenodd" clip-rule="evenodd" fill="#F5F5F5" points="57.366,239.596 3.721,305.626 116.653,239.596 		"/>
	</g>
	<g>
		<polygon fill="#FFFFFF" points="509.393,230.295 459.134,162.342 400.05,162.342 446.163,230.295 		"/>
		<polygon fill="#FFFFFF" points="367.489,230.295 367.489,191.187 400.05,162.342 326.097,162.342 312.602,162.342 
			312.602,230.295 		"/>
		<rect x="312.602" y="239.596" fill="#FFFFFF" width="54.888" height="13.924"/>
		<polygon fill="#FFFFFF" points="452.468,239.596 461.918,253.52 526.576,253.52 516.288,239.596 		"/>
	</g>
	<g>
		<polygon fill-rule="evenodd" clip-rule="evenodd" fill="#FFFFFF" points="506.934,71.272 524.257,54.884 454.938,54.884 
			436.385,71.272 		"/>
		<polygon fill-rule="evenodd" clip-rule="evenodd" fill="#FFFFFF" points="497.07,80.567 425.852,80.567 367.953,131.634 
			367.953,80.567 312.602,80.567 312.602,152.572 452.623,152.572 440.056,134.434 		"/>
		<rect x="312.602" y="54.884" fill-rule="evenodd" clip-rule="evenodd" fill="#FFFFFF" width="55.352" height="16.388"/>
	</g>
	<g>
		<rect x="541.46" y="239.596" fill-rule="evenodd" clip-rule="evenodd" fill="#FFFFFF" width="57.227" height="13.924"/>
		<path fill-rule="evenodd" clip-rule="evenodd" fill="#FFFFFF" d="M598.687,230.295v-47.941h50.695c0,0,31.639-0.929,54.44-20.012
			H578.676H541.46v67.953H598.687z"/>
	</g>
	<g>
		<path fill-rule="evenodd" clip-rule="evenodd" fill="#FFFFFF" d="M912.842,71.272c-19.931-14.079-45.459-16.373-55.521-16.388
			c-21.39,0-43.199,3.282-64.243,16.388H912.842z"/>
		<path fill-rule="evenodd" clip-rule="evenodd" fill="#FFFFFF" d="M780.495,80.567c-18.283,16.116-32.022,41.243-32.022,72.005
			h51.63c0,0-1.854-19.067,12.568-35.352c14.416-16.281,29.166-17.201,43.262-17.201c8.832,0,29.766,6.973,36.277,22.318
			l53.957-6.035c0,0-5.795-18.448-22.58-35.735H780.495z"/>
	</g>
	<g>
		<path fill-rule="evenodd" clip-rule="evenodd" fill="#FFFFFF" d="M781.114,230.295h142.862
			c20.209-19.656,24.621-43.061,24.621-43.061l-49.259-11.093c-6.815,20.47-23.568,35.983-45.893,35.983
			c-16.751,0-34.104-6.826-44.034-19.86c-9.926-13.021-9.31-29.923-9.31-29.923h-51.63
			C748.473,174.943,754.524,207.244,781.114,230.295z"/>
		<path fill-rule="evenodd" clip-rule="evenodd" fill="#FFFFFF" d="M793.741,239.596c26.709,17.114,48.402,16.813,62.191,17.183
			c9.232,0.241,33.024-0.529,56.786-17.183H793.741z"/>
	</g>
	<g>
		<path fill-rule="evenodd" clip-rule="evenodd" fill="#FFFFFF" d="M541.46,80.567v72.005h173.523c0,0,8.369-9.289,8.369-32.558
			c0-13.989-3.486-27.985-14.156-39.447H541.46z M646.587,141.411h-48.365v-21.864V97.68h48.365c0,0,26.99,1.245,26.99,21.867
			C673.577,140.175,646.587,141.411,646.587,141.411z"/>
		<path fill-rule="evenodd" clip-rule="evenodd" fill="#FFFFFF" d="M697.938,71.272c-2.604-1.69-5.433-3.29-8.551-4.753
			c-26.512-12.555-66.746-11.635-66.746-11.635H541.46v16.388H697.938z"/>
	</g>
</g>
</svg>
