<?xml version="1.0" encoding="utf-8"?>
<!-- Generator: Adobe Illustrator 16.0.3, SVG Export Plug-In . SVG Version: 6.00 Build 0)  -->
<!DOCTYPE svg PUBLIC "-//W3C//DTD SVG 1.1//EN" "http://www.w3.org/Graphics/SVG/1.1/DTD/svg11.dtd">
<svg version="1.1" id="圖" xmlns="http://www.w3.org/2000/svg" xmlns:xlink="http://www.w3.org/1999/xlink" x="0px" y="0px"
	 width="814.763px" height="744.566px" viewBox="0 0 814.763 744.566" enable-background="new 0 0 814.763 744.566"
	 xml:space="preserve">
<pattern  x="-384.059" y="-710" width="28.8" height="28.8" patternUnits="userSpaceOnUse" id="_x31_0_dpi_30_x25_" viewBox="16.56 -30.96 28.8 28.8" overflow="visible">
	<g>
		<polygon fill="none" points="16.56,-30.96 45.36,-30.96 45.36,-2.16 16.56,-2.16 		"/>
		<g>
			<defs>
				<rect id="SVGID_1_" x="16.56" y="-30.96" width="28.8" height="28.8"/>
			</defs>
			<clipPath id="SVGID_2_">
				<use xlink:href="#SVGID_1_"  overflow="visible"/>
			</clipPath>
			<path clip-path="url(#SVGID_2_)" fill="#F2F2F2" d="M45.36,0c1.191,0,2.159-0.967,2.159-2.16c0-1.193-0.968-2.16-2.159-2.16
				c-1.193,0-2.16,0.967-2.16,2.16C43.2-0.967,44.167,0,45.36,0z"/>
			<path clip-path="url(#SVGID_2_)" fill="#F2F2F2" d="M30.96,0c1.192,0,2.16-0.967,2.16-2.16c0-1.193-0.968-2.16-2.16-2.16
				c-1.193,0-2.16,0.967-2.16,2.16C28.8-0.967,29.767,0,30.96,0z"/>
			<path clip-path="url(#SVGID_2_)" fill="#F2F2F2" d="M16.56,0c1.192,0,2.16-0.967,2.16-2.16c0-1.193-0.968-2.16-2.16-2.16
				c-1.193,0-2.16,0.967-2.16,2.16C14.4-0.967,15.367,0,16.56,0z"/>
			<path clip-path="url(#SVGID_2_)" fill="#F2F2F2" d="M45.36-14.4c1.191,0,2.159-0.967,2.159-2.16s-0.968-2.16-2.159-2.16
				c-1.193,0-2.16,0.967-2.16,2.16S44.167-14.4,45.36-14.4z"/>
			<path clip-path="url(#SVGID_2_)" fill="#F2F2F2" d="M30.96-14.4c1.192,0,2.16-0.967,2.16-2.16s-0.968-2.16-2.16-2.16
				c-1.193,0-2.16,0.967-2.16,2.16S29.767-14.4,30.96-14.4z"/>
			<path clip-path="url(#SVGID_2_)" fill="#F2F2F2" d="M16.56-14.4c1.192,0,2.16-0.967,2.16-2.16s-0.968-2.16-2.16-2.16
				c-1.193,0-2.16,0.967-2.16,2.16S15.367-14.4,16.56-14.4z"/>
			<path clip-path="url(#SVGID_2_)" fill="#F2F2F2" d="M45.36-28.8c1.191,0,2.159-0.967,2.159-2.16s-0.968-2.16-2.159-2.16
				c-1.193,0-2.16,0.967-2.16,2.16S44.167-28.8,45.36-28.8z"/>
			<path clip-path="url(#SVGID_2_)" fill="#F2F2F2" d="M30.96-28.8c1.192,0,2.16-0.967,2.16-2.16s-0.968-2.16-2.16-2.16
				c-1.193,0-2.16,0.967-2.16,2.16S29.767-28.8,30.96-28.8z"/>
			<path clip-path="url(#SVGID_2_)" fill="#F2F2F2" d="M16.56-28.8c1.192,0,2.16-0.967,2.16-2.16s-0.968-2.16-2.16-2.16
				c-1.193,0-2.16,0.967-2.16,2.16S15.367-28.8,16.56-28.8z"/>
			<path clip-path="url(#SVGID_2_)" fill="#F2F2F2" d="M2.16-28.8c1.192,0,2.16-0.967,2.16-2.16s-0.968-2.16-2.16-2.16
				C0.967-33.12,0-32.153,0-30.96S0.967-28.8,2.16-28.8z"/>
			<path clip-path="url(#SVGID_2_)" fill="#F2F2F2" d="M2.16-30.96"/>
			<path clip-path="url(#SVGID_2_)" fill="#F2F2F2" d="M23.76-7.2c1.192,0,2.16-0.967,2.16-2.16c0-1.193-0.968-2.16-2.16-2.16
				c-1.193,0-2.16,0.967-2.16,2.16C21.6-8.167,22.567-7.2,23.76-7.2z"/>
			<path clip-path="url(#SVGID_2_)" fill="#F2F2F2" d="M38.16-7.2c1.191,0,2.16-0.967,2.16-2.16c0-1.193-0.969-2.16-2.16-2.16
				c-1.193,0-2.16,0.967-2.16,2.16C36-8.167,36.967-7.2,38.16-7.2z"/>
			<path clip-path="url(#SVGID_2_)" fill="#F2F2F2" d="M23.76-21.6c1.192,0,2.16-0.967,2.16-2.16c0-1.193-0.968-2.16-2.16-2.16
				c-1.193,0-2.16,0.967-2.16,2.16C21.6-22.567,22.567-21.6,23.76-21.6z"/>
			<path clip-path="url(#SVGID_2_)" fill="#F2F2F2" d="M38.16-21.6c1.191,0,2.16-0.967,2.16-2.16c0-1.193-0.969-2.16-2.16-2.16
				c-1.193,0-2.16,0.967-2.16,2.16C36-22.567,36.967-21.6,38.16-21.6z"/>
			<path clip-path="url(#SVGID_2_)" fill="#F2F2F2" d="M9.36-21.6c1.192,0,2.16-0.967,2.16-2.16c0-1.193-0.968-2.16-2.16-2.16
				c-1.193,0-2.16,0.967-2.16,2.16C7.2-22.567,8.167-21.6,9.36-21.6z"/>
			<path clip-path="url(#SVGID_2_)" fill="#F2F2F2" d="M9.36-23.76"/>
		</g>
	</g>
</pattern>
<g>
	<g>
		<path fill="#DBDBDB" d="M797.364,174.655l-1.561-2.236l-6.656-3.78l-11.915,2.49l-16.822,8.975l-7.346,4.876l-22.329,4.561
			l-2.83,5.927l5.004,7.114l-3.258,7.604l-9.197,5.85l-7.054,2.474l-7.397,3.916l-6.531,8.233l-6.174,10.077l-10.088,7.196
			l-12.414,3.839l-26.982,16.154l-26.124,10.626l-7.612,4.56l-9.499,7.985l-3.829,9.916l0.269,8.315l2.044,6.382l0.84,4.07
			l-7.807,5.512l-13.328,6.47l-9.885,6.947l-7.612,6.545l-9.798,3.684l-11.563,3.231l-6.14,1.71l-10.745,7.824l6.249,24.904
			l-4.518,7.662l-6.883,2.561l-6.442-1.291l-7.829,3.205l-1.097,3.021l-4.647,12.999l-2.699,9.496l1.151,8.782l-7.518,11.648
			l-28.019,28.371l-8.701,20.961l7.315,1.99l-1.367,11.159l2.916,7.409l9.851,2.151l8.787,5.093l7.452,5.108l7.832-1.21l9.582-4.538
			h9.799l11.667,9.405l5.003,4.049l13.001,6.298l30.179,7.647l16.512,6.301l13.087,0.068l9.875-9.074l4.645-11.945l7.625-1.748
			l37.053,22.127l22.285,3.346l2.17,0.06l-0.419-0.464l-2.097-3.313l1.022-2.753l2.01-2.656l1.12-3.27l1.029-12.724l1.625-6.463
			l2.571-4.496l2.314-5.362l-0.863-13.97l0.473-6.308l14.104-16.164l12.419-7.229l5.056-4.753l-1.206-5.604l-3.374-5.415
			l-1.549-5.975l0.903-4.926l11.947-6.803l1.677-11.303l-2.7-13.003l-5.267-10.034l3.719-2.662l5.184-1.695l6.174-0.639l6.519,0.661
			v-3.582l-15.345-2.828l-13.016-8.056l-6.862-12.492l-0.387-16.191l2.829-7.923l0.384-7.92l-6.592-30.99l-0.513-14.864
			l1.062-15.315l3.044-15.412l4.669-13.454l5.915-9.632l37.405-45.606l11.058-9.593l23.983-11.88V174.655z M785.756,253.265
			l-3.859-0.667l-0.472-0.231l-0.218,0.118l-0.331-0.048l-0.302,0.424l-4.968,2.855l-1.982-0.661l2.575,4.157l0.17,0.022
			l0.773,1.226l2.701,1.539l7.666,0.258l1.464-4.674l-1.291-1.253L785.756,253.265z"/>
		<path fill="#F5F5F5" d="M698.881,563.041l-14.455-0.437l-23.26-3.492l-36.176-21.604l-3.085,0.707l-4.105,10.559l-12.177,11.189
			l-15.959-0.083l-17.087-6.521l-30.39-7.701l-13.978-6.771l-15.736-12.703h-6.911l-9.224,4.368l-10.508,1.624l-8.929-6.121
			l-7.947-4.606l-11.695-2.554l-4.357-11.074l0.995-8.121l-8.623-2.346l11.254-27.113l28.341-28.698l6.242-9.672l-1.047-7.987
			l3.083-10.805l6.508-18.125l11.275-4.615l6.529,1.308l3.888-1.446l2.575-4.367l-6.571-26.188l14.204-10.342l18.36-5.125
			l8.765-3.295l7.326-6.268l10.214-7.179l13.323-6.467l4.799-3.388l-0.124-0.603l-2.176-6.793l-0.324-10.028l4.658-12.063
			l10.788-9.07l8.284-4.962l26.125-10.626l27.17-16.266l12.219-3.779l8.603-6.137l5.989-9.705l7.183-9.054l8.655-4.581l6.864-2.407
			l7.407-4.711l1.551-3.62l-5.082-7.225l5.163-10.812l23.814-4.864l6.946-4.584l17.453-9.312l14.464-3.022l9.283,5.272l3.107,4.453
			v4.675l-2.78,1.384l-23.41,11.596l-10.254,8.895L729,244.647l-5.452,8.878l-4.376,12.611l-2.915,14.761l-1.022,14.743
			l0.488,14.166l6.636,31.195l-0.451,9.309l-2.767,7.748l0.336,14.045l5.642,10.271l11.098,6.869l18.514,3.412v13.277l-11.514-1.167
			l-5.133,0.531l-3.42,1.118l3.491,6.651l3.023,14.56l-2.164,14.59l-12.038,6.854l-0.284,1.549l1.08,4.165l3.431,5.505l1.983,9.217
			l-7.529,7.079l-12.201,7.102l-12.469,14.29l-0.322,4.307l0.916,14.822l-3.039,6.96l-2.229,3.899l-1.356,5.394l-1.046,12.935
			l-1.583,4.62l-1.908,2.521l0.632,0.935L698.881,563.041z M664.601,549.516l15.659,2.351l1.154-3.107l1.97-2.604l0.657-1.919
			l1.013-12.513l1.894-7.532l2.773-4.849l1.729-4.008l-0.811-13.118l0.623-8.308l15.738-18.038l12.637-7.355l2.582-2.428
			l-0.429-1.991l-3.317-5.324l-2.018-7.785l1.522-8.304l11.856-6.75l1.189-8.017l-2.377-11.446l-6.965-13.269l7.885-5.644
			l0.708-0.231l-12.656-7.833l-8.083-14.713l-0.438-18.338l2.892-8.098l0.316-6.532l-6.548-30.785l-0.537-15.562l1.162-16.197
			l3.226-16.082l4.848-13.968l6.594-10.65l37.675-45.934l11.861-10.29l16.481-8.164l-8.114,1.695l-15.979,8.525l-7.957,5.282
			l-20.844,4.257l-0.497,1.041l4.926,7.003l-4.965,11.589l-10.987,6.988l-7.243,2.54l-6.14,3.25l-5.691,7.174l-6.547,10.687
			l-11.573,8.255l-12.609,3.9l-26.795,16.042l-26.123,10.626l-6.94,4.157l-8.21,6.901l-3,7.77l0.213,6.602l1.966,6.231l1.502,7.277
			l-10.814,7.635l-13.333,6.472l-9.356,6.576l-8.099,6.963l-11.041,4.13l-16.836,4.701l-7.287,5.305l5.927,23.621l-6.46,10.957
			l-9.878,3.675l-6.356-1.273l-4.382,1.794l-0.341,0.939l-4.583,12.82l-2.372,8.342l1.256,9.578l-8.793,13.625l-27.696,28.044
			l-6.147,14.81l6.008,1.634l-1.739,14.196l1.474,3.745l8.006,1.748l9.784,5.688l5.818,3.988l5.156-0.796l9.94-4.708h12.688
			l17.604,14.206l12.024,5.825l29.968,7.594l15.936,6.082l10.215,0.053l7.573-6.959l5.184-13.331l12.165-2.788L664.601,549.516z
			 M791.145,267.381l-12.703-0.427l-4.86-2.769l-0.186-0.294l-0.195-0.025l-11.104-17.926l12.964,4.323l2.074-1.192l1.437-2.02
			l1.715,0.248l1.027-0.555l2.141,1.048l5.35,0.925l2.793,4.442l3.069,2.979L791.145,267.381z"/>
	</g>
	<g>
		<polygon fill-rule="evenodd" clip-rule="evenodd" fill="#DBDBDB" points="539.908,352.168 534.995,341.252 517.087,324.317 
			514.311,313.142 512.709,302.749 518.97,295.248 521.874,284.787 505.041,260.089 494.942,256.083 480.089,256.878 
			469.808,251.141 472.529,237.691 470.485,227.448 459.763,217.219 457.591,207.05 459.763,195.451 459.333,183.045 
			466.732,174.973 492.845,167.289 499.601,160.325 501.556,151.915 500.601,143.827 490.317,128.856 481.832,124.366 
			473.701,122.44 467.302,116.676 457.805,110.594 445.265,104.506 436.78,95.273 396.523,102.56 378.617,109.013 369.626,113.911 
			362.205,120.44 353.599,125.834 316.71,137.965 302.309,150.161 288.392,166.756 270.572,195.161 276.949,197.393 
			304.233,195.451 313.483,201.695 321.485,219.064 331.498,222.979 340.146,225.469 348.329,229.383 362.042,233.853 
			369.228,242.177 366.969,253.926 373.882,261.363 386.994,265.526 395.339,271.597 401.632,277.835 409.279,279.271 
			416.969,278.625 423.777,285.654 428.992,294.762 437.705,299.082 444.554,304.351 445.265,314.418 448.427,328.959 
			444.663,344.457 435.413,357.47 436.563,366.182 446.793,374.066 459.192,381.502 470.291,383.407 478.348,389.166 
			492.93,397.452 502.503,401.764 503.601,398.743 511.429,395.538 517.872,396.829 524.754,394.268 529.272,386.606 
			523.023,361.702 533.768,353.878 		"/>
		<path fill="#F5F5F5" d="M505.363,408.536l-14.903-6.736l-15.019-8.566l-7.125-5.092l-10.892-1.869l-13.683-8.246l-11.865-9.144
			l-1.677-12.707l9.832-13.833l3.266-13.446l-2.994-13.768l-0.578-8.185l-4.681-3.601l-9.636-4.777l-5.659-9.884l-4.723-4.876
			l-6.004,0.504l-9.82-1.844l-7.112-7.051l-7.381-5.37l-13.593-4.315l-9.536-10.258l2.28-11.862l-4.693-5.436l-12.996-4.281
			l-7.809-3.735l-8.686-2.523l-11.889-4.649l-8.261-17.93l-6.66-4.496l-26.594,1.893l-13.265-4.644l21.553-34.267l14.19-16.922
			l15.471-13.101l37.237-12.246l7.747-4.856l7.537-6.63l9.818-5.35l18.66-6.724l43.376-7.852l9.706,10.561l12.198,5.961l9.842,6.303
			l5.754,5.183l7.508,1.778l10.137,5.364l11.679,17.002l1.203,10.183l-2.467,10.614l-8.639,8.904l-26.04,7.663l-5.077,5.539
			l0.378,10.913l-2.089,11.157l1.64,7.681l10.75,10.254l2.55,12.777l-2.197,10.856l5.832,3.254l14.504-0.777l12.541,4.975
			l19.003,27.882l-3.813,13.735l-5.504,6.595l1.223,7.938l2.369,9.535l17.562,16.607l7.707,17.125l-10.875,3.03l-7.287,5.305
			l5.927,23.621l-6.46,10.958l-9.877,3.674l-6.356-1.273l-4.382,1.794L505.363,408.536z M495.197,392.989l4.446,2.002l0.014-0.038
			l11.275-4.615l6.529,1.308l3.888-1.446l2.575-4.367l-6.571-26.187l14.204-10.342l1.404-0.391l-2.119-4.708l-18.253-17.261
			l-3.219-13.041l-1.945-12.625l7.017-8.407l1.994-7.186l-14.663-21.514l-7.656-3.038l-15.202,0.815l-14.731-8.221l3.246-16.044
			l-1.538-7.709l-10.696-10.203l-2.704-12.658l2.255-12.042l-0.481-13.898l9.721-10.604l26.187-7.706l4.873-5.023l1.443-6.207
			l-0.708-5.994l-8.889-12.939l-6.834-3.616l-8.753-2.073l-7.044-6.345l-8.903-5.702l-13.13-6.375l-7.265-7.905l-37.136,6.722
			l-17.152,6.181l-8.164,4.448l-7.306,6.427l-9.464,5.932l-36.542,12.017l-13.332,11.29l-13.421,16.004l-14.166,22.581l27.322-1.945
			l11.839,7.992l7.744,16.808l7.92,3.097l8.825,2.541l8.262,3.952l14.725,4.8l9.679,11.212l-2.237,11.637l4.292,4.616l12.631,4.01
			l9.309,6.772l5.474,5.427l5.473,1.027l9.376-0.788l8.893,9.181l4.771,8.333l7.79,3.862l9.019,6.938l0.844,11.95l3.33,15.313
			l-4.263,17.549l-8.667,12.194l0.623,4.717l8.364,6.446l11.347,6.805l11.305,1.939l8.778,6.274L495.197,392.989z"/>
	</g>
	<g>
		<polygon fill-rule="evenodd" clip-rule="evenodd" fill="#DBDBDB" points="622.971,146.634 613.775,141.465 613.399,131.254 
			616.657,118.042 613.399,109.147 605.61,102.238 600.663,82.104 597.288,75.011 594.19,68.461 593.373,61.546 594.46,54.334 
			590.329,50 582.651,47.478 574.659,51.446 568.773,56.437 546.967,69.424 539.834,77.419 535.586,86.555 531.993,91.364 
			528.789,97.311 536.347,105.786 547.887,116.837 550.278,129.334 547.125,144.231 555.064,157.679 566.603,166.746 
			574.217,175.452 581.563,181.937 591.2,184.094 602.836,184.217 611.217,180.733 626.456,161.525 630.423,152.995 		"/>
		<path fill="#F5F5F5" d="M603.809,189.228l-13.188-0.14l-11.403-2.553l-8.764-7.792l-7.307-8.354l-11.911-9.359l-9.405-15.932
			l3.347-15.813l-1.901-9.94l-10.661-10.23l-9.891-11.09l5.041-9.357l3.505-4.689l4.341-9.335l8.136-9.12l22.109-13.168l6.033-5.115
			l10.375-5.15l10.817,3.554l6.688,7.016l-1.354,8.969l0.643,5.436l6.338,13.354l4.696,19.115l7.567,6.712l4.217,11.513
			l-3.456,14.015l0.247,6.709l7.178,4.035l10.713,9.144l-5.819,12.511l-16.409,20.685L603.809,189.228z M591.779,179.1l10.085,0.107
			l6.24-2.594l14.067-17.732l2.116-4.549l-4.191-3.578l-11.215-6.303l-0.505-13.713l3.061-12.41l-2.3-6.276l-8.011-7.106
			l-5.198-21.152l-6.607-13.932l-0.992-8.395l0.822-5.454l-1.575-1.652l-4.538-1.491l-5.609,2.785l-5.739,4.866l-21.502,12.808
			l-6.129,6.871l-4.155,8.936l-3.683,4.928l-1.367,2.537l5.096,5.713l12.55,12.019l2.88,15.054l-2.958,13.979l6.472,10.964
			l11.167,8.775l7.709,8.814l6.141,5.421L591.779,179.1z"/>
	</g>
	<g>
		<polygon fill-rule="evenodd" clip-rule="evenodd" fill="#DBDBDB" points="514.238,521.184 504.439,521.184 494.857,525.722 
			487.025,526.932 479.574,521.824 470.787,516.73 460.936,514.58 458.021,507.17 459.387,496.012 452.072,494.021 446.404,492.499 
			425.239,494.485 423.69,495.576 416.237,500.792 412.623,512.027 402.879,516.085 392.22,515.85 383.724,521.824 374.583,530.665 
			362.838,537.116 339.629,555.598 325.831,561.24 308.149,570.721 297.264,566.42 287.316,555.346 275.206,550.491 255.482,549 
			244.436,555.598 242.694,570.318 232.251,575.975 207.869,577.245 184.669,563.871 171.603,561.482 156.805,554.314 
			126.636,532.025 114.064,521.033 104.578,510.993 86.122,482.471 59.525,511.988 52.835,522.996 47.178,542.844 28.551,575.188 
			23.107,599.841 18.645,612.667 12.052,618.188 10.546,624.787 9.31,626.265 9.298,626.277 20.967,630.083 28.97,637.08 
			34.303,649.797 36.37,664.991 45.349,675.886 69.151,682.874 77.776,690.029 84.229,700.039 88.219,707.999 88.306,715.934 
			90.779,722.668 99.32,724.185 110.256,731.337 110.289,734.133 118.742,734.433 154.739,739.51 163.15,738.166 173.098,728.637 
			188.263,699.802 195.651,682.874 208.471,676.745 228.734,679.701 240.79,679.134 252.33,663.796 258.342,659.975 
			276.324,673.335 283.284,671.516 288.533,660.621 297.9,652.751 311.171,652.987 321.185,649.168 336.994,633.902 
			347.136,628.175 355.977,626.508 373.657,617.199 386.038,616.72 398.523,614.72 420.787,605.905 430.142,605.264 439.554,607.41 
			466.302,609.892 466.323,609.892 471.927,605.891 474.378,601.83 481.208,598.254 487.295,590.779 489.91,580.439 
			495.919,570.571 511.054,561.021 515.753,548.675 516.624,540.31 525.905,530.589 		"/>
		<path fill="#F5F5F5" d="M154.785,744.566l-36.482-5.146l-12.958-0.459l-0.057-4.899l-7.849-5.133l-10.362-1.84l-3.761-10.24
			l-0.083-7.642l-3.352-6.687l-5.89-9.135l-7.238-6.005l-24.286-7.13l-10.86-13.177l-2.169-15.95l-4.63-11.042l-6.361-5.562
			L0,628.504l5.939-6.003l1.612-7.066l6.824-5.715l3.913-11.244l5.545-25.118l18.704-32.477l5.674-19.906l7.285-11.986
			l31.278-34.713l21.752,33.615l9.008,9.533l12.238,10.7l29.63,21.891l13.768,6.669l13.248,2.422l22.667,13.066l21.778-1.134
			l7.17-3.884l1.727-14.59l14.52-8.671l22.071,1.667l13.907,5.575l9.939,11.064l7.633,3.016l16.109-8.607l13.136-5.371
			l22.982-18.302l11.531-6.333l8.941-8.647l10.159-7.144l11.245,0.249l6.637-2.765l3.422-10.64l11.456-8.028l23.385-2.194
			l18.043,4.887l-1.739,14.196l1.474,3.745l8.006,1.748l9.784,5.688l5.818,3.988l5.156-0.797l9.94-4.707h12.688l17.273,13.925
			l-11.855,12.417l-0.762,7.317l-5.526,14.517l-15.553,9.813l-5.007,8.222l-2.701,10.683l-7.436,9.129l-6.5,3.403l-2.263,3.749
			l-7.75,5.532l-2.084-0.021l-27.076-2.512l-9.015-2.055l-7.844,0.538l-22.05,8.73l-13.624,2.145l-11.248,0.435l-17.342,9.132
			l-8.766,1.653l-8.867,5.006l-16.086,15.534l-11.873,4.527l-12.366-0.22l-7.112,5.975l-5.786,12.01l-11.517,3.011l-17.147-12.74
			l-2.342,1.489l-12.407,16.489l-14.884,0.701l-19.234-2.806l-9.766,4.668l-6.801,15.548l-15.543,29.556l-11.663,11.171
			L154.785,744.566z M115.233,729.306l4.207,0.176l35.252,4.972l6.127-0.979l8.232-7.885l14.701-27.953l8.062-18.47l15.874-7.588
			l21.292,3.106l9.228-0.434l10.673-14.186l9.682-6.155l18.818,13.981l2.402-0.628l4.711-9.78l11.623-9.764l14.177,0.251
			l8.154-3.109l15.533-15l11.417-6.447l8.914-1.681l18.019-9.488l13.213-0.511l11.648-1.866l22.478-8.899l10.866-0.745l9.809,2.236
			l24.585,2.281l3.251-2.321l2.64-4.373l7.159-3.749l4.74-5.82l2.528-9.998l7.012-11.514l14.715-9.285l3.874-10.176l0.979-9.415
			l6.706-7.024l-6.06-4.885h-6.911l-9.224,4.368l-10.508,1.624l-8.929-6.121l-7.947-4.606l-11.695-2.554l-4.357-11.074l0.995-8.121
			l-7.922-2.14l-18.945,1.778l-6.548,4.584l-3.806,11.832l-12.851,5.353l-10.073-0.223l-6.833,4.805l-9.342,9.035l-11.958,6.568
			l-23.436,18.662l-14.219,5.814l-19.497,10.455l-14.137-5.586l-9.957-11.084l-10.315-4.135l-17.375-1.313l-7.573,4.523
			l-1.758,14.851l-13.715,7.43l-26.987,1.406l-23.732-13.681l-12.885-2.356l-15.828-7.667l-30.862-22.822l-12.916-11.322
			l-9.801-10.373l-15.161-23.429l-21.914,24.321l-6.095,10.029l-5.642,19.792l-18.55,32.21l-5.438,24.468l-4.917,14.129l-6.36,5.328
			l-0.519,2.274l7.455,2.432l9.645,8.431l6.036,14.394l1.963,14.437l7.098,8.612l23.319,6.846l10.012,8.306l7.138,11.126
			l4.507,8.992l0.09,8.229l1.186,3.229l6.719,1.193l14.024,9.171L115.233,729.306z"/>
	</g>
	<path fill="#DBDBDB" d="M803.28,157.185l-8.444-2.27l-7.193-0.759l-14.018,2.13l-4.234-1.936l-5.27-8.137l-4.886-17.401
		l-1.418-10.405l0.903-5.866l3.259-7.336l-6.475-4.113l-69.263-16.827l-0.593,23.924l0.334,6.066l7.4,7.749l-0.764,4.927
		l-5.067,3.726l-7.991,3l-10.29-1.316l-21.168-8.83l-5.977-4.265l-7.347-6.975l-5.711-6.969l-3.432-7.029l-5.71-7.394l-1.141-5.769
		l6.366-4.329l14.357-6.249l8.819-5.878l0.015-0.012l-4.615-3.236l-2.143-2.534l-0.172-4.382l2.012-3.549l2.107-2.581l0.247-1.774
		l-4.366-1.21l-6.174,0.715l-5.387,1.489l-2.354,0.995l-7.206-14.965l-20.05-28.303l-9-6.755L569.616,0l-22.071,5.044l-19.229,9.809
		l-13.154,11.91l-6.387,11.702l-4.152,10.319l-1.591,1.85l-3.808,1.796l-3.646,3.033l-1.752,5.42l6.12,3.834l11.615,11.767
		l7.239,11.379l-6.938,2.818l-3.129-3.104l-2.441-5.511l-3.775-5.275l-7.023-2.346l-6.085,0.098l-4.54,0.801l-3.679,1.844
		L468.839,87.46l-9.506,3.742l-22.531,4.066l-0.022,0.005l8.485,9.233l12.54,6.088l9.497,6.082l6.399,5.764l8.13,1.926l8.485,4.49
		l10.284,14.971l0.956,8.088l-1.955,8.41l-6.756,6.964l-26.113,7.684l-7.399,8.072l0.43,12.406l-2.172,11.599l2.172,10.169
		l10.723,10.229l2.044,10.243l-2.721,13.45l10.281,5.737l14.853-0.796l10.099,4.006l16.833,24.698l-2.903,10.46l-6.261,7.501
		l1.601,10.394l2.777,11.175l17.907,16.935l4.913,10.916l11.563-3.231l9.798-3.684l7.612-6.545l9.885-6.947l13.328-6.47l7.807-5.512
		l-0.84-4.07l-2.044-6.382l-0.269-8.315l3.829-9.916l9.499-7.985l7.612-4.56l26.124-10.626l26.982-16.154l12.414-3.839l10.088-7.196
		l6.174-10.077l6.531-8.233l7.397-3.916l7.054-2.474l9.197-5.85l3.258-7.604l-5.004-7.114l2.83-5.927l22.329-4.561l7.346-4.876
		l16.822-8.975l11.915-2.49l6.656,3.78l1.561,2.236v0.006l17.399-8.615l-4.032-5.103L803.28,157.185z M626.456,161.525
		l-15.238,19.208l-8.381,3.484l-11.637-0.124l-9.637-2.157l-7.346-6.485l-7.614-8.706l-11.539-9.067l-7.938-13.448l3.152-14.896
		l-2.391-12.497l-11.54-11.051l-7.559-8.475l3.204-5.947l3.594-4.809l4.248-9.136l7.133-7.995l21.806-12.988l5.886-4.991
		l7.992-3.968L590.329,50l4.132,4.334l-1.088,7.211l0.817,6.915l3.098,6.55l3.375,7.093l4.947,20.134l7.789,6.909l3.258,8.895
		l-3.258,13.212l0.376,10.211l9.196,5.169l7.452,6.361L626.456,161.525z M603.809,189.228l-13.188-0.14l-11.403-2.553l-8.764-7.792
		l-7.307-8.354l-11.911-9.359l-9.405-15.932l3.347-15.813l-1.901-9.94l-10.661-10.23l-9.891-11.09l5.041-9.357l3.505-4.689
		l4.341-9.335l8.136-9.12l22.109-13.168l6.033-5.115l10.375-5.15l10.817,3.554l6.688,7.016l-1.354,8.969l0.643,5.436l6.338,13.354
		l4.696,19.115l7.567,6.712l4.217,11.513l-3.456,14.015l0.247,6.709l7.178,4.035l10.713,9.144l-5.819,12.511l-16.409,20.685
		L603.809,189.228z M591.779,179.1l10.085,0.107l6.24-2.594l14.067-17.732l2.116-4.549l-4.191-3.578l-11.215-6.303l-0.505-13.713
		l3.061-12.41l-2.3-6.276l-8.011-7.106l-5.198-21.152l-6.607-13.932l-0.992-8.395l0.822-5.454l-1.575-1.652l-4.538-1.491
		l-5.609,2.785l-5.739,4.866l-21.502,12.808l-6.129,6.871l-4.155,8.936l-3.683,4.928l-1.367,2.537l5.096,5.713l12.55,12.019
		l2.88,15.054l-2.958,13.979l6.472,10.964l11.167,8.775l7.709,8.814l6.141,5.421L591.779,179.1z"/>
	<g>
		<polygon fill-rule="evenodd" clip-rule="evenodd" fill="#DBDBDB" points="422.412,485.821 413.323,470.188 406.686,463.73 
			404.052,454.884 394.039,446.898 368.871,453.282 359.354,452.325 345.717,453.207 330.327,457.438 322.13,455.448 
			323.959,445.313 326.433,435.982 324.529,428.088 322.571,422.27 324.529,415.956 326.11,409.094 326.809,401.286 
			325.239,390.752 317.561,384.046 293.188,372.555 281.165,363.605 273.431,354.668 264.537,332.498 264.161,332.959 
			254.934,335.191 246.178,331.674 240.737,324.092 232.251,318.897 218.485,313.536 218.453,313.525 217.742,316.149 
			210.547,319.757 208.87,323.435 205.19,334.922 197.737,342.467 192.296,349.873 194.221,360.857 179.82,358.121 168.646,361.067 
			159.429,367.881 151.028,376.646 148.297,381.55 146.017,386.825 142.209,391.069 128.668,395.076 125.583,400.448 
			122.366,412.955 110.546,433.848 106.137,445.032 104.373,458.24 100.652,466.338 86.122,482.46 86.122,482.471 104.578,510.993 
			114.064,521.033 126.636,532.025 156.805,554.314 171.603,561.482 184.669,563.871 207.869,577.245 232.251,575.975 
			242.694,570.318 244.436,555.598 255.482,549 275.206,550.491 287.316,555.346 297.264,566.42 308.149,570.721 325.831,561.24 
			339.629,555.598 362.838,537.116 374.583,530.665 383.724,521.824 392.22,515.85 402.879,516.085 412.623,512.027 
			416.237,500.792 423.69,495.576 		"/>
		<path fill="#F5F5F5" d="M206.653,582.315l-23.732-13.681l-12.885-2.356l-15.828-7.667l-30.862-22.822l-12.916-11.322
			l-9.801-10.373l-19.507-30.146v-3.397l1.286-1.438l14.02-15.555l3.089-6.724l1.746-13.069l4.932-12.379l11.494-20.317
			l3.221-12.523l4.421-7.696l14.103-4.173l2.318-2.583l2.178-4.976l3.044-5.466l9.141-9.537l10.331-7.638l13.196-3.479l8.407,1.598
			l-1.045-5.962l6.921-9.419l6.87-6.954l3.527-10.898l2.409-5.282l6.771-3.396l1.512-5.581l5.287,1.774l14.182,5.523l9.729,5.956
			l5.182,7.222l5.921,2.378l6.034-1.459l4.67-5.738l11.743,29.272l6.829,7.891l11.184,8.325l24.552,11.576l9.589,8.375l1.929,12.941
			l-0.859,9.079l-1.678,7.22l-1.479,4.771l1.564,4.709l2.2,9.125l-2.746,10.358l-0.957,5.302l2.362,0.573l14.636-4.024l14.559-0.941
			l9.052,0.91l26.721-6.778l13.181,10.513l2.71,9.101l6.194,6.028l9.938,17.094l1.803,13.757l-8.56,5.991l-3.805,11.831
			l-12.851,5.353l-10.074-0.223l-6.833,4.804l-9.342,9.036l-11.958,6.568l-23.436,18.662l-14.219,5.814l-19.497,10.455
			l-14.137-5.586l-9.957-11.084l-10.315-4.135l-17.375-1.313l-7.573,4.523l-1.758,14.851l-13.715,7.43L206.653,582.315z
			 M173.171,556.686l13.248,2.422l22.667,13.066l21.778-1.134l7.17-3.884l1.727-14.59l14.52-8.671l22.071,1.667l13.907,5.575
			l9.939,11.064l7.633,3.016l16.109-8.607l13.135-5.371l22.983-18.302l11.531-6.333l8.941-8.647l10.159-7.144l11.245,0.249
			l6.637-2.765l3.422-10.64l6.346-4.441l-0.754-5.752l-8.24-14.173l-7.079-6.888l-2.558-8.59l-6.846-5.46l-23.615,5.99l-9.983-1.004
			l-12.714,0.822l-16.145,4.439l-14.032-3.406l2.753-15.165l2.149-8.107l-1.556-6.45l-2.403-7.142l2.382-7.681l1.462-6.346
			l0.615-6.873l-1.211-8.125l-5.768-5.037l-24.193-11.408l-12.862-9.574l-8.639-9.982l-7.46-18.594l-7.088,1.714l-11.59-4.656
			l-5.7-7.943l-7.243-4.434l-8.766-3.414l-6.892,3.456l-0.823,1.805l-3.954,12.345l-8.037,8.136l-3.961,5.391l2.806,16.008
			l-20.396-3.876l-9.151,2.413l-8.104,5.991l-7.66,7.993l-2.297,4.124l-2.503,5.793l-5.298,5.904l-12.979,3.841l-1.751,3.048
			l-3.212,12.491l-11.974,21.165l-4.058,10.292l-1.783,13.347l-4.352,9.474l-12.48,13.847l16.129,24.926l9.008,9.533l12.238,10.7
			l29.63,21.891L173.171,556.686z"/>
	</g>
	<g>
		<polygon fill-rule="evenodd" clip-rule="evenodd" fill="#DBDBDB" points="685.983,114.256 685.649,108.189 686.242,84.265 
			663.743,78.802 656.03,75.962 652.688,72.65 651.139,70.612 648.344,68.643 648.33,68.655 639.51,74.533 625.153,80.781 
			618.787,85.11 619.927,90.879 625.637,98.273 629.069,105.302 634.78,112.271 642.126,119.246 648.103,123.511 669.271,132.341 
			679.561,133.657 687.552,130.658 692.62,126.932 693.383,122.005 		"/>
		<path fill="#F5F5F5" d="M680.157,138.774l-12.188-1.56l-22.311-9.307l-6.974-5.036l-7.771-7.432l-6.081-7.42l-3.464-7.094
			l-6.117-7.922l-2.011-10.168l9.488-6.452l14.379-6.258l8.27-5.511l2.763-2.21l6.513,4.566l1.805,2.375l2.321,2.301l6.423,2.365
			l26.14,6.347l-0.688,27.756l0.222,4.024l7.828,8.197l-1.457,9.403l-7.288,5.358L680.157,138.774z M670.574,127.467l8.392,1.073
			l6.183-2.32l2.847-2.094l0.07-0.451l-6.973-7.301l-0.446-8.109l0.497-20.093l-19.128-4.678l-8.733-3.215l-4.574-4.603
			l-0.638-0.839l-6.156,4.103l-14.336,6.239l-3.244,2.206l0.271,1.37l5.303,6.866l3.399,6.963l5.143,6.276l6.866,6.519l5.233,3.734
			L670.574,127.467z"/>
	</g>
	<g>
		<polygon fill-rule="evenodd" clip-rule="evenodd" fill="#DBDBDB" points="502.503,401.764 492.93,397.452 478.348,389.166 
			470.291,383.407 459.192,381.502 446.793,374.066 436.563,366.182 435.413,357.47 444.663,344.457 448.427,328.959 
			445.265,314.418 444.554,304.351 437.705,299.082 428.992,294.762 423.777,285.654 416.969,278.625 409.279,279.271 
			401.632,277.835 395.339,271.597 386.994,265.526 373.882,261.363 366.969,253.926 369.228,242.177 362.042,233.853 
			348.329,229.383 340.146,225.469 331.498,222.979 321.485,219.064 313.483,201.695 304.233,195.451 276.949,197.393 
			270.572,195.161 270.572,195.166 266.452,201.753 261.956,213.967 260.623,219.848 261.054,222.306 255.997,224.027 
			250.685,228.351 246.533,234.088 244.855,239.924 243.662,247.619 240.661,252.082 240.531,252.243 257.169,259.443 
			287.37,269.036 298.189,274.791 305.945,282.464 309.644,289.805 307.687,297.178 302.986,299.887 292.618,301.641 
			280.949,306.438 274.033,315.063 269.517,326.415 264.537,332.498 273.431,354.668 281.165,363.605 293.188,372.555 
			317.561,384.046 325.239,390.752 326.809,401.286 326.11,409.094 324.529,415.956 322.571,422.27 324.529,428.088 
			326.433,435.982 323.959,445.313 322.13,455.448 330.327,457.438 345.717,453.207 359.354,452.325 368.871,453.282 
			394.039,446.898 404.052,454.884 406.686,463.73 413.323,470.188 422.412,485.821 423.69,495.576 425.239,494.485 
			446.404,492.499 452.072,494.021 460.772,473.06 488.791,444.689 496.309,433.041 495.157,424.258 497.856,414.763 		"/>
		<path fill="#F5F5F5" d="M419.807,504.425l-2.222-16.958l-8.24-14.173l-7.079-6.888l-2.558-8.59l-6.846-5.46l-23.615,5.99
			l-9.983-1.004l-12.715,0.822l-16.145,4.439l-14.032-3.406l2.753-15.165l2.149-8.107l-1.556-6.45l-2.403-7.142l2.382-7.68
			l1.462-6.346l0.615-6.872l-1.211-8.125l-5.768-5.038l-24.193-11.407l-12.862-9.574l-8.639-9.982l-10.307-25.69l6.361-7.77
			l4.507-11.329l8.191-10.215l13.378-5.5l10.033-1.697l2.122-1.223l0.936-3.526l-2.477-4.915l-6.654-6.583l-9.77-5.196l-30.24-9.632
			l-22.67-9.811l4.12-5.109l2.258-3.359l1.159-7.21l1.92-6.677l5.05-6.978l6.517-5.305l2.188-0.745l1.539-6.598l4.674-12.699
			l3.634-5.81v-5.613l12.053,4.214l27.975-1.991l11.839,7.992l7.744,16.808l7.92,3.097l8.825,2.541l8.262,3.952l14.725,4.8
			l9.679,11.212l-2.237,11.637l4.292,4.616l12.631,4.01l9.309,6.772l5.474,5.427l5.473,1.027l9.376-0.788l8.893,9.181l4.771,8.333
			l7.79,3.862l9.019,6.938l0.844,11.95l3.33,15.313l-4.263,17.549l-8.667,12.194l0.623,4.717l8.364,6.446l11.347,6.805l11.305,1.939
			l8.778,6.274l14.153,8.042l13.569,6.111l-6.145,17.189l-2.372,8.343l1.256,9.578l-8.793,13.625l-27.696,28.044l-10.007,24.11
			l-9.033-2.428l-18.945,1.778L419.807,504.425z M411.106,461.055l6.194,6.028l9.938,17.094l0.66,5.037l18.934-1.777l2.302,0.618
			l7.394-17.813l28.341-28.698l6.242-9.672l-1.047-7.987l3.083-10.805l3.093-8.652l-5.781-2.628l-15.019-8.566l-7.125-5.092
			l-10.892-1.869l-13.683-8.246l-11.865-9.144l-1.677-12.707l9.832-13.833l3.266-13.446l-2.994-13.768l-0.578-8.185l-4.68-3.601
			l-9.636-4.777l-5.659-9.884l-4.723-4.876l-6.004,0.504l-9.82-1.844l-7.112-7.051l-7.381-5.369l-13.593-4.315l-9.536-10.258
			l2.28-11.862l-4.693-5.436l-12.996-4.281l-7.809-3.735l-8.686-2.523l-11.889-4.649l-8.261-17.93l-6.66-4.496l-26.594,1.894
			l-3.578-1.253l-1.73,2.765l-4.205,11.423l-1.04,4.584l0.998,5.687l-8.261,2.811l-4.107,3.343l-3.254,4.497l-1.349,4.691
			l-1.315,8.483l-0.38,0.564l10.871,4.705l30.394,9.654l11.868,6.313l8.858,8.764l4.921,9.766l-2.978,11.22l-7.281,4.196
			l-10.702,1.811l-9.96,4.094l-5.64,7.034l-4.526,11.377l-3.599,4.395l7.482,18.651l6.829,7.891l11.184,8.325l24.552,11.576
			l9.589,8.375l1.929,12.941l-0.859,9.079l-1.678,7.22l-1.479,4.77l1.564,4.709l2.2,9.125l-2.746,10.358l-0.957,5.302l2.362,0.573
			l14.636-4.024l14.559-0.941l9.052,0.91l26.721-6.778l13.181,10.513L411.106,461.055z"/>
	</g>
	<g>
		<polygon fill-rule="evenodd" clip-rule="evenodd" fill="#DBDBDB" points="305.945,282.464 298.189,274.791 287.37,269.036 
			257.169,259.443 240.531,252.243 240.531,252.249 237.058,255.927 234.068,261.879 236.251,266.364 237.574,270.042 
			237.659,273.446 236.208,276.581 231.831,282.55 220.7,305.319 218.453,313.525 218.485,313.536 232.251,318.897 240.737,324.092 
			246.178,331.674 254.934,335.191 264.161,332.959 264.537,332.498 269.517,326.415 274.033,315.063 280.949,306.438 
			292.618,301.641 302.986,299.887 307.687,297.178 309.644,289.805 		"/>
		<path fill="#F5F5F5" d="M254.554,340.427l-11.59-4.656l-5.7-7.943l-7.242-4.434l-13.236-5.155l-4.373-1.459l1.218-4.576
			l2.372-8.659l11.533-23.591l4.345-5.926l0.752-1.624l-0.036-1.43l-0.958-2.664l-3.147-6.465l4.428-8.817l2.613-2.767v-5.624
			l23.392,10.117l30.394,9.654l11.868,6.313l8.857,8.764l4.922,9.766l-2.979,11.22l-7.281,4.196l-10.702,1.811l-9.96,4.094
			l-5.64,7.034l-4.526,11.376l-6.901,8.44L254.554,340.427z M249.392,327.577l5.921,2.378l6.039-1.461l3.805-4.648l4.507-11.328
			l8.191-10.215l13.378-5.5l10.033-1.697l2.122-1.223l0.936-3.526l-2.477-4.915l-6.654-6.583l-9.77-5.196l-30.24-9.632
			l-13.418-5.807l-0.568,0.602l-1.551,3.088l1.311,2.758l1.596,4.438l0.134,5.378l-2.151,4.647l-4.408,6.012l-10.729,21.946
			l-0.933,3.406l10.016,3.901l9.729,5.956L249.392,327.577z"/>
	</g>
</g>
<g>
	<g>
		<path fill="url(#_x31_0_dpi_30_x25_)" d="M797.364,174.655l-1.561-2.236l-6.656-3.78l-11.915,2.49l-16.822,8.975l-7.346,4.876
			l-22.329,4.561l-2.83,5.927l5.004,7.114l-3.258,7.604l-9.197,5.85l-7.054,2.474l-7.397,3.916l-6.531,8.233l-6.174,10.077
			l-10.088,7.196l-12.414,3.839l-26.982,16.154l-26.124,10.626l-7.612,4.56l-9.499,7.985l-3.829,9.916l0.269,8.315l2.044,6.382
			l0.84,4.07l-7.807,5.512l-13.328,6.47l-9.885,6.947l-7.612,6.545l-9.798,3.684l-11.563,3.231l-6.14,1.71l-10.745,7.824
			l6.249,24.904l-4.518,7.662l-6.883,2.561l-6.442-1.291l-7.829,3.205l-1.097,3.021l-4.647,12.999l-2.699,9.496l1.151,8.782
			l-7.518,11.648l-28.019,28.371l-8.701,20.961l7.315,1.99l-1.367,11.159l2.916,7.409l9.851,2.151l8.787,5.093l7.452,5.108
			l7.832-1.21l9.582-4.538h9.799l11.667,9.405l5.003,4.049l13.001,6.298l30.179,7.647l16.512,6.301l13.087,0.068l9.875-9.074
			l4.645-11.945l7.625-1.748l37.053,22.127l22.285,3.346l2.17,0.06l-0.419-0.464l-2.097-3.313l1.022-2.753l2.01-2.656l1.12-3.27
			l1.029-12.724l1.625-6.463l2.571-4.496l2.314-5.362l-0.863-13.97l0.473-6.308l14.104-16.164l12.419-7.229l5.056-4.753
			l-1.206-5.604l-3.374-5.415l-1.549-5.975l0.903-4.926l11.947-6.803l1.677-11.303l-2.7-13.003l-5.267-10.034l3.719-2.662
			l5.184-1.695l6.174-0.639l6.519,0.661v-3.582l-15.345-2.828l-13.016-8.056l-6.862-12.492l-0.387-16.191l2.829-7.923l0.384-7.92
			l-6.592-30.99l-0.513-14.864l1.062-15.315l3.044-15.412l4.669-13.454l5.915-9.632l37.405-45.606l11.058-9.593l23.983-11.88
			V174.655z M785.756,253.265l-3.859-0.667l-0.472-0.231l-0.218,0.118l-0.331-0.048l-0.302,0.424l-4.968,2.855l-1.982-0.661
			l2.575,4.157l0.17,0.022l0.773,1.226l2.701,1.539l7.666,0.258l1.464-4.674l-1.291-1.253L785.756,253.265z"/>
		<path fill="#F5F5F5" d="M687.358,562.72c-0.006,0.001-0.014,0-0.019,0c-0.047,0-0.093,0-0.14-0.002l-2.17-0.06
			c-0.202-0.005-0.403-0.023-0.604-0.053l-22.285-3.346c-0.644-0.096-1.263-0.318-1.821-0.651l-35.329-21.098l-3.085,0.707
			l-3.685,9.475c-0.277,0.713-0.714,1.353-1.277,1.87l-9.875,9.074c-0.93,0.854-2.164,1.327-3.409,1.318l-13.087-0.068
			c-0.601-0.003-1.195-0.115-1.756-0.329l-16.24-6.197l-29.896-7.576c-0.328-0.083-0.647-0.199-0.952-0.347l-13.001-6.298
			c-0.345-0.167-0.668-0.373-0.966-0.613l-15.289-12.341h-6.911l-8.566,4.057c-0.436,0.207-0.9,0.349-1.376,0.422l-7.832,1.21
			c-1.26,0.192-2.542-0.098-3.591-0.817l-7.295-5.001l-7.947-4.606l-9.086-1.984c-1.63-0.356-2.976-1.501-3.586-3.054l-2.916-7.409
			c-0.305-0.774-0.411-1.613-0.31-2.439l0.84-6.862l-3.139-0.854c-1.387-0.377-2.544-1.333-3.177-2.624
			c-0.633-1.291-0.68-2.791-0.129-4.118l8.701-20.961c0.248-0.595,0.607-1.138,1.061-1.596l27.655-28.003l6.242-9.672l-0.913-6.963
			c-0.089-0.675-0.038-1.362,0.148-2.017l2.699-9.496c0.03-0.106,0.064-0.212,0.102-0.316l5.752-16.043
			c0.481-1.326,1.5-2.387,2.806-2.921l7.829-3.205c0.91-0.373,1.911-0.469,2.876-0.275l5.049,1.012l3.888-1.446l2.575-4.367
			l-5.75-22.915c-0.496-1.978,0.258-4.059,1.907-5.259l10.745-7.824c0.483-0.352,1.025-0.614,1.601-0.774l17.489-4.882l8.765-3.295
			l6.941-5.968c0.123-0.106,0.251-0.206,0.385-0.3l9.885-6.947c0.219-0.154,0.451-0.29,0.691-0.407l12.961-6.292l4.799-3.388
			l-0.124-0.603l-1.963-6.128c-0.142-0.441-0.221-0.9-0.235-1.363l-0.269-8.315c-0.021-0.67,0.091-1.337,0.333-1.963l3.829-9.916
			c0.304-0.787,0.801-1.483,1.446-2.026l9.499-7.985c0.204-0.171,0.421-0.326,0.648-0.462l7.612-4.56
			c0.22-0.131,0.448-0.246,0.686-0.342l25.769-10.482l26.653-15.957c0.343-0.205,0.709-0.369,1.091-0.487l11.645-3.601l8.603-6.137
			l5.643-9.21c0.105-0.172,0.222-0.337,0.347-0.495l6.531-8.233c0.43-0.542,0.967-0.988,1.578-1.312l7.397-3.916
			c0.22-0.117,0.449-0.217,0.685-0.299l6.511-2.283l7.407-4.711l1.551-3.62l-3.399-4.833c-1.039-1.478-1.2-3.401-0.422-5.031
			l2.83-5.927c0.676-1.415,1.976-2.43,3.511-2.744l21.376-4.366l6.534-4.338c0.134-0.088,0.271-0.17,0.412-0.246l16.822-8.975
			c0.418-0.223,0.866-0.386,1.331-0.482l11.915-2.49c1.188-0.249,2.432-0.055,3.491,0.546l6.656,3.78
			c0.647,0.368,1.205,0.875,1.631,1.486l1.561,2.236c0.586,0.839,0.9,1.838,0.9,2.862c0,1.9-1.077,3.643-2.78,4.487l-23.41,11.596
			l-10.254,8.895L729,244.647l-5.452,8.878l-4.376,12.611l-2.915,14.761l-1.022,14.743l0.488,14.166l6.501,30.561
			c0.09,0.421,0.124,0.852,0.104,1.282l-0.384,7.92c-0.023,0.491-0.12,0.976-0.285,1.439l-2.518,7.049l0.336,14.045l5.642,10.271
			l11.098,6.869l14.42,2.657c2.372,0.437,4.094,2.505,4.094,4.917v3.582c0,1.414-0.599,2.762-1.647,3.709
			c-1.05,0.948-2.448,1.405-3.857,1.265l-6.009-0.609l-5.133,0.531l-3.42,1.118l3.166,6.03c0.216,0.412,0.373,0.852,0.468,1.307
			l2.7,13.003c0.12,0.576,0.137,1.168,0.051,1.75l-1.677,11.303c-0.226,1.52-1.138,2.851-2.473,3.611l-9.923,5.65l-0.284,1.549
			l1.08,4.165l2.969,4.765c0.306,0.49,0.523,1.028,0.645,1.592l1.206,5.604c0.369,1.713-0.186,3.495-1.463,4.695l-5.056,4.753
			c-0.276,0.26-0.582,0.488-0.909,0.679l-11.708,6.814l-12.469,14.29l-0.322,4.307l0.842,13.629c0.049,0.784-0.088,1.569-0.399,2.29
			l-2.314,5.362c-0.074,0.171-0.158,0.339-0.251,0.501l-2.229,3.899l-1.356,5.394l-0.996,12.311
			c-0.033,0.415-0.118,0.824-0.253,1.217l-1.12,3.27c-0.172,0.502-0.423,0.973-0.743,1.396l-1.425,1.883l0.473,0.747
			c0.907,0.905,1.468,2.157,1.468,3.539C692.358,560.481,690.12,562.72,687.358,562.72z M664.601,549.516l15.659,2.351l0.897-2.417
			c0.17-0.458,0.406-0.887,0.7-1.276l1.526-2.017l0.657-1.919l0.979-12.1c0.021-0.275,0.067-0.548,0.135-0.816l1.625-6.463
			c0.11-0.442,0.282-0.867,0.509-1.263l2.432-4.252l1.729-4.008l-0.789-12.777c-0.015-0.228-0.013-0.455,0.004-0.682l0.473-6.308
			c0.081-1.078,0.509-2.1,1.219-2.914l14.104-16.164c0.358-0.411,0.781-0.76,1.252-1.034l11.926-6.941l2.582-2.428l-0.429-1.991
			l-2.912-4.674c-0.269-0.431-0.47-0.899-0.597-1.39l-1.549-5.975c-0.183-0.705-0.209-1.441-0.078-2.157l0.903-4.926
			c0.267-1.452,1.161-2.712,2.444-3.443l9.832-5.598l1.189-8.017l-2.377-11.446l-4.941-9.414c-1.159-2.21-0.512-4.937,1.518-6.39
			l3.719-2.662c0.408-0.292,0.857-0.521,1.333-0.679l-11.539-7.142c-0.732-0.454-1.336-1.089-1.751-1.844l-6.862-12.492
			c-0.386-0.702-0.597-1.487-0.616-2.288l-0.387-16.191c-0.014-0.613,0.084-1.224,0.29-1.801l2.58-7.224l0.316-6.532l-6.457-30.356
			c-0.061-0.286-0.097-0.576-0.106-0.868l-0.513-14.864c-0.006-0.173-0.003-0.346,0.009-0.518l1.062-15.315
			c0.015-0.209,0.042-0.417,0.083-0.623l3.044-15.412c0.045-0.228,0.105-0.452,0.182-0.67l4.669-13.454
			c0.118-0.342,0.273-0.669,0.463-0.978l5.915-9.632c0.119-0.193,0.251-0.378,0.395-0.554l37.405-45.606
			c0.18-0.218,0.377-0.421,0.59-0.606l11.058-9.593c0.321-0.278,0.676-0.515,1.057-0.704l15.908-7.879l-8.114,1.695l-15.979,8.525
			l-7.146,4.744c-0.536,0.356-1.135,0.604-1.765,0.733l-19.891,4.063l-0.497,1.041l3.321,4.722c0.997,1.418,1.188,3.251,0.506,4.845
			l-3.258,7.604c-0.396,0.926-1.063,1.71-1.912,2.25l-9.197,5.849c-0.323,0.206-0.668,0.373-1.029,0.5l-6.7,2.35l-6.14,3.25
			l-5.691,7.174l-6.016,9.819c-0.351,0.572-0.813,1.068-1.36,1.458l-10.088,7.196c-0.435,0.31-0.916,0.548-1.426,0.706l-11.84,3.662
			l-26.466,15.845c-0.219,0.131-0.448,0.245-0.685,0.341l-25.768,10.482l-6.94,4.157l-8.21,6.901l-3,7.77l0.213,6.602l1.831,5.717
			c0.054,0.169,0.1,0.341,0.135,0.515l0.84,4.07c0.402,1.947-0.388,3.948-2.013,5.095l-7.807,5.512
			c-0.222,0.157-0.456,0.295-0.7,0.414l-12.966,6.294l-9.356,6.576l-7.427,6.386c-0.444,0.382-0.952,0.683-1.5,0.889l-9.798,3.684
			c-0.136,0.051-0.274,0.096-0.414,0.135l-16.836,4.701l-7.287,5.305l5.428,21.631c0.32,1.274,0.125,2.624-0.542,3.756l-4.518,7.662
			c-0.583,0.988-1.488,1.747-2.564,2.146l-6.883,2.561c-0.87,0.324-1.814,0.399-2.725,0.217l-4.963-0.994l-4.382,1.794l-0.341,0.939
			l-4.583,12.82l-2.372,8.342l1.017,7.758c0.154,1.175-0.114,2.366-0.756,3.361l-7.518,11.648c-0.187,0.289-0.402,0.557-0.644,0.802
			l-27.333,27.677l-6.147,14.81l1.831,0.498c2.397,0.652,3.953,2.966,3.65,5.433l-1.212,9.9l1.474,3.745l7.242,1.582
			c0.506,0.11,0.993,0.299,1.441,0.559l8.787,5.093c0.109,0.063,0.216,0.13,0.32,0.202l5.818,3.988l5.156-0.796l8.924-4.227
			c0.669-0.317,1.4-0.481,2.14-0.481h9.799c1.142,0,2.249,0.391,3.138,1.107l16.229,13.098l12.024,5.825l29.685,7.522
			c0.188,0.047,0.374,0.106,0.555,0.175l15.664,5.978l10.215,0.053l7.573-6.959l4.224-10.861c0.601-1.545,1.928-2.691,3.543-3.062
			l7.625-1.748c1.255-0.288,2.574-0.08,3.681,0.581L664.601,549.516z M787.511,267.256c-0.056,0-0.112-0.001-0.169-0.003
			l-7.666-0.258c-0.811-0.027-1.603-0.251-2.307-0.652l-2.701-1.539c-0.714-0.406-1.315-0.982-1.754-1.676l-0.223-0.353
			c-0.281-0.276-0.531-0.588-0.743-0.93l-2.575-4.157c-1.108-1.79-0.977-4.083,0.329-5.734c1.273-1.611,3.4-2.277,5.354-1.689
			l2.171-1.248c0.864-0.922,2.043-1.479,3.294-1.568c0.977-0.178,1.993-0.066,2.917,0.341l3.169,0.548
			c1.397,0.242,2.627,1.065,3.381,2.265l1.607,2.556l0.86,0.835c1.354,1.315,1.854,3.281,1.289,5.083l-1.464,4.674
			C791.626,265.842,789.69,267.256,787.511,267.256z"/>
	</g>
	<g>
		<polygon fill-rule="evenodd" clip-rule="evenodd" fill="url(#_x31_0_dpi_30_x25_)" points="539.908,352.168 534.995,341.252 
			517.087,324.317 514.311,313.142 512.709,302.749 518.97,295.248 521.874,284.787 505.041,260.089 494.942,256.083 
			480.089,256.878 469.808,251.141 472.529,237.691 470.485,227.448 459.763,217.219 457.591,207.05 459.763,195.451 
			459.333,183.045 466.732,174.973 492.845,167.289 499.601,160.325 501.556,151.915 500.601,143.827 490.317,128.856 
			481.832,124.366 473.701,122.44 467.302,116.676 457.805,110.594 445.265,104.506 436.78,95.273 396.523,102.56 378.617,109.013 
			369.626,113.911 362.205,120.44 353.599,125.834 316.71,137.965 302.309,150.161 288.392,166.756 270.572,195.161 
			276.949,197.393 304.233,195.451 313.483,201.695 321.485,219.064 331.498,222.979 340.146,225.469 348.329,229.383 
			362.042,233.853 369.228,242.177 366.969,253.926 373.882,261.363 386.994,265.526 395.339,271.597 401.632,277.835 
			409.279,279.271 416.969,278.625 423.777,285.654 428.992,294.762 437.705,299.082 444.554,304.351 445.265,314.418 
			448.427,328.959 444.663,344.457 435.413,357.47 436.563,366.182 446.793,374.066 459.192,381.502 470.291,383.407 
			478.348,389.166 492.93,397.452 502.503,401.764 503.601,398.743 511.429,395.538 517.872,396.829 524.754,394.268 
			529.272,386.606 523.023,361.702 533.768,353.878 		"/>
		<path fill="#F5F5F5" d="M502.503,406.764c-0.701,0-1.401-0.147-2.053-0.441l-9.573-4.312c-0.142-0.064-0.281-0.135-0.417-0.212
			l-14.582-8.287c-0.15-0.085-0.296-0.179-0.437-0.279l-7.125-5.092l-9.969-1.71c-0.61-0.105-1.195-0.322-1.726-0.64l-12.399-7.437
			c-0.167-0.1-0.327-0.209-0.48-0.328l-10.23-7.884c-1.047-0.807-1.732-1.996-1.905-3.306l-1.15-8.712
			c-0.166-1.252,0.15-2.521,0.881-3.551l8.693-12.231l3.266-13.446l-2.917-13.416c-0.051-0.234-0.085-0.472-0.102-0.71l-0.552-7.826
			l-4.681-3.601l-8.274-4.102c-0.888-0.44-1.625-1.135-2.118-1.995l-4.903-8.564l-4.723-4.876l-5.329,0.448
			c-0.447,0.037-0.899,0.015-1.341-0.068l-7.646-1.436c-0.983-0.185-1.888-0.659-2.598-1.363l-6.022-5.971l-7.381-5.37
			l-12.339-3.917c-0.822-0.261-1.563-0.73-2.149-1.361l-6.914-7.437c-1.085-1.167-1.549-2.783-1.248-4.348l1.802-9.372l-4.693-5.436
			l-12.388-4.038c-0.208-0.068-0.411-0.149-0.608-0.243l-7.809-3.735l-8.249-2.375c-0.148-0.042-0.294-0.092-0.438-0.148
			l-10.012-3.915c-1.205-0.471-2.179-1.39-2.72-2.564l-7.417-16.1l-6.66-4.496l-25.563,1.82c-0.677,0.048-1.363-0.042-2.007-0.268
			l-6.377-2.232c-1.436-0.502-2.564-1.631-3.067-3.066c-0.503-1.436-0.325-3.021,0.483-4.31l17.82-28.404
			c0.122-0.194,0.257-0.38,0.404-0.556l13.917-16.596c0.182-0.217,0.383-0.419,0.6-0.603l14.401-12.195
			c0.491-0.416,1.058-0.733,1.669-0.934l36.311-11.941l7.747-4.856l7.117-6.261c0.279-0.246,0.584-0.459,0.911-0.637l8.991-4.898
			c0.224-0.122,0.457-0.227,0.697-0.313l17.906-6.453c0.262-0.094,0.531-0.167,0.805-0.216l40.256-7.287
			c1.688-0.304,3.413,0.274,4.572,1.537l7.842,8.533l11.685,5.673c0.177,0.086,0.348,0.182,0.513,0.288l9.497,6.082
			c0.23,0.147,0.447,0.313,0.65,0.495l5.449,4.908l6.886,1.631c0.413,0.098,0.812,0.248,1.187,0.446l8.485,4.49
			c0.713,0.378,1.325,0.923,1.782,1.588l10.284,14.971c0.459,0.668,0.749,1.439,0.844,2.245l0.956,8.088
			c0.068,0.574,0.036,1.155-0.095,1.719l-1.955,8.41c-0.206,0.885-0.649,1.697-1.281,2.349l-6.756,6.964
			c-0.601,0.619-1.351,1.072-2.177,1.315l-24.779,7.291l-5.077,5.539l0.359,10.362c0.013,0.366-0.015,0.733-0.083,1.093
			l-1.987,10.614l1.64,7.681l9.606,9.164c0.744,0.709,1.251,1.631,1.452,2.639l2.044,10.243c0.13,0.65,0.129,1.32-0.002,1.97
			l-1.998,9.872l5.832,3.254l13.41-0.718c0.726-0.039,1.441,0.079,2.111,0.345l10.099,4.006c0.929,0.368,1.726,1.006,2.288,1.832
			l16.833,24.698c0.829,1.216,1.08,2.735,0.686,4.153l-2.903,10.46c-0.19,0.685-0.524,1.321-0.979,1.867l-4.813,5.767l1.223,7.938
			l2.369,9.535l16.843,15.928c0.474,0.448,0.856,0.985,1.124,1.581l4.913,10.916c0.598,1.329,0.586,2.854-0.032,4.173
			s-1.782,2.304-3.186,2.695l-5.269,1.468l-7.287,5.305l5.428,21.631c0.32,1.274,0.125,2.624-0.542,3.756l-4.518,7.662
			c-0.583,0.988-1.488,1.747-2.564,2.146l-6.883,2.561c-0.871,0.324-1.814,0.398-2.725,0.217l-4.963-0.994l-4.382,1.794
			l-0.341,0.939c-0.475,1.307-1.473,2.358-2.754,2.899C503.827,406.632,503.165,406.764,502.503,406.764z M495.197,392.989
			l4.886,2.201c0.461-0.457,1.011-0.824,1.624-1.075l7.829-3.205c0.91-0.373,1.911-0.47,2.876-0.275l5.049,1.011l3.888-1.446
			l2.575-4.367l-5.75-22.915c-0.496-1.978,0.258-4.059,1.907-5.259l10.745-7.824c0.483-0.352,1.026-0.614,1.602-0.774l0.534-0.149
			l-2.119-4.708l-17.189-16.255c-0.695-0.657-1.187-1.499-1.417-2.427l-2.777-11.175c-0.036-0.146-0.066-0.295-0.089-0.444
			l-1.601-10.394c-0.218-1.419,0.184-2.863,1.104-3.965l5.57-6.673l1.994-7.186l-14.663-21.514l-7.656-3.038l-13.759,0.737
			c-0.946,0.05-1.88-0.167-2.704-0.626l-10.281-5.737c-1.899-1.06-2.896-3.226-2.464-5.358l2.522-12.465l-1.538-7.709l-9.58-9.138
			c-0.728-0.693-1.229-1.59-1.438-2.573l-2.172-10.169c-0.138-0.647-0.146-1.314-0.025-1.965l2.07-11.057l-0.411-11.854
			c-0.045-1.31,0.426-2.585,1.311-3.551l7.399-8.072c0.615-0.671,1.401-1.161,2.274-1.418l24.852-7.313l4.873-5.023l1.443-6.207
			l-0.708-5.994l-8.889-12.939l-6.834-3.616l-7.509-1.779c-0.816-0.193-1.571-0.589-2.194-1.15l-6.095-5.49l-8.903-5.702
			l-12.275-5.96c-0.565-0.274-1.073-0.652-1.498-1.115l-6.622-7.206l-37.136,6.722l-17.152,6.181l-8.164,4.448l-7.001,6.159
			c-0.203,0.178-0.419,0.339-0.647,0.482l-8.605,5.394c-0.343,0.215-0.71,0.387-1.094,0.514l-35.963,11.827l-13.332,11.29
			l-13.421,16.004l-14.166,22.581l25.6-1.822c1.113-0.081,2.226,0.217,3.152,0.843l9.25,6.244c0.758,0.512,1.361,1.221,1.744,2.052
			l7.159,15.539l7.92,3.097l8.426,2.426c0.266,0.076,0.525,0.175,0.774,0.294l7.887,3.773l13.4,4.368
			c0.867,0.283,1.64,0.796,2.235,1.486l7.186,8.324c1,1.158,1.414,2.709,1.125,4.211l-1.78,9.259l4.292,4.616l11.858,3.765
			c0.512,0.163,0.995,0.406,1.429,0.722l8.345,6.071c0.205,0.149,0.398,0.314,0.579,0.493l5.204,5.159l5.473,1.027l7.015-0.589
			c1.493-0.124,2.966,0.426,4.01,1.504l6.808,7.029c0.29,0.299,0.541,0.633,0.748,0.994l4.459,7.789l7.351,3.645
			c0.292,0.145,0.569,0.318,0.828,0.517l6.85,5.269c1.132,0.871,1.838,2.185,1.939,3.611l0.686,9.708l3.085,14.189
			c0.161,0.74,0.152,1.507-0.027,2.243l-3.764,15.498c-0.15,0.617-0.416,1.199-0.783,1.716l-8.111,11.412l0.623,4.717l8.364,6.446
			l11.347,6.805l10.175,1.746c0.743,0.128,1.448,0.422,2.062,0.86l7.846,5.608L495.197,392.989z"/>
	</g>
	<g>
		<polygon fill-rule="evenodd" clip-rule="evenodd" fill="url(#_x31_0_dpi_30_x25_)" points="622.971,146.634 613.775,141.465 
			613.399,131.254 616.657,118.042 613.399,109.147 605.61,102.238 600.663,82.104 597.288,75.011 594.19,68.461 593.373,61.546 
			594.46,54.334 590.329,50 582.651,47.478 574.659,51.446 568.773,56.437 546.967,69.424 539.834,77.419 535.586,86.555 
			531.993,91.364 528.789,97.311 536.347,105.786 547.887,116.837 550.278,129.334 547.125,144.231 555.064,157.679 
			566.603,166.746 574.217,175.452 581.563,181.937 591.2,184.094 602.836,184.217 611.217,180.733 626.456,161.525 
			630.423,152.995 		"/>
		<path fill="#F5F5F5" d="M602.836,189.217c-0.018,0-0.035,0-0.053,0l-11.637-0.124c-0.35-0.003-0.698-0.044-1.039-0.12
			l-9.637-2.157c-0.823-0.184-1.585-0.573-2.217-1.131l-7.346-6.485c-0.161-0.143-0.313-0.295-0.455-0.457l-7.307-8.354
			l-11.172-8.778c-0.488-0.384-0.901-0.855-1.216-1.39l-7.938-13.448c-0.636-1.077-0.845-2.354-0.586-3.577l2.944-13.911
			l-1.901-9.94l-10.387-9.947c-0.095-0.091-0.186-0.186-0.273-0.283l-7.559-8.475c-1.4-1.57-1.668-3.848-0.67-5.7l3.204-5.947
			c0.117-0.217,0.25-0.424,0.397-0.622l3.283-4.394l4.03-8.666c0.206-0.444,0.477-0.855,0.803-1.22l7.133-7.995
			c0.339-0.38,0.734-0.707,1.172-0.967l21.448-12.775l5.568-4.721c0.309-0.262,0.648-0.485,1.011-0.665L580.427,43
			c1.176-0.584,2.534-0.681,3.784-0.271l7.678,2.522c0.783,0.257,1.49,0.704,2.059,1.3l4.132,4.334
			c1.066,1.119,1.556,2.668,1.325,4.196l-0.988,6.546l0.643,5.436l6.118,12.893c0.146,0.306,0.26,0.626,0.341,0.956l4.575,18.62
			l6.624,5.875c0.619,0.549,1.092,1.244,1.377,2.021l3.258,8.895c0.342,0.935,0.397,1.95,0.159,2.917l-3.09,12.532l0.247,6.709
			l6.753,3.795c0.282,0.159,0.549,0.345,0.796,0.556l7.452,6.361c1.708,1.458,2.234,3.876,1.287,5.912l-3.968,8.53
			c-0.165,0.356-0.372,0.691-0.616,0.999l-15.238,19.208c-0.527,0.665-1.215,1.184-1.998,1.51l-8.381,3.484
			C604.147,189.087,603.495,189.217,602.836,189.217z M591.779,179.1l10.085,0.107l6.24-2.594l14.067-17.732l2.116-4.549
			l-4.191-3.578l-8.771-4.93c-1.518-0.854-2.482-2.435-2.547-4.175l-0.376-10.211c-0.017-0.465,0.031-0.93,0.143-1.381l2.893-11.73
			l-2.3-6.276l-6.846-6.072c-0.759-0.674-1.295-1.562-1.537-2.547l-4.826-19.639l-6.258-13.193
			c-0.231-0.489-0.383-1.013-0.446-1.551l-0.817-6.915c-0.052-0.443-0.045-0.892,0.021-1.333l0.723-4.789l-1.575-1.652l-4.538-1.491
			l-5.609,2.785l-5.421,4.597c-0.211,0.179-0.438,0.34-0.675,0.482l-21.145,12.594l-6.129,6.871l-3.937,8.466
			c-0.145,0.313-0.322,0.609-0.529,0.885l-3.372,4.513l-1.367,2.537l5.096,5.713l11.397,10.915c0.75,0.718,1.258,1.652,1.453,2.672
			l2.391,12.497c0.125,0.653,0.118,1.324-0.02,1.975l-2.75,12.994l6.472,10.964l10.8,8.486c0.244,0.192,0.47,0.406,0.674,0.64
			l7.401,8.463l6.141,5.421L591.779,179.1z"/>
	</g>
	<g>
		<polygon fill-rule="evenodd" clip-rule="evenodd" fill="url(#_x31_0_dpi_30_x25_)" points="514.238,521.184 504.439,521.184 
			494.857,525.722 487.025,526.932 479.574,521.824 470.787,516.73 460.936,514.58 458.021,507.17 459.387,496.012 452.072,494.021 
			446.404,492.499 425.239,494.485 423.69,495.576 416.237,500.792 412.623,512.027 402.879,516.085 392.22,515.85 383.724,521.824 
			374.583,530.665 362.838,537.116 339.629,555.598 325.831,561.24 308.149,570.721 297.264,566.42 287.316,555.346 
			275.206,550.491 255.482,549 244.436,555.598 242.694,570.318 232.251,575.975 207.869,577.245 184.669,563.871 171.603,561.482 
			156.805,554.314 126.636,532.025 114.064,521.033 104.578,510.993 86.122,482.471 59.525,511.988 52.835,522.996 47.178,542.844 
			28.551,575.188 23.107,599.841 18.645,612.667 12.052,618.188 10.546,624.787 9.31,626.265 9.298,626.277 20.967,630.083 
			28.97,637.08 34.303,649.797 36.37,664.991 45.349,675.886 69.151,682.874 77.776,690.029 84.229,700.039 88.219,707.999 
			88.306,715.934 90.779,722.668 99.32,724.185 110.256,731.337 110.289,734.133 118.742,734.433 154.739,739.51 163.15,738.166 
			173.098,728.637 188.263,699.802 195.651,682.874 208.471,676.745 228.734,679.701 240.79,679.134 252.33,663.796 
			258.342,659.975 276.324,673.335 283.284,671.516 288.533,660.621 297.9,652.751 311.171,652.987 321.185,649.168 
			336.994,633.902 347.136,628.175 355.977,626.508 373.657,617.199 386.038,616.72 398.523,614.72 420.787,605.905 
			430.142,605.264 439.554,607.41 466.302,609.892 466.323,609.892 471.927,605.891 474.378,601.83 481.208,598.254 
			487.295,590.779 489.91,580.439 495.919,570.571 511.054,561.021 515.753,548.675 516.624,540.31 525.905,530.589 		"/>
		<path fill="#F5F5F5" d="M154.739,744.51c-0.233,0-0.467-0.016-0.698-0.049l-35.738-5.041l-8.191-0.291
			c-2.668-0.095-4.791-2.269-4.822-4.938l-0.001-0.129l-7.849-5.133l-7.534-1.338c-1.751-0.311-3.206-1.529-3.819-3.199
			l-2.474-6.734c-0.196-0.535-0.3-1.1-0.306-1.669l-0.074-6.781l-3.352-6.687l-5.89-9.135l-7.238-6.005l-22.813-6.697
			c-0.96-0.282-1.813-0.845-2.45-1.618l-8.979-10.895c-0.591-0.717-0.971-1.585-1.096-2.506l-1.978-14.541l-4.63-11.042
			l-6.361-5.562l-10.698-3.489c-1.653-0.539-2.907-1.898-3.312-3.589c-0.38-1.586,0.039-3.251,1.107-4.466l0.396-0.474l1.238-5.426
			c0.243-1.064,0.827-2.02,1.664-2.721l5.534-4.635l3.913-11.244l5.38-24.367c0.11-0.498,0.295-0.976,0.549-1.417l18.32-31.811
			l5.489-19.257c0.123-0.431,0.303-0.843,0.536-1.226l6.69-11.008c0.163-0.267,0.349-0.518,0.559-0.75l26.596-29.517
			c1.041-1.155,2.56-1.756,4.112-1.637c1.55,0.124,2.955,0.962,3.8,2.268l18.208,28.137l9.008,9.533l12.238,10.7l29.63,21.891
			l13.768,6.669l12.398,2.267c0.562,0.103,1.103,0.301,1.598,0.586l21.919,12.635l21.778-1.134l7.17-3.884l1.438-12.146
			c0.182-1.541,1.07-2.91,2.401-3.705l11.047-6.597c0.885-0.529,1.911-0.771,2.94-0.693l19.723,1.49
			c0.509,0.039,1.01,0.155,1.484,0.345l12.111,4.855c0.711,0.285,1.347,0.73,1.859,1.3l9.161,10.198l7.633,3.016l15.639-8.385
			c0.153-0.082,0.31-0.156,0.47-0.222l13.136-5.371l22.649-18.036c0.222-0.177,0.459-0.334,0.708-0.471l11.157-6.128l8.66-8.375
			c0.187-0.181,0.388-0.346,0.6-0.496l8.496-5.974c0.873-0.614,1.932-0.935,2.986-0.909l9.602,0.212l6.637-2.765l2.907-9.039
			c0.334-1.039,0.999-1.939,1.893-2.565l8.991-6.298c0.712-0.501,1.543-0.808,2.411-0.89l21.165-1.986
			c0.594-0.057,1.189-0.005,1.765,0.149l12.998,3.517c2.397,0.652,3.953,2.966,3.65,5.433l-1.212,9.9l1.474,3.745l7.242,1.582
			c0.506,0.11,0.993,0.299,1.441,0.559l8.787,5.093c0.109,0.063,0.216,0.13,0.32,0.202l5.818,3.988l5.156-0.797l8.925-4.226
			c0.668-0.316,1.399-0.481,2.14-0.481h9.799c1.142,0,2.249,0.391,3.138,1.107l11.667,9.405c1.089,0.878,1.76,2.172,1.851,3.568
			c0.091,1.396-0.407,2.766-1.373,3.777l-8.101,8.485l-0.694,6.667c-0.045,0.432-0.146,0.855-0.3,1.261l-4.7,12.346
			c-0.385,1.012-1.089,1.872-2.005,2.45l-14.142,8.923l-5.007,8.222l-2.429,9.609c-0.179,0.707-0.51,1.367-0.971,1.932l-6.088,7.475
			c-0.428,0.525-0.958,0.958-1.558,1.272l-5.59,2.927l-1.729,2.864c-0.353,0.584-0.821,1.09-1.375,1.486l-5.604,4.001
			c-0.974,0.695-2.2,1.017-3.388,0.909l-26.748-2.482c-0.218-0.02-0.436-0.055-0.649-0.104l-8.694-1.982l-7.844,0.538l-21.541,8.529
			c-0.339,0.134-0.691,0.23-1.05,0.288l-12.485,2c-0.198,0.032-0.397,0.052-0.597,0.059l-11.248,0.435l-16.677,8.782
			c-0.441,0.232-0.914,0.397-1.403,0.489l-8.028,1.514l-8.867,5.006l-15.351,14.823c-0.485,0.469-1.061,0.835-1.691,1.075
			l-10.013,3.818c-0.597,0.228-1.24,0.343-1.87,0.327l-11.4-0.202l-7.112,5.975l-4.783,9.927c-0.636,1.321-1.821,2.296-3.24,2.667
			l-6.959,1.819c-1.466,0.383-3.029,0.081-4.247-0.824l-15.221-11.309l-2.342,1.489l-10.994,14.612
			c-0.895,1.189-2.273,1.918-3.76,1.988l-12.056,0.567c-0.319,0.014-0.641-0.001-0.957-0.047l-18.758-2.736l-9.766,4.668
			l-6.644,15.221c-0.048,0.111-0.101,0.22-0.157,0.327l-15.165,28.835c-0.251,0.477-0.577,0.911-0.967,1.284l-9.948,9.528
			c-0.734,0.703-1.665,1.166-2.669,1.327l-8.412,1.345C155.267,744.489,155.003,744.51,154.739,744.51z M114.818,729.291
			l4.101,0.145c0.174,0.006,0.348,0.021,0.521,0.046l35.252,4.972l6.127-0.979l8.232-7.885l14.701-27.953l7.316-16.763
			c0.48-1.102,1.342-1.993,2.426-2.511l12.82-6.128c0.895-0.428,1.898-0.577,2.878-0.437l19.787,2.887l9.228-0.434l10.127-13.46
			c0.361-0.48,0.806-0.891,1.313-1.213l6.012-3.822c1.75-1.111,4.001-1.03,5.665,0.207l16.057,11.93l2.402-0.628l4.246-8.812
			c0.307-0.638,0.746-1.203,1.288-1.658l9.367-7.87c0.924-0.776,2.093-1.187,3.305-1.171l12.305,0.218l8.154-3.109l15.074-14.556
			c0.305-0.294,0.646-0.549,1.015-0.757l10.142-5.727c0.477-0.269,0.994-0.458,1.532-0.56l8.102-1.527l17.016-8.96
			c0.661-0.348,1.391-0.543,2.136-0.572l12.08-0.467l11.648-1.866l21.755-8.613c0.479-0.19,0.985-0.304,1.499-0.339l9.355-0.641
			c0.486-0.034,0.977,0.004,1.453,0.113l9.091,2.072l24.585,2.281l3.251-2.321l1.917-3.176c0.473-0.783,1.151-1.422,1.961-1.846
			l5.92-3.1l4.74-5.82l2.343-9.267c0.123-0.485,0.317-0.948,0.577-1.375l6.01-9.868c0.401-0.659,0.95-1.216,1.603-1.628
			l13.723-8.659l3.874-10.176l0.803-7.715c0.115-1.102,0.592-2.134,1.357-2.935l5.526-5.788l-6.06-4.885h-6.911l-8.566,4.057
			c-0.437,0.207-0.9,0.349-1.376,0.422l-7.832,1.21c-1.26,0.192-2.542-0.098-3.591-0.817l-7.295-5.001l-7.947-4.606l-9.087-1.984
			c-1.63-0.356-2.975-1.501-3.586-3.054l-2.916-7.409c-0.305-0.775-0.411-1.613-0.31-2.439l0.84-6.862l-7.922-2.14l-18.945,1.778
			l-6.548,4.584l-3.099,9.635c-0.448,1.394-1.485,2.521-2.837,3.084l-9.744,4.059c-0.644,0.268-1.351,0.4-2.033,0.383l-9.017-0.199
			l-6.833,4.805l-8.861,8.569c-0.32,0.309-0.679,0.574-1.069,0.788l-11.371,6.246l-22.875,18.216
			c-0.372,0.296-0.783,0.537-1.222,0.717l-13.557,5.543l-17.453,9.358c-1.297,0.696-2.833,0.784-4.2,0.244l-10.885-4.301
			c-0.72-0.284-1.365-0.732-1.882-1.309l-9.169-10.208l-10.315-4.135l-17.375-1.313l-7.573,4.523l-1.453,12.276
			c-0.191,1.614-1.155,3.035-2.584,3.809l-10.442,5.657c-0.654,0.354-1.378,0.558-2.121,0.597l-24.382,1.27
			c-0.969,0.051-1.922-0.179-2.757-0.661l-22.452-12.942l-12.217-2.234c-0.444-0.081-0.875-0.222-1.28-0.418l-14.798-7.168
			c-0.278-0.135-0.543-0.295-0.792-0.479l-30.169-22.289c-0.11-0.082-0.217-0.167-0.32-0.257l-12.572-10.992
			c-0.12-0.104-0.234-0.215-0.343-0.33l-9.486-10.04c-0.209-0.222-0.398-0.462-0.563-0.718l-14.912-23.044l-21.914,24.321
			l-6.095,10.029l-5.473,19.2c-0.112,0.393-0.272,0.771-0.476,1.125l-18.244,31.677l-5.277,23.903
			c-0.042,0.191-0.096,0.38-0.16,0.565l-4.463,12.825c-0.297,0.854-0.819,1.61-1.512,2.19l-5.302,4.441l-0.519,2.274l6.484,2.115
			c0.641,0.209,1.233,0.545,1.741,0.989l8.003,6.997c0.574,0.501,1.025,1.127,1.32,1.831l5.333,12.718
			c0.169,0.403,0.285,0.827,0.344,1.26l1.875,13.785l7.098,8.612l22.329,6.556c0.653,0.191,1.26,0.515,1.784,0.949l8.625,7.155
			c0.393,0.326,0.733,0.71,1.01,1.139l6.453,10.01c0.098,0.151,0.187,0.308,0.268,0.469l3.99,7.96
			c0.34,0.679,0.521,1.426,0.53,2.186l0.078,7.075l1.186,3.229l5.712,1.015c0.665,0.118,1.298,0.369,1.863,0.738l10.937,7.152
			C113.805,727.684,114.433,728.431,114.818,729.291z"/>
	</g>
	<path fill="url(#_x31_0_dpi_30_x25_)" d="M803.28,157.185l-8.444-2.27l-7.193-0.759l-14.018,2.13l-4.234-1.936l-5.27-8.137
		l-4.886-17.401l-1.418-10.405l0.903-5.866l3.259-7.336l-6.475-4.113l-69.263-16.827l-0.593,23.924l0.334,6.066l7.4,7.749
		l-0.764,4.927l-5.067,3.726l-7.991,3l-10.29-1.316l-21.168-8.83l-5.977-4.265l-7.347-6.975l-5.711-6.969l-3.432-7.029l-5.71-7.394
		l-1.141-5.769l6.366-4.329l14.357-6.249l8.819-5.878l0.015-0.012l-4.615-3.236l-2.143-2.534l-0.172-4.382l2.012-3.549l2.107-2.581
		l0.247-1.774l-4.366-1.21l-6.174,0.715l-5.387,1.489l-2.354,0.995l-7.206-14.965l-20.05-28.303l-9-6.755L569.616,0l-22.071,5.044
		l-19.229,9.809l-13.154,11.91l-6.387,11.702l-4.152,10.319l-1.591,1.85l-3.808,1.796l-3.646,3.033l-1.752,5.42l6.12,3.834
		l11.615,11.767l7.239,11.379l-6.938,2.818l-3.129-3.104l-2.441-5.511l-3.775-5.275l-7.023-2.346l-6.085,0.098l-4.54,0.801
		l-3.679,1.844L468.839,87.46l-9.506,3.742l-22.531,4.066l-0.022,0.005l8.485,9.233l12.54,6.088l9.497,6.082l6.399,5.764l8.13,1.926
		l8.485,4.49l10.284,14.971l0.956,8.088l-1.955,8.41l-6.756,6.964l-26.113,7.684l-7.399,8.072l0.43,12.406l-2.172,11.599
		l2.172,10.169l10.723,10.229l2.044,10.243l-2.721,13.45l10.281,5.737l14.853-0.796l10.099,4.006l16.833,24.698l-2.903,10.46
		l-6.261,7.501l1.601,10.394l2.777,11.175l17.907,16.935l4.913,10.916l11.563-3.231l9.798-3.684l7.612-6.545l9.885-6.947
		l13.328-6.47l7.807-5.512l-0.84-4.07l-2.044-6.382l-0.269-8.315l3.829-9.916l9.499-7.985l7.612-4.56l26.124-10.626l26.982-16.154
		l12.414-3.839l10.088-7.196l6.174-10.077l6.531-8.233l7.397-3.916l7.054-2.474l9.197-5.85l3.258-7.604l-5.004-7.114l2.83-5.927
		l22.329-4.561l7.346-4.876l16.822-8.975l11.915-2.49l6.656,3.78l1.561,2.236v0.006l17.399-8.615l-4.032-5.103L803.28,157.185z
		 M626.456,161.525l-15.238,19.208l-8.381,3.484l-11.637-0.124l-9.637-2.157l-7.346-6.485l-7.614-8.706l-11.539-9.067l-7.938-13.448
		l3.152-14.896l-2.391-12.497l-11.54-11.051l-7.559-8.475l3.204-5.947l3.594-4.809l4.248-9.136l7.133-7.995l21.806-12.988
		l5.886-4.991l7.992-3.968L590.329,50l4.132,4.334l-1.088,7.211l0.817,6.915l3.098,6.55l3.375,7.093l4.947,20.134l7.789,6.909
		l3.258,8.895l-3.258,13.212l0.376,10.211l9.196,5.169l7.452,6.361L626.456,161.525z M602.836,189.217c-0.018,0-0.035,0-0.053,0
		l-11.637-0.124c-0.35-0.003-0.698-0.044-1.039-0.12l-9.637-2.157c-0.823-0.184-1.585-0.573-2.217-1.131l-7.346-6.485
		c-0.161-0.143-0.313-0.295-0.455-0.457l-7.307-8.354l-11.172-8.778c-0.488-0.384-0.901-0.855-1.216-1.39l-7.938-13.448
		c-0.636-1.077-0.845-2.354-0.586-3.577l2.944-13.911l-1.901-9.94l-10.387-9.947c-0.095-0.091-0.186-0.186-0.273-0.283l-7.559-8.475
		c-1.4-1.57-1.668-3.848-0.67-5.7l3.204-5.947c0.117-0.217,0.25-0.424,0.397-0.622l3.283-4.394l4.03-8.666
		c0.206-0.444,0.477-0.855,0.803-1.22l7.133-7.995c0.339-0.38,0.734-0.707,1.172-0.967l21.448-12.775l5.568-4.721
		c0.309-0.262,0.648-0.485,1.011-0.665L580.427,43c1.176-0.584,2.534-0.681,3.784-0.271l7.678,2.522
		c0.783,0.257,1.49,0.704,2.059,1.3l4.132,4.334c1.066,1.119,1.556,2.668,1.325,4.196l-0.988,6.546l0.643,5.436l6.118,12.893
		c0.146,0.306,0.26,0.626,0.341,0.956l4.575,18.62l6.624,5.875c0.619,0.549,1.092,1.244,1.377,2.021l3.258,8.895
		c0.342,0.935,0.397,1.95,0.159,2.917l-3.09,12.532l0.247,6.709l6.753,3.795c0.282,0.159,0.549,0.345,0.796,0.556l7.452,6.361
		c1.708,1.458,2.234,3.876,1.287,5.912l-3.968,8.53c-0.165,0.356-0.372,0.691-0.616,0.999l-15.238,19.208
		c-0.527,0.665-1.215,1.184-1.998,1.51l-8.381,3.484C604.147,189.087,603.495,189.217,602.836,189.217z M591.779,179.1l10.085,0.107
		l6.24-2.594l14.067-17.732l2.116-4.549l-4.191-3.578l-8.771-4.93c-1.518-0.854-2.482-2.435-2.547-4.175l-0.376-10.211
		c-0.017-0.465,0.031-0.93,0.143-1.381l2.893-11.73l-2.3-6.276l-6.846-6.072c-0.759-0.674-1.295-1.562-1.537-2.547l-4.826-19.639
		l-6.258-13.193c-0.231-0.489-0.383-1.013-0.446-1.551l-0.817-6.915c-0.052-0.443-0.045-0.892,0.021-1.333l0.723-4.789l-1.575-1.652
		l-4.538-1.491l-5.609,2.785l-5.421,4.597c-0.211,0.179-0.438,0.34-0.675,0.482l-21.145,12.594l-6.129,6.871l-3.937,8.466
		c-0.145,0.313-0.322,0.609-0.529,0.885l-3.372,4.513l-1.367,2.537l5.096,5.713l11.397,10.915c0.75,0.718,1.258,1.652,1.453,2.672
		l2.391,12.497c0.125,0.653,0.118,1.324-0.02,1.975l-2.75,12.994l6.472,10.964l10.8,8.486c0.244,0.192,0.47,0.406,0.674,0.64
		l7.401,8.463l6.141,5.421L591.779,179.1z"/>
	<g>
		<polygon fill-rule="evenodd" clip-rule="evenodd" fill="url(#_x31_0_dpi_30_x25_)" points="422.412,485.821 413.323,470.188 
			406.686,463.73 404.052,454.884 394.039,446.898 368.871,453.282 359.354,452.325 345.717,453.207 330.327,457.438 
			322.13,455.448 323.959,445.313 326.433,435.982 324.529,428.088 322.571,422.27 324.529,415.956 326.11,409.094 326.809,401.286 
			325.239,390.752 317.561,384.046 293.188,372.555 281.165,363.605 273.431,354.668 264.537,332.498 264.161,332.959 
			254.934,335.191 246.178,331.674 240.737,324.092 232.251,318.897 218.485,313.536 218.453,313.525 217.742,316.149 
			210.547,319.757 208.87,323.435 205.19,334.922 197.737,342.467 192.296,349.873 194.221,360.857 179.82,358.121 168.646,361.067 
			159.429,367.881 151.028,376.646 148.297,381.55 146.017,386.825 142.209,391.069 128.668,395.076 125.583,400.448 
			122.366,412.955 110.546,433.848 106.137,445.032 104.373,458.24 100.652,466.338 86.122,482.46 86.122,482.471 104.578,510.993 
			114.064,521.033 126.636,532.025 156.805,554.314 171.603,561.482 184.669,563.871 207.869,577.245 232.251,575.975 
			242.694,570.318 244.436,555.598 255.482,549 275.206,550.491 287.316,555.346 297.264,566.42 308.149,570.721 325.831,561.24 
			339.629,555.598 362.838,537.116 374.583,530.665 383.724,521.824 392.22,515.85 402.879,516.085 412.623,512.027 
			416.237,500.792 423.69,495.576 		"/>
		<path fill="#F5F5F5" d="M207.869,582.245c-0.875,0-1.736-0.229-2.497-0.668l-22.452-12.942l-12.217-2.234
			c-0.444-0.081-0.875-0.222-1.28-0.418l-14.798-7.168c-0.278-0.135-0.543-0.295-0.792-0.479l-30.169-22.289
			c-0.11-0.082-0.217-0.167-0.32-0.257l-12.572-10.992c-0.12-0.104-0.234-0.215-0.343-0.33l-9.486-10.04
			c-0.209-0.222-0.398-0.462-0.563-0.718l-18.456-28.522c-0.523-0.809-0.802-1.752-0.802-2.716c0-1.236,0.458-2.44,1.286-3.359
			l14.02-15.555l3.089-6.724l1.665-12.464c0.054-0.401,0.156-0.795,0.305-1.172l4.409-11.184c0.085-0.216,0.185-0.426,0.299-0.628
			l11.494-20.317l3.052-11.867c0.112-0.436,0.283-0.854,0.507-1.245l3.086-5.372c0.64-1.114,1.685-1.939,2.917-2.304l12.184-3.605
			l2.318-2.583l1.956-4.526c0.066-0.154,0.14-0.304,0.222-0.45l2.731-4.904c0.208-0.373,0.463-0.718,0.758-1.027l8.4-8.765
			c0.196-0.205,0.41-0.392,0.637-0.561l9.217-6.814c0.509-0.376,1.085-0.653,1.698-0.814l11.174-2.946
			c0.722-0.189,1.477-0.216,2.208-0.077l7.294,1.386l-0.676-3.859c-0.236-1.344,0.088-2.725,0.896-3.824l5.441-7.405
			c0.144-0.196,0.302-0.381,0.472-0.553l6.613-6.695l3.314-10.349c0.06-0.188,0.131-0.371,0.212-0.55l1.677-3.678
			c0.474-1.038,1.288-1.883,2.308-2.395l5.195-2.605l0.126-0.465c0.36-1.329,1.252-2.451,2.465-3.101
			c1.214-0.65,2.641-0.771,3.947-0.334c0.077,0.025,0.185,0.064,0.261,0.093l13.767,5.361c0.277,0.108,0.543,0.24,0.796,0.395
			l8.485,5.195c0.569,0.348,1.063,0.807,1.452,1.349l4.592,6.4l5.921,2.378l6.32-1.529c1.044-0.746,2.35-1.071,3.654-0.873
			c1.751,0.266,3.23,1.438,3.89,3.082l8.583,21.394l6.829,7.891l11.184,8.325l23.92,11.279c0.419,0.197,0.808,0.452,1.157,0.756
			l7.678,6.706c0.894,0.781,1.481,1.855,1.656,3.029l1.57,10.534c0.059,0.391,0.07,0.788,0.035,1.183l-0.699,7.808
			c-0.02,0.228-0.056,0.454-0.107,0.677l-1.581,6.862c-0.028,0.121-0.06,0.24-0.097,0.358l-1.479,4.771l1.442,4.287
			c0.047,0.139,0.087,0.28,0.122,0.422l1.904,7.894c0.194,0.808,0.185,1.651-0.028,2.454l-2.422,9.135l-0.957,5.302l2.362,0.573
			l14.143-3.889c0.328-0.09,0.664-0.146,1.003-0.168l13.637-0.882c0.274-0.018,0.549-0.013,0.823,0.015l8.641,0.869l24.314-6.167
			c1.518-0.383,3.125-0.038,4.347,0.938l10.013,7.986c0.799,0.637,1.383,1.503,1.674,2.482l2.262,7.597l5.703,5.55
			c0.326,0.317,0.607,0.677,0.836,1.07l9.089,15.633c0.333,0.573,0.549,1.207,0.635,1.863l1.278,9.754
			c0.242,1.848-0.563,3.678-2.091,4.747l-6.075,4.251l-3.099,9.634c-0.448,1.395-1.485,2.522-2.837,3.085l-9.744,4.059
			c-0.643,0.268-1.33,0.398-2.033,0.383l-9.017-0.199l-6.833,4.804l-8.861,8.57c-0.32,0.309-0.679,0.574-1.069,0.788l-11.371,6.246
			l-22.875,18.216c-0.371,0.296-0.783,0.537-1.222,0.717l-13.557,5.543l-17.453,9.359c-1.297,0.695-2.833,0.785-4.2,0.243
			l-10.885-4.301c-0.72-0.284-1.365-0.732-1.882-1.309l-9.169-10.208l-10.315-4.135l-17.375-1.313l-7.573,4.523l-1.453,12.277
			c-0.191,1.614-1.155,3.034-2.584,3.809l-10.442,5.657c-0.654,0.354-1.378,0.558-2.121,0.597l-24.382,1.27
			C208.042,582.242,207.956,582.245,207.869,582.245z M173.171,556.686l12.398,2.267c0.562,0.103,1.103,0.301,1.598,0.586
			l21.919,12.635l21.778-1.134l7.17-3.884l1.438-12.146c0.182-1.541,1.07-2.909,2.402-3.705l11.046-6.597
			c0.885-0.529,1.911-0.771,2.94-0.693l19.723,1.49c0.509,0.039,1.01,0.155,1.484,0.345l12.111,4.855
			c0.711,0.285,1.347,0.73,1.859,1.3l9.161,10.198l7.633,3.016l15.639-8.385c0.153-0.082,0.31-0.156,0.47-0.222l13.135-5.371
			l22.649-18.036c0.222-0.177,0.459-0.334,0.708-0.471l11.157-6.128l8.66-8.375c0.187-0.181,0.388-0.346,0.6-0.496l8.496-5.974
			c0.873-0.614,1.918-0.921,2.987-0.909l9.602,0.213l6.637-2.765l2.907-9.038c0.334-1.039,0.999-1.94,1.893-2.566l4.968-3.477
			l-0.754-5.752l-8.24-14.173l-6.146-5.98c-0.612-0.596-1.062-1.338-1.305-2.157l-2.186-7.342l-6.846-5.46l-22.762,5.773
			c-0.565,0.143-1.151,0.185-1.73,0.128l-9.106-0.916l-12.714,0.822l-14.897,4.096c-0.818,0.225-1.68,0.238-2.505,0.038l-8.197-1.99
			c-2.571-0.624-4.211-3.143-3.741-5.747l1.829-10.136c0.024-0.132,0.053-0.263,0.087-0.393l2.149-8.107l-1.556-6.45l-1.888-5.61
			c-0.335-0.996-0.348-2.072-0.037-3.076l1.903-6.137l1.462-6.346l0.615-6.873l-1.211-8.125l-5.768-5.037l-23.741-11.194
			c-0.301-0.142-0.586-0.313-0.853-0.512l-12.023-8.95c-0.292-0.217-0.558-0.464-0.795-0.739l-7.734-8.937
			c-0.363-0.419-0.653-0.896-0.86-1.41l-7.148-17.817l-5.533,1.338c-1.012,0.245-2.074,0.168-3.04-0.22l-8.756-3.517
			c-0.882-0.354-1.645-0.953-2.199-1.725l-4.851-6.761l-7.243-4.434l-8.973-3.495c-0.32,0.282-0.677,0.524-1.065,0.719l-5.619,2.817
			l-0.823,1.805l-3.589,11.206c-0.24,0.749-0.652,1.43-1.205,1.989l-7.197,7.286l-3.961,5.391l1.557,8.882
			c0.284,1.618-0.245,3.271-1.415,4.424c-1.169,1.154-2.828,1.659-4.444,1.352l-13.289-2.525l-9.151,2.413l-8.104,5.991l-7.66,7.993
			l-2.297,4.124l-2.18,5.044c-0.214,0.496-0.508,0.954-0.868,1.356l-3.808,4.244c-0.618,0.688-1.416,1.192-2.303,1.455
			l-11.621,3.439l-1.751,3.048l-3.048,11.85c-0.109,0.425-0.274,0.834-0.49,1.216l-11.648,20.589l-4.058,10.292l-1.684,12.604
			c-0.066,0.493-0.205,0.973-0.413,1.425l-3.721,8.099c-0.211,0.459-0.491,0.884-0.829,1.26l-11.969,13.28l16.129,24.926
			l9.008,9.533l12.238,10.7l29.63,21.891L173.171,556.686z"/>
	</g>
	<g>
		<polygon fill-rule="evenodd" clip-rule="evenodd" fill="url(#_x31_0_dpi_30_x25_)" points="685.983,114.256 685.649,108.189 
			686.242,84.265 663.743,78.802 656.03,75.962 652.688,72.65 651.139,70.612 648.344,68.643 648.33,68.655 639.51,74.533 
			625.153,80.781 618.787,85.11 619.927,90.879 625.637,98.273 629.069,105.302 634.78,112.271 642.126,119.246 648.103,123.511 
			669.271,132.341 679.561,133.657 687.552,130.658 692.62,126.932 693.383,122.005 		"/>
		<path fill="#F5F5F5" d="M679.561,138.657c-0.212,0-0.424-0.013-0.635-0.041l-10.29-1.316c-0.443-0.057-0.877-0.173-1.29-0.345
			l-21.168-8.83c-0.346-0.145-0.675-0.327-0.979-0.545l-5.977-4.265c-0.189-0.135-0.369-0.283-0.538-0.444l-7.347-6.975
			c-0.151-0.143-0.293-0.296-0.425-0.457l-5.711-6.969c-0.246-0.3-0.456-0.627-0.626-0.975l-3.208-6.57l-5.397-6.99
			c-0.474-0.613-0.798-1.327-0.948-2.086l-1.141-5.769c-0.389-1.967,0.436-3.977,2.094-5.104l6.366-4.329
			c0.258-0.175,0.53-0.326,0.816-0.45l13.949-6.071l8.422-5.612c1.709-1.158,3.986-1.162,5.695,0.042l2.795,1.969
			c0.419,0.295,0.79,0.653,1.101,1.062l1.337,1.759l2.321,2.301l6.423,2.365l22.221,5.395c2.287,0.555,3.877,2.63,3.818,4.983
			l-0.588,23.725l0.222,4.024l6.126,6.414c1.073,1.124,1.563,2.683,1.325,4.219l-0.764,4.927c-0.203,1.306-0.914,2.479-1.979,3.262
			l-5.067,3.726c-0.37,0.272-0.775,0.492-1.205,0.653l-7.991,3C680.754,138.55,680.16,138.657,679.561,138.657z M670.574,127.467
			l8.392,1.073l6.183-2.32l2.847-2.094l0.07-0.451l-5.698-5.966c-0.822-0.861-1.311-1.989-1.376-3.178l-0.334-6.066
			c-0.008-0.133-0.01-0.266-0.006-0.399l0.492-19.893l-18.58-4.511c-0.186-0.045-0.368-0.101-0.548-0.167l-7.713-2.84
			c-0.672-0.248-1.283-0.636-1.792-1.141l-3.342-3.313c-0.166-0.165-0.32-0.34-0.461-0.525l-0.638-0.839l-5.786,3.856
			c-0.247,0.164-0.507,0.306-0.778,0.424l-13.928,6.062l-3.244,2.206l0.271,1.37l4.99,6.462c0.208,0.269,0.388,0.558,0.536,0.862
			l3.176,6.505l5.143,6.276l6.866,6.519l5.233,3.734L670.574,127.467z"/>
	</g>
	<g>
		<polygon fill-rule="evenodd" clip-rule="evenodd" fill="url(#_x31_0_dpi_30_x25_)" points="502.503,401.764 492.93,397.452 
			478.348,389.166 470.291,383.407 459.192,381.502 446.793,374.066 436.563,366.182 435.413,357.47 444.663,344.457 
			448.427,328.959 445.265,314.418 444.554,304.351 437.705,299.082 428.992,294.762 423.777,285.654 416.969,278.625 
			409.279,279.271 401.632,277.835 395.339,271.597 386.994,265.526 373.882,261.363 366.969,253.926 369.228,242.177 
			362.042,233.853 348.329,229.383 340.146,225.469 331.498,222.979 321.485,219.064 313.483,201.695 304.233,195.451 
			276.949,197.393 270.572,195.161 270.572,195.166 266.452,201.753 261.956,213.967 260.623,219.848 261.054,222.306 
			255.997,224.027 250.685,228.351 246.533,234.088 244.855,239.924 243.662,247.619 240.661,252.082 240.531,252.243 
			257.169,259.443 287.37,269.036 298.189,274.791 305.945,282.464 309.644,289.805 307.687,297.178 302.986,299.887 
			292.618,301.641 280.949,306.438 274.033,315.063 269.517,326.415 264.537,332.498 273.431,354.668 281.165,363.605 
			293.188,372.555 317.561,384.046 325.239,390.752 326.809,401.286 326.11,409.094 324.529,415.956 322.571,422.27 
			324.529,428.088 326.433,435.982 323.959,445.313 322.13,455.448 330.327,457.438 345.717,453.207 359.354,452.325 
			368.871,453.282 394.039,446.898 404.052,454.884 406.686,463.73 413.323,470.188 422.412,485.821 423.69,495.576 
			425.239,494.485 446.404,492.499 452.072,494.021 460.772,473.06 488.791,444.689 496.309,433.041 495.157,424.258 
			497.856,414.763 		"/>
		<path fill="#F5F5F5" d="M423.689,500.576c-0.681,0-1.365-0.139-2.009-0.421c-1.603-0.704-2.721-2.193-2.948-3.929l-1.148-8.759
			l-8.24-14.173l-6.146-5.98c-0.612-0.596-1.062-1.338-1.305-2.157l-2.186-7.342l-6.846-5.46l-22.762,5.773
			c-0.565,0.143-1.149,0.185-1.73,0.128l-9.106-0.916l-12.715,0.822l-14.897,4.096c-0.818,0.225-1.681,0.237-2.505,0.038
			l-8.196-1.99c-2.571-0.624-4.211-3.143-3.741-5.747l1.829-10.136c0.024-0.132,0.053-0.264,0.087-0.394l2.149-8.107l-1.556-6.45
			l-1.888-5.61c-0.335-0.996-0.348-2.072-0.037-3.076l1.903-6.137l1.462-6.346l0.615-6.872l-1.211-8.125l-5.768-5.038
			l-23.741-11.194c-0.301-0.142-0.586-0.313-0.853-0.512l-12.023-8.95c-0.292-0.217-0.558-0.464-0.795-0.739l-7.734-8.937
			c-0.363-0.419-0.653-0.896-0.86-1.41l-8.895-22.171c-0.679-1.692-0.383-3.619,0.772-5.029l4.489-5.483l4.23-10.633
			c0.184-0.461,0.435-0.893,0.745-1.28l6.916-8.625c0.529-0.66,1.217-1.175,2-1.497l11.669-4.797
			c0.343-0.141,0.701-0.244,1.067-0.306l9.482-1.604l2.122-1.223l0.936-3.526l-2.477-4.915l-6.654-6.583l-9.77-5.196l-29.768-9.456
			c-0.16-0.051-0.318-0.11-0.472-0.176l-16.638-7.2c-1.433-0.621-2.495-1.875-2.869-3.391c-0.374-1.513-0.02-3.114,0.956-4.329
			l2.258-3.359l1.023-6.595c0.032-0.208,0.078-0.414,0.136-0.616l1.678-5.836c0.16-0.556,0.415-1.081,0.754-1.549l4.152-5.737
			c0.256-0.353,0.556-0.671,0.895-0.947l5.312-4.324c0.46-0.375,0.983-0.665,1.545-0.855l1.339-0.456
			c0.007-0.031,0.014-0.063,0.021-0.095l1.333-5.881c0.048-0.211,0.109-0.418,0.185-0.622l4.496-12.214
			c0.119-0.323,0.271-0.632,0.453-0.924l4.075-6.515c0.351-0.583,0.821-1.098,1.392-1.502c1.321-0.938,3.016-1.179,4.545-0.644
			l5.401,1.891l26.253-1.869c1.113-0.085,2.226,0.217,3.152,0.843l9.25,6.244c0.758,0.512,1.361,1.221,1.744,2.052l7.159,15.539
			l7.92,3.097l8.426,2.426c0.266,0.076,0.525,0.175,0.774,0.294l7.887,3.773l13.4,4.368c0.867,0.283,1.64,0.796,2.235,1.486
			l7.186,8.324c1,1.158,1.414,2.709,1.125,4.211l-1.78,9.259l4.292,4.616l11.858,3.765c0.512,0.163,0.994,0.406,1.428,0.722
			l8.345,6.071c0.205,0.149,0.398,0.314,0.579,0.493l5.204,5.159l5.473,1.027l7.015-0.589c1.493-0.124,2.966,0.426,4.01,1.504
			l6.808,7.029c0.29,0.299,0.541,0.633,0.748,0.994l4.459,7.789l7.351,3.645c0.292,0.145,0.569,0.317,0.828,0.517l6.85,5.269
			c1.132,0.871,1.838,2.185,1.939,3.611l0.686,9.708l3.085,14.189c0.161,0.74,0.152,1.507-0.027,2.243l-3.764,15.498
			c-0.15,0.617-0.416,1.199-0.783,1.716l-8.111,11.412l0.623,4.717l8.364,6.446l11.347,6.805l10.175,1.746
			c0.743,0.128,1.448,0.422,2.062,0.86l7.846,5.608l14.153,8.042l9.36,4.215c2.377,1.071,3.533,3.788,2.655,6.242l-4.591,12.843
			l-2.372,8.343l1.017,7.758c0.154,1.175-0.114,2.366-0.756,3.361l-7.518,11.648c-0.187,0.289-0.402,0.558-0.644,0.802
			l-27.333,27.676l-8.326,20.06c-0.963,2.317-3.496,3.561-5.916,2.912l-4.799-1.29l-18.945,1.778l-0.462,0.325
			C425.712,500.267,424.704,500.576,423.689,500.576z M411.106,461.055l5.703,5.55c0.326,0.317,0.607,0.677,0.836,1.07l9.089,15.633
			c0.333,0.573,0.549,1.207,0.635,1.863l0.53,4.042l18.038-1.693c0.594-0.057,1.191-0.005,1.765,0.149l1.433,0.385l7.02-16.912
			c0.248-0.595,0.607-1.138,1.061-1.596l27.655-28.003l6.242-9.672l-0.913-6.963c-0.088-0.675-0.038-1.362,0.148-2.017l2.699-9.496
			c0.03-0.106,0.064-0.212,0.102-0.316l3.093-8.652l-5.364-2.416c-0.142-0.064-0.281-0.135-0.417-0.212l-14.582-8.287
			c-0.15-0.085-0.296-0.179-0.437-0.279l-7.125-5.092l-9.969-1.71c-0.61-0.105-1.195-0.322-1.726-0.64l-12.399-7.437
			c-0.166-0.1-0.327-0.209-0.48-0.328l-10.23-7.884c-1.047-0.807-1.732-1.996-1.905-3.306l-1.15-8.712
			c-0.166-1.252,0.15-2.521,0.881-3.551l8.693-12.231l3.266-13.446l-2.917-13.416c-0.051-0.234-0.085-0.472-0.102-0.71l-0.553-7.826
			l-4.68-3.601l-8.274-4.102c-0.888-0.44-1.625-1.135-2.118-1.995l-4.903-8.564l-4.723-4.876l-5.329,0.448
			c-0.447,0.037-0.899,0.015-1.341-0.068l-7.646-1.436c-0.983-0.185-1.888-0.659-2.598-1.363l-6.022-5.971l-7.381-5.369
			l-12.339-3.917c-0.822-0.261-1.563-0.73-2.149-1.361l-6.914-7.437c-1.085-1.167-1.549-2.783-1.248-4.348l1.802-9.372l-4.693-5.436
			l-12.388-4.038c-0.208-0.068-0.411-0.149-0.608-0.243l-7.809-3.735l-8.249-2.375c-0.148-0.042-0.294-0.092-0.438-0.148
			l-10.012-3.915c-1.205-0.471-2.179-1.39-2.72-2.564l-7.417-16.1l-6.66-4.496l-25.563,1.82c-0.677,0.048-1.363-0.042-2.007-0.268
			l-2.603-0.911l-1.73,2.765l-4.205,11.423l-1.04,4.584l0.258,1.469c0.426,2.427-0.981,4.803-3.314,5.597l-4.207,1.432l-4.107,3.343
			l-3.254,4.497l-1.349,4.691l-1.145,7.383c-0.09,0.583-0.283,1.144-0.567,1.657l10.888,4.712l29.96,9.517
			c0.288,0.091,0.567,0.208,0.834,0.351l10.819,5.754c0.429,0.229,0.823,0.518,1.168,0.86l7.756,7.674
			c0.385,0.38,0.705,0.821,0.948,1.304l3.699,7.34c0.551,1.093,0.682,2.35,0.368,3.533l-1.957,7.373
			c-0.341,1.287-1.182,2.384-2.336,3.049l-4.701,2.709c-0.514,0.296-1.077,0.499-1.663,0.598l-9.817,1.661l-9.96,4.094l-5.64,7.034
			l-4.24,10.657c-0.19,0.477-0.452,0.922-0.777,1.319l-3.108,3.796l7.482,18.651l6.829,7.891l11.184,8.325l23.92,11.278
			c0.419,0.197,0.808,0.452,1.157,0.756l7.678,6.706c0.894,0.781,1.481,1.855,1.656,3.029l1.57,10.533
			c0.059,0.391,0.07,0.788,0.035,1.183l-0.699,7.808c-0.021,0.228-0.056,0.454-0.107,0.677l-1.581,6.862
			c-0.028,0.121-0.06,0.24-0.097,0.358l-1.479,4.77l1.442,4.287c0.047,0.139,0.087,0.28,0.122,0.422l1.904,7.894
			c0.195,0.808,0.185,1.651-0.028,2.454l-2.422,9.135l-0.957,5.302l2.362,0.573l14.143-3.889c0.328-0.09,0.664-0.146,1.003-0.168
			l13.637-0.882c0.274-0.017,0.549-0.013,0.823,0.015l8.641,0.869l24.314-6.167c1.517-0.384,3.125-0.038,4.347,0.938l10.013,7.986
			c0.798,0.637,1.383,1.503,1.674,2.482L411.106,461.055z"/>
	</g>
	<g>
		<polygon fill-rule="evenodd" clip-rule="evenodd" fill="url(#_x31_0_dpi_30_x25_)" points="305.945,282.464 298.189,274.791 
			287.37,269.036 257.169,259.443 240.531,252.243 240.531,252.249 237.058,255.927 234.068,261.879 236.251,266.364 
			237.574,270.042 237.659,273.446 236.208,276.581 231.831,282.55 220.7,305.319 218.453,313.525 218.485,313.536 232.251,318.897 
			240.737,324.092 246.178,331.674 254.934,335.191 264.161,332.959 264.537,332.498 269.517,326.415 274.033,315.063 
			280.949,306.438 292.618,301.641 302.986,299.887 307.687,297.178 309.644,289.805 		"/>
		<path fill="#F5F5F5" d="M254.934,340.191c-0.635,0-1.268-0.121-1.864-0.36l-8.756-3.517c-0.882-0.354-1.645-0.953-2.199-1.725
			l-4.852-6.761l-7.242-4.434l-13.324-5.189c-2.392-0.914-3.749-3.511-3.067-6.001l2.248-8.206c0.083-0.301,0.193-0.594,0.33-0.875
			l11.131-22.769c0.13-0.267,0.284-0.521,0.46-0.761l4.081-5.566l0.752-1.624l-0.036-1.43l-0.958-2.664l-2.065-4.242
			c-0.682-1.401-0.672-3.04,0.027-4.432l2.989-5.953c0.218-0.435,0.499-0.835,0.833-1.189l3.384-3.583
			c0.285-0.319,0.614-0.604,0.98-0.844c1.407-0.924,3.183-1.083,4.731-0.413l16.406,7.1l29.96,9.517
			c0.288,0.091,0.567,0.209,0.834,0.351l10.819,5.754c0.429,0.229,0.823,0.518,1.168,0.86l7.756,7.674
			c0.385,0.38,0.705,0.821,0.948,1.304l3.699,7.34c0.551,1.093,0.682,2.35,0.368,3.533l-1.957,7.373
			c-0.341,1.287-1.182,2.384-2.336,3.049l-4.701,2.709c-0.514,0.296-1.077,0.499-1.663,0.598l-9.817,1.661l-9.96,4.094l-5.64,7.034
			l-4.24,10.657c-0.19,0.477-0.452,0.922-0.777,1.319l-5.347,6.533c-0.69,0.848-1.64,1.446-2.702,1.704l-9.227,2.232
			C255.722,340.145,255.327,340.191,254.934,340.191z M249.392,327.577l5.921,2.378l6.039-1.461l3.805-4.648l4.23-10.632
			c0.184-0.461,0.435-0.893,0.745-1.28l6.916-8.625c0.529-0.66,1.217-1.175,2-1.497l11.669-4.797
			c0.343-0.141,0.701-0.244,1.067-0.306l9.482-1.604l2.122-1.223l0.936-3.526l-2.477-4.915l-6.654-6.583l-9.77-5.196l-29.768-9.456
			c-0.16-0.051-0.318-0.11-0.472-0.176l-13.418-5.807l-0.568,0.602l-1.551,3.088l1.101,2.262c0.079,0.162,0.148,0.327,0.209,0.496
			l1.323,3.678c0.181,0.503,0.28,1.033,0.293,1.567l0.085,3.404c0.019,0.768-0.139,1.529-0.461,2.226l-1.452,3.135
			c-0.139,0.301-0.309,0.588-0.505,0.856l-4.113,5.609l-10.729,21.946l-0.933,3.406l9.601,3.739c0.277,0.108,0.543,0.24,0.796,0.395
			l8.485,5.195c0.569,0.348,1.063,0.807,1.452,1.349L249.392,327.577z"/>
	</g>
</g>
</svg>
