<?xml version="1.0" encoding="utf-8"?>
<!-- Generator: Adobe Illustrator 16.0.3, SVG Export Plug-In . SVG Version: 6.00 Build 0)  -->
<!DOCTYPE svg PUBLIC "-//W3C//DTD SVG 1.1//EN" "http://www.w3.org/Graphics/SVG/1.1/DTD/svg11.dtd">
<svg version="1.1" id="文" xmlns="http://www.w3.org/2000/svg" xmlns:xlink="http://www.w3.org/1999/xlink" x="0px" y="0px"
	 width="48px" height="75.5px" viewBox="0 0 48 75.5" enable-background="new 0 0 48 75.5" xml:space="preserve">
<g>
	<g>
		<path fill="none" stroke="#FFFFFF" stroke-width="7" stroke-linecap="round" stroke-linejoin="round" d="M38.978,46
			c-0.039-1-0.119-1.655-0.241-2.394l-0.135-0.882l-28.315-0.06l-0.139,0.945C10.021,44.343,9.938,46,9.899,46h-1.73
			c0.419-9,6.85-15.376,13.431-20.12l1.181-0.927l-1.18-0.938C15.027,19.263,8.605,13,8.199,4h1.728c0.029,0,0.088,1.37,0.172,1.955
			L10.22,7h28.479l0.124-1.002C38.915,5.381,38.976,4,39.006,4h1.732c-0.337,8-4.744,13.394-11.278,18.378l-1.615-1.153
			c1.043-0.777,2.208-1.569,3.304-2.522L33.217,17H15.696l2.073,1.704c2.208,1.924,4.7,3.782,7.112,5.489
			C32.446,29.545,40.26,35,40.705,46H38.978z M14.068,34.906c-1.084,1.343-1.968,2.77-2.627,4.239l-0.657,1.466l27.314,0.023
			l-0.656-1.468c-0.664-1.484-1.52-2.871-2.617-4.238l-0.254-0.316l-20.248-0.021L14.068,34.906z M24.008,26.362
			c-1.941,1.371-3.99,2.852-5.826,4.402l-2.143,1.812l16.813,0.019l-2.136-1.815c-1.874-1.593-3.986-3.114-5.819-4.415l-0.445-0.316
			L24.008,26.362z M11.287,10.194c0.616,1.473,1.432,2.863,2.495,4.248l0.256,0.333l20.839,0.021l0.256-0.33
			c1.058-1.365,1.878-2.755,2.505-4.245l0.609-1.442L10.683,8.751L11.287,10.194z"/>
		
			<text transform="matrix(0.979 0 0 1 2.8613 71.377)" fill="none" stroke="#FFFFFF" stroke-width="7" stroke-linecap="round" stroke-linejoin="round" font-family="'SegoeUI'" font-size="24">TOP</text>
	</g>
	<g>
		<path fill="#00205E" d="M38.978,46c-0.039-1-0.119-1.655-0.241-2.394l-0.135-0.882l-28.315-0.06l-0.139,0.945
			C10.021,44.343,9.938,46,9.899,46h-1.73c0.419-9,6.85-15.376,13.431-20.12l1.181-0.927l-1.18-0.938
			C15.027,19.263,8.605,13,8.199,4h1.728c0.029,0,0.088,1.37,0.172,1.955L10.22,7h28.479l0.124-1.002
			C38.915,5.381,38.976,4,39.006,4h1.732c-0.337,8-4.744,13.394-11.278,18.378l-1.615-1.153c1.043-0.777,2.208-1.569,3.304-2.522
			L33.217,17H15.696l2.073,1.704c2.208,1.924,4.7,3.782,7.112,5.489C32.446,29.545,40.26,35,40.705,46H38.978z M14.068,34.906
			c-1.084,1.343-1.968,2.77-2.627,4.239l-0.657,1.466l27.314,0.023l-0.656-1.468c-0.664-1.484-1.52-2.871-2.617-4.238l-0.254-0.316
			l-20.248-0.021L14.068,34.906z M24.008,26.362c-1.941,1.371-3.99,2.852-5.826,4.402l-2.143,1.812l16.813,0.019l-2.136-1.815
			c-1.874-1.593-3.986-3.114-5.819-4.415l-0.445-0.316L24.008,26.362z M11.287,10.194c0.616,1.473,1.432,2.863,2.495,4.248
			l0.256,0.333l20.839,0.021l0.256-0.33c1.058-1.365,1.878-2.755,2.505-4.245l0.609-1.442L10.683,8.751L11.287,10.194z"/>
		<text transform="matrix(0.979 0 0 1 2.8613 71.377)" fill="#00205E" font-family="'SegoeUI'" font-size="24">TOP</text>
	</g>
</g>
</svg>
