<?xml version="1.0" encoding="utf-8"?>
<!-- Generator: Adobe Illustrator 16.0.3, SVG Export Plug-In . SVG Version: 6.00 Build 0)  -->
<!DOCTYPE svg PUBLIC "-//W3C//DTD SVG 1.1//EN" "http://www.w3.org/Graphics/SVG/1.1/DTD/svg11.dtd">
<svg version="1.1" id="底" xmlns="http://www.w3.org/2000/svg" xmlns:xlink="http://www.w3.org/1999/xlink" x="0px" y="0px"
	 width="80px" height="80px" viewBox="0 0 80 80" enable-background="new 0 0 80 80" xml:space="preserve">
<g>
	<path fill="#00205E" d="M48.392,60H35.914l17.604-32H27V14.099C27,8.482,33.288,8,38.902,8h7.469C51.984,8,55,8.482,55,14.099
		v6.153l6.896-9.42C59.852,3.756,54.097,0,46.371,0h-7.469C29.544,0,20,4.74,20,14.099V28H9v52h24.085L48.392,60z"/>
	<polygon fill="#00205E" points="67.544,28 56.83,47 71,47 71,28 	"/>
	<polygon fill="#00205E" points="48.372,80 71,80 71,49.507 	"/>
</g>
</svg>
