<?xml version="1.0" encoding="utf-8"?>
<!-- Generator: Adobe Illustrator 16.0.3, SVG Export Plug-In . SVG Version: 6.00 Build 0)  -->
<!DOCTYPE svg PUBLIC "-//W3C//DTD SVG 1.1//EN" "http://www.w3.org/Graphics/SVG/1.1/DTD/svg11.dtd">
<svg version="1.1" id="底" xmlns="http://www.w3.org/2000/svg" xmlns:xlink="http://www.w3.org/1999/xlink" x="0px" y="0px"
	 width="80px" height="80px" viewBox="0 0 80 80" enable-background="new 0 0 80 80" xml:space="preserve">
<path fill="#00205E" d="M57.828,21.937c2.346,2.19,3.973,5.089,3.973,5.089c0.725,1.268,0.178,2.711-1.268,3.09l-11.58,2.707
	c-1.441,0.364-2.344-0.545-1.979-1.982l2.705-11.615c0.365-1.455,1.621-1.997,2.889-1.277C52.568,17.947,55.65,19.591,57.828,21.937
	 M47.334,18.508l-6.166,9.97c-0.896,1.259-2.166,1.259-2.883,0l-6.162-9.97c-0.902-1.28-0.365-2.731,1.084-3.098
	c0,0,3.268-0.912,6.527-0.912c3.064,0,6.332,0.912,6.332,0.912C47.512,15.776,48.053,17.228,47.334,18.508 M21.625,22.115
	c2.174-2.353,5.258-3.985,5.258-3.985c1.268-0.725,2.529,0,2.895,1.461l2.713,11.427c0.357,1.442-0.549,2.352-1.994,1.986
	l-11.578-2.711c-1.449-0.365-1.986-1.647-1.268-2.896C17.65,27.397,19.283,24.302,21.625,22.115 M18.193,32.645l10.133,6.351
	c1.268,0.725,1.268,1.991,0,2.729l-10.133,6.154c-1.262,0.908-2.707,0.365-3.072-1.084c0,0-0.92-3.268-0.92-6.534
	c0-3.09,0.92-6.338,0.92-6.338C15.486,32.46,16.932,31.92,18.193,32.645 M21.809,58.402c-2.166-2.182-3.793-5.076-3.793-5.076
	c-0.725-1.456-0.182-2.717,1.268-3.082l11.572-2.725c1.445-0.359,2.17,0.541,1.992,2.002l-2.893,11.604
	c-0.361,1.449-1.629,1.993-2.889,1.269C27.066,62.395,24.158,60.768,21.809,58.402 M40.088,46.252c-3.436,0-6.338-2.725-6.338-6.35
	c0-3.456,2.902-6.16,6.338-6.16c3.432,0,6.162,2.704,6.162,6.16C46.25,43.527,43.52,46.252,40.088,46.252 M32.301,61.851
	l6.344-10.164c0.719-1.267,1.986-1.267,2.711,0l6.338,10.164c0.719,1.269,0.178,2.731-1.27,3.09c0,0-3.264,0.902-6.336,0.902
	c-3.248,0-6.521-0.902-6.521-0.902C32.123,64.582,31.582,63.119,32.301,61.851 M58.193,58.22c-2.359,2.182-5.266,3.992-5.266,3.992
	c-1.262,0.724-2.705,0-3.066-1.444l-2.715-11.426c-0.359-1.463,0.547-2.365,1.99-2.182l11.578,2.906
	c1.443,0.354,1.988,1.62,1.264,2.907C61.979,52.974,60.357,56.045,58.193,58.22 M65.426,39.902c0,3.26-0.902,6.533-0.902,6.533
	c-0.352,1.443-1.82,1.983-3.09,1.267L51.49,41.36c-1.268-0.738-1.268-1.999,0-2.727l9.943-6.356c1.27-0.717,2.738-0.176,3.09,1.271
	C64.523,33.548,65.426,36.813,65.426,39.902 M79.898,42.085v-4.17c0-0.744-0.549-1.469-1.268-1.469L72.66,35.55
	c-0.178-1.449-0.551-2.728-0.91-4.173l5.26-3.084c0.535-0.364,0.896-1.268,0.535-1.992l-1.443-3.633
	c-0.359-0.731-1.084-1.09-1.801-0.912l-5.975,1.463c-0.553-1.104-1.273-2.189-2.176-3.268l3.613-4.711
	c0.543-0.742,0.361-1.646,0-2.188l-2.887-2.907c-0.549-0.358-1.451-0.541-2.172,0l-4.715,3.626
	c-1.078-0.895-2.346-1.621-3.609-2.346l1.621-5.99c0.191-0.725-0.357-1.438-1.084-1.809l-3.625-1.456
	c-0.725-0.366-1.627,0-1.992,0.718l-3.072,5.096c-1.254-0.19-2.521-0.551-3.791-0.727L43.52,1.262C43.52,0.537,42.799,0,42.074,0
	H37.92c-0.721,0-1.445,0.537-1.445,1.262l-0.902,5.996c-1.463,0.176-2.725,0.536-4.174,0.9l-3.072-5.27
	c-0.363-0.543-1.26-0.902-1.984-0.543l-3.625,1.463c-0.725,0.361-1.092,1.086-0.908,1.811l1.441,5.989
	c-1.084,0.542-2.162,1.269-3.07,2.163l-4.875-3.626c-0.744-0.541-1.639-0.358-2.188,0l-2.707,2.907
	c-0.541,0.541-0.725,1.445-0.182,2.188l3.615,4.711c-0.896,1.269-1.623,2.363-2.348,3.626l-5.775-1.462
	c-0.746-0.179-1.654,0.199-2.012,0.921L2.264,26.66c-0.357,0.737,0,1.633,0.721,1.985l5.258,3.09
	c-0.359,1.269-0.717,2.548-0.902,3.814l-5.977,0.896c-0.727,0-1.262,0.725-1.262,1.469v4.17c0,0.725,0.535,1.442,1.262,1.442
	L7.34,44.43c0.359,1.462,0.543,2.73,0.902,4.174l-5.258,3.083c-0.537,0.36-0.896,1.287-0.537,2.005l1.445,3.631
	c0.365,0.722,1.268,1.08,2.002,0.897l5.777-1.438c0.725,1.08,1.445,2.171,2.172,3.248l-3.615,4.729
	c-0.543,0.725-0.359,1.629,0.182,2.169l2.707,2.724c0.549,0.543,1.443,0.727,2.188,0.184l4.875-3.631
	c1.09,0.9,2.176,1.626,3.432,2.364l-1.445,5.978c-0.174,0.725,0.189,1.457,0.908,1.821l3.631,1.443c0.721,0.367,1.621,0,1.982-0.717
	l3.07-5.077c1.268,0.184,2.547,0.543,3.814,0.725l0.902,5.978c0,0.738,0.725,1.282,1.445,1.282h4.154
	c0.725,0,1.445-0.544,1.445-1.282l0.918-5.978c1.451-0.182,2.709-0.541,4.152-0.906l3.076,5.259c0.361,0.542,1.262,0.9,2.006,0.542
	l3.605-1.449c0.725-0.361,1.086-1.1,0.916-1.822l-1.449-5.978c1.084-0.739,2.168-1.459,3.246-2.183l4.715,3.631
	c0.721,0.543,1.623,0.359,2.172-0.184l2.887-2.724c0.361-0.54,0.543-1.444,0-2.169l-3.613-4.729
	c0.902-1.269,1.623-2.346,2.348-3.633l5.977,1.465c0.725,0.183,1.445-0.178,1.811-0.903l1.443-3.632c0.365-0.737,0-1.64-0.543-2
	l-5.258-3.082c0.182-1.268,0.555-2.529,0.732-3.814l5.971-0.902C79.35,43.527,79.898,42.81,79.898,42.085"/>
</svg>
