<?xml version="1.0" encoding="utf-8"?>
<!-- Generator: Adobe Illustrator 16.0.3, SVG Export Plug-In . SVG Version: 6.00 Build 0)  -->
<!DOCTYPE svg PUBLIC "-//W3C//DTD SVG 1.1//EN" "http://www.w3.org/Graphics/SVG/1.1/DTD/svg11.dtd">
<svg version="1.1" id="底" xmlns="http://www.w3.org/2000/svg" xmlns:xlink="http://www.w3.org/1999/xlink" x="0px" y="0px"
	 width="80px" height="80px" viewBox="0 0 80 80" enable-background="new 0 0 80 80" xml:space="preserve">
<g>
	<path fill="#00205E" d="M71.5,0.125h-63v71h13V60.889c-4-2.396-7.226-7.258-7.226-12.877c0-7.992,6.813-14.471,14.803-14.471
		c7.994,0,13.646,6.479,13.646,14.471c0,5.818-2.223,10.822-9.223,13.119v9.994h38V0.125z M63.5,50.125h-16v-5h16V50.125z
		 M63.5,38.125h-16v-5h16V38.125z M63.5,25.125h-47v-5h47V25.125z M63.5,12.125h-47v-4h47V12.125z"/>
	<polygon fill="#00205E" points="21.5,79.875 27.5,74.949 33.5,79.875 33.5,71.125 21.5,71.125 	"/>
	<path fill="#EFEFEF" d="M42.89,48.012c0-7.992-5.981-14.471-13.975-14.471c-7.99,0-14.89,6.479-14.89,14.471
		c0,5.619,3.475,10.48,7.475,12.877v10.236h12v-9.994C40.5,58.834,42.89,53.83,42.89,48.012z"/>
	<rect x="16.5" y="8.125" fill="#EFEFEF" width="47" height="4"/>
	<rect x="16.5" y="20.125" fill="#EFEFEF" width="47" height="5"/>
	<rect x="47.5" y="33.125" fill="#EFEFEF" width="16" height="5"/>
	<rect x="47.5" y="45.125" fill="#EFEFEF" width="16" height="5"/>
</g>
</svg>
