<?xml version="1.0" encoding="utf-8"?>
<!-- Generator: Adobe Illustrator 16.0.3, SVG Export Plug-In . SVG Version: 6.00 Build 0)  -->
<!DOCTYPE svg PUBLIC "-//W3C//DTD SVG 1.1//EN" "http://www.w3.org/Graphics/SVG/1.1/DTD/svg11.dtd">
<svg version="1.1" id="圖層_1" xmlns="http://www.w3.org/2000/svg" xmlns:xlink="http://www.w3.org/1999/xlink" x="0px" y="0px"
	 width="337.648px" height="71.997px" viewBox="0 0 337.648 71.997" enable-background="new 0 0 337.648 71.997"
	 xml:space="preserve">
<g>
	<defs>
		<rect id="SVGID_1_" x="-71.996" y="-71.996" width="482" height="216"/>
	</defs>
	<clipPath id="SVGID_2_">
		<use xlink:href="#SVGID_1_"  overflow="visible"/>
	</clipPath>
	<path clip-path="url(#SVGID_2_)" fill="#FFFFFF" d="M140.352,14.397v43.2h-7.501V23.736h-0.12l-13.407,33.861h-4.97l-13.738-33.861
		h-0.09v33.861h-6.929v-43.2h10.755l12.412,32.024h0.18l13.105-32.024H140.352z M146.625,17.681c0-1.205,0.437-2.214,1.311-3.028
		c0.874-0.813,1.913-1.22,3.118-1.22c1.285,0,2.35,0.417,3.193,1.25c0.844,0.834,1.266,1.833,1.266,2.998
		c0,1.185-0.432,2.179-1.296,2.982c-0.864,0.804-1.918,1.205-3.163,1.205c-1.246,0-2.295-0.406-3.148-1.219
		C147.051,19.834,146.625,18.846,146.625,17.681 M154.668,57.597h-7.29V26.628h7.29V57.597z M176.78,52.295
		c1.084,0,2.279-0.25,3.585-0.753c1.305-0.502,2.51-1.164,3.615-1.988v6.778c-1.165,0.663-2.485,1.165-3.962,1.506
		c-1.476,0.342-3.099,0.512-4.865,0.512c-4.559,0-8.265-1.439-11.116-4.322c-2.852-2.881-4.278-6.563-4.278-11.04
		c0-4.981,1.456-9.083,4.369-12.307c2.911-3.224,7.038-4.835,12.381-4.835c1.365,0,2.745,0.176,4.143,0.527
		c1.395,0.352,2.504,0.758,3.328,1.22v6.989c-1.125-0.823-2.274-1.461-3.45-1.913c-1.174-0.451-2.375-0.678-3.599-0.678
		c-2.872,0-5.192,0.934-6.959,2.802c-1.769,1.868-2.652,4.388-2.652,7.563c0,3.132,0.849,5.572,2.546,7.319
		C171.563,51.422,173.868,52.295,176.78,52.295 M204.736,26.116c0.582,0,1.105,0.041,1.567,0.121c0.462,0.08,0.853,0.18,1.175,0.301
		v7.38c-0.382-0.281-0.939-0.546-1.672-0.798c-0.733-0.251-1.622-0.376-2.666-0.376c-1.788,0-3.299,0.753-4.534,2.259
		s-1.854,3.826-1.854,6.959v15.635h-7.291V26.628h7.291v4.88h0.12c0.663-1.687,1.667-3.007,3.014-3.961
		C201.232,26.594,202.849,26.116,204.736,26.116 M207.872,42.564c0-5.121,1.446-9.177,4.338-12.17
		c2.894-2.993,6.909-4.489,12.052-4.489c4.84,0,8.62,1.441,11.342,4.323c2.721,2.883,4.082,6.774,4.082,11.674
		c0,5.021-1.446,9.018-4.338,11.989c-2.893,2.974-6.828,4.458-11.81,4.458c-4.801,0-8.61-1.409-11.433-4.231
		C209.283,51.297,207.872,47.445,207.872,42.564 M215.464,42.324c0,3.232,0.733,5.703,2.2,7.411c1.465,1.707,3.564,2.56,6.295,2.56
		c2.652,0,4.67-0.853,6.056-2.56c1.386-1.708,2.079-4.238,2.079-7.593c0-3.334-0.719-5.849-2.154-7.546
		c-1.437-1.697-3.449-2.545-6.039-2.545c-2.672,0-4.745,0.888-6.222,2.666C216.202,36.494,215.464,39.03,215.464,42.324
		 M250.53,34.762c0,1.045,0.331,1.863,0.994,2.456c0.662,0.592,2.128,1.34,4.397,2.243c2.912,1.166,4.956,2.477,6.132,3.932
		c1.175,1.456,1.762,3.22,1.762,5.287c0,2.912-1.12,5.252-3.359,7.02s-5.267,2.65-9.083,2.65c-1.285,0-2.706-0.154-4.263-0.467
		c-1.556-0.311-2.877-0.707-3.961-1.189v-7.169c1.326,0.924,2.751,1.655,4.278,2.197c1.525,0.543,2.91,0.814,4.156,0.814
		c1.647,0,2.862-0.231,3.646-0.693c0.784-0.461,1.175-1.234,1.175-2.318c0-1.006-0.406-1.854-1.22-2.547
		c-0.813-0.692-2.355-1.491-4.624-2.395c-2.691-1.125-4.6-2.39-5.725-3.796s-1.687-3.193-1.687-5.362
		c0-2.792,1.108-5.086,3.329-6.884c2.218-1.797,5.096-2.696,8.631-2.696c1.084,0,2.3,0.12,3.645,0.361
		c1.347,0.242,2.471,0.553,3.374,0.934v6.929c-0.964-0.643-2.089-1.194-3.374-1.657c-1.285-0.462-2.561-0.693-3.825-0.693
		c-1.387,0-2.466,0.271-3.238,0.813C250.916,33.075,250.53,33.818,250.53,34.762 M266.947,42.564c0-5.121,1.446-9.177,4.338-12.17
		c2.893-2.993,6.909-4.489,12.05-4.489c4.842,0,8.621,1.441,11.344,4.323c2.721,2.883,4.082,6.774,4.082,11.674
		c0,5.021-1.447,9.018-4.339,11.989c-2.892,2.974-6.828,4.458-11.81,4.458c-4.8,0-8.611-1.409-11.432-4.231
		C268.358,51.297,266.947,47.445,266.947,42.564 M274.539,42.324c0,3.232,0.733,5.703,2.199,7.411
		c1.466,1.707,3.565,2.56,6.296,2.56c2.652,0,4.67-0.853,6.055-2.56c1.387-1.708,2.079-4.238,2.079-7.593
		c0-3.334-0.718-5.849-2.153-7.546c-1.437-1.697-3.45-2.545-6.04-2.545c-2.671,0-4.745,0.888-6.222,2.666
		C275.277,36.494,274.539,39.03,274.539,42.324 M322.946,32.593h-10.858v25.004h-7.38V32.593h-5.182v-5.965h5.182V22.32
		c0-3.254,1.06-5.92,3.179-7.998c2.118-2.079,4.835-3.118,8.148-3.118c0.883,0,1.667,0.045,2.351,0.135
		c0.682,0.091,1.284,0.227,1.807,0.407v6.296c-0.241-0.14-0.663-0.311-1.265-0.512c-0.604-0.2-1.297-0.301-2.078-0.301
		c-1.528,0-2.702,0.477-3.526,1.431s-1.235,2.365-1.235,4.232v3.736h10.858v-6.959l7.321-2.229v9.188h7.381v5.965h-7.381v14.49
		c0,1.909,0.346,3.254,1.039,4.037c0.692,0.783,1.781,1.175,3.269,1.175c0.421,0,0.928-0.1,1.521-0.301
		c0.592-0.201,1.108-0.441,1.552-0.723v6.024c-0.463,0.261-1.231,0.502-2.305,0.723c-1.074,0.222-2.135,0.331-3.179,0.331
		c-3.072,0-5.378-0.816-6.914-2.455c-1.537-1.637-2.305-4.102-2.305-7.396V32.593z"/>
	<rect clip-path="url(#SVGID_2_)" fill="#F25022" width="34.218" height="34.218"/>
	<rect x="37.779" clip-path="url(#SVGID_2_)" fill="#7FBA00" width="34.218" height="34.218"/>
	<rect y="37.779" clip-path="url(#SVGID_2_)" fill="#00A4EF" width="34.218" height="34.218"/>
	<rect x="37.779" y="37.779" clip-path="url(#SVGID_2_)" fill="#FFB900" width="34.218" height="34.218"/>
</g>
</svg>
