<?xml version="1.0" encoding="utf-8"?>
<!-- Generator: Adobe Illustrator 16.0.3, SVG Export Plug-In . SVG Version: 6.00 Build 0)  -->
<!DOCTYPE svg PUBLIC "-//W3C//DTD SVG 1.1//EN" "http://www.w3.org/Graphics/SVG/1.1/DTD/svg11.dtd">
<svg version="1.1" id="分離模式" xmlns="http://www.w3.org/2000/svg" xmlns:xlink="http://www.w3.org/1999/xlink" x="0px"
	 y="0px" width="35px" height="35px" viewBox="-0.684 -1.063 35 35" enable-background="new -0.684 -1.063 35 35"
	 xml:space="preserve">
<g>
	<g>
		<path fill="#FFFFFF" d="M18.259,9.401c0.348,0.134,0.676,0.271,0.994,0.418l-2.338,3.191c-0.111,0.151-0.133,0.351-0.058,0.522
			c0.075,0.172,0.237,0.291,0.424,0.311l15.767,1.721c0.188,0.021,0.371-0.061,0.481-0.212c0.111-0.151,0.134-0.351,0.058-0.523
			L27.195,0.314c-0.074-0.171-0.236-0.29-0.424-0.311s-0.37,0.061-0.48,0.212l-2.528,3.451c-0.144-0.032-0.289-0.065-0.441-0.091
			c-0.575-0.101-1.204-0.187-1.979-0.271c-1.252-0.135-2.586-0.139-4.083-0.011c-1.367,0.131-2.725,0.38-4.034,0.741
			c-2.257,0.623-4.427,1.614-6.45,2.949C6.04,7.467,5.189,8.058,4.446,8.773c-0.185,0.176-0.217,0.459-0.075,0.67
			c0.053,0.08,0.124,0.14,0.205,0.18C4.711,9.69,4.873,9.697,5.019,9.634c0.894-0.389,1.885-0.638,2.649-0.812
			c1.207-0.274,2.481-0.441,3.789-0.495C13.826,8.229,16.179,8.6,18.259,9.401z"/>
		<path fill="#FFFFFF" d="M29.261,23.431c-0.055-0.079-0.124-0.141-0.205-0.18c-0.135-0.066-0.297-0.074-0.442-0.012
			c-0.894,0.389-1.885,0.639-2.649,0.813c-1.207,0.274-2.481,0.44-3.789,0.495c-2.368,0.099-4.721-0.273-6.802-1.075
			c-0.347-0.134-0.676-0.271-0.994-0.417l2.339-3.191c0.111-0.152,0.133-0.352,0.058-0.523c-0.076-0.172-0.238-0.291-0.425-0.312
			L0.583,17.309c-0.188-0.021-0.37,0.062-0.481,0.212c-0.111,0.152-0.133,0.352-0.058,0.523l6.392,14.517
			c0.076,0.171,0.237,0.29,0.424,0.312c0.188,0.02,0.371-0.062,0.481-0.213l2.529-3.451c0.143,0.033,0.289,0.065,0.441,0.092
			c0.575,0.102,1.204,0.187,1.98,0.271c1.251,0.136,2.585,0.14,4.083,0.011c1.368-0.131,2.725-0.379,4.034-0.74
			c2.256-0.623,4.426-1.614,6.45-2.948c0.733-0.483,1.584-1.075,2.328-1.79C29.371,23.925,29.402,23.643,29.261,23.431z"/>
	</g>
</g>
</svg>
