<?xml version="1.0" encoding="utf-8"?>
<!-- Generator: Adobe Illustrator 16.0.3, SVG Export Plug-In . SVG Version: 6.00 Build 0)  -->
<!DOCTYPE svg PUBLIC "-//W3C//DTD SVG 1.1//EN" "http://www.w3.org/Graphics/SVG/1.1/DTD/svg11.dtd">
<svg version="1.1" id="分離模式" xmlns="http://www.w3.org/2000/svg" xmlns:xlink="http://www.w3.org/1999/xlink" x="0px"
	 y="0px" width="80px" height="63px" viewBox="0 0 80 63" enable-background="new 0 0 80 63" xml:space="preserve">
<g>
	<path fill="none" stroke="#505050" stroke-width="2" stroke-linecap="round" stroke-linejoin="round" stroke-miterlimit="10" d="
		M61.929,43.135c6.649-0.688,11.835-6.307,11.835-13.139c0-7.295-5.914-13.209-13.209-13.209c-0.648,0-1.285,0.049-1.907,0.139
		c-1.313-5.912-6.584-10.334-12.892-10.334c-1.407,0-2.761,0.223-4.032,0.629C39.329,3.855,35.4,1.658,30.956,1.658
		c-7.296,0-13.209,5.914-13.209,13.211c0,0.664,0.05,1.316,0.145,1.953c-6.593,0.965-11.655,6.641-11.655,13.502
		c0,6.596,4.678,12.1,10.897,13.371"/>
	<g>
		<g>
			<g>
				<path fill="#505050" d="M53.5,60.342c0,1.1-0.9,2-2,2h-24c-1.1,0-2-0.9-2-2v-3c0-1.1,0.9-2,2-2h24c1.1,0,2,0.9,2,2V60.342z"/>
			</g>
			<g>
				<path fill="#505050" d="M53.5,51.342c0,1.1-0.9,2-2,2h-24c-1.1,0-2-0.9-2-2v-3c0-1.1,0.9-2,2-2h24c1.1,0,2,0.9,2,2V51.342z"/>
			</g>
			<g>
				<path fill="#505050" d="M53.5,43.342c0,1.1-0.9,2-2,2h-24c-1.1,0-2-0.9-2-2v-1c0-1.1,0.9-2,2-2h24c1.1,0,2,0.9,2,2V43.342z"/>
			</g>
			<g>
				<path fill="#505050" d="M53.5,36.342c0,1.1-0.9,2-2,2h-24c-1.1,0-2-0.9-2-2v-3c0-1.1,0.9-2,2-2h24c1.1,0,2,0.9,2,2V36.342z"/>
			</g>
		</g>
	</g>
</g>
</svg>
