<?xml version="1.0" encoding="utf-8"?>
<!-- Generator: Adobe Illustrator 16.0.3, SVG Export Plug-In . SVG Version: 6.00 Build 0)  -->
<!DOCTYPE svg PUBLIC "-//W3C//DTD SVG 1.1//EN" "http://www.w3.org/Graphics/SVG/1.1/DTD/svg11.dtd">
<svg version="1.1" id="分離模式" xmlns="http://www.w3.org/2000/svg" xmlns:xlink="http://www.w3.org/1999/xlink" x="0px"
	 y="0px" width="80px" height="63px" viewBox="0 0 80 63" enable-background="new 0 0 80 63" xml:space="preserve">
<g>
	<path fill-rule="evenodd" clip-rule="evenodd" fill="#505050" d="M12.72,1.5c6.59,0,12,2.039,12.65,4.659l0.05,0.37h0.02v0.16
		c0,3.74,0,18.55,0,22.26v0.16h-0.02l-0.05,0.37c-0.65,2.62-6.061,4.66-12.65,4.66s-12-2.04-12.65-4.66l-0.05-0.37H0v-0.16V6.689
		c0-2.42,0,0,0,0l0,0l0.069-0.53C0.72,3.539,6.13,1.5,12.72,1.5z M12.72,3.369c-4.85,0-8.78,1.16-8.78,2.58s3.931,2.58,8.78,2.58
		s8.78-1.16,8.78-2.58S17.569,3.369,12.72,3.369z"/>
	<path fill-rule="evenodd" clip-rule="evenodd" fill="#505050" d="M40,15.18c6.59,0,12,2.039,12.65,4.66l0.05,0.369h0.02v0.16
		c0,3.74,0,18.551,0,22.26v0.16H52.7l-0.05,0.371C52,45.779,46.59,47.82,40,47.82s-12-2.041-12.65-4.66l-0.05-0.371h-0.02v-0.16
		v-22.26c0-2.42,0,0,0,0l0,0l0.069-0.529C28,17.219,33.41,15.18,40,15.18z M40,17.049c-4.85,0-8.78,1.16-8.78,2.58
		s3.931,2.58,8.78,2.58s8.78-1.16,8.78-2.58S44.85,17.049,40,17.049z"/>
	<path fill-rule="evenodd" clip-rule="evenodd" fill="#505050" d="M67.28,28.86c6.59,0,12,2.039,12.65,4.659l0.05,0.37H80v0.16
		c0,3.74,0,18.55,0,22.26v0.16h-0.02l-0.05,0.37c-0.65,2.62-6.061,4.66-12.65,4.66s-12-2.04-12.65-4.66l-0.05-0.37h-0.02v-0.16
		V34.05c0-2.42,0,0,0,0l0,0l0.069-0.53C55.28,30.899,60.69,28.86,67.28,28.86z M67.28,30.729c-4.85,0-8.78,1.16-8.78,2.58
		s3.931,2.58,8.78,2.58s8.78-1.16,8.78-2.58S72.13,30.729,67.28,30.729z"/>
</g>
</svg>
