<?xml version="1.0" encoding="utf-8"?>
<!-- Generator: Adobe Illustrator 16.0.3, SVG Export Plug-In . SVG Version: 6.00 Build 0)  -->
<!DOCTYPE svg PUBLIC "-//W3C//DTD SVG 1.1//EN" "http://www.w3.org/Graphics/SVG/1.1/DTD/svg11.dtd">
<svg version="1.1" id="分離模式" xmlns="http://www.w3.org/2000/svg" xmlns:xlink="http://www.w3.org/1999/xlink" x="0px"
	 y="0px" width="80px" height="63px" viewBox="0 0 80 63" enable-background="new 0 0 80 63" xml:space="preserve">
<g>
	<g>
		<g>
			<g>
				<path fill="#505050" d="M79.75,59.75c0,1.1-0.9,2-2,2h-19c-1.1,0-2-0.9-2-2v-2c0-1.1,0.9-2,2-2h19c1.1,0,2,0.9,2,2V59.75z"/>
			</g>
			<g>
				<path fill="#505050" d="M79.75,51.75c0,1.1-0.9,2-2,2h-19c-1.1,0-2-0.9-2-2v-2c0-1.1,0.9-2,2-2h19c1.1,0,2,0.9,2,2V51.75z"/>
			</g>
			<g>
				<path fill="#505050" d="M79.75,44.75c0,1.1-0.9,2-2,2h-19c-1.1,0-2-0.9-2-2v-1c0-1.1,0.9-2,2-2h19c1.1,0,2,0.9,2,2V44.75z"/>
			</g>
			<g>
				<path fill="#505050" d="M79.75,37.75c0,1.1-0.9,2-2,2h-19c-1.1,0-2-0.9-2-2v-2c0-1.1,0.9-2,2-2h19c1.1,0,2,0.9,2,2V37.75z"/>
			</g>
		</g>
	</g>
	<g>
		<path fill="#505050" d="M49.818,35.964c-0.054,1.099-0.997,1.928-2.093,1.843l-19.436-1.506c-1.097-0.085-1.949-1.053-1.895-2.152
			l0.092-1.852c0.055-1.099,0.997-1.928,2.094-1.843l19.435,1.506c1.097,0.085,1.95,1.053,1.895,2.152L49.818,35.964z"/>
	</g>
	<g>
		<path fill="none" stroke="#505050" stroke-width="2" stroke-linecap="round" stroke-linejoin="round" stroke-miterlimit="10" d="
			M17.568,5.084l19.81-2.834l14.665,14.784l0.376,16.367c0,0-6.196-0.259-6.928-6.693l-1.145-5.868l-8.882-5.897l-13.17,4.955
			l1.715,10.139c0,0,4.681,6.127,1.901,10.807l-8.51-6.682l-4.924-10.044L1.25,24.202L6.574,6.541L17.568,5.084z"/>
		
			<polyline fill="none" stroke="#505050" stroke-width="2" stroke-linecap="round" stroke-linejoin="round" stroke-miterlimit="10" points="
			40.301,5.197 58.25,14.917 52.418,33.401 		"/>
	</g>
</g>
</svg>
