<?xml version="1.0" encoding="utf-8"?>
<!-- Generator: Adobe Illustrator 16.0.3, SVG Export Plug-In . SVG Version: 6.00 Build 0)  -->
<!DOCTYPE svg PUBLIC "-//W3C//DTD SVG 1.1//EN" "http://www.w3.org/Graphics/SVG/1.1/DTD/svg11.dtd">
<svg version="1.1" id="文" xmlns="http://www.w3.org/2000/svg" xmlns:xlink="http://www.w3.org/1999/xlink" x="0px" y="0px"
	 width="258px" height="111.282px" viewBox="0 0 258 111.282" enable-background="new 0 0 258 111.282" xml:space="preserve">
<g>
	<g>
		<g>
			<g>
				<polygon fill="#0078D4" points="241.549,76.95 151.377,76.95 159.602,0 249.773,0 				"/>
			</g>
			<g>
				<polygon fill="#FFFFFF" points="156.217,72.577 162.306,15.617 243.732,15.617 237.645,72.577 				"/>
			</g>
			<g>
				<g>
					<path fill="#DBE6FC" d="M161.76,68.556c-0.023,0-0.048-0.001-0.072-0.004c-0.371-0.04-0.64-0.372-0.6-0.743l5.083-47.566
						c0.04-0.371,0.365-0.643,0.744-0.6c0.37,0.039,0.64,0.372,0.6,0.744l-5.083,47.565
						C162.395,68.299,162.102,68.556,161.76,68.556z"/>
				</g>
				<g>
					<path fill="#DBE6FC" d="M173.651,68.556c-0.024,0-0.048-0.001-0.073-0.004c-0.371-0.04-0.639-0.372-0.6-0.743l5.084-47.566
						c0.039-0.371,0.367-0.643,0.744-0.6c0.371,0.039,0.639,0.372,0.6,0.744l-5.084,47.565
						C174.285,68.299,173.992,68.556,173.651,68.556z"/>
				</g>
				<g>
					<path fill="#DBE6FC" d="M185.543,68.556c-0.023,0-0.049-0.001-0.072-0.004c-0.371-0.04-0.641-0.372-0.6-0.743l5.082-47.566
						c0.041-0.371,0.369-0.643,0.744-0.6c0.371,0.039,0.641,0.372,0.6,0.744l-5.082,47.565
						C186.178,68.299,185.885,68.556,185.543,68.556z"/>
				</g>
				<g>
					<path fill="#DBE6FC" d="M197.434,68.556c-0.023,0-0.047-0.001-0.072-0.004c-0.371-0.04-0.639-0.372-0.6-0.743l5.084-47.566
						c0.039-0.371,0.365-0.643,0.744-0.6c0.371,0.039,0.639,0.372,0.6,0.744l-5.084,47.565
						C198.068,68.299,197.775,68.556,197.434,68.556z"/>
				</g>
				<g>
					<path fill="#DBE6FC" d="M209.324,68.556c-0.023,0-0.047-0.001-0.072-0.004c-0.371-0.04-0.639-0.373-0.6-0.743l5.084-47.566
						c0.039-0.371,0.367-0.643,0.744-0.6c0.371,0.039,0.641,0.373,0.6,0.744l-5.084,47.565
						C209.959,68.299,209.666,68.556,209.324,68.556z"/>
				</g>
				<g>
					<path fill="#DBE6FC" d="M221.217,68.556c-0.023,0-0.049-0.001-0.072-0.004c-0.371-0.04-0.641-0.373-0.602-0.743l5.086-47.566
						c0.039-0.371,0.367-0.643,0.742-0.6c0.371,0.039,0.641,0.373,0.602,0.744l-5.086,47.565
						C221.852,68.299,221.557,68.556,221.217,68.556z"/>
				</g>
				<g>
					<path fill="#DBE6FC" d="M233.107,68.556c-0.023,0-0.049-0.001-0.072-0.004c-0.371-0.04-0.641-0.373-0.6-0.743l5.084-47.566
						c0.039-0.371,0.365-0.643,0.744-0.6c0.371,0.039,0.639,0.373,0.6,0.744l-5.084,47.565
						C233.742,68.299,233.449,68.556,233.107,68.556z"/>
				</g>
			</g>
			<g>
				<g>
					<path fill="#DBE6FC" d="M238.191,20.99h-71.348c-0.373,0-0.676-0.303-0.676-0.676s0.303-0.676,0.676-0.676h71.348
						c0.373,0,0.676,0.303,0.676,0.676S238.564,20.99,238.191,20.99z"/>
				</g>
				<g>
					<path fill="#DBE6FC" d="M236.92,32.882h-71.348c-0.373,0-0.676-0.303-0.676-0.676c0-0.374,0.303-0.676,0.676-0.676h71.348
						c0.373,0,0.676,0.302,0.676,0.676C237.596,32.579,237.293,32.882,236.92,32.882z"/>
				</g>
				<g>
					<path fill="#DBE6FC" d="M235.648,44.773h-71.348c-0.373,0-0.676-0.303-0.676-0.676c0-0.374,0.303-0.676,0.676-0.676h71.348
						c0.375,0,0.676,0.302,0.676,0.676C236.324,44.471,236.023,44.773,235.648,44.773z"/>
				</g>
				<g>
					<path fill="#DBE6FC" d="M234.377,56.664h-71.346c-0.375,0-0.677-0.302-0.677-0.676c0-0.373,0.302-0.676,0.677-0.676h71.346
						c0.375,0,0.678,0.303,0.678,0.676C235.055,56.362,234.752,56.664,234.377,56.664z"/>
				</g>
				<g>
					<path fill="#DBE6FC" d="M233.107,68.556H161.76c-0.374,0-0.676-0.302-0.676-0.676s0.302-0.676,0.676-0.676h71.348
						c0.373,0,0.676,0.302,0.676,0.676S233.48,68.556,233.107,68.556z"/>
				</g>
			</g>
			<g>
				<g>
					<polygon fill="#002050" points="191.625,10.87 162.803,10.87 163.359,5.661 192.182,5.661 					"/>
				</g>
			</g>
		</g>
		<g>
			<polygon fill="#002050" points="241.549,76.95 249.773,0 258,76.95 			"/>
		</g>
	</g>
	<g>
		<circle fill="#FF5989" cx="238.308" cy="18.835" r="13.224"/>
		<g>
			<path fill="#FFFFFF" d="M236.529,10.835h3.556v6.229h6.222v3.543h-6.222v6.229h-3.556v-6.229h-6.223v-3.543h6.223V10.835z"/>
		</g>
	</g>
</g>
<g>
	<g>
		<g>
			<g>
				<polygon fill="#0078D4" points="208.54,88.395 118.369,88.395 126.593,11.443 216.765,11.443 				"/>
			</g>
			<g>
				<polygon fill="#FFFFFF" points="123.208,84.021 129.297,27.061 210.724,27.061 204.636,84.021 				"/>
			</g>
			<g>
				<g>
					<path fill="#DBE6FC" d="M128.751,80c-0.023,0-0.048-0.002-0.072-0.004c-0.371-0.041-0.64-0.373-0.6-0.744l5.083-47.566
						c0.04-0.371,0.365-0.643,0.744-0.6c0.37,0.039,0.64,0.373,0.6,0.744l-5.083,47.566C129.385,79.742,129.092,80,128.751,80z"/>
				</g>
				<g>
					<path fill="#DBE6FC" d="M140.643,80c-0.024,0-0.048-0.002-0.073-0.004c-0.371-0.041-0.639-0.373-0.6-0.744l5.084-47.566
						c0.039-0.371,0.367-0.643,0.744-0.6c0.371,0.039,0.639,0.373,0.6,0.744l-5.084,47.566C141.276,79.742,140.983,80,140.643,80z"
						/>
				</g>
				<g>
					<path fill="#DBE6FC" d="M152.534,80c-0.023,0-0.049-0.002-0.072-0.004c-0.371-0.041-0.641-0.373-0.6-0.744l5.082-47.566
						c0.041-0.371,0.369-0.643,0.744-0.6c0.371,0.039,0.641,0.373,0.6,0.744l-5.082,47.566C153.169,79.742,152.876,80,152.534,80z"
						/>
				</g>
				<g>
					<path fill="#DBE6FC" d="M164.425,80c-0.023,0-0.047-0.002-0.072-0.004c-0.371-0.041-0.639-0.373-0.6-0.744l5.084-47.566
						c0.039-0.371,0.365-0.643,0.744-0.6c0.371,0.039,0.639,0.373,0.6,0.744l-5.084,47.566C165.06,79.742,164.767,80,164.425,80z"/>
				</g>
				<g>
					<path fill="#DBE6FC" d="M176.315,80c-0.023,0-0.047-0.002-0.072-0.004c-0.371-0.041-0.639-0.373-0.6-0.744l5.084-47.566
						c0.039-0.371,0.367-0.643,0.744-0.6c0.371,0.039,0.641,0.373,0.6,0.744l-5.084,47.566C176.95,79.742,176.657,80,176.315,80z"/>
				</g>
				<g>
					<path fill="#DBE6FC" d="M188.208,80c-0.023,0-0.049-0.002-0.072-0.004c-0.371-0.041-0.641-0.373-0.602-0.744l5.086-47.566
						c0.039-0.371,0.367-0.643,0.742-0.6c0.371,0.039,0.641,0.373,0.602,0.744l-5.086,47.566C188.843,79.742,188.548,80,188.208,80z
						"/>
				</g>
				<g>
					<path fill="#DBE6FC" d="M200.099,80c-0.023,0-0.049-0.002-0.072-0.004c-0.371-0.041-0.641-0.373-0.6-0.744l5.084-47.566
						c0.039-0.371,0.365-0.643,0.744-0.6c0.371,0.039,0.639,0.373,0.6,0.744l-5.084,47.566C200.733,79.742,200.44,80,200.099,80z"/>
				</g>
			</g>
			<g>
				<g>
					<path fill="#DBE6FC" d="M205.183,32.434h-71.348c-0.373,0-0.676-0.303-0.676-0.676s0.303-0.676,0.676-0.676h71.348
						c0.373,0,0.676,0.303,0.676,0.676S205.556,32.434,205.183,32.434z"/>
				</g>
				<g>
					<path fill="#DBE6FC" d="M203.911,44.326h-71.348c-0.373,0-0.676-0.303-0.676-0.676c0-0.375,0.303-0.676,0.676-0.676h71.348
						c0.373,0,0.676,0.301,0.676,0.676C204.587,44.023,204.284,44.326,203.911,44.326z"/>
				</g>
				<g>
					<path fill="#DBE6FC" d="M202.64,56.217h-71.348c-0.374,0-0.676-0.303-0.676-0.676s0.302-0.676,0.676-0.676h71.348
						c0.375,0,0.676,0.303,0.676,0.676S203.015,56.217,202.64,56.217z"/>
				</g>
				<g>
					<path fill="#DBE6FC" d="M201.368,68.107h-71.346c-0.374,0-0.676-0.301-0.676-0.676c0-0.373,0.302-0.676,0.676-0.676h71.346
						c0.375,0,0.678,0.303,0.678,0.676C202.046,67.807,201.743,68.107,201.368,68.107z"/>
				</g>
				<g>
					<path fill="#DBE6FC" d="M200.099,80H128.75c-0.374,0-0.676-0.303-0.676-0.676c0-0.375,0.302-0.676,0.676-0.676h71.348
						c0.373,0,0.676,0.301,0.676,0.676C200.774,79.697,200.472,80,200.099,80z"/>
				</g>
			</g>
			<g>
				<g>
					<polygon fill="#002050" points="158.616,22.314 129.794,22.314 130.351,17.105 159.173,17.105 					"/>
				</g>
			</g>
		</g>
		<g>
			<polygon fill="#002050" points="208.54,88.395 216.765,11.443 224.991,88.395 			"/>
		</g>
	</g>
	<g>
		<circle fill="#FF5989" cx="205.29" cy="30.279" r="13.224"/>
		<g>
			<path fill="#FFFFFF" d="M203.521,22.279h3.556v6.229h6.222v3.543h-6.222v6.229h-3.556v-6.229h-6.223v-3.543h6.223V22.279z"/>
		</g>
	</g>
</g>
<g>
	<g>
		<g>
			<g>
				<polygon fill="#0078D4" points="175.531,99.838 85.36,99.838 93.584,22.888 183.756,22.888 				"/>
			</g>
			<g>
				<polygon fill="#FFFFFF" points="90.2,95.465 96.288,38.505 177.715,38.505 171.627,95.465 				"/>
			</g>
			<g>
				<g>
					<path fill="#DBE6FC" d="M95.742,91.443c-0.023,0-0.048-0.001-0.072-0.004c-0.371-0.04-0.64-0.372-0.6-0.743l5.083-47.566
						c0.04-0.371,0.365-0.643,0.744-0.6c0.371,0.039,0.639,0.372,0.6,0.744L96.414,90.84C96.376,91.187,96.083,91.443,95.742,91.443
						z"/>
				</g>
				<g>
					<path fill="#DBE6FC" d="M107.634,91.443c-0.024,0-0.048-0.001-0.073-0.004c-0.371-0.04-0.64-0.372-0.6-0.743l5.084-47.566
						c0.039-0.371,0.366-0.643,0.743-0.6c0.371,0.039,0.64,0.372,0.601,0.744l-5.084,47.565
						C108.268,91.187,107.975,91.443,107.634,91.443z"/>
				</g>
				<g>
					<path fill="#DBE6FC" d="M119.525,91.443c-0.023,0-0.048-0.001-0.072-0.004c-0.371-0.04-0.64-0.372-0.6-0.743l5.083-47.566
						c0.04-0.371,0.369-0.643,0.744-0.6c0.371,0.039,0.64,0.372,0.6,0.744l-5.083,47.565
						C120.16,91.187,119.867,91.443,119.525,91.443z"/>
				</g>
				<g>
					<path fill="#DBE6FC" d="M131.416,91.443c-0.023,0-0.047-0.001-0.072-0.004c-0.371-0.04-0.639-0.372-0.6-0.743l5.084-47.566
						c0.039-0.371,0.365-0.643,0.744-0.6c0.371,0.039,0.639,0.372,0.6,0.744l-5.084,47.565
						C132.051,91.187,131.758,91.443,131.416,91.443z"/>
				</g>
				<g>
					<path fill="#DBE6FC" d="M143.307,91.443c-0.023,0-0.047-0.001-0.072-0.004c-0.371-0.04-0.639-0.373-0.6-0.743l5.084-47.566
						c0.039-0.371,0.367-0.643,0.744-0.6c0.371,0.039,0.641,0.373,0.6,0.744l-5.084,47.565
						C143.941,91.187,143.648,91.443,143.307,91.443z"/>
				</g>
				<g>
					<path fill="#DBE6FC" d="M155.199,91.443c-0.023,0-0.049-0.001-0.072-0.004c-0.371-0.04-0.641-0.373-0.602-0.743l5.086-47.566
						c0.039-0.371,0.367-0.643,0.742-0.6c0.371,0.039,0.641,0.373,0.602,0.744l-5.086,47.565
						C155.834,91.187,155.539,91.443,155.199,91.443z"/>
				</g>
				<g>
					<path fill="#DBE6FC" d="M167.09,91.443c-0.023,0-0.049-0.001-0.072-0.004c-0.371-0.04-0.641-0.373-0.6-0.743l5.084-47.566
						c0.039-0.371,0.365-0.643,0.744-0.6c0.371,0.039,0.639,0.373,0.6,0.744l-5.084,47.565
						C167.725,91.187,167.432,91.443,167.09,91.443z"/>
				</g>
			</g>
			<g>
				<g>
					<path fill="#DBE6FC" d="M172.174,43.878h-71.348c-0.374,0-0.676-0.303-0.676-0.676s0.303-0.676,0.676-0.676h71.348
						c0.373,0,0.676,0.303,0.676,0.676S172.547,43.878,172.174,43.878z"/>
				</g>
				<g>
					<path fill="#DBE6FC" d="M170.902,55.77H99.555c-0.374,0-0.676-0.303-0.676-0.676c0-0.374,0.302-0.676,0.676-0.676h71.348
						c0.373,0,0.676,0.302,0.676,0.676C171.578,55.467,171.275,55.77,170.902,55.77z"/>
				</g>
				<g>
					<path fill="#DBE6FC" d="M169.631,67.661H98.284c-0.374,0-0.676-0.303-0.676-0.676c0-0.374,0.302-0.676,0.676-0.676h71.347
						c0.375,0,0.676,0.302,0.676,0.676C170.307,67.358,170.006,67.661,169.631,67.661z"/>
				</g>
				<g>
					<path fill="#DBE6FC" d="M168.359,79.552H97.013c-0.374,0-0.676-0.302-0.676-0.676c0-0.373,0.302-0.676,0.676-0.676h71.346
						c0.375,0,0.678,0.303,0.678,0.676C169.037,79.25,168.734,79.552,168.359,79.552z"/>
				</g>
				<g>
					<path fill="#DBE6FC" d="M167.09,91.443H95.742c-0.374,0-0.676-0.302-0.676-0.676s0.302-0.676,0.676-0.676h71.348
						c0.373,0,0.676,0.302,0.676,0.676S167.463,91.443,167.09,91.443z"/>
				</g>
			</g>
			<g>
				<g>
					<polygon fill="#002050" points="125.608,33.758 96.786,33.758 97.342,28.549 126.165,28.549 					"/>
				</g>
			</g>
		</g>
		<g>
			<polygon fill="#002050" points="175.531,99.838 183.756,22.888 191.982,99.838 			"/>
		</g>
	</g>
	<g>
		<circle fill="#FF5989" cx="172.29" cy="41.724" r="13.224"/>
		<g>
			<path fill="#FFFFFF" d="M170.512,33.723h3.556v6.229h6.222v3.543h-6.222v6.229h-3.556v-6.229h-6.223v-3.543h6.223V33.723z"/>
		</g>
	</g>
</g>
<g>
	<g>
		<g>
			<polygon fill="#505050" points="142.523,111.282 52.352,111.282 60.576,34.332 150.748,34.332 			"/>
		</g>
		<g>
			<polygon fill="#FFFFFF" points="57.191,106.909 63.28,49.949 144.707,49.949 138.619,106.909 			"/>
		</g>
		<g>
			<g>
				<path fill="#DBE6FC" d="M62.734,102.888c-0.023,0-0.048-0.001-0.072-0.004c-0.371-0.04-0.64-0.372-0.6-0.743l5.083-47.566
					c0.04-0.371,0.365-0.643,0.744-0.6c0.371,0.039,0.639,0.372,0.6,0.744l-5.083,47.565
					C63.368,102.631,63.075,102.888,62.734,102.888z"/>
			</g>
			<g>
				<path fill="#DBE6FC" d="M74.625,102.888c-0.024,0-0.048-0.001-0.073-0.004c-0.371-0.04-0.64-0.372-0.6-0.743l5.084-47.566
					c0.04-0.371,0.367-0.643,0.744-0.6c0.371,0.039,0.64,0.372,0.6,0.744l-5.083,47.565
					C75.26,102.631,74.967,102.888,74.625,102.888z"/>
			</g>
			<g>
				<path fill="#DBE6FC" d="M86.517,102.888c-0.023,0-0.048-0.001-0.072-0.004c-0.371-0.04-0.64-0.372-0.6-0.743l5.083-47.566
					c0.04-0.371,0.369-0.643,0.744-0.6c0.371,0.039,0.64,0.372,0.6,0.744l-5.083,47.565
					C87.151,102.631,86.858,102.888,86.517,102.888z"/>
			</g>
			<g>
				<path fill="#DBE6FC" d="M98.408,102.888c-0.024,0-0.048-0.001-0.073-0.004c-0.371-0.04-0.64-0.372-0.6-0.743l5.084-47.566
					c0.04-0.371,0.365-0.643,0.744-0.6c0.371,0.039,0.64,0.372,0.6,0.744l-5.083,47.565
					C99.042,102.631,98.75,102.888,98.408,102.888z"/>
			</g>
			<g>
				<path fill="#DBE6FC" d="M110.299,102.888c-0.023,0-0.048-0.001-0.073-0.004c-0.371-0.04-0.639-0.373-0.6-0.743l5.084-47.566
					c0.039-0.371,0.367-0.643,0.744-0.6c0.371,0.039,0.64,0.373,0.6,0.744l-5.084,47.565
					C110.933,102.631,110.64,102.888,110.299,102.888z"/>
			</g>
			<g>
				<path fill="#DBE6FC" d="M122.191,102.888c-0.024,0-0.049-0.001-0.073-0.004c-0.371-0.04-0.64-0.373-0.601-0.743l5.085-47.566
					c0.04-0.371,0.368-0.643,0.743-0.6c0.371,0.039,0.641,0.373,0.601,0.744l-5.085,47.565
					C122.825,102.631,122.531,102.888,122.191,102.888z"/>
			</g>
			<g>
				<path fill="#DBE6FC" d="M134.082,102.888c-0.023,0-0.049-0.001-0.072-0.004c-0.371-0.04-0.641-0.373-0.6-0.743l5.084-47.566
					c0.039-0.371,0.365-0.643,0.744-0.6c0.371,0.039,0.639,0.373,0.6,0.744l-5.084,47.565
					C134.717,102.631,134.424,102.888,134.082,102.888z"/>
			</g>
		</g>
		<g>
			<g>
				<path fill="#DADADA" d="M139.166,55.322H67.818c-0.374,0-0.676-0.303-0.676-0.676s0.303-0.676,0.676-0.676h71.348
					c0.373,0,0.676,0.303,0.676,0.676S139.539,55.322,139.166,55.322z"/>
			</g>
			<g>
				<path fill="#DADADA" d="M137.895,67.214H66.546c-0.374,0-0.676-0.303-0.676-0.676c0-0.374,0.302-0.676,0.676-0.676h71.348
					c0.373,0,0.676,0.302,0.676,0.676C138.57,66.911,138.268,67.214,137.895,67.214z"/>
			</g>
			<g>
				<path fill="#DADADA" d="M136.623,79.105H65.275c-0.374,0-0.676-0.303-0.676-0.676c0-0.374,0.302-0.676,0.676-0.676h71.348
					c0.375,0,0.676,0.302,0.676,0.676C137.299,78.803,136.998,79.105,136.623,79.105z"/>
			</g>
			<g>
				<path fill="#DADADA" d="M135.352,90.996H64.005c-0.374,0-0.676-0.302-0.676-0.676c0-0.373,0.302-0.676,0.676-0.676h71.347
					c0.375,0,0.678,0.303,0.678,0.676C136.029,90.694,135.727,90.996,135.352,90.996z"/>
			</g>
			<g>
				<path fill="#DADADA" d="M134.082,102.888H62.733c-0.374,0-0.676-0.302-0.676-0.676s0.302-0.676,0.676-0.676h71.349
					c0.373,0,0.676,0.302,0.676,0.676S134.455,102.888,134.082,102.888z"/>
			</g>
		</g>
		<g>
			<g>
				<polygon fill="#FFFFFF" points="92.599,45.202 63.777,45.202 64.334,39.993 93.156,39.993 				"/>
			</g>
		</g>
	</g>
	<g>
		<polygon fill="#2A2A2A" points="142.523,111.282 150.748,34.332 158.975,111.282 		"/>
	</g>
</g>
<g>
	<path fill="#0078D4" d="M75.445,63.93c0.14,0.02,0.265,0.108,0.328,0.236l5.358,10.632l1.354,2.682
		c0.082,0.162,0.054,0.357-0.067,0.491s-0.312,0.179-0.48,0.114l-2.815-1.088L67.96,72.685c-0.135-0.051-0.235-0.166-0.269-0.308
		c-0.032-0.142,0.005-0.288,0.104-0.396l7.265-7.914C75.16,63.962,75.302,63.91,75.445,63.93z"/>
	<path fill="#002050" d="M65.534,71.021c-6.635-4.305-11.882-8.259-20.459-15.829l11.491-12.618
		c8.279,7.9,12.708,12.826,17.564,19.068L65.534,71.021z"/>
	<path fill="#0078D4" d="M23.988,12.478l29.343,26.935c0.473,0.435,0.505,1.172,0.07,1.646L43.248,52.12
		c-0.435,0.475-1.172,0.506-1.646,0.072L0.378,14.352c-0.336-0.309-0.462-0.78-0.322-1.215c0.14-0.435,0.518-0.745,0.97-0.8
		l19.64-2.356c0.339-0.043,0.677,0.065,0.927,0.297l0.612,0.562l-0.057,0.061l1.788,1.638L23.988,12.478z"/>
	<polygon fill="#002050" points="25.654,7.081 50.279,29.689 48.383,31.753 25.542,10.784 23.988,12.478 23.936,12.537 
		22.148,10.899 22.205,10.839 23.758,9.146 23.756,9.146 	"/>
</g>
</svg>
