<?xml version="1.0" encoding="utf-8"?>
<!-- Generator: Adobe Illustrator 16.0.3, SVG Export Plug-In . SVG Version: 6.00 Build 0)  -->
<!DOCTYPE svg PUBLIC "-//W3C//DTD SVG 1.1//EN" "http://www.w3.org/Graphics/SVG/1.1/DTD/svg11.dtd">
<svg version="1.1" id="分離模式" xmlns="http://www.w3.org/2000/svg" xmlns:xlink="http://www.w3.org/1999/xlink" x="0px"
	 y="0px" width="80px" height="63px" viewBox="0 0 80 63" enable-background="new 0 0 80 63" xml:space="preserve">
<g>
	<path fill="#505050" d="M47.012,29.018l-3,7.165c-0.406,0.969-1.042,1.97-1.802,2.585c-2.193,1.776-5.689-0.05-5.689-0.05
		l-8.396-3.517l-1.897-0.795L9.921,27.578c-2.365-0.991-3.795-4.482-2.805-6.848l2.875-6.864c0.991-2.365,3.746-2.037,6.111-1.046
		l13.538,5.669c2.052-2.393,4.372-3.801,5.783-4.083L18.419,7.286c-5.204-2.18-11.784-0.941-13.963,4.263l-2.875,6.864
		c-2.179,5.204,0.817,12.52,6.022,14.7l20.681,8.661l5.917,2.479l1.716,0.718c3.659,1.533,8.118,0.538,10.746-2.093
		c1.338-1.339,5.651-11.639,5.651-11.639L47.012,29.018z"/>
	<path fill="#505050" d="M73.333,30.283l-20.681-8.661l-5.917-2.479l-1.716-0.718c-10.979-4.598-13.439,3.432-13.813,4.326
		l-2.964,7.078l4.612,1.932l2.965-7.079c0.406-0.969,1.438-3.003,6.883-0.723l1.716,0.719l8.396,3.516l1.897,0.795l16.305,6.829
		c2.365,0.991,2.688,1.951,1.697,4.316l-2.875,6.864c-0.991,2.365-2.637,4.568-5.002,3.578L50.83,44.71
		c-2.052,2.393-3.542,3.398-5.546,4.182l17.234,7.217c5.204,2.18,10.675-1.59,12.855-6.794l2.875-6.864
		C80.426,37.248,78.538,32.463,73.333,30.283z"/>
</g>
</svg>
