<?xml version="1.0" encoding="utf-8"?>
<!-- Generator: Adobe Illustrator 16.0.3, SVG Export Plug-In . SVG Version: 6.00 Build 0)  -->
<!DOCTYPE svg PUBLIC "-//W3C//DTD SVG 1.1//EN" "http://www.w3.org/Graphics/SVG/1.1/DTD/svg11.dtd">
<svg version="1.1" id="分離模式" xmlns="http://www.w3.org/2000/svg" xmlns:xlink="http://www.w3.org/1999/xlink" x="0px"
	 y="0px" width="80px" height="63px" viewBox="0 0 80 63" enable-background="new 0 0 80 63" xml:space="preserve">
<g>
	<path fill="#505050" d="M60,36.196c-1.1,0-2.5-1.4-2.5-2.5v-30c0-1.1-0.4-1.5-1.5-1.5H24c-1.1,0-2.5,0.4-2.5,1.5v30
		c0,1.1-0.4,2.5-1.5,2.5h-9.53c-1.1,0-1.303,0.319-0.451,1.016l28.432,23.1c0.852,0.696,2.246,0.634,3.098-0.063l28.432-23.006
		c0.852-0.696,0.649-1.047-0.451-1.047H60z"/>
	<g>
		<path fill="#FFFFFF" d="M31.002,16.863c0.66-0.506,1.606-0.969,2.993-0.969c2.508,0,5.083,1.761,5.083,4.951
			c0,1.716-0.77,5.435-5.611,5.435c-2.024,0-4.621-0.814-4.995-4.269h2.002c0.198,1.805,1.54,2.597,3.278,2.597
			c2.002,0,3.256-1.606,3.256-3.543c0-2.222-1.518-3.433-3.433-3.433c-1.122,0-2.134,0.528-2.86,1.475l-1.672-0.088l1.166-8.295
			h8.009v1.892h-6.557L31.002,16.863z"/>
		<path fill="#FFFFFF" d="M43.234,16.863c0.66-0.506,1.606-0.969,2.993-0.969c2.508,0,5.083,1.761,5.083,4.951
			c0,1.716-0.77,5.435-5.611,5.435c-2.024,0-4.621-0.814-4.995-4.269h2.002c0.198,1.805,1.54,2.597,3.278,2.597
			c2.002,0,3.256-1.606,3.256-3.543c0-2.222-1.518-3.433-3.432-3.433c-1.123,0-2.135,0.528-2.861,1.475l-1.672-0.088l1.166-8.295
			h8.009v1.892h-6.557L43.234,16.863z"/>
		<path fill="#FFFFFF" d="M34.842,33.57c2.046,0,3.741,1.65,3.741,3.719s-1.672,3.762-3.741,3.762s-3.763-1.649-3.763-3.762
			C31.079,35.198,32.773,33.57,34.842,33.57z M34.82,39.511c1.276,0,2.222-1.012,2.222-2.222c0-1.232-0.99-2.179-2.2-2.179
			c-1.254,0-2.222,0.99-2.222,2.179C32.62,38.652,33.654,39.511,34.82,39.511z M36.228,49.28H35.04l8.691-15.886h1.21L36.228,49.28z
			 M45.183,41.535c2.046,0,3.741,1.65,3.741,3.719s-1.672,3.763-3.741,3.763c-2.068,0-3.762-1.65-3.762-3.763
			C41.421,43.163,43.115,41.535,45.183,41.535z M45.161,47.477c1.276,0,2.223-1.013,2.223-2.223c0-1.232-0.99-2.179-2.201-2.179
			c-1.254,0-2.222,0.99-2.222,2.179C42.961,46.618,43.995,47.477,45.161,47.477z"/>
	</g>
</g>
</svg>
