<?xml version="1.0" encoding="utf-8"?>
<!-- Generator: Adobe Illustrator 16.0.3, SVG Export Plug-In . SVG Version: 6.00 Build 0)  -->
<!DOCTYPE svg PUBLIC "-//W3C//DTD SVG 1.1//EN" "http://www.w3.org/Graphics/SVG/1.1/DTD/svg11.dtd">
<svg version="1.1" id="文" xmlns="http://www.w3.org/2000/svg" xmlns:xlink="http://www.w3.org/1999/xlink" x="0px" y="0px"
	 width="176.035px" height="120.266px" viewBox="0 0 176.035 120.266" enable-background="new 0 0 176.035 120.266"
	 xml:space="preserve">
<g>
	<g>
		<g>
			<g>
				<polygon fill="#0078D4" points="136.348,120.266 20.131,120.266 30.731,21.09 146.948,21.09 				"/>
			</g>
			<g>
				<polygon fill="#FFFFFF" points="26.369,114.631 34.216,41.217 139.162,41.217 131.315,114.631 				"/>
			</g>
			<polygon fill="#0078D4" points="38.635,62.266 53.79,62.266 52.363,78.266 37.12,78.266 			"/>
			<polygon fill="#5C2D91" points="101.788,48.266 116.942,48.266 115.516,62.266 100.272,62.266 			"/>
			<polygon fill="#FF5989" points="82.456,78.266 97.61,78.266 96.184,94.266 80.94,94.266 			"/>
			<g>
				<g>
					<path fill="#DBE6FC" d="M33.512,109.446c-0.03,0-0.062-0.001-0.093-0.004c-0.479-0.052-0.825-0.479-0.773-0.958l6.552-61.307
						c0.051-0.479,0.471-0.828,0.959-0.772c0.478,0.052,0.824,0.479,0.773,0.96l-6.552,61.303
						C34.33,109.115,33.952,109.446,33.512,109.446z"/>
				</g>
				<g>
					<path fill="#DBE6FC" d="M48.838,109.446c-0.031,0-0.063-0.001-0.094-0.004c-0.478-0.052-0.825-0.479-0.773-0.958l6.552-61.307
						c0.051-0.479,0.473-0.828,0.958-0.772c0.479,0.052,0.825,0.479,0.774,0.96l-6.552,61.303
						C49.656,109.115,49.278,109.446,48.838,109.446z"/>
				</g>
				<g>
					<path fill="#DBE6FC" d="M64.165,109.446c-0.031,0-0.062-0.001-0.093-0.004c-0.478-0.052-0.824-0.479-0.773-0.958l6.552-61.307
						c0.051-0.479,0.475-0.828,0.959-0.772c0.477,0.052,0.824,0.479,0.772,0.96l-6.552,61.303
						C64.982,109.115,64.604,109.446,64.165,109.446z"/>
				</g>
				<g>
					<path fill="#DBE6FC" d="M79.491,109.446c-0.031,0-0.063-0.001-0.094-0.004c-0.478-0.052-0.824-0.479-0.773-0.958l6.553-61.307
						c0.05-0.479,0.47-0.828,0.958-0.772c0.479,0.052,0.825,0.479,0.773,0.96l-6.552,61.303
						C80.308,109.115,79.93,109.446,79.491,109.446z"/>
				</g>
				<g>
					<path fill="#DBE6FC" d="M94.816,109.446c-0.03,0-0.063-0.001-0.094-0.004c-0.477-0.052-0.824-0.481-0.773-0.958l6.553-61.307
						c0.051-0.479,0.474-0.828,0.96-0.772c0.478,0.052,0.823,0.481,0.772,0.96l-6.552,61.303
						C95.634,109.115,95.256,109.446,94.816,109.446z"/>
				</g>
				<g>
					<path fill="#DBE6FC" d="M110.142,109.446c-0.031,0-0.062-0.001-0.094-0.004c-0.478-0.052-0.824-0.481-0.774-0.958l6.554-61.307
						c0.052-0.479,0.475-0.828,0.958-0.772c0.479,0.052,0.826,0.481,0.774,0.96l-6.553,61.303
						C110.959,109.115,110.582,109.446,110.142,109.446z"/>
				</g>
				<g>
					<path fill="#DBE6FC" d="M125.468,109.446c-0.03,0-0.063-0.001-0.094-0.004c-0.478-0.052-0.825-0.481-0.772-0.958l6.552-61.307
						c0.05-0.479,0.471-0.828,0.959-0.772c0.478,0.052,0.823,0.481,0.772,0.96l-6.551,61.303
						C126.287,109.115,125.909,109.446,125.468,109.446z"/>
				</g>
			</g>
			<g>
				<g>
					<path fill="#DADADA" d="M132.021,48.143H40.064c-0.481,0-0.872-0.391-0.872-0.871s0.39-0.87,0.872-0.87h91.957
						c0.48,0,0.87,0.39,0.87,0.87S132.501,48.143,132.021,48.143z"/>
				</g>
				<g>
					<path fill="#DADADA" d="M130.382,63.469H38.426c-0.481,0-0.871-0.391-0.871-0.87c0-0.481,0.39-0.872,0.871-0.872h91.956
						c0.481,0,0.871,0.391,0.871,0.872C131.253,63.078,130.863,63.469,130.382,63.469z"/>
				</g>
				<g>
					<path fill="#DADADA" d="M128.743,78.796H36.788c-0.482,0-0.872-0.392-0.872-0.872c0-0.482,0.39-0.87,0.872-0.87h91.955
						c0.484,0,0.871,0.388,0.871,0.87C129.614,78.404,129.227,78.796,128.743,78.796z"/>
				</g>
				<g>
					<path fill="#DADADA" d="M127.104,94.12H35.15c-0.482,0-0.872-0.39-0.872-0.871c0-0.479,0.39-0.87,0.872-0.87h91.954
						c0.483,0,0.873,0.391,0.873,0.87C127.978,93.73,127.587,94.12,127.104,94.12z"/>
				</g>
				<g>
					<path fill="#DADADA" d="M125.468,109.446H33.512c-0.482,0-0.871-0.388-0.871-0.87s0.389-0.872,0.871-0.872h91.957
						c0.48,0,0.87,0.39,0.87,0.872S125.948,109.446,125.468,109.446z"/>
				</g>
			</g>
			<g>
				<g>
					<polygon fill="#FFFFFF" points="72.004,35.1 34.857,35.1 35.575,28.386 72.722,28.386 					"/>
				</g>
			</g>
		</g>
		<g>
			<polygon fill="#002050" points="136.348,120.266 146.948,21.09 157.551,120.266 			"/>
		</g>
	</g>
	<path fill="#49CDF3" d="M39.039,63.138V38.505c0-2.706-2.218-4.925-4.925-4.925H4.924C2.216,33.58,0,35.799,0,38.505v25.241
		c0,2.709,2.216,4.925,4.924,4.925h29.189h10.459L39.039,63.138z"/>
	<g>
		<line fill="none" stroke="#FFFFFF" stroke-width="4" stroke-miterlimit="10" x1="6" y1="46.266" x2="31" y2="46.266"/>
		<line fill="none" stroke="#FFFFFF" stroke-width="4" stroke-miterlimit="10" x1="6" y1="56.266" x2="31" y2="56.266"/>
	</g>
	<g>
		<path fill="#5992E7" d="M118.61,43.479V7.246c0-3.983,3.263-7.246,7.246-7.246h42.936c3.983,0,7.243,3.263,7.243,7.246v37.127
			c0,3.984-3.26,7.242-7.243,7.242h-42.936h-15.384L118.61,43.479z"/>
		<g>
			<rect x="133.508" y="22.906" fill="#FFFFFF" width="27.222" height="18.681"/>
			<path fill="#FFFFFF" d="M155.713,33.074H138.53V16.045c0-4.734,3.852-8.591,8.586-8.591c4.742,0,8.597,3.856,8.597,8.591V33.074z
				 M141.653,29.951h10.936V16.045c0-3.011-2.455-5.468-5.473-5.468c-3.005,0-5.463,2.457-5.463,5.468V29.951z"/>
			<rect x="133.508" y="26.646" fill="#5992E7" width="22.07" height="1.622"/>
			<rect x="133.508" y="31.506" fill="#5992E7" width="22.07" height="1.623"/>
			<rect x="133.508" y="36.375" fill="#5992E7" width="22.07" height="1.618"/>
		</g>
	</g>
</g>
</svg>
