<?xml version="1.0" encoding="utf-8"?>
<!-- Generator: Adobe Illustrator 16.0.3, SVG Export Plug-In . SVG Version: 6.00 Build 0)  -->
<!DOCTYPE svg PUBLIC "-//W3C//DTD SVG 1.1//EN" "http://www.w3.org/Graphics/SVG/1.1/DTD/svg11.dtd">
<svg version="1.1" id="分離模式" xmlns="http://www.w3.org/2000/svg" xmlns:xlink="http://www.w3.org/1999/xlink" x="0px"
	 y="0px" width="238.048px" height="164px" viewBox="0 0 238.048 164" enable-background="new 0 0 238.048 164"
	 xml:space="preserve">
<g>
	<path fill="#F1F1F1" d="M56.579,0c38.409,0,56.579,25.871,56.579,81.887c0,56.018-18.169,82.113-56.579,82.113
		C18.169,164,0,137.904,0,81.887C0,25.871,18.169,0,56.579,0z M56.579,138.804c18.399,0,23.459-15.747,23.459-56.917
		c0-41.168-5.06-56.691-23.459-56.691c-18.4,0-23.459,15.523-23.459,56.691C33.12,123.057,38.179,138.804,56.579,138.804z"/>
	<path fill="#F1F1F1" d="M128.34,57.978C128.34,4.619,167.209,0,181.699,0c31.28,0,56.119,18.479,56.119,51.74
		c0,28.182-18.17,42.502-34.04,53.358c-21.62,15.245-32.889,22.637-36.569,30.259h70.839V164H126.5
		c1.15-19.172,2.53-39.268,37.949-65.139c29.439-21.481,41.169-29.797,41.169-48.275c0-10.856-6.9-23.33-22.54-23.33
		c-22.54,0-23.229,18.71-23.459,30.722H128.34z"/>
</g>
</svg>
