<?xml version="1.0" encoding="utf-8"?>
<!-- Generator: Adobe Illustrator 16.0.3, SVG Export Plug-In . SVG Version: 6.00 Build 0)  -->
<!DOCTYPE svg PUBLIC "-//W3C//DTD SVG 1.1//EN" "http://www.w3.org/Graphics/SVG/1.1/DTD/svg11.dtd">
<svg version="1.1" id="分離模式" xmlns="http://www.w3.org/2000/svg" xmlns:xlink="http://www.w3.org/1999/xlink" x="0px"
	 y="0px" width="207.458px" height="164px" viewBox="0 0 207.458 164" enable-background="new 0 0 207.458 164"
	 xml:space="preserve">
<g>
	<path fill="#F1F1F1" d="M56.579,0c38.409,0,56.579,25.871,56.579,81.887S94.988,164,56.579,164C18.169,164,0,137.904,0,81.887
		S18.169,0,56.579,0z M56.579,138.804c18.399,0,23.459-15.748,23.459-56.917c0-41.168-5.06-56.691-23.459-56.691
		c-18.4,0-23.459,15.523-23.459,56.691C33.12,123.056,38.179,138.804,56.579,138.804z"/>
	<path fill="#F1F1F1" d="M136.39,28.411h4.6c31.049,0,39.329-16.169,40.019-28.411h26.45v164h-32.2V51.048H136.39V28.411z"/>
</g>
</svg>
