<?xml version="1.0" encoding="utf-8"?>
<!-- Generator: Adobe Illustrator 16.0.3, SVG Export Plug-In . SVG Version: 6.00 Build 0)  -->
<!DOCTYPE svg PUBLIC "-//W3C//DTD SVG 1.1//EN" "http://www.w3.org/Graphics/SVG/1.1/DTD/svg11.dtd">
<svg version="1.1" id="分離模式" xmlns="http://www.w3.org/2000/svg" xmlns:xlink="http://www.w3.org/1999/xlink" x="0px"
	 y="0px" width="80px" height="63px" viewBox="0 0 80 63" enable-background="new 0 0 80 63" xml:space="preserve">
<g>
	<path fill="#505050" d="M70.99,14.396c0,0-9.58-2.803-15.125-6.729C50.318,3.743,44.268,1.5,44.268,1.5s-6.05,2.243-11.597,6.168
		c-5.546,3.926-15.126,6.729-15.126,6.729S13.007,47.48,44.268,61.5C75.528,47.48,70.99,14.396,70.99,14.396z M46.768,30.238V45h-5
		V30.315c-3-1.075-5.526-4.089-5.526-7.642c0-4.453,3.591-8.064,8.045-8.064s7.905,3.611,7.905,8.064
		C52.192,26.143,49.768,29.1,46.768,30.238z"/>
	<polygon fill="#505050" points="68,46.219 70.669,51.099 75.549,53.768 70.669,56.437 68,61.316 65.331,56.437 60.451,53.768 
		65.331,51.099 	"/>
	<polygon fill="#505050" points="9.701,22.817 11.557,26.211 14.95,28.066 11.557,29.923 9.701,33.316 7.845,29.923 4.451,28.066 
		7.845,26.211 	"/>
	<polygon fill="#FFFFFF" points="27.641,32.937 29.123,35.645 31.831,37.127 29.123,38.607 27.641,41.316 26.16,38.607 
		23.451,37.127 26.16,35.645 	"/>
</g>
</svg>
