<?xml version="1.0" encoding="utf-8"?>
<!-- Generator: Adobe Illustrator 16.0.3, SVG Export Plug-In . SVG Version: 6.00 Build 0)  -->
<!DOCTYPE svg PUBLIC "-//W3C//DTD SVG 1.1//EN" "http://www.w3.org/Graphics/SVG/1.1/DTD/svg11.dtd">
<svg version="1.1" id="分離模式" xmlns="http://www.w3.org/2000/svg" xmlns:xlink="http://www.w3.org/1999/xlink" x="0px"
	 y="0px" width="80px" height="63px" viewBox="0 0 80 63" enable-background="new 0 0 80 63" xml:space="preserve">
<g>
	<path fill="#505050" d="M64,1.875H16v52h10v-6.876c-2-1.782-5.535-5.399-5.535-9.58c0-5.946,4.99-10.767,10.935-10.767
		c5.946,0,10.307,4.82,10.307,10.767c0,4.329-1.706,8.052-6.706,9.761v6.695h29V1.875z M58,38.875H46v-3h12V38.875z M58,29.875H46
		v-4h12V29.875z M58,19.875H22v-3h36V19.875z M58,10.875H22v-4h36V10.875z"/>
	<polygon fill="#505050" points="26,61.125 30.5,57.46 35,61.125 35,53.875 26,53.875 	"/>
	<path fill="#FFFFFF" d="M41.791,37.419c0-5.946-4.547-10.767-10.494-10.767c-5.944,0-10.968,4.82-10.968,10.767
		c0,4.181,3.671,7.798,5.671,9.58v6.876h9V47.18C40,45.471,41.791,41.748,41.791,37.419z"/>
	<rect x="22" y="6.875" fill="#FFFFFF" width="36" height="4"/>
	<rect x="22" y="16.875" fill="#FFFFFF" width="36" height="3"/>
	<rect x="46" y="25.875" fill="#FFFFFF" width="12" height="4"/>
	<rect x="46" y="35.875" fill="#FFFFFF" width="12" height="3"/>
</g>
</svg>
