<?xml version="1.0" encoding="utf-8"?>
<!-- Generator: Adobe Illustrator 16.0.3, SVG Export Plug-In . SVG Version: 6.00 Build 0)  -->
<!DOCTYPE svg PUBLIC "-//W3C//DTD SVG 1.1//EN" "http://www.w3.org/Graphics/SVG/1.1/DTD/svg11.dtd">
<svg version="1.1" id="分離模式" xmlns="http://www.w3.org/2000/svg" xmlns:xlink="http://www.w3.org/1999/xlink" x="0px"
	 y="0px" width="80px" height="63px" viewBox="0 0 80 63" enable-background="new 0 0 80 63" xml:space="preserve">
<g>
	<g>
		<path fill="none" stroke="#505050" stroke-width="2" stroke-linecap="round" stroke-linejoin="round" stroke-miterlimit="10" d="
			M67.886,27.481l-3.979-0.655c-0.129-1.06-0.209-1.994-0.472-3.049l3.94-2.254c0.39-0.267,0.703-0.928,0.439-1.457l-1.031-2.655
			c-0.262-0.534-0.781-0.797-1.305-0.667l-4.36,1.068c-0.404-0.805-0.927-1.6-1.586-2.388l2.643-3.442
			c0.396-0.543,0.264-1.203,0.001-1.599l-2.11-2.125c-0.401-0.261-1.061-0.395-1.586,0l-3.446,2.65
			c-0.788-0.653-1.715-1.184-2.637-1.714l1.184-4.379c0.14-0.529-0.262-1.05-0.792-1.321l-2.649-1.064
			c-0.531-0.268-1.19,0-1.457,0.525L46.436,6.68c-0.917-0.139-1.844-0.402-2.771-0.531l-0.671-3.68c0-0.53-0.527-0.22-1.056-0.22
			h-3.037c-0.526,0-1.057-0.31-1.057,0.22l-1.031,0.274c1.868,1.455,2.229,4.405,2.229,7.048v38.924c0,2.92-0.397,6.497-2.346,8.265
			l0.751,2.364c0,0.54,0.927,1.906,1.453,1.906h3.037c0.529,0,1.056-1.366,1.056-1.906l0.671-4.853
			c1.061-0.133,1.979-0.638,3.034-0.905l2.248,3.722c0.264,0.396,0.922,0.598,1.467,0.335l2.635-1.09
			c0.529-0.264,0.793-0.819,0.669-1.347l-1.06-4.375c0.793-0.54,1.585-1.07,2.373-1.6l3.446,2.653
			c0.526,0.396,1.186,0.26,1.586-0.136l2.11-1.991c0.263-0.395,0.396-1.055,0-1.585l-2.641-3.455
			c0.66-0.928,1.186-1.715,1.715-2.655l4.368,1.07c0.53,0.133,1.057-0.13,1.324-0.661l1.055-2.654c0.267-0.539,0-1.198-0.396-1.461
			l-3.843-2.252c0.132-0.927,0.404-1.848,0.534-2.788l3.595-0.66c0.524,0,0.157-0.525,0.157-1.055v-3.047
			C68.043,28.011,68.41,27.481,67.886,27.481z"/>
	</g>
	<path fill="#505050" d="M30.96,0.75c-4.575,0-7.683,3.709-7.683,8.286c0,0.26,0.316,0.518,0.34,0.772
		c-0.255-0.024-0.361-0.04-0.623-0.04c-4.575,0-8.209,3.709-8.209,8.285c0,1.587,0.492,3.066,1.267,4.326
		c-3.065,1.215-5.219,4.201-5.219,7.699c0,3.193,1.82,5.96,4.468,7.344c-0.914,1.332-1.447,2.942-1.447,4.681
		c0,4.013,2.855,7.358,6.643,8.121c0.415,5.14,3.508,9.183,8.753,9.183c5.521,0,9.793-4.476,9.793-9.996V9.036
		C39.043,4.459,35.536,0.75,30.96,0.75z"/>
	<path fill="none" stroke="#FFFFFF" stroke-width="2" stroke-linecap="round" stroke-linejoin="round" stroke-miterlimit="10" d="
		M21.727,8.5c0,0,8.45,2.268,9.023,6.556"/>
	<path fill="none" stroke="#FFFFFF" stroke-width="2" stroke-linecap="round" stroke-linejoin="round" stroke-miterlimit="10" d="
		M12.918,23.148c0,0,4.375-2.88,8.539-0.768"/>
	<path fill="none" stroke="#FFFFFF" stroke-width="2" stroke-linecap="round" stroke-linejoin="round" stroke-miterlimit="10" d="
		M12.918,39.125c0,0,3-5.375,7.449-4.872"/>
	<path fill="none" stroke="#FFFFFF" stroke-width="2" stroke-linecap="round" stroke-linejoin="round" stroke-miterlimit="10" d="
		M19.996,54.25c0,0-1.578-9.141,3.02-11.858"/>
	
		<polyline fill="none" stroke="#FFFFFF" stroke-width="2" stroke-linecap="round" stroke-linejoin="round" stroke-miterlimit="10" points="
		39.661,17.387 35.236,23.148 30.75,21.06 	"/>
	
		<line fill="none" stroke="#FFFFFF" stroke-width="2" stroke-linecap="round" stroke-linejoin="round" stroke-miterlimit="10" x1="39.043" y1="29.25" x2="31.043" y2="29.25"/>
	
		<line fill="none" stroke="#FFFFFF" stroke-width="2" stroke-linecap="round" stroke-linejoin="round" stroke-miterlimit="10" x1="39.043" y1="35.25" x2="37.043" y2="35.25"/>
	
		<polyline fill="none" stroke="#FFFFFF" stroke-width="2" stroke-linecap="round" stroke-linejoin="round" stroke-miterlimit="10" points="
		39.043,41.25 30.141,41.25 29.331,45.508 	"/>
	<path fill="none" stroke="#505050" stroke-width="2" stroke-linecap="round" stroke-linejoin="round" stroke-miterlimit="10" d="
		M39.043,23.605v12.948c4-0.11,6.279-2.962,6.279-6.474C45.322,26.567,43.043,23.714,39.043,23.605z"/>
	<path fill="none" stroke="#505050" stroke-width="2" stroke-linecap="round" stroke-linejoin="round" stroke-miterlimit="10" d="
		M39.043,16.843v26.472c8-0.111,13.042-5.99,13.042-13.236C52.084,22.832,47.043,16.954,39.043,16.843z"/>
	
		<circle fill="none" stroke="#FFFFFF" stroke-width="2" stroke-linecap="round" stroke-linejoin="round" stroke-miterlimit="10" cx="28.056" cy="19.558" r="2.505"/>
	
		<circle fill="none" stroke="#FFFFFF" stroke-width="2" stroke-linecap="round" stroke-linejoin="round" stroke-miterlimit="10" cx="28.054" cy="28.576" r="2.505"/>
	
		<circle fill="none" stroke="#FFFFFF" stroke-width="2" stroke-linecap="round" stroke-linejoin="round" stroke-miterlimit="10" cx="33.066" cy="34.588" r="2.505"/>
	
		<circle fill="none" stroke="#FFFFFF" stroke-width="2" stroke-linecap="round" stroke-linejoin="round" stroke-miterlimit="10" cx="29.058" cy="47.614" r="2.505"/>
</g>
</svg>
