<?xml version="1.0" encoding="utf-8"?>
<!-- Generator: Adobe Illustrator 16.0.3, SVG Export Plug-In . SVG Version: 6.00 Build 0)  -->
<!DOCTYPE svg PUBLIC "-//W3C//DTD SVG 1.1//EN" "http://www.w3.org/Graphics/SVG/1.1/DTD/svg11.dtd">
<svg version="1.1" id="分離模式" xmlns="http://www.w3.org/2000/svg" xmlns:xlink="http://www.w3.org/1999/xlink" x="0px"
	 y="0px" width="80px" height="63px" viewBox="0 0 80 63" enable-background="new 0 0 80 63" xml:space="preserve">
<g>
	<g>
		<g>
			
				<line fill="none" stroke="#505050" stroke-width="2" stroke-linecap="round" stroke-linejoin="round" stroke-miterlimit="10" x1="10.635" y1="1.427" x2="22.15" y2="13.073"/>
			
				<polyline fill="none" stroke="#505050" stroke-width="2" stroke-linecap="round" stroke-linejoin="round" stroke-miterlimit="10" points="
				9.782,13.573 9.782,1.573 20.782,1.573 			"/>
		</g>
		<g>
			
				<line fill="none" stroke="#505050" stroke-width="2" stroke-linecap="round" stroke-linejoin="round" stroke-miterlimit="10" x1="70.216" y1="1.495" x2="58.504" y2="13.073"/>
			
				<polyline fill="none" stroke="#505050" stroke-width="2" stroke-linecap="round" stroke-linejoin="round" stroke-miterlimit="10" points="
				57.782,1.573 69.782,1.573 69.782,12.573 			"/>
		</g>
		<g>
			
				<line fill="none" stroke="#505050" stroke-width="2" stroke-linecap="round" stroke-linejoin="round" stroke-miterlimit="10" x1="10.625" y1="60.388" x2="21.812" y2="49.073"/>
			
				<polyline fill="none" stroke="#505050" stroke-width="2" stroke-linecap="round" stroke-linejoin="round" stroke-miterlimit="10" points="
				9.782,49.573 9.782,61.573 20.782,61.573 			"/>
		</g>
		<g>
			
				<line fill="none" stroke="#505050" stroke-width="2" stroke-linecap="round" stroke-linejoin="round" stroke-miterlimit="10" x1="70.218" y1="60.319" x2="58.843" y2="49.073"/>
			
				<polyline fill="none" stroke="#505050" stroke-width="2" stroke-linecap="round" stroke-linejoin="round" stroke-miterlimit="10" points="
				57.782,61.573 69.782,61.573 69.782,50.573 			"/>
		</g>
	</g>
	<g>
		<path fill="#505050" d="M40.282,37.967c-9.692,0-13.5-2.05-13.5-2.661v-5.874c3,1.339,7.374,2.201,13.498,2.201
			c5.996,0,12.502-0.826,13.502-2.293v5.966C53.782,35.917,49.975,37.967,40.282,37.967z"/>
		<path fill="#505050" d="M39.976,29.17c-8.521,0-12.66-1.899-13.332-2.585c0.032-0.036,0.081-0.078,0.146-0.129
			c2.958,1.297,7.835,2.063,13.188,2.063c5.347,0,10.227-0.766,13.182-2.061c0.066,0.05,0.112,0.091,0.146,0.127
			C52.633,27.271,48.492,29.17,39.976,29.17z"/>
		<path fill="#505050" d="M40.282,50.073c-9.693,0-13.5-2.05-13.5-2.663v-5.873c3,1.339,7.374,2.201,13.498,2.201
			c5.997,0,12.502-0.826,13.502-2.294v5.966C53.782,48.023,49.976,50.073,40.282,50.073z"/>
		<path fill="#505050" d="M39.976,41.277c-8.52,0-12.66-1.9-13.332-2.588c0.032-0.035,0.081-0.076,0.146-0.126
			c2.958,1.291,7.835,2.061,13.188,2.061c5.347,0,10.225-0.77,13.182-2.059c0.066,0.05,0.112,0.092,0.146,0.124
			C52.633,39.377,48.491,41.277,39.976,41.277z"/>
		<path fill="#505050" d="M40.282,26.055c-9.692,0-13.5-2.052-13.5-2.664v-5.873c3,1.343,7.374,2.203,13.498,2.203
			c5.996,0,12.502-0.828,13.502-2.295v5.965C53.782,24.003,49.975,26.055,40.282,26.055z"/>
		<path fill="#505050" d="M39.976,17.255c-8.541,0-12.682-1.907-13.336-2.59c0.654-0.682,4.796-2.592,13.336-2.592
			c8.537,0,12.68,1.91,13.334,2.592C52.656,15.348,48.513,17.255,39.976,17.255z"/>
	</g>
</g>
</svg>
