<?xml version="1.0" encoding="utf-8"?>
<!-- Generator: Adobe Illustrator 16.0.3, SVG Export Plug-In . SVG Version: 6.00 Build 0)  -->
<!DOCTYPE svg PUBLIC "-//W3C//DTD SVG 1.1//EN" "http://www.w3.org/Graphics/SVG/1.1/DTD/svg11.dtd">
<svg version="1.1" id="分離模式" xmlns="http://www.w3.org/2000/svg" xmlns:xlink="http://www.w3.org/1999/xlink" x="0px"
	 y="0px" width="80px" height="63px" viewBox="0 0 80 63" enable-background="new 0 0 80 63" xml:space="preserve">
<g>
	<g>
		<path fill="#505050" d="M67,4.5h-9v-3H22v3h-9c-1.8,0-3,1.2-3,3v7.2c0,6.899,5.1,12.6,12,13.5v0.3c0,8.7,6,15.9,14.1,17.7L34,52.5
			h-6.9c-1.2,0-2.4,0.9-2.7,2.1L22,61.5h36l-2.4-6.9c-0.3-1.199-1.5-2.1-2.7-2.1H46l-2.1-6.3C52,44.4,58,37.2,58,28.5v-0.3
			c6.9-0.9,12-6.601,12-13.5V7.5C70,5.7,68.8,4.5,67,4.5z M22,22.2c-3.3-0.9-6-3.9-6-7.5v-4.2h6V22.2z M46,31.5l-6-3.3l-6,3.3l1.5-6
			l-4.5-6h6.3l2.7-6l2.7,6H49l-4.5,6L46,31.5z M64,14.7c0,3.6-2.7,6.899-6,7.5V10.5h6V14.7z"/>
	</g>
</g>
</svg>
