<?xml version="1.0" encoding="utf-8"?>
<!-- Generator: Adobe Illustrator 16.0.3, SVG Export Plug-In . SVG Version: 6.00 Build 0)  -->
<!DOCTYPE svg PUBLIC "-//W3C//DTD SVG 1.1//EN" "http://www.w3.org/Graphics/SVG/1.1/DTD/svg11.dtd">
<svg version="1.1" id="文" xmlns="http://www.w3.org/2000/svg" xmlns:xlink="http://www.w3.org/1999/xlink" x="0px" y="0px"
	 width="183.334px" height="112px" viewBox="0 0 183.334 112" enable-background="new 0 0 183.334 112" xml:space="preserve">
<g>
	<g>
		<rect x="5.167" y="15.704" fill="#DADADA" width="96" height="6"/>
		<path fill="#0078D4" d="M133.117,0.027H79.813V0h-55.97v14.915H38.34v77.739c0,10.684,8.662,19.346,19.345,19.346h94.777V19.373
			C152.463,8.688,143.803,0.027,133.117,0.027z"/>
		
			<line fill="none" stroke="#FFFFFF" stroke-width="3" stroke-linecap="round" stroke-linejoin="round" stroke-miterlimit="10" x1="52.167" y1="19.204" x2="138.167" y2="19.204"/>
		
			<line fill="none" stroke="#FFFFFF" stroke-width="3" stroke-linecap="round" stroke-linejoin="round" stroke-miterlimit="10" x1="52.167" y1="33.204" x2="138.167" y2="33.204"/>
		<circle fill="#FFFFFF" cx="59" cy="81.667" r="8.333"/>
		
			<line fill="none" stroke="#FFFFFF" stroke-width="3" stroke-linecap="round" stroke-linejoin="round" stroke-miterlimit="10" x1="52.167" y1="48.204" x2="138.167" y2="48.204"/>
		
			<line fill="none" stroke="#FFFFFF" stroke-width="3" stroke-linecap="round" stroke-linejoin="round" stroke-miterlimit="10" x1="52.167" y1="62.204" x2="138.167" y2="62.204"/>
		<path fill="#002050" d="M9.228,14.957h29.113l0,0c0-8.246-6.685-14.93-14.929-14.93h0.746C15.913,0.027,9.228,6.711,9.228,14.957
			L9.228,14.957z"/>
		<g>
			<g>
				
					<rect x="54.633" y="56.954" transform="matrix(0.9848 0.1737 -0.1737 0.9848 13.9092 -16.3242)" fill="none" stroke="#FF5989" stroke-width="3" stroke-linecap="round" stroke-linejoin="round" stroke-miterlimit="10" width="91.218" height="28.739"/>
			</g>
			<g>
				<path fill="#FF5989" d="M78.972,59.761c1.117,0.01,2.565,0.105,4.376,0.425c2.223,0.392,3.759,1.195,4.629,2.309
					c0.81,0.996,1.156,2.362,0.883,3.913c-0.278,1.577-0.962,2.735-2.001,3.485c-1.412,1.057-3.465,1.361-5.662,0.974
					c-0.672-0.118-1.288-0.254-1.781-0.474l-1.23,6.979l-2.249-0.396L78.972,59.761z M79.74,68.558
					c0.467,0.215,1.079,0.376,1.829,0.509c2.713,0.478,4.6-0.549,5.023-2.952c0.405-2.3-1.026-3.699-3.508-4.137
					c-0.981-0.173-1.745-0.227-2.15-0.192L79.74,68.558z"/>
				<path fill="#FF5989" d="M91.297,74.034l-2.775,5.159l-2.326-0.41l8.991-16.377l2.713,0.479l2.873,18.469l-2.403-0.424
					l-0.896-5.807L91.297,74.034z M97.318,73.282l-0.822-5.314c-0.187-1.205-0.262-2.285-0.343-3.338l-0.052-0.01
					c-0.441,0.988-0.912,1.998-1.436,2.998l-2.594,4.739L97.318,73.282z"/>
				<path fill="#FF5989" d="M103.502,79.01c0.898,0.799,2.28,1.575,3.831,1.849c2.3,0.405,3.859-0.571,4.169-2.33
					c0.287-1.628-0.479-2.722-2.672-4.042c-2.666-1.509-4.163-3.293-3.729-5.748c0.479-2.714,3.082-4.333,6.469-3.735
					c1.782,0.314,3.002,0.955,3.7,1.53l-0.944,1.727c-0.514-0.411-1.586-1.133-3.162-1.41c-2.378-0.42-3.533,0.843-3.742,2.031
					c-0.287,1.628,0.631,2.616,2.87,3.971c2.745,1.656,3.995,3.343,3.544,5.901c-0.475,2.688-2.876,4.664-6.985,3.939
					c-1.68-0.297-3.428-1.111-4.249-1.896L103.502,79.01z"/>
				<path fill="#FF5989" d="M116.242,81.256c0.898,0.799,2.28,1.575,3.831,1.849c2.3,0.405,3.859-0.571,4.169-2.33
					c0.287-1.628-0.479-2.722-2.672-4.042c-2.665-1.509-4.164-3.292-3.73-5.747c0.479-2.714,3.083-4.333,6.469-3.736
					c1.783,0.314,3.003,0.955,3.701,1.53l-0.945,1.727c-0.513-0.41-1.584-1.132-3.161-1.41c-2.378-0.419-3.534,0.843-3.744,2.031
					c-0.287,1.628,0.633,2.617,2.872,3.972c2.745,1.656,3.995,3.342,3.544,5.9c-0.475,2.688-2.876,4.664-6.985,3.939
					c-1.681-0.296-3.429-1.111-4.249-1.896L116.242,81.256z"/>
			</g>
		</g>
		<path fill="#002050" d="M71.533,97.063c0,8.218-6.64,14.88-14.845,14.926v0.004h98.488c8.244,0,14.93-6.684,14.93-14.93H71.533z"
			/>
		<circle fill="#002050" cx="5.667" cy="18" r="5.667"/>
		<rect x="64.167" y="91.704" fill="#DADADA" width="110" height="6"/>
		<circle fill="#002050" cx="64.667" cy="94" r="5.667"/>
		<circle fill="#002050" cx="177.667" cy="94" r="5.667"/>
	</g>
</g>
</svg>
