<?xml version="1.0" encoding="utf-8"?>
<!-- Generator: Adobe Illustrator 16.0.3, SVG Export Plug-In . SVG Version: 6.00 Build 0)  -->
<!DOCTYPE svg PUBLIC "-//W3C//DTD SVG 1.1//EN" "http://www.w3.org/Graphics/SVG/1.1/DTD/svg11.dtd">
<svg version="1.1" id="圖層_2" xmlns="http://www.w3.org/2000/svg" xmlns:xlink="http://www.w3.org/1999/xlink" x="0px" y="0px"
	 width="103px" height="103px" viewBox="-5 0 103 103" enable-background="new -5 0 103 103" xml:space="preserve">
<g>
	<g>
		<path fill="#333333" d="M40.461,52.896c-17.291,0-31.315,5.517-31.315,12.321c0,6.806,14.024,12.32,31.315,12.32
			c17.297,0,31.316-5.515,31.316-12.32C71.777,58.413,57.758,52.896,40.461,52.896z M40.461,73.064
			c-9.222,0-16.702-2.94-16.702-6.569c0-3.632,7.48-6.572,16.702-6.572c9.227,0,16.702,2.94,16.702,6.572
			C57.163,70.124,49.688,73.064,40.461,73.064z"/>
		<path fill="#333333" d="M57.159,79.227c-4.517,1.492-10.338,2.394-16.698,2.394c-6.362,0-12.188-0.901-16.706-2.396
			c0,0,0.004,11.066,0.004,11.104c0,3.63,7.48,6.57,16.702,6.57c9.227,0,16.702-2.94,16.702-6.57
			C57.163,90.29,57.159,79.227,57.159,79.227z"/>
	</g>
	<g>
		
			<rect x="69.038" y="27.287" transform="matrix(0.7287 -0.6848 0.6848 0.7287 -16.8479 63.6096)" fill="none" stroke="#333333" stroke-miterlimit="10" width="5.65" height="51.566"/>
		
			<rect x="88.548" y="71.738" transform="matrix(0.7285 -0.6851 0.6851 0.7285 -25.2756 81.6069)" fill="none" stroke="#333333" stroke-miterlimit="10" width="3.531" height="1.904"/>
		<polygon fill="none" stroke="#333333" stroke-miterlimit="10" points="52.42,35.968 51.299,31.201 55.988,32.613 		"/>
	</g>
	<g>
		<path fill="#333333" d="M17.561,34.816c0.29-0.014,0.551-0.182,0.682-0.441c0.132-0.258,0.109-0.568-0.056-0.811l-3.778-5.477
			l-0.228-6.65c-0.01-0.289-0.177-0.553-0.438-0.684c-0.259-0.125-0.57-0.104-0.811,0.06L7.455,24.59l-6.648,0.226
			c-0.29,0.012-0.554,0.177-0.685,0.439c-0.132,0.258-0.107,0.566,0.057,0.808l3.779,5.476l0.226,6.654
			c0.01,0.289,0.18,0.553,0.438,0.685c0.261,0.131,0.57,0.104,0.81-0.06l5.477-3.779L17.561,34.816z"/>
		<path fill="#333333" d="M42.278,40.286l-1.588-2.897c-0.142-0.254-0.408-0.414-0.698-0.414s-0.56,0.16-0.698,0.414l-1.586,2.897
			l-2.9,1.587c-0.254,0.145-0.413,0.407-0.413,0.697c0,0.289,0.159,0.56,0.413,0.697l2.9,1.594l1.586,2.896
			c0.142,0.257,0.409,0.415,0.698,0.415c0.289,0,0.56-0.158,0.698-0.415l1.588-2.896l2.898-1.594
			c0.256-0.138,0.415-0.408,0.415-0.697c0-0.29-0.158-0.56-0.415-0.697L42.278,40.286z"/>
		<path fill="#333333" d="M20.906,18.209l5.477,0.018l4.609,2.962c0.242,0.158,0.556,0.171,0.811,0.033
			c0.257-0.138,0.415-0.408,0.415-0.697l0.015-5.478l2.966-4.609c0.157-0.24,0.168-0.553,0.029-0.809
			c-0.138-0.258-0.404-0.415-0.698-0.415l-5.474-0.011L24.45,6.238c-0.243-0.165-0.557-0.178-0.813-0.04
			c-0.257,0.138-0.415,0.408-0.415,0.697l-0.013,5.484l-2.966,4.608c-0.158,0.241-0.168,0.553-0.03,0.81
			C20.35,18.052,20.613,18.209,20.906,18.209z"/>
		<path fill="#333333" d="M40.888,29.818l2.419-0.303l2.202,1.053c0.262,0.129,0.573,0.1,0.809-0.071
			c0.235-0.171,0.36-0.455,0.324-0.744l-0.3-2.42l1.051-2.202c0.129-0.263,0.099-0.573-0.07-0.809
			c-0.172-0.227-0.455-0.353-0.745-0.317l-2.42,0.297l-2.201-1.051c-0.263-0.128-0.573-0.095-0.81,0.07
			c-0.235,0.175-0.361,0.457-0.322,0.75l0.3,2.42l-1.053,2.197c-0.128,0.263-0.096,0.577,0.071,0.808
			C40.315,29.733,40.598,29.858,40.888,29.818z"/>
	</g>
</g>
</svg>
