<?xml version="1.0" encoding="utf-8"?>
<!-- Generator: Adobe Illustrator 16.0.3, SVG Export Plug-In . SVG Version: 6.00 Build 0)  -->
<!DOCTYPE svg PUBLIC "-//W3C//DTD SVG 1.1//EN" "http://www.w3.org/Graphics/SVG/1.1/DTD/svg11.dtd">
<svg version="1.1" id="圖層_1" xmlns="http://www.w3.org/2000/svg" xmlns:xlink="http://www.w3.org/1999/xlink" x="0px" y="0px"
	 width="215.954px" height="75px" viewBox="0 0 215.954 75" enable-background="new 0 0 215.954 75" xml:space="preserve">
<g>
	<path fill="#0078D7" d="M83.111,25.512l-6.773,23.987h-3.297l-4.933-17.548c-0.188-0.657-0.313-1.466-0.37-2.424h-0.065
		c-0.091,0.825-0.239,1.621-0.454,2.39l-4.968,17.582h-3.256l-7.011-23.987h3.075l5.104,18.4c0.211,0.813,0.35,1.616,0.42,2.406
		h0.066c0.054-0.68,0.22-1.482,0.501-2.406l5.319-18.4h2.71l5.068,18.533c0.188,0.692,0.322,1.433,0.4,2.228h0.066
		c0.053-0.583,0.206-1.347,0.452-2.296l4.9-18.464H83.111z"/>
	<path fill="#0078D7" d="M88.085,49.499h-2.741V32.369h2.741V49.499z M88.555,26.736c0,0.511-0.179,0.939-0.535,1.277
		c-0.357,0.341-0.781,0.512-1.271,0.512c-0.5,0-0.925-0.164-1.27-0.493c-0.35-0.329-0.519-0.763-0.519-1.296
		c0-0.48,0.169-0.896,0.508-1.246c0.341-0.354,0.766-0.527,1.28-0.527c0.511,0,0.943,0.17,1.286,0.517
		C88.382,25.828,88.555,26.246,88.555,26.736"/>
	<path fill="#0078D7" d="M106.453,49.499h-2.74V39.73c0-3.624-1.328-5.436-3.98-5.436c-1.349,0-2.481,0.508-3.388,1.528
		c-0.907,1.02-1.362,2.323-1.362,3.907v9.769h-2.743V32.37h2.743v2.843h0.064c1.284-2.173,3.157-3.262,5.621-3.262
		c1.886,0,3.32,0.614,4.307,1.842c0.985,1.225,1.479,2.967,1.479,5.218V49.499z"/>
	<path fill="#0078D7" d="M122.749,41.753v-2.526c0-1.413-0.472-2.592-1.414-3.528c-0.941-0.936-2.087-1.404-3.437-1.404
		c-1.649,0-2.961,0.611-3.931,1.829c-0.97,1.222-1.455,2.915-1.455,5.079c0,1.962,0.457,3.515,1.373,4.656
		c0.913,1.144,2.145,1.715,3.695,1.715c1.507,0,2.742-0.546,3.714-1.637C122.264,44.841,122.749,43.447,122.749,41.753
		 M125.493,49.499h-2.744v-2.911h-0.065c-1.273,2.22-3.234,3.326-5.89,3.326c-2.165,0-3.886-0.775-5.17-2.331
		c-1.28-1.556-1.92-3.634-1.92-6.232c0-2.829,0.709-5.105,2.131-6.823c1.423-1.718,3.327-2.577,5.71-2.577
		c2.344,0,4.052,0.927,5.139,2.778h0.065V24.142h2.744V49.499z"/>
	<path fill="#0078D7" d="M142.932,40.966c0-2.151-0.474-3.801-1.429-4.951c-0.953-1.147-2.314-1.721-4.089-1.721
		c-1.762,0-3.156,0.586-4.182,1.764c-1.025,1.175-1.538,2.834-1.538,4.977c0,2.05,0.516,3.652,1.548,4.809
		c1.03,1.153,2.421,1.729,4.172,1.729c1.785,0,3.149-0.566,4.1-1.704C142.461,44.73,142.932,43.096,142.932,40.966 M145.744,40.867
		c0,2.72-0.772,4.908-2.316,6.563c-1.544,1.659-3.617,2.484-6.213,2.484c-2.534,0-4.553-0.804-6.064-2.415
		c-1.51-1.612-2.268-3.733-2.268-6.365c0-2.831,0.775-5.069,2.326-6.715c1.546-1.647,3.684-2.469,6.407-2.469
		c2.542,0,4.53,0.797,5.973,2.385C145.025,35.925,145.744,38.102,145.744,40.867"/>
	<path fill="#0078D7" d="M170.714,32.37l-5.138,17.129h-2.844l-3.527-12.262c-0.121-0.421-0.214-0.948-0.269-1.571h-0.067
		c-0.033,0.39-0.148,0.902-0.35,1.537l-3.831,12.296h-2.743l-5.171-17.129h2.88l3.529,12.879c0.112,0.446,0.189,0.961,0.235,1.537
		h0.133c0.022-0.421,0.129-0.945,0.316-1.568L157.8,32.37h2.509l3.563,12.913c0.111,0.434,0.19,0.947,0.235,1.537h0.133
		c0.023-0.533,0.111-1.044,0.266-1.537L168,32.37H170.714z"/>
	<path fill="#0078D7" d="M182.401,44.914c0,1.484-0.573,2.688-1.714,3.614c-1.145,0.924-2.662,1.387-4.558,1.387
		c-1.617,0-3.035-0.345-4.251-1.036v-2.942c1.353,1.092,2.834,1.637,4.451,1.637c2.174,0,3.263-0.797,3.263-2.393
		c0-0.646-0.213-1.172-0.637-1.578c-0.428-0.407-1.39-0.955-2.894-1.65c-1.519-0.645-2.586-1.339-3.21-2.079
		c-0.625-0.741-0.94-1.728-0.94-2.951c0-1.417,0.571-2.602,1.709-3.547c1.135-0.949,2.579-1.423,4.332-1.423
		c1.348,0,2.569,0.269,3.665,0.803v2.759c-1.116-0.812-2.413-1.218-3.886-1.218c-0.901,0-1.631,0.223-2.18,0.669
		c-0.552,0.447-0.829,1.017-0.829,1.721c0,0.759,0.209,1.342,0.634,1.749c0.426,0.406,1.302,0.889,2.629,1.447
		c1.628,0.691,2.772,1.414,3.429,2.174C182.073,42.814,182.401,43.766,182.401,44.914"/>
	<polygon fill="#0078D7" points="18.164,36.704 39.999,36.704 39.999,17.5 18.164,20.551 	"/>
	<polygon fill="#0078D7" points="16.61,36.704 16.61,20.768 0,23.09 0,36.704 	"/>
	<polygon fill="#0078D7" points="18.164,38.256 18.164,54.455 39.999,57.5 39.999,38.256 	"/>
	<polygon fill="#0078D7" points="16.61,38.256 0,38.256 0,51.919 16.61,54.237 	"/>
	<path fill="#0078D7" d="M193.664,49.499V28.755c-0.479,0.48-1.291,1.016-2.436,1.607c-1.144,0.592-2.184,1.005-3.121,1.24v-2.78
		c1.203-0.335,2.505-0.876,3.901-1.624c1.394-0.748,2.516-1.496,3.364-2.243h1.038v24.543H193.664z"/>
	<path fill="#0078D7" d="M213.141,37.662c0-6.83-1.623-10.246-4.871-10.246c-3.426,0-5.14,3.477-5.14,10.43
		c0,6.484,1.68,9.727,5.039,9.727C211.485,47.573,213.141,44.269,213.141,37.662 M215.954,37.394c0,3.962-0.697,7.04-2.093,9.234
		c-1.396,2.191-3.381,3.289-5.96,3.289c-2.411,0-4.277-1.033-5.6-3.098c-1.324-2.064-1.984-5.011-1.984-8.84
		c0-4.174,0.686-7.366,2.059-9.576c1.374-2.21,3.383-3.315,6.027-3.315C213.438,25.089,215.954,29.191,215.954,37.394"/>
</g>
</svg>
