<?xml version="1.0" encoding="utf-8"?>
<!-- Generator: Adobe Illustrator 16.0.3, SVG Export Plug-In . SVG Version: 6.00 Build 0)  -->
<!DOCTYPE svg PUBLIC "-//W3C//DTD SVG 1.1//EN" "http://www.w3.org/Graphics/SVG/1.1/DTD/svg11.dtd">
<svg version="1.1" id="圖層_2" xmlns="http://www.w3.org/2000/svg" xmlns:xlink="http://www.w3.org/1999/xlink" x="0px" y="0px"
	 width="72.441px" height="75px" viewBox="0 0 72.441 75" enable-background="new 0 0 72.441 75" xml:space="preserve">
<g>
	<g>
		<path fill="#0078D7" d="M61.829,67.179c0.127-0.351-3.193-2.133-1.666-5.205c0.011,0.046-3.943-3.422-5.696-4.509
			c-1.757-1.093-5.512-1.226-5.662-1.271c-0.227-0.371-3.06,0.615-9.414-10.137c-6.495-11.636-7.374-13.104-8.846-13.982
			c2.044,3.847,2.876,9.926,2.883,9.9c0.003-0.021-2.831-6.76-6.33-14.91c-3.481-7.89-7.627-17.192-9.824-16.395
			c3.02,4.14,3.463,10.321,3.474,10.311C16.178,9.448,10.847,3.394,6.812,1.328C2.752-0.915-0.014,0.83,0.006,0.79
			c-0.075-0.247,0.536,12.886,3.405,25.691c2.783,12.979,7.821,25.63,14.623,28.409c-1.006,0.796-1.847,3.68-1.84,3.688
			c-0.052-0.128,1.78,4.229,5.634,8.157c3.872,4.019,9.767,7.606,18.259,8.034c0.021,0.046,2.557,0.199,6.254-0.465
			c3.729-0.59,8.618-1.994,14.049-3.37c-0.005-0.014,1.822-0.202,2.163-0.381c0.33-0.214,2.362-0.138,2.367-0.124
			c0.002,0.005,0.742,0.304,1.773,0.062c1.453,0.195,2.928,0.455,4.422,0.78c-0.002-0.009,1.434-0.453,1.32-0.691
			c-0.119-0.255-2.683-0.869-4.726-1.22c-0.866-0.381-3.107-0.771-3.102-0.757C64.607,68.6,61.731,67.493,61.829,67.179z
			 M58.434,67.999c-6.095-0.409-11.716-1.441-17.063-4.258c-5.33-2.743-10.387-7.27-14.966-13.013
			c-4.563-5.67-8.651-12.56-11.656-18.385c-2.989-5.753-4.896-10.442-4.713-10.065c4.417,6.328,10.524,19.533,18.097,28.462
			C35.83,60.202,44.992,65.392,58.434,67.999z"/>
	</g>
</g>
</svg>
