<?xml version="1.0" encoding="utf-8"?>
<!-- Generator: Adobe Illustrator 16.0.3, SVG Export Plug-In . SVG Version: 6.00 Build 0)  -->
<!DOCTYPE svg PUBLIC "-//W3C//DTD SVG 1.1//EN" "http://www.w3.org/Graphics/SVG/1.1/DTD/svg11.dtd">
<svg version="1.1" id="圖層_3" xmlns="http://www.w3.org/2000/svg" xmlns:xlink="http://www.w3.org/1999/xlink" x="0px" y="0px"
	 width="81.667px" height="95.999px" viewBox="0 0 81.667 95.999" enable-background="new 0 0 81.667 95.999" xml:space="preserve">
<g>
	<g>
		
			<rect x="62.113" y="1.974" transform="matrix(0.859 0.512 -0.512 0.859 22.6033 -29.4567)" fill="none" stroke="#727272" stroke-miterlimit="10" width="5.333" height="48.666"/>
		
			<rect x="76.125" y="3.575" transform="matrix(0.859 0.512 -0.512 0.859 13.2616 -39.1995)" fill="none" stroke="#727272" stroke-miterlimit="10" width="3.334" height="1.798"/>
		<polygon fill="none" stroke="#727272" stroke-miterlimit="10" points="54.306,48.393 50.272,50.646 50.337,46.026 		"/>
	</g>
	<g>
		<ellipse fill="none" stroke="#727272" stroke-miterlimit="10" cx="25.609" cy="68.603" rx="13.5" ry="3.749"/>
		<line fill="none" stroke="#727272" stroke-miterlimit="10" x1="12.109" y1="68.603" x2="12.109" y2="79.102"/>
		<line fill="none" stroke="#727272" stroke-miterlimit="10" x1="39.109" y1="68.603" x2="39.109" y2="79.102"/>
	</g>
	<path fill="none" stroke="#727272" stroke-miterlimit="10" d="M49.126,52.965c0,0-51.998,2.407,0,13.294
		c75.97,15.906-12.197,27.74-12.197,27.74"/>
	
		<ellipse fill="none" stroke="#727272" stroke-linecap="round" stroke-miterlimit="10" cx="25.609" cy="79.055" rx="13.38" ry="5.203"/>
	<g>
		<g>
			<g enable-background="new    ">
				<defs>
					<polygon id="SVGID_1_" enable-background="new    " points="-1.787,89.701 3.604,70.572 47.614,70.572 53.005,89.701 					"/>
				</defs>
				<clipPath id="SVGID_2_">
					<use xlink:href="#SVGID_1_"  overflow="visible"/>
				</clipPath>
				<g clip-path="url(#SVGID_2_)">
					<path fill="#727272" d="M10.331,73.176c1.122-0.379,2.308-0.709,3.539-0.988c1.222-0.277,2.491-0.508,3.787-0.691
						c1.292-0.181,2.613-0.315,3.949-0.406c1.333-0.091,2.681-0.135,4.029-0.135c1.342,0,2.686,0.045,4.013,0.135
						c1.331,0.092,2.649,0.227,3.936,0.409c1.293,0.183,2.558,0.411,3.776,0.688c1.227,0.279,2.41,0.607,3.529,0.986
						c1.133,0.381,2.15,0.797,3.048,1.24c0.908,0.448,1.697,0.925,2.362,1.421c0.674,0.505,1.222,1.029,1.639,1.569
						c0.424,0.548,0.714,1.111,0.867,1.684c0.155,0.579,0.169,1.166,0.038,1.752c-0.134,0.593-0.418,1.186-0.858,1.768
						c-0.446,0.591-1.053,1.169-1.824,1.725c-0.781,0.564-1.731,1.105-2.854,1.612c-1.132,0.515-2.382,0.97-3.726,1.362
						c-1.355,0.396-2.801,0.728-4.313,0.996c-1.521,0.269-3.104,0.471-4.721,0.607c-1.622,0.137-3.275,0.205-4.931,0.205
						c-1.659,0-3.314-0.068-4.938-0.205c-1.62-0.137-3.203-0.339-4.725-0.607c-1.513-0.269-2.959-0.601-4.315-0.996
						c-1.344-0.393-2.594-0.848-3.726-1.362c-1.12-0.505-2.068-1.046-2.849-1.609c-0.771-0.556-1.378-1.133-1.826-1.721
						c-0.441-0.58-0.728-1.171-0.862-1.764c-0.133-0.583-0.121-1.169,0.034-1.747c0.153-0.572,0.444-1.137,0.867-1.686
						c0.417-0.542,0.964-1.069,1.638-1.573c0.666-0.5,1.454-0.977,2.363-1.425C8.176,73.976,9.194,73.56,10.331,73.176
						 M25.634,70.572c-1.409,0-2.821,0.047-4.216,0.141c-1.398,0.094-2.784,0.235-4.138,0.426c-1.36,0.189-2.691,0.429-3.974,0.72
						c-1.292,0.29-2.539,0.634-3.72,1.03c-1.193,0.4-2.264,0.834-3.211,1.301c-0.959,0.469-1.792,0.969-2.497,1.492
						c-0.713,0.529-1.295,1.082-1.742,1.651c-0.453,0.576-0.766,1.17-0.936,1.771c-0.171,0.607-0.194,1.225-0.062,1.839
						c0.134,0.626,0.426,1.251,0.883,1.863c0.463,0.622,1.095,1.233,1.901,1.823c0.815,0.595,1.809,1.167,2.984,1.706
						c1.191,0.544,2.509,1.025,3.928,1.443c1.431,0.42,2.959,0.773,4.56,1.059c1.608,0.286,3.284,0.502,4.998,0.646
						c1.718,0.146,3.47,0.218,5.224,0.218c1.752,0,3.502-0.072,5.219-0.218c1.712-0.145,3.388-0.36,4.998-0.646
						c1.599-0.285,3.128-0.639,4.558-1.059c1.418-0.418,2.734-0.899,3.922-1.443c1.178-0.539,2.172-1.112,2.989-1.711
						c0.806-0.59,1.437-1.201,1.899-1.825c0.456-0.615,0.746-1.24,0.879-1.866c0.13-0.619,0.107-1.237-0.065-1.845
						c-0.169-0.601-0.482-1.193-0.936-1.768c-0.447-0.566-1.029-1.118-1.743-1.646c-0.705-0.521-1.538-1.02-2.496-1.488
						c-0.946-0.464-2.016-0.898-3.206-1.297c-1.178-0.395-2.422-0.738-3.71-1.029c-1.28-0.29-2.607-0.529-3.963-0.72
						c-1.349-0.19-2.73-0.332-4.125-0.427C28.445,70.619,27.039,70.572,25.634,70.572"/>
				</g>
			</g>
		</g>
		<g>
			<g enable-background="new    ">
				<defs>
					<polygon id="SVGID_3_" enable-background="new    " points="6.89,86.418 9.598,72.829 41.621,72.829 44.329,86.418 					"/>
				</defs>
				<clipPath id="SVGID_4_">
					<use xlink:href="#SVGID_3_"  overflow="visible"/>
				</clipPath>
				<g clip-path="url(#SVGID_4_)">
					<path fill="#727272" d="M41.222,72.829c-0.036,0-0.071,0.001-0.106,0.003c-0.036,0.004-0.07,0.007-0.102,0.011
						c-0.033,0.006-0.065,0.013-0.095,0.02c-0.03,0.007-0.058,0.017-0.084,0.026L6.984,85.944c-0.071,0.028-0.125,0.06-0.164,0.092
						c-0.039,0.033-0.063,0.068-0.07,0.104c-0.007,0.036,0.002,0.07,0.028,0.104c0.026,0.034,0.069,0.063,0.128,0.092
						c0.029,0.014,0.062,0.026,0.096,0.036c0.035,0.01,0.072,0.018,0.11,0.024c0.039,0.009,0.078,0.012,0.119,0.017
						c0.041,0.002,0.083,0.006,0.125,0.006c0.042,0,0.084-0.004,0.126-0.006c0.042-0.005,0.084-0.008,0.125-0.017
						c0.041-0.007,0.081-0.015,0.12-0.024c0.039-0.01,0.076-0.022,0.111-0.036l33.851-13.161c0.052-0.02,0.089-0.042,0.112-0.065
						c0.023-0.024,0.032-0.051,0.027-0.076s-0.024-0.052-0.057-0.076s-0.08-0.048-0.139-0.067c-0.03-0.01-0.062-0.02-0.094-0.026
						s-0.067-0.014-0.102-0.02c-0.035-0.004-0.071-0.007-0.107-0.011C41.294,72.83,41.258,72.829,41.222,72.829"/>
				</g>
			</g>
		</g>
		<g>
			<g enable-background="new    ">
				<defs>
					<polygon id="SVGID_5_" enable-background="new    " points="6.89,86.418 9.598,72.829 41.621,72.829 44.329,86.418 					"/>
				</defs>
				<clipPath id="SVGID_6_">
					<use xlink:href="#SVGID_5_"  overflow="visible"/>
				</clipPath>
				<g clip-path="url(#SVGID_6_)">
					<path fill="#727272" d="M9.997,72.829c-0.036,0-0.072,0.001-0.108,0.003c-0.036,0.004-0.072,0.007-0.107,0.011
						c-0.035,0.006-0.069,0.013-0.102,0.02s-0.064,0.017-0.094,0.026c-0.059,0.02-0.106,0.043-0.139,0.067
						c-0.033,0.025-0.052,0.051-0.057,0.076c-0.005,0.026,0.003,0.052,0.027,0.077c0.022,0.024,0.06,0.047,0.111,0.066L43.38,86.335
						c0.035,0.014,0.072,0.026,0.111,0.036c0.039,0.01,0.079,0.018,0.12,0.024c0.041,0.009,0.083,0.012,0.125,0.017
						c0.042,0.002,0.084,0.006,0.126,0.006c0.042,0,0.084-0.004,0.125-0.006c0.041-0.005,0.081-0.008,0.119-0.017
						c0.038-0.007,0.075-0.015,0.11-0.024c0.035-0.01,0.067-0.022,0.096-0.036c0.06-0.028,0.103-0.058,0.128-0.092
						c0.025-0.033,0.035-0.067,0.028-0.104c-0.007-0.035-0.031-0.07-0.07-0.104c-0.039-0.032-0.093-0.063-0.164-0.092L10.385,72.889
						c-0.026-0.01-0.054-0.02-0.084-0.026c-0.03-0.007-0.062-0.014-0.095-0.02c-0.032-0.004-0.066-0.007-0.102-0.011
						C10.069,72.83,10.033,72.829,9.997,72.829"/>
				</g>
			</g>
		</g>
	</g>
</g>
</svg>
