<?xml version="1.0" encoding="utf-8"?>
<!-- Generator: Adobe Illustrator 16.0.3, SVG Export Plug-In . SVG Version: 6.00 Build 0)  -->
<!DOCTYPE svg PUBLIC "-//W3C//DTD SVG 1.1//EN" "http://www.w3.org/Graphics/SVG/1.1/DTD/svg11.dtd">
<svg version="1.1" id="圖層_3" xmlns="http://www.w3.org/2000/svg" xmlns:xlink="http://www.w3.org/1999/xlink" x="0px" y="0px"
	 width="93px" height="83px" viewBox="0 0 93 83" enable-background="new 0 0 93 83" xml:space="preserve">
<g>
	<g>
		<path fill="none" stroke="#727272" stroke-miterlimit="10" d="M90.609,62.691c0,0.55-0.45,1-1,1H3c-0.55,0-1-0.45-1-1V4.111
			c0-0.55,0.45-1,1-1h86.609c0.55,0,1,0.45,1,1V62.691z"/>
	</g>
	<rect x="6.494" y="8.363" fill="none" stroke="#727272" stroke-miterlimit="10" width="79.622" height="50.076"/>
	<path fill="none" stroke="#727272" stroke-miterlimit="10" d="M63.397,63.691c0.046,0.208,0.074,0.422,0.074,0.644V74
		c0,1.65-1.35,3-3,3H32.138c-1.65,0-3-1.35-3-3v-9.665c0-0.222,0.028-0.436,0.074-0.644h-3.019V79.5h40.222V63.691H63.397z"/>
	<rect x="29.138" y="77" fill="none" stroke="#727272" stroke-miterlimit="10" width="34.333" height="5"/>
</g>
</svg>
