<?xml version="1.0" encoding="utf-8"?>
<!-- Generator: Adobe Illustrator 16.0.3, SVG Export Plug-In . SVG Version: 6.00 Build 0)  -->
<!DOCTYPE svg PUBLIC "-//W3C//DTD SVG 1.1//EN" "http://www.w3.org/Graphics/SVG/1.1/DTD/svg11.dtd">
<svg version="1.1" id="圖層_3" xmlns="http://www.w3.org/2000/svg" xmlns:xlink="http://www.w3.org/1999/xlink" x="0px" y="0px"
	 width="94px" height="94px" viewBox="0 0 94 94" enable-background="new 0 0 94 94" xml:space="preserve">
<g>
	<path fill="none" stroke="#727272" stroke-miterlimit="10" d="M79.851,23.656c0-4.519-3.697-8.217-8.216-8.217H23.567
		c-4.519,0-8.216,3.698-8.216,8.217v48.067c0,4.519,3.697,8.217,8.216,8.217h3.698c7.292,0,8.216,0,8.216-2.876
		c0-3.185,0.719-2.191,8.217-2.191h7.806c7.189,0,8.217-0.582,8.217,2.191c0,2.876,0.821,2.876,8.216,2.876h3.698
		c4.519,0,8.216-3.698,8.216-8.217V23.656z"/>
	<g>
		<path fill="none" stroke="#727272" stroke-miterlimit="10" d="M74.852,66.873c0,4.4-3.6,8-8,8H28.349c-4.4,0-8-3.6-8-8V28.507
			c0-4.4,3.6-8,8-8h38.503c4.4,0,8,3.6,8,8V66.873z"/>
	</g>
	<g>
		<defs>
			<path id="SVGID_1_" d="M74.852,68.3c0,3.615-2.958,6.573-6.573,6.573H26.922c-3.615,0-6.573-2.958-6.573-6.573V27.08
				c0-3.615,2.958-6.573,6.573-6.573h41.357c3.615,0,6.573,2.958,6.573,6.573V68.3z"/>
		</defs>
		<clipPath id="SVGID_2_">
			<use xlink:href="#SVGID_1_"  overflow="visible"/>
		</clipPath>
		<g clip-path="url(#SVGID_2_)">
			<line fill="none" stroke="#727272" stroke-miterlimit="10" x1="48.769" y1="-12.025" x2="-11.553" y2="48.296"/>
			<line fill="none" stroke="#727272" stroke-miterlimit="10" x1="52.015" y1="-8.779" x2="-8.306" y2="51.542"/>
			<line fill="none" stroke="#727272" stroke-miterlimit="10" x1="55.262" y1="-5.532" x2="-5.06" y2="54.789"/>
			<line fill="none" stroke="#727272" stroke-miterlimit="10" x1="58.509" y1="-2.286" x2="-1.813" y2="58.037"/>
			<line fill="none" stroke="#727272" stroke-miterlimit="10" x1="61.756" y1="0.962" x2="1.435" y2="61.283"/>
			<line fill="none" stroke="#727272" stroke-miterlimit="10" x1="65.003" y1="4.209" x2="4.681" y2="64.53"/>
			<line fill="none" stroke="#727272" stroke-miterlimit="10" x1="68.25" y1="7.455" x2="7.928" y2="67.776"/>
			<line fill="none" stroke="#727272" stroke-miterlimit="10" x1="71.497" y1="10.702" x2="11.175" y2="71.024"/>
			<line fill="none" stroke="#727272" stroke-miterlimit="10" x1="74.744" y1="13.948" x2="14.422" y2="74.27"/>
			<line fill="none" stroke="#727272" stroke-miterlimit="10" x1="77.99" y1="17.194" x2="17.668" y2="77.518"/>
			<line fill="none" stroke="#727272" stroke-miterlimit="10" x1="81.237" y1="20.442" x2="20.916" y2="80.764"/>
			<line fill="none" stroke="#727272" stroke-miterlimit="10" x1="84.484" y1="23.689" x2="24.163" y2="84.011"/>
			<line fill="none" stroke="#727272" stroke-miterlimit="10" x1="87.731" y1="26.936" x2="27.409" y2="87.257"/>
			<line fill="none" stroke="#727272" stroke-miterlimit="10" x1="90.978" y1="30.183" x2="30.656" y2="90.505"/>
			<line fill="none" stroke="#727272" stroke-miterlimit="10" x1="94.225" y1="33.431" x2="33.903" y2="93.752"/>
			<line fill="none" stroke="#727272" stroke-miterlimit="10" x1="97.472" y1="36.677" x2="37.15" y2="96.998"/>
			<line fill="none" stroke="#727272" stroke-miterlimit="10" x1="100.719" y1="39.924" x2="40.397" y2="100.245"/>
			<line fill="none" stroke="#727272" stroke-miterlimit="10" x1="103.965" y1="43.17" x2="43.644" y2="103.493"/>
		</g>
		<use xlink:href="#SVGID_1_"  overflow="visible" fill="none" stroke="#727272" stroke-miterlimit="10"/>
	</g>
	<rect x="6.686" y="6.776" fill="none" stroke="#727272" stroke-miterlimit="10" width="81.829" height="81.828"/>
	<g>
		<g>
			<line fill="none" stroke="#727272" stroke-miterlimit="10" x1="85.366" y1="20.507" x2="85.366" y2="21.507"/>
			
				<line fill="none" stroke="#727272" stroke-miterlimit="10" stroke-dasharray="1.9395,1.9395" x1="85.366" y1="23.446" x2="85.366" y2="72.903"/>
			<line fill="none" stroke="#727272" stroke-miterlimit="10" x1="85.366" y1="73.873" x2="85.366" y2="74.873"/>
		</g>
	</g>
	<g>
		<g>
			<line fill="none" stroke="#727272" stroke-miterlimit="10" x1="81.065" y1="84.366" x2="80.065" y2="84.366"/>
			
				<line fill="none" stroke="#727272" stroke-miterlimit="10" stroke-dasharray="1.9395,1.9395" x1="78.126" y1="84.366" x2="28.669" y2="84.366"/>
			<line fill="none" stroke="#727272" stroke-miterlimit="10" x1="27.699" y1="84.366" x2="26.699" y2="84.366"/>
		</g>
	</g>
	<g>
		<g>
			<line fill="none" stroke="#727272" stroke-miterlimit="10" x1="81.064" y1="11.366" x2="80.064" y2="11.366"/>
			
				<line fill="none" stroke="#727272" stroke-miterlimit="10" stroke-dasharray="1.4045,1.4045" x1="78.66" y1="11.366" x2="76.553" y2="11.366"/>
			<line fill="none" stroke="#727272" stroke-miterlimit="10" x1="75.851" y1="11.366" x2="74.851" y2="11.366"/>
		</g>
	</g>
	<g>
		<g>
			<line fill="none" stroke="#727272" stroke-miterlimit="10" x1="71.731" y1="11.366" x2="70.731" y2="11.366"/>
			
				<line fill="none" stroke="#727272" stroke-miterlimit="10" stroke-dasharray="1.4045,1.4045" x1="69.327" y1="11.366" x2="67.22" y2="11.366"/>
			<line fill="none" stroke="#727272" stroke-miterlimit="10" x1="66.518" y1="11.366" x2="65.518" y2="11.366"/>
		</g>
	</g>
	<g>
		<g>
			<line fill="none" stroke="#727272" stroke-miterlimit="10" x1="62.397" y1="11.366" x2="61.397" y2="11.366"/>
			
				<line fill="none" stroke="#727272" stroke-miterlimit="10" stroke-dasharray="1.4045,1.4045" x1="59.993" y1="11.366" x2="57.886" y2="11.366"/>
			<line fill="none" stroke="#727272" stroke-miterlimit="10" x1="57.184" y1="11.366" x2="56.184" y2="11.366"/>
		</g>
	</g>
	<g>
		<g>
			<line fill="none" stroke="#727272" stroke-miterlimit="10" x1="44.397" y1="11.366" x2="43.397" y2="11.366"/>
			
				<line fill="none" stroke="#727272" stroke-miterlimit="10" stroke-dasharray="1.4045,1.4045" x1="41.993" y1="11.366" x2="39.886" y2="11.366"/>
			<line fill="none" stroke="#727272" stroke-miterlimit="10" x1="39.184" y1="11.366" x2="38.184" y2="11.366"/>
		</g>
	</g>
	<g>
		<g>
			<line fill="none" stroke="#727272" stroke-miterlimit="10" x1="34.397" y1="11.366" x2="33.397" y2="11.366"/>
			
				<line fill="none" stroke="#727272" stroke-miterlimit="10" stroke-dasharray="1.4045,1.4045" x1="31.993" y1="11.366" x2="29.886" y2="11.366"/>
			<line fill="none" stroke="#727272" stroke-miterlimit="10" x1="29.184" y1="11.366" x2="28.184" y2="11.366"/>
		</g>
	</g>
	<g>
		<g>
			<line fill="none" stroke="#727272" stroke-miterlimit="10" x1="10.032" y1="81.086" x2="10.032" y2="80.086"/>
			
				<line fill="none" stroke="#727272" stroke-miterlimit="10" stroke-dasharray="1.4043,1.4043" x1="10.032" y1="78.682" x2="10.032" y2="76.575"/>
			<line fill="none" stroke="#727272" stroke-miterlimit="10" x1="10.032" y1="75.873" x2="10.032" y2="74.873"/>
		</g>
	</g>
	<g>
		<g>
			<line fill="none" stroke="#727272" stroke-miterlimit="10" x1="10.032" y1="70.753" x2="10.032" y2="69.753"/>
			
				<line fill="none" stroke="#727272" stroke-miterlimit="10" stroke-dasharray="1.4043,1.4043" x1="10.032" y1="68.349" x2="10.032" y2="66.242"/>
			<line fill="none" stroke="#727272" stroke-miterlimit="10" x1="10.032" y1="65.54" x2="10.032" y2="64.54"/>
		</g>
	</g>
</g>
</svg>
