<?xml version="1.0" encoding="utf-8"?>
<!-- Generator: Adobe Illustrator 16.0.3, SVG Export Plug-In . SVG Version: 6.00 Build 0)  -->
<!DOCTYPE svg PUBLIC "-//W3C//DTD SVG 1.1//EN" "http://www.w3.org/Graphics/SVG/1.1/DTD/svg11.dtd">
<svg version="1.1" id="圖層_3" xmlns="http://www.w3.org/2000/svg" xmlns:xlink="http://www.w3.org/1999/xlink" x="0px" y="0px"
	 width="94px" height="94px" viewBox="0 0 94 94" enable-background="new 0 0 94 94" xml:space="preserve">
<g>
	<g>
		<path fill="none" stroke="#727272" stroke-miterlimit="10" d="M41.683,31.565c0,11.986,5.7,21.703,5.7,21.703
			s5.7-9.717,5.7-21.703c0-11.988-5.7-21.705-5.7-21.705S41.683,19.577,41.683,31.565z"/>
		<path fill="none" stroke="#727272" stroke-miterlimit="10" d="M41.683,64.005c0,11.988,5.7,21.705,5.7,21.705
			s5.7-9.717,5.7-21.705c0-11.986-5.7-21.703-5.7-21.703S41.683,52.019,41.683,64.005z"/>
		<path fill="none" stroke="#727272" stroke-miterlimit="10" d="M36.479,34.493c4.1,11.264,12.779,18.445,12.779,18.445
			s2.033-11.08-2.066-22.346c-4.101-11.264-12.78-18.445-12.78-18.445S32.379,23.228,36.479,34.493z"/>
		<path fill="none" stroke="#727272" stroke-miterlimit="10" d="M47.575,64.976c4.1,11.266,12.779,18.447,12.779,18.447
			s2.033-11.08-2.067-22.346c-4.1-11.264-12.779-18.445-12.779-18.445S43.475,53.712,47.575,64.976z"/>
		<path fill="none" stroke="#727272" stroke-miterlimit="10" d="M32.59,39.022c7.706,9.184,18.317,12.963,18.317,12.963
			s-1.879-11.107-9.584-20.291c-7.706-9.182-18.318-12.961-18.318-12.961S24.885,29.841,32.59,39.022z"/>
		<path fill="none" stroke="#727272" stroke-miterlimit="10" d="M53.443,63.874c7.706,9.184,18.317,12.963,18.317,12.963
			s-1.879-11.107-9.585-20.291c-7.704-9.184-18.316-12.961-18.316-12.961S45.739,54.69,53.443,63.874z"/>
		<path fill="none" stroke="#727272" stroke-miterlimit="10" d="M30.486,44.61c10.382,5.994,21.646,5.916,21.646,5.916
			s-5.564-9.795-15.946-15.789S14.54,28.823,14.54,28.823S20.105,38.616,30.486,44.61z"/>
		<path fill="none" stroke="#727272" stroke-miterlimit="10" d="M58.581,60.829c10.383,5.996,21.646,5.918,21.646,5.918
			s-5.565-9.795-15.947-15.789c-10.38-5.994-21.645-5.916-21.645-5.916S48.2,54.837,58.581,60.829z"/>
		<path fill="none" stroke="#727272" stroke-miterlimit="10" d="M30.419,50.581c11.806,2.08,22.365-1.844,22.365-1.844
			s-8.579-7.301-20.386-9.383C20.593,37.272,10.036,41.2,10.036,41.2S18.615,48.499,30.419,50.581z"/>
		<path fill="none" stroke="#727272" stroke-miterlimit="10" d="M62.368,56.212c11.807,2.084,22.364-1.844,22.364-1.844
			s-8.58-7.299-20.386-9.381c-11.804-2.082-22.362,1.844-22.362,1.844S50.563,54.132,62.368,56.212z"/>
		<path fill="none" stroke="#727272" stroke-miterlimit="10" d="M32.399,56.214c11.806-2.082,20.386-9.383,20.386-9.383
			s-10.559-3.926-22.365-1.844c-11.806,2.08-20.384,9.383-20.384,9.383S20.594,58.296,32.399,56.214z"/>
		<path fill="none" stroke="#727272" stroke-miterlimit="10" d="M64.346,50.579c11.808-2.08,20.386-9.383,20.386-9.383
			s-10.56-3.924-22.365-1.842c-11.804,2.08-20.383,9.381-20.383,9.381S52.542,52.661,64.346,50.579z"/>
		<path fill="none" stroke="#727272" stroke-miterlimit="10" d="M36.186,60.829C46.567,54.835,52.133,45.04,52.133,45.04
			s-11.265-0.076-21.647,5.916C20.104,56.95,14.541,66.747,14.541,66.747S25.805,66.823,36.186,60.829z"/>
		<path fill="none" stroke="#727272" stroke-miterlimit="10" d="M64.28,44.608c10.384-5.994,15.947-15.789,15.947-15.789
			s-11.266-0.076-21.646,5.92C48.2,40.729,42.635,50.524,42.635,50.524S53.9,50.603,64.28,44.608z"/>
		<path fill="none" stroke="#727272" stroke-miterlimit="10" d="M41.323,63.872c7.705-9.184,9.586-20.291,9.586-20.291
			S40.297,47.36,32.59,56.544c-7.706,9.184-9.584,20.291-9.584,20.291S33.619,73.056,41.323,63.872z"/>
		<path fill="none" stroke="#727272" stroke-miterlimit="10" d="M62.174,39.021c7.708-9.184,9.586-20.291,9.586-20.291
			s-10.612,3.781-18.316,12.967c-7.706,9.18-9.585,20.285-9.585,20.285S54.471,48.204,62.174,39.021z"/>
		<path fill="none" stroke="#727272" stroke-miterlimit="10" d="M47.191,64.974c4.1-11.264,2.067-22.346,2.067-22.346
			S40.58,49.81,36.479,61.075c-4.101,11.264-2.066,22.346-2.066,22.346S43.092,76.237,47.191,64.974z"/>
		<path fill="none" stroke="#727272" stroke-miterlimit="10" d="M58.286,34.489c4.102-11.266,2.067-22.346,2.067-22.346
			s-8.679,7.184-12.776,18.449c-4.103,11.264-2.069,22.342-2.069,22.342S54.188,45.753,58.286,34.489z"/>
	</g>
	<path fill="none" stroke="#727272" stroke-miterlimit="10" d="M8.78,47.782c0,21.32,17.284,38.607,38.604,38.607
		s38.604-17.287,38.604-38.607c0-21.317-17.284-38.602-38.604-38.602S8.78,26.465,8.78,47.782z"/>
</g>
</svg>
