<?xml version="1.0" encoding="utf-8"?>
<!-- Generator: Adobe Illustrator 16.0.3, SVG Export Plug-In . SVG Version: 6.00 Build 0)  -->
<!DOCTYPE svg PUBLIC "-//W3C//DTD SVG 1.1//EN" "http://www.w3.org/Graphics/SVG/1.1/DTD/svg11.dtd">
<svg version="1.1" id="圖層_3" xmlns="http://www.w3.org/2000/svg" xmlns:xlink="http://www.w3.org/1999/xlink" x="0px" y="0px"
	 width="94px" height="94px" viewBox="0 0 94 94" enable-background="new 0 0 94 94" xml:space="preserve">
<g>
	<path fill="none" stroke="#727272" stroke-miterlimit="10" d="M8.314,48.002c-0.001,21.32,17.283,38.607,38.604,38.607
		c21.32,0,38.604-17.287,38.604-38.607C85.521,26.684,68.238,9.4,46.917,9.4C25.597,9.4,8.313,26.684,8.314,48.002z"/>
	<path fill="none" stroke="#727272" stroke-miterlimit="10" d="M71.509,68.277c4.547-5.51,7.279-12.574,7.279-20.275
		c0-7.7-2.731-14.762-7.278-20.271"/>
	<g>
		<g>
			<path fill="none" stroke="#727272" stroke-miterlimit="10" d="M61.667,69.202c0,1.65-1.35,3-3,3h-23.5c-1.65,0-3-1.35-3-3V28.927
				c0-1.65,1.35-3,3-3h23.5c1.65,0,3,1.35,3,3V69.202z"/>
		</g>
		<g>
			<rect x="35.702" y="30.652" fill="none" stroke="#727272" stroke-miterlimit="10" width="22.431" height="7.184"/>
			<rect x="35.702" y="38.1" fill="none" stroke="#727272" stroke-miterlimit="10" width="22.43" height="7.185"/>
			<rect x="35.703" y="45.549" fill="none" stroke="#727272" stroke-miterlimit="10" width="22.431" height="7.185"/>
			<rect x="35.702" y="53" fill="none" stroke="#727272" stroke-miterlimit="10" width="22.431" height="7.184"/>
			<rect x="35.702" y="60.449" fill="none" stroke="#727272" stroke-miterlimit="10" width="22.431" height="7.183"/>
		</g>
		<rect x="39.125" y="20.316" fill="none" stroke="#727272" stroke-miterlimit="10" width="15.586" height="5.611"/>
	</g>
	<path fill="none" stroke="#727272" stroke-miterlimit="10" d="M22.325,27.73c-4.547,5.51-7.279,12.574-7.279,20.275
		c0,7.7,2.731,14.762,7.278,20.271"/>
	<path fill="none" stroke="#727272" stroke-miterlimit="10" d="M66.58,64.213c3.636-4.405,5.82-10.054,5.82-16.211
		c0-6.157-2.184-11.803-5.819-16.208"/>
	<path fill="none" stroke="#727272" stroke-miterlimit="10" d="M27.255,31.794c-3.636,4.405-5.82,10.054-5.82,16.211
		c0,6.156,2.184,11.803,5.819,16.208"/>
</g>
</svg>
