<?xml version="1.0" encoding="utf-8"?>
<!-- Generator: Adobe Illustrator 16.0.3, SVG Export Plug-In . SVG Version: 6.00 Build 0)  -->
<!DOCTYPE svg PUBLIC "-//W3C//DTD SVG 1.1//EN" "http://www.w3.org/Graphics/SVG/1.1/DTD/svg11.dtd">
<svg version="1.1" id="圖層_13" xmlns="http://www.w3.org/2000/svg" xmlns:xlink="http://www.w3.org/1999/xlink" x="0px" y="0px"
	 width="63.08px" height="61.888px" viewBox="0 0 63.08 61.888" enable-background="new 0 0 63.08 61.888" xml:space="preserve">
<g>
	<circle fill="#D9D9D9" cx="28.639" cy="32.095" r="20"/>
	<g>
		<path fill="none" stroke="#000000" stroke-miterlimit="10" d="M59.736,15.276L58.457,8.95L51.407,16l-5.853-1.275l-1.276-5.853
			l7.051-7.051l-6.326-1.278l-9.499,9.5l2.083,8.818L1.628,51.753c-1.666,1.603-1.402,4.544,0.234,6.181
			c1.636,1.635,4.6,1.923,6.202,0.257l33.582-35.27l8.589,1.854L59.736,15.276z"/>
		<g>
			<polyline fill="none" stroke="#000000" stroke-miterlimit="10" points="33.348,35.215 36.299,38.165 34.389,40.075 
				55.495,61.181 62.373,54.304 41.267,33.197 39.356,35.108 36.343,32.095 			"/>
			<polyline fill="none" stroke="#000000" stroke-miterlimit="10" points="27.781,23.532 16.002,11.754 14.283,7.742 4.921,0.673 
				1.865,3.729 8.933,13.092 12.946,14.811 24.598,26.464 			"/>
		</g>
	</g>
</g>
</svg>
