<?xml version="1.0" encoding="utf-8"?>
<!-- Generator: Adobe Illustrator 16.0.3, SVG Export Plug-In . SVG Version: 6.00 Build 0)  -->
<!DOCTYPE svg PUBLIC "-//W3C//DTD SVG 1.1//EN" "http://www.w3.org/Graphics/SVG/1.1/DTD/svg11.dtd">
<svg version="1.1" id="圖層_1" xmlns="http://www.w3.org/2000/svg" xmlns:xlink="http://www.w3.org/1999/xlink" x="0px" y="0px"
	 width="241.141px" height="192.453px" viewBox="0 0 241.141 192.453" enable-background="new 0 0 241.141 192.453"
	 xml:space="preserve">
<g>
	<path fill="#FFFFFF" d="M229.962,21.091L208.871,0h8.51C222.363,6.676,226.553,13.753,229.962,21.091z"/>
	<path fill="#FFFFFF" d="M239.362,51.16L188.19,0h10.334l37.68,37.678C237.527,42.118,238.569,46.623,239.362,51.16z"/>
	<path fill="#FFFFFF" d="M241.131,73.598L167.522,0h10.335l62.96,62.948C241.078,66.498,241.175,70.048,241.131,73.598z"/>
	<path fill="#FFFFFF" d="M240.6,83.4c-0.294,3.05-0.705,6.089-1.227,9.107L146.865,0H157.2L240.6,83.4z"/>
	<path fill="#FFFFFF" d="M237.582,101.05c-0.673,2.692-1.434,5.385-2.29,8.044L126.198,0h10.333L237.582,101.05z"/>
	<path fill="#FFFFFF" d="M232.544,116.681c-0.965,2.422-2.018,4.82-3.147,7.188L105.528,0h10.335L232.544,116.681z"/>
	<path fill="#FFFFFF" d="M225.869,130.685c-1.216,2.182-2.507,4.331-3.875,6.448L84.861,0h10.334L225.869,130.685z"/>
	<path fill="#FFFFFF" d="M217.771,143.244c-1.444,1.976-2.953,3.907-4.537,5.796L64.192,0h10.334L217.771,143.244z"/>
	<path fill="#FFFFFF" d="M208.37,154.522c-0.824,0.879-1.67,1.748-2.54,2.616c-0.868,0.868-1.747,1.715-2.626,2.551L43.525,0h10.333
		L208.37,154.522z"/>
	<path fill="#FFFFFF" d="M197.732,164.542c-1.888,1.585-3.832,3.094-5.796,4.549L23.367,0.521c0.13-0.174,0.261-0.347,0.39-0.521
		h9.423L197.732,164.542z"/>
	<path fill="#FFFFFF" d="M15.267,13.085l164.101,164.102c2.186-1.221,4.335-2.516,6.451-3.884L19.149,6.633
		C17.781,8.75,16.487,10.9,15.267,13.085z"/>
	<path fill="#FFFFFF" d="M8.598,27.086l156.769,156.768c2.422-0.965,4.818-2.013,7.19-3.145L11.743,19.896
		C10.611,22.268,9.563,24.665,8.598,27.086z"/>
	<path fill="#FFFFFF" d="M3.563,42.711l146.178,146.176c2.702-0.663,5.38-1.431,8.036-2.287L5.853,34.675
		C4.996,37.333,4.229,40.01,3.563,42.711z"/>
	<path fill="#FFFFFF" d="M0.541,60.359L132.094,191.91c3.051-0.296,6.087-0.704,9.113-1.22L1.763,51.245
		C1.245,54.271,0.838,57.308,0.541,60.359z"/>
	<path fill="#FFFFFF" d="M0.325,80.813l111.315,111.315c3.548,0.261,7.097,0.362,10.649,0.313L0.012,70.162
		C-0.038,73.716,0.069,77.269,0.325,80.813z"/>
	<path fill="#FFFFFF" d="M4.933,106.087l81.432,81.434c4.444,1.314,8.947,2.361,13.484,3.149L1.781,92.604
		C2.57,97.141,3.618,101.644,4.933,106.087z"/>
	<path fill="#FFFFFF" d="M35.315,157.142c10.292,10.29,21.988,18.336,34.465,24.129l-58.598-58.598
		C16.979,135.153,25.021,146.847,35.315,157.142z"/>
</g>
</svg>
