<?xml version="1.0" encoding="utf-8"?>
<!-- Generator: Adobe Illustrator 16.0.3, SVG Export Plug-In . SVG Version: 6.00 Build 0)  -->
<!DOCTYPE svg PUBLIC "-//W3C//DTD SVG 1.1//EN" "http://www.w3.org/Graphics/SVG/1.1/DTD/svg11.dtd">
<svg version="1.1" id="圖層_1" xmlns="http://www.w3.org/2000/svg" xmlns:xlink="http://www.w3.org/1999/xlink" x="0px" y="0px"
	 width="179.919px" height="464.003px" viewBox="0 0 179.919 464.003" enable-background="new 0 0 179.919 464.003"
	 xml:space="preserve">
<g opacity="0.5">
	<circle fill="#A39C7D" cx="175.185" cy="4.735" r="4.735"/>
	<circle fill="#A39C7D" cx="175.185" cy="23.674" r="4.734"/>
	<circle fill="#A39C7D" cx="175.185" cy="42.613" r="4.734"/>
	<circle fill="#A39C7D" cx="175.185" cy="61.552" r="4.735"/>
	<circle fill="#A39C7D" cx="175.185" cy="80.491" r="4.735"/>
	<circle fill="#A39C7D" cx="175.185" cy="99.43" r="4.735"/>
	<circle fill="#A39C7D" cx="175.185" cy="118.369" r="4.735"/>
	<circle fill="#A39C7D" cx="175.185" cy="137.308" r="4.735"/>
	<circle fill="#A39C7D" cx="175.185" cy="156.246" r="4.734"/>
	<circle fill="#A39C7D" cx="175.185" cy="175.185" r="4.734"/>
	<circle fill="#A39C7D" cx="175.185" cy="194.124" r="4.735"/>
	<circle fill="#A39C7D" cx="175.185" cy="213.062" r="4.734"/>
	<circle fill="#A39C7D" cx="175.185" cy="232.001" r="4.734"/>
	<circle fill="#A39C7D" cx="175.185" cy="250.94" r="4.735"/>
	<circle fill="#A39C7D" cx="175.185" cy="269.879" r="4.735"/>
	<circle fill="#A39C7D" cx="175.185" cy="288.819" r="4.735"/>
	<circle fill="#A39C7D" cx="175.185" cy="307.757" r="4.734"/>
	<circle fill="#A39C7D" cx="175.185" cy="326.697" r="4.734"/>
	<circle fill="#A39C7D" cx="175.185" cy="345.635" r="4.735"/>
	<circle fill="#A39C7D" cx="175.185" cy="364.574" r="4.734"/>
	<circle fill="#A39C7D" cx="175.185" cy="383.512" r="4.735"/>
	<circle fill="#A39C7D" cx="175.185" cy="402.451" r="4.734"/>
	<circle fill="#A39C7D" cx="175.185" cy="421.39" r="4.734"/>
	<circle fill="#A39C7D" cx="175.185" cy="440.33" r="4.734"/>
	<circle fill="#A39C7D" cx="175.185" cy="459.268" r="4.735"/>
	<circle fill="#A39C7D" cx="156.246" cy="4.735" r="4.735"/>
	<circle fill="#A39C7D" cx="156.246" cy="23.674" r="4.734"/>
	<circle fill="#A39C7D" cx="156.246" cy="42.613" r="4.734"/>
	<circle fill="#A39C7D" cx="156.246" cy="61.552" r="4.735"/>
	<circle fill="#A39C7D" cx="156.246" cy="80.491" r="4.735"/>
	<circle fill="#A39C7D" cx="156.246" cy="99.43" r="4.735"/>
	<circle fill="#A39C7D" cx="156.246" cy="118.369" r="4.735"/>
	<circle fill="#A39C7D" cx="156.246" cy="137.308" r="4.735"/>
	<circle fill="#A39C7D" cx="156.246" cy="156.246" r="4.734"/>
	<circle fill="#A39C7D" cx="156.246" cy="175.185" r="4.734"/>
	<circle fill="#A39C7D" cx="156.246" cy="194.124" r="4.735"/>
	<circle fill="#A39C7D" cx="156.246" cy="213.062" r="4.734"/>
	<circle fill="#A39C7D" cx="156.246" cy="232.001" r="4.734"/>
	<circle fill="#A39C7D" cx="156.246" cy="250.94" r="4.735"/>
	<circle fill="#A39C7D" cx="156.246" cy="269.879" r="4.735"/>
	<circle fill="#A39C7D" cx="156.246" cy="288.819" r="4.735"/>
	<circle fill="#A39C7D" cx="156.246" cy="307.757" r="4.734"/>
	<circle fill="#A39C7D" cx="156.246" cy="326.697" r="4.734"/>
	<circle fill="#A39C7D" cx="156.246" cy="345.635" r="4.735"/>
	<circle fill="#A39C7D" cx="156.246" cy="364.574" r="4.734"/>
	<circle fill="#A39C7D" cx="156.246" cy="383.512" r="4.735"/>
	<circle fill="#A39C7D" cx="156.246" cy="402.451" r="4.734"/>
	<circle fill="#A39C7D" cx="156.246" cy="421.39" r="4.734"/>
	<circle fill="#A39C7D" cx="156.246" cy="440.33" r="4.734"/>
	<circle fill="#A39C7D" cx="156.246" cy="459.268" r="4.735"/>
	<circle fill="#A39C7D" cx="137.306" cy="4.735" r="4.735"/>
	<circle fill="#A39C7D" cx="137.306" cy="23.674" r="4.734"/>
	<circle fill="#A39C7D" cx="137.306" cy="42.613" r="4.734"/>
	<circle fill="#A39C7D" cx="137.306" cy="61.552" r="4.735"/>
	<circle fill="#A39C7D" cx="137.306" cy="80.491" r="4.735"/>
	<circle fill="#A39C7D" cx="137.306" cy="99.43" r="4.735"/>
	<circle fill="#A39C7D" cx="137.306" cy="118.369" r="4.735"/>
	<circle fill="#A39C7D" cx="137.306" cy="137.308" r="4.735"/>
	<circle fill="#A39C7D" cx="137.306" cy="156.246" r="4.734"/>
	<circle fill="#A39C7D" cx="137.306" cy="175.185" r="4.734"/>
	<circle fill="#A39C7D" cx="137.306" cy="194.124" r="4.735"/>
	<circle fill="#A39C7D" cx="137.306" cy="213.062" r="4.734"/>
	<circle fill="#A39C7D" cx="137.306" cy="232.001" r="4.734"/>
	<circle fill="#A39C7D" cx="137.306" cy="250.94" r="4.735"/>
	<circle fill="#A39C7D" cx="137.306" cy="269.879" r="4.735"/>
	<circle fill="#A39C7D" cx="137.306" cy="288.819" r="4.735"/>
	<circle fill="#A39C7D" cx="137.306" cy="307.757" r="4.734"/>
	<circle fill="#A39C7D" cx="137.306" cy="326.697" r="4.734"/>
	<circle fill="#A39C7D" cx="137.306" cy="345.635" r="4.735"/>
	<circle fill="#A39C7D" cx="137.306" cy="364.574" r="4.734"/>
	<circle fill="#A39C7D" cx="137.306" cy="383.512" r="4.735"/>
	<circle fill="#A39C7D" cx="137.306" cy="402.451" r="4.734"/>
	<circle fill="#A39C7D" cx="137.306" cy="421.39" r="4.734"/>
	<circle fill="#A39C7D" cx="137.306" cy="440.33" r="4.734"/>
	<circle fill="#A39C7D" cx="137.306" cy="459.268" r="4.735"/>
	<path fill="#A39C7D" d="M118.367,9.471c-2.613,0-4.732-2.12-4.732-4.735c0-2.614,2.119-4.735,4.732-4.735
		c2.617,0,4.736,2.121,4.736,4.735C123.103,7.351,120.984,9.471,118.367,9.471z"/>
	<path fill="#A39C7D" d="M118.367,28.408c-2.613,0-4.732-2.119-4.732-4.733c0-2.616,2.119-4.735,4.732-4.735
		c2.617,0,4.736,2.119,4.736,4.735C123.103,26.289,120.984,28.408,118.367,28.408z"/>
	<path fill="#A39C7D" d="M118.367,47.348c-2.613,0-4.732-2.119-4.732-4.734s2.119-4.734,4.732-4.734
		c2.617,0,4.736,2.119,4.736,4.734S120.984,47.348,118.367,47.348z"/>
	<path fill="#A39C7D" d="M118.367,66.287c-2.613,0-4.732-2.121-4.732-4.734c0-2.616,2.119-4.736,4.732-4.736
		c2.617,0,4.736,2.12,4.736,4.736C123.103,64.166,120.984,66.287,118.367,66.287z"/>
	<path fill="#A39C7D" d="M118.367,85.226c-2.613,0-4.732-2.12-4.732-4.733c0-2.616,2.119-4.736,4.732-4.736
		c2.617,0,4.736,2.12,4.736,4.736C123.103,83.105,120.984,85.226,118.367,85.226z"/>
	<path fill="#A39C7D" d="M118.367,104.165c-2.613,0-4.732-2.12-4.732-4.735c0-2.614,2.119-4.735,4.732-4.735
		c2.617,0,4.736,2.121,4.736,4.735C123.103,102.045,120.984,104.165,118.367,104.165z"/>
	<path fill="#A39C7D" d="M118.367,123.104c-2.613,0-4.732-2.12-4.732-4.734c0-2.615,2.119-4.735,4.732-4.735
		c2.617,0,4.736,2.12,4.736,4.735C123.103,120.983,120.984,123.104,118.367,123.104z"/>
	<path fill="#A39C7D" d="M118.367,142.043c-2.613,0-4.732-2.12-4.732-4.736c0-2.613,2.119-4.733,4.732-4.733
		c2.617,0,4.736,2.12,4.736,4.733C123.103,139.923,120.984,142.043,118.367,142.043z"/>
	<path fill="#A39C7D" d="M118.367,160.98c-2.613,0-4.732-2.119-4.732-4.734s2.119-4.734,4.732-4.734
		c2.617,0,4.736,2.119,4.736,4.734S120.984,160.98,118.367,160.98z"/>
	<path fill="#A39C7D" d="M118.367,179.919c-2.613,0-4.732-2.119-4.732-4.734s2.119-4.734,4.732-4.734
		c2.617,0,4.736,2.119,4.736,4.734S120.984,179.919,118.367,179.919z"/>
	<path fill="#A39C7D" d="M118.367,198.859c-2.613,0-4.732-2.119-4.732-4.734s2.119-4.736,4.732-4.736
		c2.617,0,4.736,2.121,4.736,4.736S120.984,198.859,118.367,198.859z"/>
	<path fill="#A39C7D" d="M118.367,217.796c-2.613,0-4.732-2.119-4.732-4.732c0-2.617,2.119-4.736,4.732-4.736
		c2.617,0,4.736,2.119,4.736,4.736C123.103,215.677,120.984,217.796,118.367,217.796z"/>
	<path fill="#A39C7D" d="M118.367,236.736c-2.613,0-4.732-2.119-4.732-4.734s2.119-4.734,4.732-4.734
		c2.617,0,4.736,2.119,4.736,4.734S120.984,236.736,118.367,236.736z"/>
	<path fill="#A39C7D" d="M118.367,255.675c-2.613,0-4.732-2.121-4.732-4.734c0-2.615,2.119-4.736,4.732-4.736
		c2.617,0,4.736,2.121,4.736,4.736C123.103,253.554,120.984,255.675,118.367,255.675z"/>
	<path fill="#A39C7D" d="M118.367,274.615c-2.613,0-4.732-2.121-4.732-4.734c0-2.615,2.119-4.736,4.732-4.736
		c2.617,0,4.736,2.121,4.736,4.736C123.103,272.494,120.984,274.615,118.367,274.615z"/>
	<path fill="#A39C7D" d="M118.367,293.554c-2.613,0-4.732-2.121-4.732-4.736c0-2.613,2.119-4.734,4.732-4.734
		c2.617,0,4.736,2.121,4.736,4.734C123.103,291.433,120.984,293.554,118.367,293.554z"/>
	<path fill="#A39C7D" d="M118.367,312.492c-2.613,0-4.732-2.119-4.732-4.734s2.119-4.734,4.732-4.734
		c2.617,0,4.736,2.119,4.736,4.734S120.984,312.492,118.367,312.492z"/>
	<path fill="#A39C7D" d="M118.367,331.431c-2.613,0-4.732-2.119-4.732-4.736c0-2.613,2.119-4.732,4.732-4.732
		c2.617,0,4.736,2.119,4.736,4.732C123.103,329.312,120.984,331.431,118.367,331.431z"/>
	<path fill="#A39C7D" d="M118.367,350.371c-2.613,0-4.732-2.121-4.732-4.736s2.119-4.734,4.732-4.734
		c2.617,0,4.736,2.119,4.736,4.734S120.984,350.371,118.367,350.371z"/>
	<path fill="#A39C7D" d="M118.367,369.308c-2.613,0-4.732-2.119-4.732-4.734s2.119-4.734,4.732-4.734
		c2.617,0,4.736,2.119,4.736,4.734S120.984,369.308,118.367,369.308z"/>
	<path fill="#A39C7D" d="M118.367,388.248c-2.613,0-4.732-2.119-4.732-4.734s2.119-4.736,4.732-4.736
		c2.617,0,4.736,2.121,4.736,4.736S120.984,388.248,118.367,388.248z"/>
	<path fill="#A39C7D" d="M118.367,407.185c-2.613,0-4.732-2.119-4.732-4.732c0-2.617,2.119-4.736,4.732-4.736
		c2.617,0,4.736,2.119,4.736,4.736C123.103,405.066,120.984,407.185,118.367,407.185z"/>
	<path fill="#A39C7D" d="M118.367,426.125c-2.613,0-4.732-2.119-4.732-4.734s2.119-4.734,4.732-4.734
		c2.617,0,4.736,2.119,4.736,4.734S120.984,426.125,118.367,426.125z"/>
	<path fill="#A39C7D" d="M118.367,445.064c-2.613,0-4.732-2.121-4.732-4.734c0-2.615,2.119-4.734,4.732-4.734
		c2.617,0,4.736,2.119,4.736,4.734C123.103,442.943,120.984,445.064,118.367,445.064z"/>
	<path fill="#A39C7D" d="M118.367,464.003c-2.613,0-4.732-2.121-4.732-4.734c0-2.615,2.119-4.736,4.732-4.736
		c2.617,0,4.736,2.121,4.736,4.736C123.103,461.882,120.984,464.003,118.367,464.003z"/>
	<circle fill="#A39C7D" cx="99.429" cy="4.735" r="4.735"/>
	<circle fill="#A39C7D" cx="99.429" cy="23.674" r="4.734"/>
	<circle fill="#A39C7D" cx="99.429" cy="42.613" r="4.734"/>
	<circle fill="#A39C7D" cx="99.429" cy="61.552" r="4.735"/>
	<circle fill="#A39C7D" cx="99.429" cy="80.491" r="4.735"/>
	<circle fill="#A39C7D" cx="99.429" cy="99.43" r="4.735"/>
	<circle fill="#A39C7D" cx="99.429" cy="118.369" r="4.735"/>
	<circle fill="#A39C7D" cx="99.429" cy="137.308" r="4.735"/>
	<circle fill="#A39C7D" cx="99.429" cy="156.246" r="4.734"/>
	<circle fill="#A39C7D" cx="99.429" cy="175.185" r="4.734"/>
	<circle fill="#A39C7D" cx="99.429" cy="194.124" r="4.735"/>
	<circle fill="#A39C7D" cx="99.429" cy="213.062" r="4.734"/>
	<circle fill="#A39C7D" cx="99.429" cy="232.001" r="4.734"/>
	<circle fill="#A39C7D" cx="99.429" cy="250.94" r="4.735"/>
	<circle fill="#A39C7D" cx="99.429" cy="269.879" r="4.735"/>
	<circle fill="#A39C7D" cx="99.429" cy="288.819" r="4.735"/>
	<circle fill="#A39C7D" cx="99.429" cy="307.757" r="4.734"/>
	<circle fill="#A39C7D" cx="99.429" cy="326.697" r="4.734"/>
	<circle fill="#A39C7D" cx="99.429" cy="345.635" r="4.735"/>
	<circle fill="#A39C7D" cx="99.429" cy="364.574" r="4.734"/>
	<circle fill="#A39C7D" cx="99.429" cy="383.512" r="4.735"/>
	<circle fill="#A39C7D" cx="99.429" cy="402.451" r="4.734"/>
	<circle fill="#A39C7D" cx="99.429" cy="421.39" r="4.734"/>
	<circle fill="#A39C7D" cx="99.429" cy="440.33" r="4.734"/>
	<circle fill="#A39C7D" cx="99.429" cy="459.268" r="4.735"/>
	<circle fill="#A39C7D" cx="80.49" cy="4.735" r="4.735"/>
	<circle fill="#A39C7D" cx="80.49" cy="23.674" r="4.734"/>
	<circle fill="#A39C7D" cx="80.49" cy="42.613" r="4.734"/>
	<circle fill="#A39C7D" cx="80.49" cy="61.552" r="4.735"/>
	<circle fill="#A39C7D" cx="80.49" cy="80.491" r="4.735"/>
	<circle fill="#A39C7D" cx="80.49" cy="99.43" r="4.735"/>
	<circle fill="#A39C7D" cx="80.49" cy="118.369" r="4.735"/>
	<circle fill="#A39C7D" cx="80.49" cy="137.308" r="4.735"/>
	<circle fill="#A39C7D" cx="80.49" cy="156.246" r="4.734"/>
	<circle fill="#A39C7D" cx="80.49" cy="175.185" r="4.734"/>
	<circle fill="#A39C7D" cx="80.49" cy="194.124" r="4.735"/>
	<circle fill="#A39C7D" cx="80.49" cy="213.062" r="4.734"/>
	<circle fill="#A39C7D" cx="80.49" cy="232.001" r="4.734"/>
	<circle fill="#A39C7D" cx="80.49" cy="250.94" r="4.735"/>
	<circle fill="#A39C7D" cx="80.49" cy="269.879" r="4.735"/>
	<circle fill="#A39C7D" cx="80.49" cy="288.819" r="4.735"/>
	<circle fill="#A39C7D" cx="80.49" cy="307.757" r="4.734"/>
	<circle fill="#A39C7D" cx="80.49" cy="326.697" r="4.734"/>
	<circle fill="#A39C7D" cx="80.49" cy="345.635" r="4.735"/>
	<circle fill="#A39C7D" cx="80.49" cy="364.574" r="4.734"/>
	<circle fill="#A39C7D" cx="80.49" cy="383.512" r="4.735"/>
	<circle fill="#A39C7D" cx="80.49" cy="402.451" r="4.734"/>
	<circle fill="#A39C7D" cx="80.49" cy="421.39" r="4.734"/>
	<circle fill="#A39C7D" cx="80.49" cy="440.33" r="4.734"/>
	<circle fill="#A39C7D" cx="80.49" cy="459.268" r="4.735"/>
	<circle fill="#A39C7D" cx="61.551" cy="4.735" r="4.735"/>
	<circle fill="#A39C7D" cx="61.551" cy="23.674" r="4.734"/>
	<circle fill="#A39C7D" cx="61.551" cy="42.613" r="4.734"/>
	<circle fill="#A39C7D" cx="61.551" cy="61.552" r="4.735"/>
	<circle fill="#A39C7D" cx="61.551" cy="80.491" r="4.735"/>
	<circle fill="#A39C7D" cx="61.551" cy="99.43" r="4.735"/>
	<circle fill="#A39C7D" cx="61.551" cy="118.369" r="4.735"/>
	<circle fill="#A39C7D" cx="61.551" cy="137.308" r="4.735"/>
	<circle fill="#A39C7D" cx="61.551" cy="156.246" r="4.734"/>
	<circle fill="#A39C7D" cx="61.551" cy="175.185" r="4.734"/>
	<circle fill="#A39C7D" cx="61.551" cy="194.124" r="4.735"/>
	<circle fill="#A39C7D" cx="61.551" cy="213.062" r="4.734"/>
	<circle fill="#A39C7D" cx="61.551" cy="232.001" r="4.734"/>
	<circle fill="#A39C7D" cx="61.551" cy="250.94" r="4.735"/>
	<circle fill="#A39C7D" cx="61.551" cy="269.879" r="4.735"/>
	<circle fill="#A39C7D" cx="61.551" cy="288.819" r="4.735"/>
	<circle fill="#A39C7D" cx="61.551" cy="307.757" r="4.734"/>
	<circle fill="#A39C7D" cx="61.551" cy="326.697" r="4.734"/>
	<circle fill="#A39C7D" cx="61.551" cy="345.635" r="4.735"/>
	<circle fill="#A39C7D" cx="61.551" cy="364.574" r="4.734"/>
	<circle fill="#A39C7D" cx="61.551" cy="383.512" r="4.735"/>
	<circle fill="#A39C7D" cx="61.551" cy="402.451" r="4.734"/>
	<circle fill="#A39C7D" cx="61.551" cy="421.39" r="4.734"/>
	<circle fill="#A39C7D" cx="61.551" cy="440.33" r="4.734"/>
	<circle fill="#A39C7D" cx="61.551" cy="459.268" r="4.735"/>
	<circle fill="#A39C7D" cx="42.612" cy="4.735" r="4.735"/>
	<circle fill="#A39C7D" cx="42.612" cy="23.674" r="4.734"/>
	<circle fill="#A39C7D" cx="42.612" cy="42.613" r="4.734"/>
	<circle fill="#A39C7D" cx="42.612" cy="61.552" r="4.735"/>
	<circle fill="#A39C7D" cx="42.612" cy="80.491" r="4.735"/>
	<circle fill="#A39C7D" cx="42.612" cy="99.43" r="4.735"/>
	<circle fill="#A39C7D" cx="42.612" cy="118.369" r="4.735"/>
	<circle fill="#A39C7D" cx="42.612" cy="137.308" r="4.735"/>
	<circle fill="#A39C7D" cx="42.612" cy="156.246" r="4.734"/>
	<circle fill="#A39C7D" cx="42.612" cy="175.185" r="4.734"/>
	<circle fill="#A39C7D" cx="42.612" cy="194.124" r="4.735"/>
	<circle fill="#A39C7D" cx="42.612" cy="213.062" r="4.734"/>
	<circle fill="#A39C7D" cx="42.612" cy="232.001" r="4.734"/>
	<circle fill="#A39C7D" cx="42.612" cy="250.94" r="4.735"/>
	<circle fill="#A39C7D" cx="42.612" cy="269.879" r="4.735"/>
	<circle fill="#A39C7D" cx="42.612" cy="288.819" r="4.735"/>
	<circle fill="#A39C7D" cx="42.612" cy="307.757" r="4.734"/>
	<circle fill="#A39C7D" cx="42.612" cy="326.697" r="4.734"/>
	<circle fill="#A39C7D" cx="42.612" cy="345.635" r="4.735"/>
	<circle fill="#A39C7D" cx="42.612" cy="364.574" r="4.734"/>
	<circle fill="#A39C7D" cx="42.612" cy="383.512" r="4.735"/>
	<circle fill="#A39C7D" cx="42.612" cy="402.451" r="4.734"/>
	<circle fill="#A39C7D" cx="42.612" cy="421.39" r="4.734"/>
	<circle fill="#A39C7D" cx="42.612" cy="440.33" r="4.734"/>
	<circle fill="#A39C7D" cx="42.612" cy="459.268" r="4.735"/>
	<circle fill="#A39C7D" cx="23.673" cy="4.735" r="4.735"/>
	<circle fill="#A39C7D" cx="23.673" cy="23.674" r="4.734"/>
	<circle fill="#A39C7D" cx="23.673" cy="42.613" r="4.734"/>
	<circle fill="#A39C7D" cx="23.673" cy="61.552" r="4.735"/>
	<circle fill="#A39C7D" cx="23.673" cy="80.491" r="4.735"/>
	<circle fill="#A39C7D" cx="23.673" cy="99.43" r="4.735"/>
	<circle fill="#A39C7D" cx="23.673" cy="118.369" r="4.735"/>
	<circle fill="#A39C7D" cx="23.673" cy="137.308" r="4.735"/>
	<circle fill="#A39C7D" cx="23.673" cy="156.246" r="4.734"/>
	<circle fill="#A39C7D" cx="23.673" cy="175.185" r="4.734"/>
	<circle fill="#A39C7D" cx="23.673" cy="194.124" r="4.735"/>
	<circle fill="#A39C7D" cx="23.673" cy="213.062" r="4.734"/>
	<circle fill="#A39C7D" cx="23.673" cy="232.001" r="4.734"/>
	<circle fill="#A39C7D" cx="23.673" cy="250.94" r="4.735"/>
	<circle fill="#A39C7D" cx="23.673" cy="269.879" r="4.735"/>
	<circle fill="#A39C7D" cx="23.673" cy="288.819" r="4.735"/>
	<circle fill="#A39C7D" cx="23.673" cy="307.757" r="4.734"/>
	<circle fill="#A39C7D" cx="23.673" cy="326.697" r="4.734"/>
	<circle fill="#A39C7D" cx="23.673" cy="345.635" r="4.735"/>
	<circle fill="#A39C7D" cx="23.673" cy="364.574" r="4.734"/>
	<circle fill="#A39C7D" cx="23.673" cy="383.512" r="4.735"/>
	<circle fill="#A39C7D" cx="23.673" cy="402.451" r="4.734"/>
	<circle fill="#A39C7D" cx="23.673" cy="421.39" r="4.734"/>
	<circle fill="#A39C7D" cx="23.673" cy="440.33" r="4.734"/>
	<circle fill="#A39C7D" cx="23.673" cy="459.268" r="4.735"/>
	<circle fill="#A39C7D" cx="4.735" cy="4.735" r="4.735"/>
	<circle fill="#A39C7D" cx="4.735" cy="23.674" r="4.734"/>
	<circle fill="#A39C7D" cx="4.735" cy="42.613" r="4.734"/>
	<circle fill="#A39C7D" cx="4.735" cy="61.552" r="4.735"/>
	<circle fill="#A39C7D" cx="4.735" cy="80.491" r="4.735"/>
	<circle fill="#A39C7D" cx="4.735" cy="99.43" r="4.735"/>
	<circle fill="#A39C7D" cx="4.735" cy="118.369" r="4.735"/>
	<circle fill="#A39C7D" cx="4.735" cy="137.308" r="4.735"/>
	<circle fill="#A39C7D" cx="4.735" cy="156.246" r="4.734"/>
	<circle fill="#A39C7D" cx="4.735" cy="175.185" r="4.734"/>
	<circle fill="#A39C7D" cx="4.735" cy="194.124" r="4.735"/>
	<circle fill="#A39C7D" cx="4.735" cy="213.062" r="4.734"/>
	<circle fill="#A39C7D" cx="4.735" cy="232.001" r="4.734"/>
	<circle fill="#A39C7D" cx="4.735" cy="250.94" r="4.735"/>
	<circle fill="#A39C7D" cx="4.735" cy="269.879" r="4.735"/>
	<circle fill="#A39C7D" cx="4.735" cy="288.819" r="4.735"/>
	<circle fill="#A39C7D" cx="4.735" cy="307.757" r="4.734"/>
	<circle fill="#A39C7D" cx="4.735" cy="326.697" r="4.734"/>
	<circle fill="#A39C7D" cx="4.735" cy="345.635" r="4.735"/>
	<circle fill="#A39C7D" cx="4.735" cy="364.574" r="4.734"/>
	<circle fill="#A39C7D" cx="4.735" cy="383.512" r="4.735"/>
	<circle fill="#A39C7D" cx="4.735" cy="402.451" r="4.734"/>
	<circle fill="#A39C7D" cx="4.735" cy="421.39" r="4.734"/>
	<circle fill="#A39C7D" cx="4.735" cy="440.33" r="4.734"/>
	<circle fill="#A39C7D" cx="4.735" cy="459.268" r="4.735"/>
</g>
</svg>
