<?xml version="1.0" encoding="utf-8"?>
<!-- Generator: Adobe Illustrator 16.0.3, SVG Export Plug-In . SVG Version: 6.00 Build 0)  -->
<!DOCTYPE svg PUBLIC "-//W3C//DTD SVG 1.1//EN" "http://www.w3.org/Graphics/SVG/1.1/DTD/svg11.dtd">
<svg version="1.1" id="圖層_1" xmlns="http://www.w3.org/2000/svg" xmlns:xlink="http://www.w3.org/1999/xlink" x="0px" y="0px"
	 width="222.139px" height="222.137px" viewBox="0 0 222.139 222.137" enable-background="new 0 0 222.139 222.137"
	 xml:space="preserve">
<g opacity="0.6">
	<path fill="#FFFFFF" d="M211.833,64.27l-53.966-53.967c11.49,5.34,22.26,12.742,31.742,22.225
		C199.091,42.011,206.496,52.78,211.833,64.27z"/>
	<path fill="#FFFFFF" d="M220.496,91.967L130.17,1.641c4.172,0.722,8.315,1.685,12.402,2.886l75.031,75.031
		C218.813,83.652,219.775,87.795,220.496,91.967z"/>
	<path fill="#FFFFFF" d="M222.123,112.643L109.495,0.015c3.268-0.056,6.548,0.042,9.814,0.283l102.529,102.53
		C222.08,106.096,222.179,109.376,222.123,112.643z"/>
	<path fill="#FFFFFF" d="M220.51,130.067L92.071,1.627c2.779-0.488,5.587-0.863,8.394-1.124l121.17,121.169
		C221.373,124.481,220.998,127.288,220.51,130.067z"/>
	<path fill="#FFFFFF" d="M216.749,145.34L76.797,5.389c2.447-0.792,4.915-1.492,7.411-2.106l134.647,134.646
		C218.241,140.425,217.541,142.893,216.749,145.34z"/>
	<path fill="#FFFFFF" d="M69.804,7.928l54.377,54.376c-3.67-0.982-7.433-1.548-11.208-1.69L63.186,10.827
		C65.357,9.774,67.563,8.812,69.804,7.928z"/>
	<path fill="#FFFFFF" d="M211.311,158.952l-49.788-49.787c-0.143-3.775-0.707-7.538-1.689-11.208l54.376,54.377
		C213.326,154.575,212.364,156.781,211.311,158.952z"/>
	<path fill="#FFFFFF" d="M56.907,14.065l47.016,47.017c-2.623,0.375-5.226,0.955-7.771,1.747L50.967,17.643
		C52.912,16.377,54.891,15.19,56.907,14.065z"/>
	<path fill="#FFFFFF" d="M204.495,171.17l-45.185-45.185c0.792-2.546,1.372-5.147,1.746-7.771l47.016,47.016
		C206.948,167.247,205.76,169.226,204.495,171.17z"/>
	<path fill="#FFFFFF" d="M45.332,21.526L89.3,65.494c-2.086,0.997-4.107,2.143-6.065,3.449L40,25.711
		C41.739,24.254,43.521,22.855,45.332,21.526z"/>
	<path fill="#FFFFFF" d="M196.426,182.137l-43.231-43.232c1.308-1.958,2.453-3.979,3.45-6.065l43.968,43.968
		C199.283,178.616,197.882,180.399,196.426,182.137z"/>
	<path fill="#FFFFFF" d="M77.831,73.074c-0.842,0.728-1.662,1.491-2.461,2.29c-0.799,0.8-1.57,1.627-2.299,2.469L30.192,34.954
		c0.764-0.82,1.542-1.627,2.341-2.427c0.792-0.791,1.599-1.568,2.419-2.333L77.831,73.074z"/>
	<path fill="#FFFFFF" d="M189.61,189.605c-0.8,0.799-1.605,1.577-2.426,2.341l-42.879-42.879c0.842-0.729,1.669-1.5,2.468-2.299
		s1.563-1.619,2.291-2.461l42.879,42.879C191.179,188.006,190.402,188.813,189.61,189.605z"/>
	<path fill="#FFFFFF" d="M68.942,83.221c-1.301,1.965-2.447,3.987-3.443,6.073L21.53,45.327c1.337-1.816,2.729-3.593,4.187-5.332
		L68.942,83.221z"/>
	<path fill="#FFFFFF" d="M182.142,196.421c-1.739,1.456-3.515,2.85-5.331,4.187l-43.969-43.969c2.087-0.996,4.108-2.143,6.074-3.443
		L182.142,196.421z"/>
	<path fill="#FFFFFF" d="M62.826,96.139c-0.785,2.553-1.365,5.155-1.74,7.778L14.07,56.902c1.125-2.015,2.313-3.994,3.578-5.938
		L62.826,96.139z"/>
	<path fill="#FFFFFF" d="M171.175,204.489c-1.943,1.268-3.925,2.454-5.938,3.578l-47.016-47.016
		c2.623-0.374,5.226-0.954,7.777-1.738L171.175,204.489z"/>
	<path fill="#FFFFFF" d="M60.626,112.99c0.143,3.776,0.7,7.53,1.684,11.2L7.925,69.807c0.885-2.242,1.854-4.44,2.899-6.619
		L60.626,112.99z"/>
	<path fill="#FFFFFF" d="M158.95,211.313c-2.178,1.047-4.377,2.017-6.619,2.899l-54.383-54.384c3.67,0.981,7.424,1.541,11.2,1.683
		L158.95,211.313z"/>
	<path fill="#FFFFFF" d="M145.344,216.744c-2.446,0.792-4.922,1.499-7.403,2.113L3.28,84.196c0.615-2.48,1.322-4.956,2.114-7.401
		L145.344,216.744z"/>
	<path fill="#FFFFFF" d="M130.079,220.512c-2.786,0.48-5.586,0.863-8.394,1.125L0.5,100.453c0.263-2.809,0.645-5.607,1.125-8.395
		L130.079,220.512z"/>
	<path fill="#FFFFFF" d="M112.641,222.125c-3.261,0.05-6.534-0.042-9.802-0.282L0.295,119.297c-0.239-3.269-0.332-6.541-0.281-9.801
		L112.641,222.125z"/>
	<path fill="#FFFFFF" d="M91.979,220.499c-4.172-0.723-8.315-1.685-12.402-2.886l-75.06-75.06c-1.194-4.08-2.156-8.224-2.878-12.396
		L91.979,220.499z"/>
	<path fill="#FFFFFF" d="M64.296,211.85c-11.505-5.338-22.28-12.749-31.771-22.238c-9.49-9.488-16.907-20.271-22.238-31.771
		L64.296,211.85z"/>
	<path fill="#FFFFFF" d="M119.831,115.074c-0.842,0.728-1.662,1.491-2.461,2.29c-0.799,0.8-1.57,1.627-2.299,2.469L72.192,76.954
		c0.764-0.82,1.542-1.627,2.341-2.427c0.792-0.791,1.599-1.568,2.419-2.333L119.831,115.074z"/>
	<path fill="#FFFFFF" d="M152.268,147.516c-0.842,0.728-1.662,1.491-2.461,2.29c-0.799,0.8-1.57,1.627-2.299,2.469l-42.879-42.879
		c0.764-0.82,1.542-1.627,2.341-2.427c0.792-0.791,1.599-1.568,2.419-2.333L152.268,147.516z"/>
	<path fill="#FFFFFF" d="M109.822,124.079c-0.841,0.728-1.661,1.491-2.459,2.29c-0.798,0.8-1.57,1.627-2.298,2.469L62.187,85.957
		c0.764-0.82,1.542-1.627,2.341-2.427c0.792-0.791,1.599-1.568,2.419-2.333L109.822,124.079z"/>
	<path fill="#FFFFFF" d="M142.259,156.521c-0.842,0.728-1.662,1.491-2.461,2.29c-0.799,0.8-1.57,1.627-2.299,2.469l-42.874-42.879
		c0.764-0.82,1.542-1.627,2.341-2.427c0.792-0.792,1.599-1.569,2.419-2.334L142.259,156.521z"/>
	<path fill="#FFFFFF" d="M129.833,106.066c-0.842,0.728-1.662,1.491-2.461,2.29c-0.799,0.8-1.57,1.627-2.299,2.469L82.2,67.947
		c0.764-0.82,1.542-1.627,2.341-2.427c0.792-0.791,1.599-1.568,2.419-2.333L129.833,106.066z"/>
	<path fill="#FFFFFF" d="M162.27,138.507c-0.842,0.728-1.662,1.491-2.461,2.29c-0.799,0.8-1.57,1.627-2.299,2.469l-42.879-42.878
		c0.764-0.82,1.542-1.626,2.341-2.426c0.792-0.791,1.599-1.568,2.419-2.333L162.27,138.507z"/>
	<path fill="#FFFFFF" d="M133.841,91.056c-0.842,0.728-1.662,1.491-2.461,2.29c-0.799,0.8-1.57,1.627-2.299,2.469L86.2,52.936
		c0.764-0.82,1.542-1.627,2.341-2.427c0.792-0.791,1.599-1.568,2.419-2.333L133.841,91.056z"/>
	<path fill="#FFFFFF" d="M166.278,123.499c-0.842,0.729-1.662,1.492-2.461,2.291c-0.799,0.8-1.57,1.627-2.299,2.469l-42.881-42.881
		c0.764-0.82,1.542-1.627,2.341-2.427c0.792-0.791,1.6-1.568,2.42-2.333L166.278,123.499z"/>
	<path fill="#FFFFFF" d="M141.844,80.05c-0.842,0.728-1.662,1.491-2.461,2.29c-0.799,0.8-1.57,1.627-2.299,2.469L94.206,41.929
		c0.764-0.82,1.542-1.627,2.341-2.427c0.792-0.791,1.599-1.568,2.419-2.333L141.844,80.05z"/>
	<path fill="#FFFFFF" d="M174.282,112.492c-0.842,0.728-1.662,1.491-2.461,2.29c-0.799,0.8-1.57,1.627-2.299,2.469l-42.879-42.88
		c0.764-0.82,1.542-1.627,2.341-2.427c0.792-0.791,1.599-1.568,2.419-2.333L174.282,112.492z"/>
	<path fill="#FFFFFF" d="M104.822,138.085c-0.842,0.728-1.662,1.491-2.461,2.29c-0.799,0.8-1.57,1.627-2.299,2.469L57.183,99.967
		c0.764-0.82,1.542-1.627,2.341-2.427c0.792-0.791,1.599-1.568,2.419-2.333L104.822,138.085z"/>
	<path fill="#FFFFFF" d="M137.258,170.527c-0.842,0.728-1.662,1.491-2.461,2.29c-0.799,0.8-1.57,1.627-2.299,2.469l-42.877-42.879
		c0.764-0.82,1.542-1.627,2.341-2.427c0.792-0.791,1.599-1.568,2.419-2.333L137.258,170.527z"/>
	<path fill="#FFFFFF" d="M98.818,151.094c-0.842,0.728-1.662,1.491-2.461,2.29c-0.799,0.8-1.57,1.627-2.299,2.469l-42.879-42.878
		c0.764-0.82,1.542-1.627,2.341-2.427c0.792-0.791,1.599-1.568,2.419-2.333L98.818,151.094z"/>
	<path fill="#FFFFFF" d="M131.256,183.535c-0.842,0.728-1.662,1.491-2.461,2.29c-0.799,0.8-1.57,1.627-2.299,2.469l-42.879-42.879
		c0.764-0.82,1.542-1.627,2.341-2.427c0.792-0.791,1.599-1.568,2.419-2.333L131.256,183.535z"/>
</g>
</svg>
