<?xml version="1.0" encoding="utf-8"?>
<!-- Generator: Adobe Illustrator 16.0.3, SVG Export Plug-In . SVG Version: 6.00 Build 0)  -->
<!DOCTYPE svg PUBLIC "-//W3C//DTD SVG 1.1//EN" "http://www.w3.org/Graphics/SVG/1.1/DTD/svg11.dtd">
<svg version="1.1" id="圖層_1" xmlns="http://www.w3.org/2000/svg" xmlns:xlink="http://www.w3.org/1999/xlink" x="0px" y="0px"
	 width="464.003px" height="179.92px" viewBox="0 0 464.003 179.92" enable-background="new 0 0 464.003 179.92"
	 xml:space="preserve">
<g opacity="0.5">
	<circle fill="#A39C7D" cx="4.735" cy="4.735" r="4.735"/>
	<circle fill="#A39C7D" cx="23.674" cy="4.735" r="4.734"/>
	<circle fill="#A39C7D" cx="42.613" cy="4.735" r="4.734"/>
	<circle fill="#A39C7D" cx="61.552" cy="4.735" r="4.735"/>
	<circle fill="#A39C7D" cx="80.491" cy="4.735" r="4.735"/>
	<circle fill="#A39C7D" cx="99.43" cy="4.735" r="4.735"/>
	<circle fill="#A39C7D" cx="118.369" cy="4.735" r="4.735"/>
	<circle fill="#A39C7D" cx="137.308" cy="4.735" r="4.735"/>
	<circle fill="#A39C7D" cx="156.246" cy="4.735" r="4.734"/>
	<circle fill="#A39C7D" cx="175.186" cy="4.735" r="4.734"/>
	<circle fill="#A39C7D" cx="194.124" cy="4.735" r="4.735"/>
	<circle fill="#A39C7D" cx="213.063" cy="4.735" r="4.734"/>
	<circle fill="#A39C7D" cx="232.002" cy="4.735" r="4.734"/>
	<circle fill="#A39C7D" cx="250.94" cy="4.735" r="4.735"/>
	<circle fill="#A39C7D" cx="269.879" cy="4.735" r="4.735"/>
	<circle fill="#A39C7D" cx="288.819" cy="4.735" r="4.735"/>
	<circle fill="#A39C7D" cx="307.757" cy="4.735" r="4.735"/>
	<circle fill="#A39C7D" cx="326.697" cy="4.735" r="4.735"/>
	<circle fill="#A39C7D" cx="345.636" cy="4.735" r="4.735"/>
	<circle fill="#A39C7D" cx="364.574" cy="4.735" r="4.734"/>
	<circle fill="#A39C7D" cx="383.513" cy="4.735" r="4.735"/>
	<circle fill="#A39C7D" cx="402.451" cy="4.735" r="4.734"/>
	<circle fill="#A39C7D" cx="421.391" cy="4.735" r="4.734"/>
	<circle fill="#A39C7D" cx="440.33" cy="4.735" r="4.735"/>
	<circle fill="#A39C7D" cx="459.268" cy="4.735" r="4.735"/>
	<circle fill="#A39C7D" cx="4.735" cy="23.674" r="4.735"/>
	<circle fill="#A39C7D" cx="23.674" cy="23.674" r="4.734"/>
	<circle fill="#A39C7D" cx="42.613" cy="23.674" r="4.734"/>
	<circle fill="#A39C7D" cx="61.552" cy="23.674" r="4.735"/>
	<circle fill="#A39C7D" cx="80.491" cy="23.674" r="4.735"/>
	<circle fill="#A39C7D" cx="99.43" cy="23.674" r="4.735"/>
	<circle fill="#A39C7D" cx="118.369" cy="23.674" r="4.735"/>
	<circle fill="#A39C7D" cx="137.308" cy="23.674" r="4.735"/>
	<circle fill="#A39C7D" cx="156.246" cy="23.674" r="4.734"/>
	<circle fill="#A39C7D" cx="175.186" cy="23.674" r="4.734"/>
	<circle fill="#A39C7D" cx="194.124" cy="23.674" r="4.735"/>
	<circle fill="#A39C7D" cx="213.063" cy="23.674" r="4.734"/>
	<circle fill="#A39C7D" cx="232.002" cy="23.674" r="4.734"/>
	<circle fill="#A39C7D" cx="250.94" cy="23.674" r="4.735"/>
	<circle fill="#A39C7D" cx="269.879" cy="23.674" r="4.735"/>
	<circle fill="#A39C7D" cx="288.819" cy="23.674" r="4.735"/>
	<circle fill="#A39C7D" cx="307.757" cy="23.674" r="4.735"/>
	<circle fill="#A39C7D" cx="326.697" cy="23.674" r="4.735"/>
	<circle fill="#A39C7D" cx="345.636" cy="23.674" r="4.735"/>
	<circle fill="#A39C7D" cx="364.574" cy="23.674" r="4.734"/>
	<circle fill="#A39C7D" cx="383.513" cy="23.674" r="4.735"/>
	<circle fill="#A39C7D" cx="402.451" cy="23.674" r="4.734"/>
	<circle fill="#A39C7D" cx="421.391" cy="23.674" r="4.734"/>
	<circle fill="#A39C7D" cx="440.33" cy="23.674" r="4.735"/>
	<circle fill="#A39C7D" cx="459.268" cy="23.674" r="4.735"/>
	<circle fill="#A39C7D" cx="4.735" cy="42.613" r="4.735"/>
	<circle fill="#A39C7D" cx="23.674" cy="42.613" r="4.734"/>
	<circle fill="#A39C7D" cx="42.613" cy="42.613" r="4.734"/>
	<circle fill="#A39C7D" cx="61.552" cy="42.613" r="4.735"/>
	<circle fill="#A39C7D" cx="80.491" cy="42.613" r="4.735"/>
	<circle fill="#A39C7D" cx="99.43" cy="42.613" r="4.735"/>
	<circle fill="#A39C7D" cx="118.369" cy="42.613" r="4.735"/>
	<circle fill="#A39C7D" cx="137.308" cy="42.613" r="4.735"/>
	<circle fill="#A39C7D" cx="156.246" cy="42.613" r="4.734"/>
	<circle fill="#A39C7D" cx="175.186" cy="42.613" r="4.734"/>
	<circle fill="#A39C7D" cx="194.124" cy="42.613" r="4.735"/>
	<circle fill="#A39C7D" cx="213.063" cy="42.613" r="4.734"/>
	<circle fill="#A39C7D" cx="232.002" cy="42.613" r="4.734"/>
	<circle fill="#A39C7D" cx="250.94" cy="42.613" r="4.735"/>
	<circle fill="#A39C7D" cx="269.879" cy="42.613" r="4.735"/>
	<circle fill="#A39C7D" cx="288.819" cy="42.613" r="4.735"/>
	<circle fill="#A39C7D" cx="307.757" cy="42.613" r="4.735"/>
	<circle fill="#A39C7D" cx="326.697" cy="42.613" r="4.735"/>
	<circle fill="#A39C7D" cx="345.636" cy="42.613" r="4.735"/>
	<circle fill="#A39C7D" cx="364.574" cy="42.613" r="4.734"/>
	<circle fill="#A39C7D" cx="383.513" cy="42.613" r="4.735"/>
	<circle fill="#A39C7D" cx="402.451" cy="42.613" r="4.734"/>
	<circle fill="#A39C7D" cx="421.391" cy="42.613" r="4.734"/>
	<circle fill="#A39C7D" cx="440.33" cy="42.613" r="4.735"/>
	<circle fill="#A39C7D" cx="459.268" cy="42.613" r="4.735"/>
	<circle fill="#A39C7D" cx="4.735" cy="61.553" r="4.735"/>
	<circle fill="#A39C7D" cx="23.674" cy="61.553" r="4.734"/>
	<circle fill="#A39C7D" cx="42.613" cy="61.553" r="4.734"/>
	<circle fill="#A39C7D" cx="61.552" cy="61.553" r="4.735"/>
	<circle fill="#A39C7D" cx="80.491" cy="61.553" r="4.735"/>
	<circle fill="#A39C7D" cx="99.43" cy="61.553" r="4.735"/>
	<circle fill="#A39C7D" cx="118.369" cy="61.553" r="4.735"/>
	<circle fill="#A39C7D" cx="137.308" cy="61.553" r="4.735"/>
	<circle fill="#A39C7D" cx="156.246" cy="61.553" r="4.734"/>
	<circle fill="#A39C7D" cx="175.186" cy="61.553" r="4.734"/>
	<circle fill="#A39C7D" cx="194.124" cy="61.553" r="4.735"/>
	<circle fill="#A39C7D" cx="213.063" cy="61.553" r="4.734"/>
	<circle fill="#A39C7D" cx="232.002" cy="61.553" r="4.734"/>
	<circle fill="#A39C7D" cx="250.94" cy="61.553" r="4.735"/>
	<circle fill="#A39C7D" cx="269.879" cy="61.553" r="4.735"/>
	<circle fill="#A39C7D" cx="288.819" cy="61.553" r="4.735"/>
	<circle fill="#A39C7D" cx="307.757" cy="61.553" r="4.735"/>
	<circle fill="#A39C7D" cx="326.697" cy="61.553" r="4.735"/>
	<circle fill="#A39C7D" cx="345.636" cy="61.553" r="4.735"/>
	<circle fill="#A39C7D" cx="364.574" cy="61.553" r="4.734"/>
	<circle fill="#A39C7D" cx="383.513" cy="61.553" r="4.735"/>
	<circle fill="#A39C7D" cx="402.451" cy="61.553" r="4.734"/>
	<circle fill="#A39C7D" cx="421.391" cy="61.553" r="4.734"/>
	<circle fill="#A39C7D" cx="440.33" cy="61.553" r="4.735"/>
	<circle fill="#A39C7D" cx="459.268" cy="61.553" r="4.735"/>
	<circle fill="#A39C7D" cx="4.735" cy="80.49" r="4.735"/>
	<circle fill="#A39C7D" cx="23.674" cy="80.49" r="4.734"/>
	<circle fill="#A39C7D" cx="42.613" cy="80.49" r="4.734"/>
	<circle fill="#A39C7D" cx="61.552" cy="80.49" r="4.735"/>
	<circle fill="#A39C7D" cx="80.491" cy="80.49" r="4.735"/>
	<circle fill="#A39C7D" cx="99.43" cy="80.49" r="4.735"/>
	<circle fill="#A39C7D" cx="118.369" cy="80.49" r="4.735"/>
	<circle fill="#A39C7D" cx="137.308" cy="80.49" r="4.735"/>
	<circle fill="#A39C7D" cx="156.246" cy="80.49" r="4.734"/>
	<circle fill="#A39C7D" cx="175.186" cy="80.49" r="4.734"/>
	<circle fill="#A39C7D" cx="194.124" cy="80.49" r="4.735"/>
	<circle fill="#A39C7D" cx="213.063" cy="80.49" r="4.734"/>
	<circle fill="#A39C7D" cx="232.002" cy="80.49" r="4.734"/>
	<circle fill="#A39C7D" cx="250.94" cy="80.49" r="4.735"/>
	<circle fill="#A39C7D" cx="269.879" cy="80.49" r="4.735"/>
	<circle fill="#A39C7D" cx="288.819" cy="80.49" r="4.735"/>
	<circle fill="#A39C7D" cx="307.757" cy="80.49" r="4.735"/>
	<circle fill="#A39C7D" cx="326.697" cy="80.49" r="4.735"/>
	<circle fill="#A39C7D" cx="345.636" cy="80.49" r="4.735"/>
	<circle fill="#A39C7D" cx="364.574" cy="80.49" r="4.734"/>
	<circle fill="#A39C7D" cx="383.513" cy="80.49" r="4.735"/>
	<circle fill="#A39C7D" cx="402.451" cy="80.49" r="4.734"/>
	<circle fill="#A39C7D" cx="421.391" cy="80.49" r="4.734"/>
	<circle fill="#A39C7D" cx="440.33" cy="80.49" r="4.735"/>
	<circle fill="#A39C7D" cx="459.268" cy="80.49" r="4.735"/>
	<circle fill="#A39C7D" cx="4.735" cy="99.43" r="4.735"/>
	<circle fill="#A39C7D" cx="23.674" cy="99.43" r="4.734"/>
	<circle fill="#A39C7D" cx="42.613" cy="99.43" r="4.734"/>
	<circle fill="#A39C7D" cx="61.552" cy="99.43" r="4.735"/>
	<circle fill="#A39C7D" cx="80.491" cy="99.43" r="4.735"/>
	<circle fill="#A39C7D" cx="99.43" cy="99.43" r="4.735"/>
	<circle fill="#A39C7D" cx="118.369" cy="99.43" r="4.735"/>
	<circle fill="#A39C7D" cx="137.308" cy="99.43" r="4.735"/>
	<circle fill="#A39C7D" cx="156.246" cy="99.43" r="4.734"/>
	<circle fill="#A39C7D" cx="175.186" cy="99.43" r="4.734"/>
	<circle fill="#A39C7D" cx="194.124" cy="99.43" r="4.735"/>
	<circle fill="#A39C7D" cx="213.063" cy="99.43" r="4.734"/>
	<circle fill="#A39C7D" cx="232.002" cy="99.43" r="4.734"/>
	<circle fill="#A39C7D" cx="250.94" cy="99.43" r="4.735"/>
	<circle fill="#A39C7D" cx="269.879" cy="99.43" r="4.735"/>
	<circle fill="#A39C7D" cx="288.819" cy="99.43" r="4.735"/>
	<circle fill="#A39C7D" cx="307.757" cy="99.43" r="4.735"/>
	<circle fill="#A39C7D" cx="326.697" cy="99.43" r="4.735"/>
	<circle fill="#A39C7D" cx="345.636" cy="99.43" r="4.735"/>
	<circle fill="#A39C7D" cx="364.574" cy="99.43" r="4.734"/>
	<circle fill="#A39C7D" cx="383.513" cy="99.43" r="4.735"/>
	<circle fill="#A39C7D" cx="402.451" cy="99.43" r="4.734"/>
	<circle fill="#A39C7D" cx="421.391" cy="99.43" r="4.734"/>
	<circle fill="#A39C7D" cx="440.33" cy="99.43" r="4.735"/>
	<circle fill="#A39C7D" cx="459.268" cy="99.43" r="4.735"/>
	<circle fill="#A39C7D" cx="4.735" cy="118.369" r="4.735"/>
	<circle fill="#A39C7D" cx="23.674" cy="118.369" r="4.734"/>
	<circle fill="#A39C7D" cx="42.613" cy="118.369" r="4.734"/>
	<circle fill="#A39C7D" cx="61.552" cy="118.369" r="4.735"/>
	<circle fill="#A39C7D" cx="80.491" cy="118.369" r="4.735"/>
	<circle fill="#A39C7D" cx="99.43" cy="118.369" r="4.735"/>
	<circle fill="#A39C7D" cx="118.369" cy="118.369" r="4.735"/>
	<circle fill="#A39C7D" cx="137.308" cy="118.369" r="4.735"/>
	<circle fill="#A39C7D" cx="156.246" cy="118.369" r="4.734"/>
	<circle fill="#A39C7D" cx="175.186" cy="118.369" r="4.734"/>
	<circle fill="#A39C7D" cx="194.124" cy="118.369" r="4.735"/>
	<circle fill="#A39C7D" cx="213.063" cy="118.369" r="4.734"/>
	<circle fill="#A39C7D" cx="232.002" cy="118.369" r="4.734"/>
	<circle fill="#A39C7D" cx="250.94" cy="118.369" r="4.735"/>
	<circle fill="#A39C7D" cx="269.879" cy="118.369" r="4.735"/>
	<circle fill="#A39C7D" cx="288.819" cy="118.369" r="4.735"/>
	<circle fill="#A39C7D" cx="307.757" cy="118.369" r="4.735"/>
	<circle fill="#A39C7D" cx="326.697" cy="118.369" r="4.735"/>
	<circle fill="#A39C7D" cx="345.636" cy="118.369" r="4.735"/>
	<circle fill="#A39C7D" cx="364.574" cy="118.369" r="4.734"/>
	<circle fill="#A39C7D" cx="383.513" cy="118.369" r="4.735"/>
	<circle fill="#A39C7D" cx="402.451" cy="118.369" r="4.734"/>
	<circle fill="#A39C7D" cx="421.391" cy="118.369" r="4.734"/>
	<circle fill="#A39C7D" cx="440.33" cy="118.369" r="4.735"/>
	<circle fill="#A39C7D" cx="459.268" cy="118.369" r="4.735"/>
	<circle fill="#A39C7D" cx="4.735" cy="137.308" r="4.735"/>
	<circle fill="#A39C7D" cx="23.674" cy="137.308" r="4.734"/>
	<circle fill="#A39C7D" cx="42.613" cy="137.308" r="4.734"/>
	<circle fill="#A39C7D" cx="61.552" cy="137.308" r="4.735"/>
	<circle fill="#A39C7D" cx="80.491" cy="137.308" r="4.735"/>
	<circle fill="#A39C7D" cx="99.43" cy="137.308" r="4.735"/>
	<circle fill="#A39C7D" cx="118.369" cy="137.308" r="4.735"/>
	<circle fill="#A39C7D" cx="137.308" cy="137.308" r="4.735"/>
	<circle fill="#A39C7D" cx="156.246" cy="137.308" r="4.734"/>
	<circle fill="#A39C7D" cx="175.186" cy="137.308" r="4.734"/>
	<circle fill="#A39C7D" cx="194.124" cy="137.308" r="4.735"/>
	<circle fill="#A39C7D" cx="213.063" cy="137.308" r="4.734"/>
	<circle fill="#A39C7D" cx="232.002" cy="137.308" r="4.734"/>
	<circle fill="#A39C7D" cx="250.94" cy="137.308" r="4.735"/>
	<circle fill="#A39C7D" cx="269.879" cy="137.308" r="4.735"/>
	<circle fill="#A39C7D" cx="288.819" cy="137.308" r="4.735"/>
	<circle fill="#A39C7D" cx="307.757" cy="137.308" r="4.735"/>
	<circle fill="#A39C7D" cx="326.697" cy="137.308" r="4.735"/>
	<circle fill="#A39C7D" cx="345.636" cy="137.308" r="4.735"/>
	<circle fill="#A39C7D" cx="364.574" cy="137.308" r="4.734"/>
	<circle fill="#A39C7D" cx="383.513" cy="137.308" r="4.735"/>
	<circle fill="#A39C7D" cx="402.451" cy="137.308" r="4.734"/>
	<circle fill="#A39C7D" cx="421.391" cy="137.308" r="4.734"/>
	<circle fill="#A39C7D" cx="440.33" cy="137.308" r="4.735"/>
	<circle fill="#A39C7D" cx="459.268" cy="137.308" r="4.735"/>
	<circle fill="#A39C7D" cx="4.735" cy="156.247" r="4.735"/>
	<circle fill="#A39C7D" cx="23.674" cy="156.247" r="4.734"/>
	<circle fill="#A39C7D" cx="42.613" cy="156.247" r="4.734"/>
	<circle fill="#A39C7D" cx="61.552" cy="156.247" r="4.735"/>
	<circle fill="#A39C7D" cx="80.491" cy="156.247" r="4.735"/>
	<circle fill="#A39C7D" cx="99.43" cy="156.247" r="4.735"/>
	<circle fill="#A39C7D" cx="118.369" cy="156.247" r="4.735"/>
	<circle fill="#A39C7D" cx="137.308" cy="156.247" r="4.735"/>
	<circle fill="#A39C7D" cx="156.246" cy="156.247" r="4.734"/>
	<circle fill="#A39C7D" cx="175.186" cy="156.247" r="4.734"/>
	<circle fill="#A39C7D" cx="194.124" cy="156.247" r="4.735"/>
	<circle fill="#A39C7D" cx="213.063" cy="156.247" r="4.734"/>
	<circle fill="#A39C7D" cx="232.002" cy="156.247" r="4.734"/>
	<circle fill="#A39C7D" cx="250.94" cy="156.247" r="4.735"/>
	<circle fill="#A39C7D" cx="269.879" cy="156.247" r="4.735"/>
	<circle fill="#A39C7D" cx="288.819" cy="156.247" r="4.735"/>
	<circle fill="#A39C7D" cx="307.757" cy="156.247" r="4.735"/>
	<circle fill="#A39C7D" cx="326.697" cy="156.247" r="4.735"/>
	<circle fill="#A39C7D" cx="345.636" cy="156.247" r="4.735"/>
	<circle fill="#A39C7D" cx="364.574" cy="156.247" r="4.734"/>
	<circle fill="#A39C7D" cx="383.513" cy="156.247" r="4.735"/>
	<circle fill="#A39C7D" cx="402.451" cy="156.247" r="4.734"/>
	<circle fill="#A39C7D" cx="421.391" cy="156.247" r="4.734"/>
	<circle fill="#A39C7D" cx="440.33" cy="156.247" r="4.735"/>
	<circle fill="#A39C7D" cx="459.268" cy="156.247" r="4.735"/>
	<circle fill="#A39C7D" cx="4.735" cy="175.185" r="4.735"/>
	<circle fill="#A39C7D" cx="23.674" cy="175.185" r="4.734"/>
	<circle fill="#A39C7D" cx="42.613" cy="175.185" r="4.734"/>
	<circle fill="#A39C7D" cx="61.552" cy="175.185" r="4.735"/>
	<circle fill="#A39C7D" cx="80.491" cy="175.185" r="4.735"/>
	<circle fill="#A39C7D" cx="99.43" cy="175.185" r="4.735"/>
	<circle fill="#A39C7D" cx="118.369" cy="175.185" r="4.735"/>
	<circle fill="#A39C7D" cx="137.308" cy="175.185" r="4.735"/>
	<circle fill="#A39C7D" cx="156.246" cy="175.185" r="4.734"/>
	<circle fill="#A39C7D" cx="175.186" cy="175.185" r="4.734"/>
	<circle fill="#A39C7D" cx="194.124" cy="175.185" r="4.735"/>
	<circle fill="#A39C7D" cx="213.063" cy="175.185" r="4.734"/>
	<circle fill="#A39C7D" cx="232.002" cy="175.185" r="4.734"/>
	<circle fill="#A39C7D" cx="250.94" cy="175.185" r="4.735"/>
	<circle fill="#A39C7D" cx="269.879" cy="175.185" r="4.735"/>
	<circle fill="#A39C7D" cx="288.819" cy="175.185" r="4.735"/>
	<circle fill="#A39C7D" cx="307.757" cy="175.185" r="4.735"/>
	<circle fill="#A39C7D" cx="326.697" cy="175.185" r="4.735"/>
	<circle fill="#A39C7D" cx="345.636" cy="175.185" r="4.735"/>
	<circle fill="#A39C7D" cx="364.574" cy="175.185" r="4.734"/>
	<circle fill="#A39C7D" cx="383.513" cy="175.185" r="4.735"/>
	<circle fill="#A39C7D" cx="402.451" cy="175.185" r="4.734"/>
	<circle fill="#A39C7D" cx="421.391" cy="175.185" r="4.734"/>
	<circle fill="#A39C7D" cx="440.33" cy="175.185" r="4.735"/>
	<circle fill="#A39C7D" cx="459.268" cy="175.185" r="4.735"/>
</g>
</svg>
