<?xml version="1.0" encoding="utf-8"?>
<!-- Generator: Adobe Illustrator 16.0.3, SVG Export Plug-In . SVG Version: 6.00 Build 0)  -->
<!DOCTYPE svg PUBLIC "-//W3C//DTD SVG 1.1//EN" "http://www.w3.org/Graphics/SVG/1.1/DTD/svg11.dtd">
<svg version="1.1" id="圖層_1" xmlns="http://www.w3.org/2000/svg" xmlns:xlink="http://www.w3.org/1999/xlink" x="0px" y="0px"
	 width="169.119px" height="33.201px" viewBox="0 0 169.119 33.201" enable-background="new 0 0 169.119 33.201"
	 xml:space="preserve">
<g>
	<polygon fill="#FAF7BE" points="169.119,13.673 166.878,17.945 142.989,5.439 117.986,18.528 92.976,5.439 67.975,18.528 
		42.972,5.439 17.97,18.528 0,9.119 0,3.68 17.97,13.089 42.972,0 67.975,13.089 92.976,0 117.986,13.089 142.989,0 	"/>
</g>
<g>
	<polygon fill="#FAF7BE" points="169.119,28.346 166.878,32.618 142.989,20.112 117.986,33.201 92.976,20.112 67.975,33.201 
		42.972,20.112 17.97,33.201 0,23.793 0,18.354 17.97,27.754 42.972,14.673 67.975,27.754 92.976,14.673 117.986,27.754 
		142.989,14.673 	"/>
</g>
</svg>
