<?xml version="1.0" encoding="utf-8"?>
<!-- Generator: Adobe Illustrator 16.0.3, SVG Export Plug-In . SVG Version: 6.00 Build 0)  -->
<!DOCTYPE svg PUBLIC "-//W3C//DTD SVG 1.1//EN" "http://www.w3.org/Graphics/SVG/1.1/DTD/svg11.dtd">
<svg version="1.1" id="Layer_1" xmlns="http://www.w3.org/2000/svg" xmlns:xlink="http://www.w3.org/1999/xlink" x="0px" y="0px"
	 width="822px" height="450px" viewBox="0 0 822 450" enable-background="new 0 0 822 450" xml:space="preserve">
<g>
	<path fill="#799390" d="M805.935,417.191H19.088c-6.279,0-11.37,5.09-11.37,11.369l0,0c0,6.279,5.09,11.371,11.37,11.371h786.847
		c6.281,0,11.372-5.092,11.372-11.371l0,0C817.307,422.281,812.216,417.191,805.935,417.191z"/>
	<g>
		<g>
			<g>
				<rect x="599.304" y="206.764" fill="#D6332B" width="41.38" height="21.615"/>
				<g>
					<path fill="#2C2933" d="M410.949,277.125h-42.966l0,0l0,0c-24.802,0-44.911,34.369-44.911,76.77
						c0,5.525,0.342,10.908,0.991,16.102c4.227,33.836,21.502,59.402,42.387,60.602l0.002,0.058h44.497
						c21.575,0.001,39.596-25.998,43.926-60.657c0.648-5.193,0.99-10.578,0.99-16.103
						C455.865,311.495,435.758,277.126,410.949,277.125z"/>
					<path fill="#3A3842" d="M749.659,277.12h-42.967l0,0l0,0c-24.802,0-44.91,34.369-44.911,76.771
						c0,5.523,0.342,10.908,0.991,16.102c4.226,33.834,21.501,59.401,42.388,60.601v0.058h44.499
						c21.575,0,39.596-25.998,43.926-60.658c0.649-5.193,0.99-10.578,0.99-16.102C794.575,311.49,774.467,277.121,749.659,277.12z"
						/>
					<polygon fill="#4B4554" points="147.708,194.595 57.882,194.595 34.565,186.279 186.148,186.279 					"/>
					<path fill="#433144" d="M44.977,359.275c0,3.107,2.542,5.648,5.648,5.648h219.98c3.106,0,5.648-2.541,5.648-5.648v-93.867
						c0-3.105-2.542-5.647-5.648-5.647H50.625c-3.106,0-5.648,2.542-5.648,5.647V359.275z"/>
					<path fill="#F9543E" d="M275.254,146.682c-35.122,0-37.377-5.778-58.287,1.941c-32.827,12.119-107.293,67.666-107.293,67.666
						l-24.509,38.787l249.425-10.12L275.254,146.682z"/>
					<path fill="#F9543E" d="M208.33,153.11c54.217-33.651,257.225-25.427,299.721-6.321l0,0
						c34.346,9.468,131.328,95.61,131.328,95.61l-425.037-16.186c0-2.346,0.267-6.14,0.916-10.824
						C193.047,204.747,166.216,179.249,208.33,153.11z"/>
					<path fill="#7AB1AD" d="M255.933,148.349c11.986-1.559,25.654-1.559,28.455-1.559c44.143,0,193.896,0,214.499,0
						c29.768,0,138.111,95.61,138.111,95.61l-446.323-10.048C119.517,232.166,191.298,160.03,255.933,148.349z"/>
					<path opacity="0.4" fill="#8C4C57" d="M484.404,146.79c5.532,0,12.082,0,14.482,0c29.768,0,138.111,95.61,138.111,95.61
						l-8.928-0.201c-10.936-6.139-21.965-11.318-21.965-11.318C597.113,221.144,519.328,146.79,484.404,146.79z"/>
					<path opacity="0.4" fill="#8C4C57" d="M255.933,148.349c11.986-1.559,25.654-1.559,28.455-1.559c28.571,0,148.996,0,202.397,0
						c-2.801,0-16.469,0-28.455,1.559c-64.634,11.681-136.416,83.817-65.257,84.002l239.824,6.471
						c2.626,2.276,4.101,3.577,4.101,3.577l-446.323-10.048C119.517,232.166,191.298,160.03,255.933,148.349z"/>
					<path fill="none" stroke="#647F7F" stroke-width="7.6426" stroke-linecap="square" stroke-miterlimit="10" d="M370.194,164.943
						c0,0,22.23,50.712,22.23,59.06"/>
					<g>
						
							<linearGradient id="SVGID_1_" gradientUnits="userSpaceOnUse" x1="7334.7725" y1="79.498" x2="7351.6289" y2="235.6406" gradientTransform="matrix(-1 0 0 1 7819.084 0)">
							<stop  offset="0.2102" style="stop-color:#FFFFFF"/>
							<stop  offset="1" style="stop-color:#231F20"/>
						</linearGradient>
						<path fill="url(#SVGID_1_)" d="M615.632,227.44c-0.866-0.468-1.788-0.993-2.765-1.576
							c-19.646-11.745-73.828-39.063-152.432-39.063c-4.304,0-8.68,0.083-13.008,0.246l-1.971,0.075
							c-26.755,1.012-46.083,1.742-61.216,1.743c-31.199,0-42.192-3.005-51.144-13.979c-3.677-4.508-3.383-8.136-2.975-13.157
							c0.292-3.623,0.617-7.637-0.643-12.393h169.406C513.996,149.337,557.336,178.382,615.632,227.44z"/>
					</g>
					<path opacity="0.3" fill="#2C2933" d="M255.933,148.349c11.986-1.559,25.654-1.559,28.455-1.559c6.656,0,15.723,0,26.375,0
						c3.326,1.92,6.239,4.977,8.233,10.063c5.837,14.882,14.402,68.435,22.115,76.691v2.194h-0.007l-62.47-1.406l-96.438-6.281
						c0,0-11.005-0.957-19.641-5.446C151.827,202.465,206.003,157.372,255.933,148.349z"/>
					<path opacity="0.7" fill="#7AB1AD" d="M211.022,164.943c0,0,97.372,0,126.345,0c28.972,0,7.385,15.252,7.385,15.252
						l-24.042,24.096c0,0-6.946,6.045-21.336,6.045c-14.391,0-132.154,0-132.154,0C168.846,195.775,184.083,179.76,211.022,164.943z
						"/>
					<g opacity="0.8">
						
							<linearGradient id="SVGID_2_" gradientUnits="userSpaceOnUse" x1="7543.3906" y1="88.9316" x2="7568.8252" y2="199.9191" gradientTransform="matrix(-1 0 0 1 7819.084 0)">
							<stop  offset="0" style="stop-color:#FFFFFF"/>
							<stop  offset="1" style="stop-color:#231F20"/>
						</linearGradient>
						<path fill="url(#SVGID_2_)" d="M324.136,201.402c-7.467-5.795-23.203-9.827-40.51-9.827l-0.894,0.003
							c-3.02,0.024-6.104,0.034-9.23,0.034c-7.966,0-16.318-0.065-24.395-0.128c-7.875-0.061-16.017-0.124-23.589-0.124
							c-26.462,0-40.566,0.783-47.421,2.905c-0.054-0.541-0.177-1.073-0.398-1.573c16.187-16.5,46.891-36.072,78.625-41.825
							c9.558-1.238,20.334-1.485,25.915-1.522c20.141,0.152,29.804,8.279,35.62,29.986c1.439,5.375,3.103,11.115,4.865,17.192
							C323.18,198.098,323.651,199.725,324.136,201.402z"/>
					</g>
					<g>
						<path fill="#4E4C59" d="M502.457,151.552c4.721,0,17.926,3.781,53.328,29.105c20.775,14.861,40.102,27.536,56.246,40.934
							c-6.066,0.638-127.772,0.862-167.753-0.42c-25.366-0.813-57.364-1.455-57.364-1.455l-22.617-0.821
							c-10.933,0-15.671-15.938-21.394-32.57c-0.878-2.555-1.709-4.968-2.555-7.33c-1.951-5.445-5.583-15.58-2.481-21.345
							c0.181-0.336,2.146-3.331,15.324-4.974c8.442-1.053,17.624-1.091,23.11-1.114c0.74-0.003,1.405-0.006,1.943-0.011h118.26
							 M498.887,146.79c-12.418,0-71.748,0-126.596,0c-9.065,0.079-39.728-0.4-44.571,8.605c-3.994,7.426-0.398,17.977,2.193,25.208
							c7.131,19.896,14.58,47.817,30.813,47.817c0.018,0,0.038,0,0.056,0l28.575,4.393c24.313,0,121.17-0.431,181.448-0.431
							c31.668,0,53.242-1.196,48.891-4.843C586.68,199.857,520.418,146.79,498.887,146.79L498.887,146.79z"/>
					</g>
					<path fill="#D6332B" d="M389.357,228.05c27.373,3.347,77.213-1.325,142.467,0.965c101.789,3.572,42.805-1.763,112.875-1.763
						c70.071,0,138.044,21.87,152.58,47.328l8.511,20.514c2.764,7.673,0.96,19.752,0.96,28.419l-16.169,37.093
						c0,8.666,2.028,14.057-4.279,14.057c0,0,3.243,2.682-4.851,2.682c-8.093,0-10.088-0.79-10.088-16.968
						c0-0.438-0.006-0.876-0.01-1.313c0.001-0.216,0.01-0.432,0.01-0.648c0-47.64-22.997-86.398-51.263-86.398
						c-28.264,0-51.259,38.758-51.259,86.396c0,0.217,0.009,0.432,0.011,0.646c-0.004,0.438-0.011,0.877-0.011,1.316
						c0,13.317-1.35,16.957-9.034,16.957c-41.833,0-224.563,0-236.198,0c-13.406,0-12.444-4.294-12.444-11.807
						c0-2.319,0.102-4.502,0.102-6.334c0-29.395-8.667-55.426-21.91-71.271V228.05z"/>
					<path fill="#433144" d="M134.35,390.321c0,2.847,2.329,5.177,5.177,5.177h577.234c2.847,0,5.177-2.33,5.177-5.177V276.508
						c0-2.847-2.33-5.176-5.177-5.176H139.526c-2.848,0-5.177,2.329-5.177,5.176V390.321z"/>
					<path fill="#2C2933" d="M101.261,430.65h44.498c21.576,0,39.597-25.998,43.927-60.658c0.649-5.193,0.989-10.578,0.989-16.102
						c0-42.4-20.108-76.77-44.917-76.771h-42.966l-3.974,78.905L101.261,430.65"/>
					<path fill="#2C2933" d="M437.793,430.65h44.497c21.575,0,39.597-25.998,43.926-60.658c0.649-5.193,0.99-10.578,0.99-16.102
						c0-42.4-20.108-76.77-44.916-76.771h-42.966l-3.975,78.905L437.793,430.65"/>
					<g>
						<g enable-background="new    ">
							<g>
								<path fill="#2C2933" d="M686.371,374.66c-0.356-2.86-0.545-5.826-0.545-8.868c0-23.352,11.074-42.28,24.734-42.279"/>
								<path fill="#2C2933" d="M710.561,323.513c13.662,0,24.738,18.929,24.737,42.281c0,3.042-0.188,6.007-0.545,8.868"/>
							</g>
						</g>
					</g>
					<path fill="#EF553C" d="M508.572,270.636l5.18,0.03v109.272h241.307h22.114c4.186,0,17.893-7.079,17.893-15.746l14.247-35.887
						c0-8.667-0.849-21.952-3.612-29.625l-10.065-26.056c-1.174-3.273-23.282-6.287-24.896-8.792h-21.26H575.842h-67.27V270.636z"/>
					<path fill="#EF553C" d="M434.301,229.785c71.4,13.403,112.627,38.981,112.627,38.981c11.656,2.277,52.452,25.002,52.452,25.002
						l138.553-1.786l20.452-6.548c-71.857-55.649-144.271-55.649-195.467-55.649H434.301z"/>
					<path fill="#D6332B" d="M735.298,260.91c-1.678,1.461-12.912,1.012-12.912,1.012s4.678,2.425,8.913,5.053
						c8.472,5.255,15.753,18.46-9.361,18.46s18.635,10.977,18.635,10.977l12.401,0.27c0,0,32.7-27.341,30.021-28.829
						c-2.679-1.488-25.496-11.982-24.609-12.776C768.156,246.317,735.298,260.91,735.298,260.91z"/>
					<path fill="#F9543E" d="M599.643,293.769c0,0-67.02-65.718-210.285-65.718l-226.458,2.927l237.77,21.716l160.726,41.075
						H599.643z"/>
					<g>
						<g enable-background="new    ">
							<g>
								<path fill="#020000" d="M119.517,258.147"/>
							</g>
						</g>
					</g>
					<path fill="#D6332B" d="M91.891,215.098c-33.68,0-47.454,4.159-47.454,53.699v27.095c0,8.668,0,6.983,0,15.65v17.459h11.458
						c7.308-33.346,26.354-57.186,48.646-57.186c28.586,0,51.843,39.197,51.843,87.376c0,1.832-0.101,4.015-0.101,6.334
						c0,7.513-0.963,11.807,12.445,11.807c11.633,0,170.553,0,212.386,0c7.684,0,9.034-3.64,9.034-16.957
						c0-0.439,0.006-0.878,0.011-1.316c-0.001-0.215-0.011-0.43-0.011-0.646c0-47.639,22.995-86.396,51.259-86.396
						c28.267,0,56.024,38.759,56.024,86.398c0,0.217,7.135,0.433,7.134,0.648c0.004,0.438-7.134,0.875-7.134,1.313
						c0,16.178,19.854,5.062,27.947,5.062c8.093,0-15.375,11.906-15.375,11.906c6.309,0,19.514-8.072,19.514-16.738l-4.761-35.887
						c0-8.668-8.266-40.403-21.472-41.531l39.111,4.488c-14.535-25.457-106.318-48.518-176.39-48.518
						c-70.071,0-58.71-1.809-160.5-5.381c-101.789-3.571-94.642-18.68-94.642-18.68H91.891z"/>
					<path opacity="0.2" fill="#2C2933" d="M84.105,215.207c-17.009,0.527-27.98,3.404-33.978,15.75
						c5.687-11.318,47.37-9.008,52.358-7.442l-7.797-4.383L84.105,215.207z"/>
					<polygon fill="#2C2933" points="106.254,259.761 131.981,259.761 142.325,266.27 138.062,271.592 112.854,269.287 					"/>
					
						<linearGradient id="SVGID_3_" gradientUnits="userSpaceOnUse" x1="-417.2656" y1="291.9805" x2="-351.3874" y2="349.9215" gradientTransform="matrix(1 0 0 1 507.6597 0)">
						<stop  offset="0" style="stop-color:#F9543E"/>
						<stop  offset="0.2717" style="stop-color:#F14D3A"/>
						<stop  offset="0.682" style="stop-color:#DD392F"/>
						<stop  offset="0.7901" style="stop-color:#D6332B"/>
					</linearGradient>
					<path fill="url(#SVGID_3_)" d="M104.541,271.815c21.423,0,39.853,22.015,47.744,53.325c3.984-6.012,15.624-6.699,17.644-0.597
						c3.086,9.321,4.132-6.931,4.132-6.931s2.474-41.505-51.042-55.959c-53.516-14.455-71.388,47.394-71.388,67.347h4.265
						C63.203,295.655,82.25,271.815,104.541,271.815z"/>
					<defs>
						
							<filter id="Adobe_OpacityMaskFilter" filterUnits="userSpaceOnUse" x="143.989" y="271.463" width="263.935" height="103.424">
							<feColorMatrix  type="matrix" values="1 0 0 0 0  0 1 0 0 0  0 0 1 0 0  0 0 0 1 0"/>
						</filter>
					</defs>
					<mask maskUnits="userSpaceOnUse" x="143.989" y="271.463" width="263.935" height="103.424" id="SVGID_4_">
						<g filter="url(#Adobe_OpacityMaskFilter)">
							
								<linearGradient id="SVGID_5_" gradientUnits="userSpaceOnUse" x1="7529.3721" y1="255.2031" x2="7533.6108" y2="351.5214" gradientTransform="matrix(-1 0 0 1 7819.084 0)">
								<stop  offset="0" style="stop-color:#FFFFFF"/>
								<stop  offset="0.0742" style="stop-color:#F8F7F7"/>
								<stop  offset="0.1865" style="stop-color:#E3E3E3"/>
								<stop  offset="0.3231" style="stop-color:#C1C0C1"/>
								<stop  offset="0.4788" style="stop-color:#939191"/>
								<stop  offset="0.6481" style="stop-color:#585555"/>
								<stop  offset="0.7843" style="stop-color:#231F20"/>
							</linearGradient>
							<rect x="85.351" y="254.693" fill="url(#SVGID_5_)" width="403.233" height="125.773"/>
						</g>
					</mask>
					<path opacity="0.3" mask="url(#SVGID_4_)" fill="#8C4C57" d="M400.667,291.783c-55.914-5.585-254.86-19.479-256.678-19.539
						c0,0,13.276-7.502,26.933,23.977c13.657,31.479,2.327,55.078,27.636,68.095c25.31,13.017,175.549,10.345,175.549,10.345
						l9.893-6.48l5.357-44.667l5.055-15.466l11.842-13.683C406.255,294.364,412.558,292.971,400.667,291.783z"/>
					<path fill="#F9543E" d="M393.403,290.363c12.259-20.661,29.306-32.04,48.003-32.039c18.408,0,36.628,11.448,49.99,31.409
						c12.721,19.003,19.729,43.394,19.729,68.681h-13.692h-0.001c0-47.64-27.76-86.398-56.024-86.398
						c-28.264,0-51.259,38.758-51.259,86.396h-13.691C376.458,332.95,382.475,308.783,393.403,290.363z"/>
					<rect x="333.96" y="264.188" fill="#F97830" width="21.583" height="15.696"/>
					<path fill="#2C2933" d="M207.643,251.438c-0.981,3.662-6.357,6.308-11.946,5.88l-10.786-0.825
						c-5.588-0.428-9.357-3.773-8.374-7.436c0.982-3.661,6.357-6.307,11.945-5.88l10.786,0.826
						C204.857,244.431,208.625,247.776,207.643,251.438z"/>
					<g>
						<g>
							<g enable-background="new    ">
								<g>
									<path fill="#4B4554" d="M439.324,277.12c24.807,0.001,44.916,34.37,44.916,76.771c0,5.523-0.342,10.908-0.99,16.102
										c-4.331,34.66-22.352,60.658-43.927,60.658c-21.569,0-39.591-25.998-43.92-60.658c-0.648-5.193-0.99-10.578-0.99-16.102
										C394.414,311.489,414.521,277.12,439.324,277.12"/>
								</g>
							</g>
						</g>
						<g>
							<g enable-background="new    ">
								<g>
									<path fill="#8C98A4" stroke="#DFE7E8" stroke-width="6.3689" stroke-miterlimit="10" d="M438.799,298.259
										c17.977,0.001,32.549,24.906,32.549,55.632c0,4.002-0.248,7.904-0.719,11.667c-3.137,25.116-16.196,43.954-31.83,43.954
										c-15.631-0.002-28.689-18.842-31.827-43.957c-0.469-3.764-0.717-7.665-0.717-11.668
										C406.255,323.162,420.826,298.258,438.799,298.259"/>
								</g>
							</g>
						</g>
					</g>
					<g>
						<g>
							<g enable-background="new    ">
								<g>
									<path fill="#4B4554" d="M102.792,277.12c24.808,0.001,44.917,34.37,44.916,76.771c0,5.523-0.341,10.908-0.99,16.102
										c-4.33,34.66-22.351,60.658-43.926,60.658c-21.57,0-39.59-25.998-43.92-60.658c-0.649-5.193-0.99-10.578-0.99-16.102
										C57.882,311.489,77.99,277.12,102.792,277.12"/>
								</g>
							</g>
						</g>
					</g>
					<polygon fill="#EF553C" points="497.432,406.873 497.432,358.414 809.313,328.306 798.598,406.873 					"/>
					<polygon fill="#3A3842" points="801.809,406.923 779.868,406.923 698.43,422.225 676.333,406.923 560.701,406.923 
						560.701,396.49 801.809,396.49 					"/>
					<path fill="#2C2933" d="M787.443,327.016c1.726-6.317-2.221-11.485-8.769-11.485H565.563c-6.549,0-10.43,5.15-8.627,11.444
						l11.939,41.666c1.803,6.295,8.637,11.445,15.184,11.445h176.982c6.549,0,13.317-5.169,15.043-11.485L787.443,327.016z"/>
					<path fill="#EADCDA" d="M590.846,296.642c-19.801-9.438-77.781-44.267-95.209-33.925
						c-17.428,10.341,3.979,29.245,26.142,32.886C543.94,299.242,590.846,296.642,590.846,296.642z"/>
					<path opacity="0.2" fill="none" stroke="#37333F" stroke-width="2.5475" stroke-linecap="square" stroke-miterlimit="10" d="
						M333.105,228.762c0,0-6.568,4.057-9.347,9.622c-2.776,5.564-8.743,28.217-10.521,46.358v83.059"/>
					<g>
						<path fill="#2C2933" d="M131.34,259.761c34.374,0,62.47,46.135,63.646,103.593c-17.52-3.355-19.41-11.464-21.899-20.887
							c-0.63-4.504-2.385-13.178-2.386-13.183c-1.175-7.018-2.304-11.451-4.106-14.767c-9.063-27.058-24.881-46.874-43.576-52.863
							C126.874,260.421,127.275,259.761,131.34,259.761z"/>
					</g>
					<polygon fill="#EF553C" points="815.583,389.609 519.129,389.609 519.129,406.873 604.168,406.873 615.479,398.539 
						771.578,398.539 777.105,406.873 815.583,406.873 					"/>
					<path fill="#F9543E" d="M308.474,229.096c-25.35-0.357-160.766,4.456-143.237-24.714c11.683-19.44-17.529,16.205-17.529,16.205
						l15.19,10.082l16.006,1.771l118.918,5.122l6.425-5.107L308.474,229.096z"/>
					<path fill="#F9543E" d="M281.61,139.589c3.746-0.277,7.681-0.698,11.56-1.138c0.885-3.465,4.67-6.324,8.708-4.002
						c1.439,0.828,2.87,1.683,4.278,2.571c7.243-0.68,12.953-0.808,14.784,0.783c0.919,0.799,1.382,2.671,1.558,5.031
						c8.071-7.484,20.488-9.106,31.141-9.198c7.68-0.066,26.325,13.086,18.652,13.153c-9.065,0.079-39.728-0.4-44.572,8.605
						c-3.994,7.426-0.398,17.977,2.193,25.208c7.138,19.919,14.599,47.883,30.87,47.817c7.696-0.031-24.093,9.753-25.963,2.381
						c-5.637-22.224-10.75-38.131-14.5-52.129c-6.563-24.498-18.469-31.882-38.708-31.882
						C251.449,146.79,265.538,140.78,281.61,139.589z"/>
					<path fill="#EF553C" d="M107.845,223.515c-15.406-8.388-26.354-15.584-32.763-24.935l-18.093-3.985l17.904,22.329
						c0,0,2.509-0.081,11.127,1.198c5.585,0.829,16.467,5.393,16.467,5.393H107.845z"/>
					<path fill="#F9543E" d="M176.092,351.559c16.23,20.033,67.42,16.025,91.231,16.025c23.811,0,83.936,0,94.651,0
						s14.287-0.595,14.483-9.172l13.741-3.279c-0.024,1.09-0.05,2.18-0.05,3.279c0,0.217,0.01,0.432,0.011,0.646
						c-0.004,0.438-0.011,0.877-0.011,1.316c0,13.317-1.35,16.957-9.034,16.957c-41.833,0-200.753,0-212.386,0
						c-13.408,0-12.445-4.294-12.445-11.807c0-2.319,0.102-4.502,0.102-6.334C166.051,348.392,176.092,351.559,176.092,351.559z"/>
					<polygon fill="#2C2933" points="741.021,296.642 602.752,296.642 579.366,278.291 739.048,278.291 					"/>
					<path fill="#D6332B" d="M102.486,223.515c-15.406-8.388-26.354-15.584-32.763-24.935l-18.093-3.985l17.905,22.329
						c0,0,2.509-0.081,11.126,1.198C91.617,219.749,102.486,223.515,102.486,223.515z"/>
					<path fill="#EF553C" d="M24.862,192.953c1.649,6.337,8.354,11.522,14.902,11.522H61.79c6.548,0,16.496-2.763,22.106-6.14
						l8.173-4.92c5.61-3.377,4.905-6.95-1.569-7.94l-58.611-8.964c-0.983-0.15-1.908-0.177-2.764-0.092h-6.798v6.389l8.622,3.471
						L24.862,192.953z"/>
					<polygon fill="#F9543E" points="94.689,187.275 66.116,204.476 20.279,204.476 12.54,174.711 					"/>
					<path fill="none" stroke="#45424F" stroke-width="6.3689" stroke-miterlimit="10" d="M200.982,173.544
						c0,0-17.785,40.57-17.785,47.249"/>
					<g>
						<path fill="#45424F" d="M282.217,151.892c9.345,0.075,15.99,1.92,20.909,5.805c5.45,4.304,9.349,11.388,12.271,22.294
							c1.446,5.398,3.112,11.146,4.876,17.231c2.267,7.819,4.785,16.506,7.448,26.53L308.475,224
							c-1.041-0.014-2.261-0.02-3.641-0.02c-2.645,0-5.894,0.021-9.621,0.046c-5.081,0.034-10.84,0.072-17.246,0.072
							c-28.648,0-51.02-0.86-68.394-2.629c-33.65-3.427-39.536-9.474-40.539-11.246c-0.214-0.379-0.661-1.17,0.568-3.215
							c0.204-0.339,0.392-0.658,0.573-0.965c6.235-10.087,18.781-21.531,34.431-31.407c16.905-10.668,35.405-18.212,52.108-21.252
							C266.087,152.176,276.69,151.93,282.217,151.892 M282.221,146.797c-5.011,0.034-16.229,0.243-26.288,1.552
							c-37.238,6.73-76.843,33.526-90.123,55.069c-0.179,0.306-0.368,0.624-0.572,0.963c-13.616,22.659,65.05,24.813,112.73,24.813
							c11.194,0,20.684-0.119,26.867-0.119c1.385,0,2.604,0.006,3.639,0.021l25.822-0.333c-5.43-21.155-10.343-36.528-13.978-50.09
							C313.822,154.424,302.087,146.947,282.221,146.797L282.221,146.797z"/>
					</g>
					<path fill="#C82E27" d="M764.178,368.601l11.358-41.585c1.728-6.317-2.219-11.485-8.767-11.485h11.905
						c6.548,0,10.494,5.168,8.769,11.485l-11.359,41.585c-1.726,6.316-8.494,11.485-15.043,11.485h-11.907
						C755.683,380.086,762.452,374.917,764.178,368.601z"/>
					<path fill="#4E4C59" d="M401.493,224.003c8.791,2.102,3.752,3.59,21.346,5.284c17.595,1.694,71.183,3.167,106.106,3.167
						c34.922,0,96.045-0.503,90.408-5.202h-43.553l-127.815-3.25H401.493z"/>
					<path fill="#F2E1DD" d="M590.846,296.642c-17.857-8.512-66.756-37.661-88.969-35.718c25.329,8.141,23.744,25.784,52.668,31.094
						C576.633,296.073,590.846,296.642,590.846,296.642z"/>
					<path opacity="0.7" fill="#F4EEED" d="M508.572,268.767c-6.268-4.806-6.682-4.888-12.688-6.169
						c-0.078,0.044-0.17,0.072-0.248,0.119c-13.869,8.229-3.137,21.875,12.991,28.942
						C533.932,300.2,515.942,274.418,508.572,268.767z"/>
					<path fill="#F2E1DD" d="M806.388,297.123c-0.171-0.703-0.365-1.385-0.599-2.029l-8.51-20.514
						c-1.897-3.322-4.712-6.582-8.314-9.742c-16.043,7.958-29.062,25.514-36.122,31.804
						C752.843,296.642,784.217,298.292,806.388,297.123z"/>
					<path opacity="0.7" fill="#FFFFFF" d="M577.262,297.447c-8.631-9.98-37.214-25.3-60.23-34.614
						c-3.414-0.903-6.63-1.538-9.563-1.829c-3.075-0.305,32.579,7.168,45.684,36.276
						C561.732,297.601,569.172,297.588,577.262,297.447z"/>
					<path fill="#D6332B" d="M504.445,316.619c9.815,31.916,7.592,58.207,7.11,86.425l19.313,2.886c0,0,7.997-54.804-12.716-106.689
						L504.445,316.619z"/>
					<path fill="#D6332B" d="M496.98,406.873h43.445c3.273,0,5.953-2.679,5.953-5.953v-5.357c0-3.273-2.68-5.953-5.953-5.953H496.98
						V406.873z"/>
					<g>
						<path fill="#FFFDF4" d="M613.096,357.239c0,1.968,1.609,3.577,3.576,3.577h82.318c1.968,0,3.577-1.609,3.577-3.577v-21.751
							c0-1.967-1.609-3.577-3.577-3.577h-82.318c-1.967,0-3.576,1.61-3.576,3.577V357.239z"/>
						<path fill="#8CBFB1" d="M616.672,360.816h10.578v-28.905h-10.578c-1.967,0-3.576,1.61-3.576,3.577v21.751
							C613.096,359.207,614.705,360.816,616.672,360.816z"/>
					</g>
					<polygon opacity="0.3" fill="#2C2933" points="586.281,336.02 744.021,336.02 748.855,319.603 586.281,319.603 					"/>
					<path opacity="0.2" fill="none" stroke="#37333F" stroke-width="2.5475" stroke-linecap="square" stroke-miterlimit="10" d="
						M166.029,207.864c-3.989,9.296-15.361,38.575-15.33,65.308"/>
					
						<line fill="#F9543E" stroke="#D6332B" stroke-width="11.464" stroke-linejoin="round" stroke-miterlimit="10" x1="209.515" y1="246.72" x2="175.188" y2="244.307"/>
					<path fill="#CAD5D7" d="M448.293,300.67c13.344,6.945,23.055,28.141,23.055,53.221c0,4.002-0.248,7.904-0.719,11.667
						c-2.477,19.823-11.137,35.728-22.36,41.553c-11.222-5.827-19.878-21.735-22.354-41.556c-0.471-3.764-0.717-7.666-0.717-11.668
						C425.197,328.783,434.93,307.59,448.293,300.67z"/>
					<g>
						<path fill="#2C2933" d="M373.565,359.309c0,0-10.156,0-15.956,0s-10.545-6.964-10.545-15.477v-10.359
							c0-8.513,6.965-15.478,15.478-15.478h16.328c0,0-5.304,11.006-5.304,28.641C373.565,357.351,373.565,359.309,373.565,359.309z
							"/>
						
							<line fill="#F9543E" stroke="#D6332B" stroke-width="7.6426" stroke-linejoin="round" stroke-miterlimit="10" x1="378.329" y1="330.86" x2="341.734" y2="330.86"/>
						
							<line fill="#F9543E" stroke="#D6332B" stroke-width="7.6426" stroke-linejoin="round" stroke-miterlimit="10" x1="374.756" y1="347.528" x2="341.734" y2="347.528"/>
					</g>
				</g>
				<path fill="#3A3842" d="M455.432,312.869c1.254,0.653,12.288,12.629,12.288,39.717s-10.968,42.797-12.308,43.492
					c-9.122,0-17.92-16.992-19.855-32.486c-0.368-2.941-0.561-5.992-0.561-9.121C434.996,334.846,443.79,312.869,455.432,312.869z"
					/>
				
					<line fill="none" stroke="#CAD5D7" stroke-width="5.0951" stroke-miterlimit="10" x1="425.197" y1="353.887" x2="471.348" y2="353.887"/>
				<polyline fill="none" stroke="#CAD5D7" stroke-width="5.0951" stroke-miterlimit="10" points="456.23,396.367 458.611,353.891 
					456.23,311.396 				"/>
				<polyline fill="none" stroke="#CAD5D7" stroke-width="5.0951" stroke-miterlimit="10" points="439.027,326.098 458.611,353.891 
					439.027,382.849 				"/>
				<polyline fill="none" stroke="#CAD5D7" stroke-width="5.0951" stroke-miterlimit="10" points="469.012,374.617 458.611,353.891 
					467.72,328.306 				"/>
				<g>
					<g enable-background="new    ">
						<g>
							<path fill="#CAD5D7" d="M456.66,338.64c4.932,0,8.93,6.832,8.93,15.261c0,1.098-0.068,2.168-0.197,3.2
								c-0.861,6.89-4.442,12.058-8.73,12.058c-4.289,0-7.869-5.168-8.732-12.059c-0.129-1.032-0.196-2.103-0.196-3.2
								C447.733,345.471,451.73,338.639,456.66,338.64"/>
						</g>
					</g>
				</g>
				<g>
					<g>
						<g enable-background="new    ">
							<g>
								<path fill="#8C98A4" stroke="#DFE7E8" stroke-width="6.3689" stroke-miterlimit="10" d="M101.925,297.741
									c17.977,0.001,32.548,24.907,32.548,55.632c0,4.002-0.247,7.904-0.718,11.668c-3.138,25.115-16.197,43.953-31.831,43.953
									c-15.63-0.002-28.689-18.841-31.827-43.957c-0.47-3.764-0.717-7.665-0.717-11.668
									C69.38,322.645,83.952,297.74,101.925,297.741"/>
							</g>
						</g>
					</g>
					<path fill="#CAD5D7" d="M111.418,300.152c13.345,6.946,23.054,28.142,23.054,53.221c0,4.002-0.247,7.904-0.718,11.668
						c-2.477,19.822-11.136,35.727-22.361,41.553c-11.223-5.828-19.878-21.736-22.354-41.557c-0.471-3.764-0.718-7.665-0.718-11.668
						C88.322,328.266,98.056,307.073,111.418,300.152z"/>
					<path fill="#3A3842" d="M118.558,312.353c1.255,0.652,12.287,12.629,12.287,39.716c0,27.088-10.968,42.797-12.307,43.492
						c-9.122,0-17.92-16.991-19.855-32.486c-0.368-2.941-0.561-5.992-0.561-9.121C98.122,334.329,106.917,312.353,118.558,312.353z"
						/>
					
						<line fill="none" stroke="#CAD5D7" stroke-width="5.0951" stroke-miterlimit="10" x1="88.322" y1="353.369" x2="134.473" y2="353.369"/>
					<polyline fill="none" stroke="#CAD5D7" stroke-width="5.0951" stroke-miterlimit="10" points="119.355,395.85 121.737,353.373 
						119.355,310.879 					"/>
					<polyline fill="none" stroke="#CAD5D7" stroke-width="5.0951" stroke-miterlimit="10" points="102.153,325.581 
						121.737,353.373 102.153,382.332 					"/>
					<polyline fill="none" stroke="#CAD5D7" stroke-width="5.0951" stroke-miterlimit="10" points="132.137,374.1 121.737,353.373 
						130.845,327.788 					"/>
					<g>
						<g enable-background="new    ">
							<g>
								<path fill="#CAD5D7" d="M119.786,338.122c4.931,0,8.929,6.832,8.929,15.261c0,1.098-0.068,2.168-0.197,3.201
									c-0.861,6.889-4.442,12.057-8.731,12.057c-4.288,0-7.871-5.168-8.731-12.059c-0.128-1.031-0.197-2.102-0.197-3.2
									C110.859,344.953,114.856,338.121,119.786,338.122"/>
							</g>
						</g>
					</g>
					<g>
						<path fill="#DFEBED" d="M449.684,364.063c-0.657,0-3.012-2.285-3.675-7.595c-0.104-0.84-0.159-1.704-0.159-2.569
							c0-6.56,2.877-10.165,3.832-10.165c0.954,0,3.835,3.605,3.835,10.166c0,0.87-0.053,1.734-0.157,2.568
							C452.695,361.778,450.341,364.063,449.684,364.063z"/>
						<path fill="#DFEBED" d="M112.809,363.546c-0.658,0-3.011-2.285-3.675-7.595c-0.104-0.84-0.158-1.704-0.158-2.569
							c0-6.56,2.878-10.165,3.832-10.165c0.954,0,3.834,3.605,3.835,10.167c0,0.864-0.054,1.729-0.158,2.567
							C115.821,361.261,113.465,363.546,112.809,363.546z"/>
					</g>
				</g>
				<path fill="#933838" d="M321.088,232.454c-1.19,2.624-6.059,5.824-17.37,8.064c-11.311,2.239-34.229-2.957-34.229-2.957
					s11.462-6.709,42.563-6.709"/>
				<path fill="#D6332B" d="M318.818,224l-17.817-5.146l-3.243,3.636c0,0,11.43,9.887,13.848,12.38
					C316.369,239.781,329.274,227.692,318.818,224z"/>
				<path fill="#C12F2F" d="M302.726,223.36c0,0,4.167,3.722,7.552,4.869c3.387,1.147,8.322-2.734,6.325-4.869l2.215,0.64
					c10.456,3.692-2.45,15.781-7.212,10.87c-1.982-2.044-10.013-9.05-12.845-11.51H302.726z"/>
				<rect x="256.691" y="203.192" fill="#C12F2F" width="53.285" height="21.614"/>
				<rect x="271.87" y="205.573" fill="#F9543E" width="35.724" height="6.137"/>
			</g>
		</g>
		<g>
			<g>
				<g>
					<path fill="none" stroke="#FAF9FB" stroke-width="1.2738" stroke-miterlimit="10" d="M39.371,170.155"/>
				</g>
			</g>
		</g>
		<path fill="#FFFFFF" d="M800.566,297.361l-18.698-28.276c-4.606,3.181-8.886,6.944-12.758,10.73l16.422,17.721
			C790.55,297.557,795.68,297.512,800.566,297.361z"/>
	</g>
	<g>
		<path fill="#C9B5B3" d="M200.845,417.588c0,5-3.511,9.051-7.844,9.051h-12.391c-4.332,0-7.844-4.051-7.844-9.051v-5.039
			c0-5,3.512-9.052,7.844-9.052H193c4.333,0,7.844,4.052,7.844,9.052V417.588z"/>
		<path fill="#A58E8C" d="M172.766,412.549c0-5,3.512-9.052,7.844-9.052H193c4.333,0,7.844,4.052,7.844,9.052v3.268h-28.079V412.549
			z"/>
		<path fill="#3F211B" d="M237.092,436.625c-0.216-3.345-3.144-5.874-6.496-5.874h-3.783c-6.644,0-16.211-4.827-16.24-4.854
			c-3.555-3.258-3.832-10.828-7.629-10.828h-8.022c-5.064,0-4.492,9.644-9.169,11.843h-3.821c-4.921,0-8.926-3.882-9.147-8.748
			c-1.435,1.618-2.313,3.741-2.313,6.073v16.732h16.045v-1.301l18.719,3.67h3.238h18.92h3.419
			C234.426,443.338,237.33,440.291,237.092,436.625z"/>
		<path fill="#5E3329" d="M237.092,434.062c-0.216-3.345-3.144-5.874-6.496-5.874h-3.783c-6.644,0-16.211-4.828-16.24-4.855
			c-3.555-3.258-3.832-10.828-7.629-10.828h-8.022c-5.064,0-4.492,9.645-9.169,11.844h-3.821c-4.921,0-8.926-3.881-9.147-8.748
			c-1.435,1.617-2.313,3.74-2.313,6.074v19.101h16.045v-3.671l18.719,3.671h3.238h18.92h3.419
			C234.426,440.774,237.33,437.728,237.092,434.062z"/>
		<path fill="#000940" d="M207.949,217.03h-36.532v11.843v11.842v173.279c0,0,19.91,6.861,33.602,0l6.554-173.279L207.949,217.03z"
			/>
		<g opacity="0.5">
			<rect x="172.008" y="222.675" fill="#261E28" width="6.536" height="191.319"/>
		</g>
		<rect x="170.471" y="437.104" fill="#3F211B" width="16.045" height="5.643"/>
		<path fill="#C9B5B3" d="M280.559,414.445c0,4.999-3.512,9.051-7.845,9.051h-12.391c-4.332,0-7.844-4.052-7.844-9.051v-5.04
			c0-4.999,3.512-9.051,7.844-9.051h12.391c4.333,0,7.845,4.052,7.845,9.051V414.445z"/>
		<path fill="#A58E8C" d="M252.48,409.405c0-4.999,3.512-9.051,7.844-9.051h12.391c4.333,0,7.845,4.052,7.845,9.051v3.269H252.48
			V409.405z"/>
		<path fill="#3F211B" d="M316.806,433.482c-0.217-3.345-3.144-5.875-6.496-5.875h-3.784c-6.644,0-16.21-4.827-16.239-4.854
			c-3.555-3.258-3.832-10.828-7.63-10.828h-8.022c-5.064,0-4.49,9.644-9.168,11.842h-3.82c-4.922,0-8.927-3.881-9.148-8.747
			c-1.434,1.618-2.313,3.741-2.313,6.073v16.732h16.044v-1.301l18.719,3.67h3.239h18.919h3.418
			C314.141,440.195,317.043,437.148,316.806,433.482z"/>
		<path fill="#5E3329" d="M316.806,430.92c-0.217-3.346-3.144-5.876-6.496-5.876h-3.784c-6.644,0-16.21-4.827-16.239-4.854
			c-3.555-3.258-3.832-10.828-7.63-10.828h-8.022c-5.064,0-4.49,9.644-9.168,11.844h-3.82c-4.922,0-8.927-3.882-9.148-8.748
			c-1.434,1.617-2.313,3.74-2.313,6.073v19.102h16.044v-3.671l18.719,3.671h3.239h18.919h3.418
			C314.141,437.632,317.043,434.584,316.806,430.92z"/>
		<rect x="250.186" y="433.961" fill="#3F211B" width="16.044" height="5.643"/>
		<path fill="#000940" d="M218.049,246.747l15.835,64.079c0.842,3.079,1.402,6.229,1.674,9.41l11.741,91.695
			c0,0,18.168,9.273,36.723-5.418l-12.855-96.569c-0.071-1.103-0.23-2.199-0.478-3.276l-19.698-85.883l0,0l-1.678-11.723
			l-54.23,38.326L218.049,246.747z"/>
		<path fill="#EF9875" d="M324.853,143.418c3.315-0.452,6.997,3.842,9.134,5.029c2.085,1.159,14.021,5.148,14.614,6.358
			c1.442,2.941-5.47,4.998-10.997,0.535l-3.148,0.436c-1.3,0.18-0.752,0.737,0.086,1.748c1.875,2.261,2.226,5.07,5.061,9.661
			c5.233,3.432,9.715,7.656,11.82,12.727c0.744,1.793-1.207,5.235-3.531,1.631c-3.36-5.209-16.817-14.639-16.817-14.639
			s-5.819,1.291-7.905-1.126c-2.085-2.417-5.244-8.762-5.244-8.762l-14.624-3.255l-6.703-9.939
			C296.598,143.822,321.509,143.873,324.853,143.418z"/>
		<path fill="#EF9875" d="M332.735,165.139c0,0-1.329-1.841,5.806,3.798c0,0,12.576-1.174,14.253,5.058
			c0.698,2.598-6.386-0.084-12.206,0.098c-5.819,0.182-17.541-8.422-17.541-8.422"/>
		<path fill="#EF9875" d="M335.08,170.746c0,0,2.477-2.044,5.301-1.943c0,0,0.197-5.064,4.445-6.196
			c4.248-1.132,1.386,3.026,0.991,4.153c-0.396,1.127-1.707,7.085-1.707,7.085s-6.188,1.499-8.058,2.833
			c-1.868,1.335-3.57,1.755-5.048-2.2c-1.478-3.954-5.602-10.802-5.602-10.802l5.439-0.731L335.08,170.746z"/>
		<path fill="#F9A78A" d="M331.776,160.699c0,0,6.323,1.894,7.581,5.041c1.257,3.147-2.604,9.229-3.585,10.239
			c-0.981,1.008-8.608-1.703-10.079-3.144c-0.557-0.545-10.748-19.676-10.748-19.676l-11.644,0.601l-6.703-9.939l22.273,4.193
			c1.528-0.312,3.053,0.549,3.577,2.018l6.387,17.919l3.951,1.527l1.419-2.206C334.206,167.273,328.697,164.254,331.776,160.699z"/>
		<polygon fill="#FFFFFF" points="313.29,163.987 317.976,163.848 316.507,142.212 311.821,142.353 		"/>
		<path fill="#261E28" d="M249.124,99.212l25.691,38.646c0.86,1.254,2.259,2.033,3.779,2.102l34.932,1.587l1.111,25.896
			l-48.269,0.266c-5.479,0.03-10.636-2.582-13.854-7.017l-29.042-40.028L249.124,99.212z"/>
		<path fill="#FFFFFF" d="M189.18,100.012c10.385,25.384,59.407,35.712,41.444-9.771l-6.44-0.251
			c-11.246-0.214-26.53-0.952-35.148,1.552C187.02,92.128,188.385,98.068,189.18,100.012z"/>
		<path fill="#511700" d="M191.781,66.635c0,0-25.296-30.941-8.833-43.271c4.132-26.178,57.955-24.142,53.318,10.965
			C234.292,49.27,191.781,66.635,191.781,66.635z"/>
		<polygon fill="#FEB187" points="222.212,89.323 196.281,96.388 193.018,61.852 219.381,59.36 		"/>
		<path fill="#DE7756" d="M195.601,90.046l-2.664-28.187l29.359-2.774c-1.055,14.887-4.765,20.319-19.861,31.578L195.601,90.046z"/>
		<path fill="#DE7756" d="M234.108,55.625c1.23,13.013-5.895,22.841-18.356,24.019l-0.456,0.043
			c-12.46,1.178-25.54-6.741-26.77-19.754l-1.824-19.296c-1.229-13.014,7.875-24.518,20.337-25.695l0.456-0.043
			c12.46-1.178,23.56,8.417,24.79,21.431L234.108,55.625z"/>
		<path fill="#FEB187" d="M238.3,55.229c1.229,13.014-7.212,22.966-18.684,24.05l-0.419,0.04
			c-11.471,1.084-21.628-7.111-22.858-20.124l-1.824-19.296c-1.229-13.014,7.073-24.442,18.544-25.526l0.42-0.039
			c11.471-1.084,21.767,8.587,22.997,21.6L238.3,55.229z"/>
		
			<ellipse transform="matrix(0.8895 -0.4569 0.4569 0.8895 -2.4365 91.1554)" fill="#DE7756" cx="187.279" cy="50.616" rx="7.598" ry="8.525"/>
		<path fill="#3C313F" d="M176.342,102.265c0,0-7.343,21.8,5.395,108.344l65.75,13.971c0,0,13.487-87.933,1.688-125.32
			c-0.619-1.962-9.305-7.063-21.228-9.533c-3.049-0.632-8.212,2.728-11.605,2.537C198.813,91.277,179.922,93.225,176.342,102.265z"
			/>
		<path fill="#FFFFFF" d="M192.664,97.141c4.811,12.139,17.25,39.331,14.604,109.594c0,0,16.389,2.687,36.607-1.703
			c0,0,2.364-75.697-15.489-113.091l-2.524,0.208c-10.257-1.536-22.999-0.367-31.176,0.896
			C192.771,93.34,191.95,95.341,192.664,97.141z"/>
		<path fill="#3C313F" d="M175.044,106.917l22.428,2.411c15.659,51.933,8.911,117.75,8.911,117.75l-40.617,5.181l2.183-117.271
			L175.044,106.917z"/>
		<path fill="#511700" d="M227.796,19.486c-7.568,14.146-31.472-10.569-31.212,13.467c0,0,0.277,8.072,0.536,16.287
			c0.045,1.419-2.271,2.384-2.692,0.048c-0.643-3.567-4.159-9.308-11.364-6.18c0,0-4.152-27.952,23.931-31.056
			C224.566,10.111,232.905,9.938,227.796,19.486z"/>
		<g>
			<path fill="#95BDC1" d="M243.183,207l-3.214,0.288c3.649-39.47-8.639-103.779-12.476-112.315l5.169-2.323
				C237.315,103,246.751,168.414,243.183,207z"/>
		</g>
		<path fill="#95BDC1" d="M230.624,90.241l-7.545-4.566l-5.468,5.088l-22.654-3.818l-5.083,6.019
			c-2.522,2.985-1.073,7.58,2.706,8.578l20.229,6.311l4.246-14.777l9.944,9.303L230.624,90.241z"/>
		<path fill="#261E28" d="M175.293,125.193l1.649-19.768l-3.91-1.648l-9.695,31.327v110.106h35.55c4.767,0,8.633-3.865,8.633-8.632
			V198.09c0,0-2.798,1.602-9.146-0.526l-3.91-1.146c-1.184-0.348-2.249-1.019-3.072-1.938l-12.234-13.663
			c-4.063-4.537-3.88-10.415-3.878-16.506L175.293,125.193z"/>
		<g>
			<path fill="#601700" d="M249.29,214.859l0.896-11.238c-0.232,0.098-29.877,8.695-71.847-2.875l-0.925,11.082
				C203.749,218.654,233.744,218.344,249.29,214.859z"/>
		</g>
		<g>
			<path fill="#C9C9C9" d="M228.396,206.837c1.682-0.075,3.354,0.115,3.55,2.256c0.065,0.707,0.003,1.448,0.003,2.157
				c0.002,0.842,0.004,1.684,0.005,2.526c0.004,2.091-1.82,2.372-3.381,2.481c-0.987,0.07-0.995,1.616,0,1.546
				c1.829-0.129,3.183-0.372,4.347-1.915c0.901-1.193,0.578-3.254,0.575-4.639c-0.003-1.645,0.151-3.171-0.858-4.581
				c-1.023-1.427-2.674-1.448-4.241-1.378C227.402,205.335,227.398,206.881,228.396,206.837L228.396,206.837z"/>
		</g>
		<path fill="#5C4A60" d="M226.211,87.571c0,0,12.916,4.583,18.607,19.118c0.395,1.009,0.173,2.161-0.508,3.004l-4.937,5.921
			l8.523,6.781c1.062,0.934,1.431,2.293,1.654,3.689c1.445,8.996-1.498,37.52-6.235,66.057
			C243.315,192.142,240.206,115.22,226.211,87.571z"/>
		<path fill="#FFFEFD" d="M214.038,45.088c0.161,1.702-1.256,2.266-3.054,2.436c-1.797,0.17-3.295-0.117-3.457-1.819
			c-0.161-1.702,1.167-3.221,2.964-3.391C212.29,42.144,213.877,43.386,214.038,45.088z"/>
		<path fill="#2B1E11" d="M210.167,43.249c-0.453,0.042-0.859,0.219-1.181,0.481c0.045,0.076,0.076,0.161,0.085,0.253
			c0.033,0.345-0.236,0.653-0.602,0.688c-0.046,0.005-0.092,0.004-0.138,0c-0.08,0.245-0.113,0.508-0.087,0.778
			c0.105,1.104,1.135,1.91,2.3,1.8c1.167-0.11,2.029-1.095,1.924-2.2S211.333,43.138,210.167,43.249z"/>
		<path fill="#FFFEFD" d="M230.845,43.497c0.161,1.703-1.257,2.266-3.055,2.436c-1.798,0.17-3.296-0.117-3.457-1.82
			c-0.162-1.702,1.166-3.22,2.962-3.39C229.095,40.553,230.683,41.795,230.845,43.497z"/>
		<path fill="#2B1E11" d="M226.973,41.658c-0.453,0.043-0.859,0.219-1.181,0.481c0.045,0.075,0.076,0.16,0.085,0.253
			c0.032,0.346-0.237,0.653-0.602,0.688c-0.046,0.004-0.093,0.004-0.138-0.001c-0.081,0.245-0.113,0.507-0.088,0.777
			c0.105,1.104,1.135,1.91,2.302,1.8s2.027-1.095,1.922-2.199C229.169,42.354,228.139,41.548,226.973,41.658z"/>
		<g>
			<path fill="#DE7756" d="M207.456,45.681c-0.1-1.767,1.174-3.224,3.027-3.462c1.852-0.237,3.401,1.171,3.622,2.833
				c0.056,0.432,0.769,0.366,0.711-0.067c-0.282-2.128-2.135-3.578-4.397-3.439c-2.262,0.138-3.791,2.174-3.675,4.203
				C206.769,46.185,207.481,46.116,207.456,45.681L207.456,45.681z"/>
		</g>
		<g>
			<path fill="#DE7756" d="M224.262,44.09c-0.102-1.767,1.173-3.224,3.025-3.461c1.853-0.238,3.402,1.17,3.621,2.832
				c0.058,0.433,0.771,0.366,0.713-0.067c-0.281-2.127-2.136-3.578-4.398-3.439c-2.261,0.138-3.79,2.174-3.674,4.204
				C223.575,44.595,224.287,44.525,224.262,44.09L224.262,44.09z"/>
		</g>
		<g>
			<path fill="#602717" d="M235.938,35.732c-3.088-4.203-8.395-4.055-12.476-1.443c-0.901,0.576-0.067,2.017,0.839,1.437
				c3.289-2.104,7.741-2.501,10.2,0.847C235.128,37.427,236.573,36.599,235.938,35.732L235.938,35.732z"/>
		</g>
		<path fill="#DE7756" d="M224.688,49.631c1.274,2.462,0.454,5.419-1.835,6.604c-2.288,1.186-5.177,0.15-6.454-2.312
			c-1.274-2.462,1.301,2.386,5.395,0.266C225.886,52.069,223.413,47.169,224.688,49.631z"/>
		<g>
			<path fill="#DE7756" d="M222.752,62.81c-1.942,0.438-3.809,0.409-5.725-0.147c-2.295-0.667-3.355-2.262-4.828-3.948
				c-0.448-0.514-1.191,0.236-0.746,0.746c1.468,1.679,2.533,3.24,4.762,4.031c2.233,0.792,4.514,0.854,6.817,0.336
				C223.697,63.678,223.416,62.661,222.752,62.81L222.752,62.81z"/>
		</g>
		<g>
			<path fill="#602717" d="M203.582,39.634c1.88-3.961,6.288-4.363,9.983-2.869c0.995,0.403,1.422-1.208,0.442-1.604
				c-4.339-1.755-9.674-0.975-11.862,3.633C201.688,39.758,203.122,40.604,203.582,39.634L203.582,39.634z"/>
		</g>
		<path fill="#FF9976" d="M210.98,208.193c0,0-4.479-4.346-14.536-4.335c-10.057,0.012-24.283-18.988-24.283-18.988
			s-5.962,4.209-9.759,11.205l22.066,17.145l15.035,15.524L210.98,208.193z"/>
		<polygon fill="#1A1A1A" points="189.692,233.475 190.055,234.084 215.657,240.058 237.787,214.975 237.425,214.366 
			211.46,207.783 		"/>
		<path fill="#B77A3D" d="M212.156,238.299c0,0,4.257,0.76,5.073-3.694c0,0,6.574-2.21,1.595-5.726c0,0-10.836-2.726-15.188-10.999
			l-12.142,16.039c0.157,0.222,0.306,0.423,0.438,0.587c0.346,0.426,0.92,0.896,1.651,1.379l17.503,3.428
			C211.512,239.043,211.877,238.712,212.156,238.299z"/>
		<path fill="#FF9976" d="M220.654,226.269c0,0-14.1-4.377-15.797-15.975l-20.024,2.25c0,0,6.301,14.616,8.662,17.868
			c2.361,3.253,16.46,9.546,19.984,4.896c0,0,4.208,0.993,5.267-3.409C218.746,231.898,225.432,230.052,220.654,226.269z"/>
		
			<rect x="184.663" y="199.16" transform="matrix(-0.7689 -0.6393 0.6393 -0.7689 196.8582 488.5262)" fill="#FFFFFF" width="4.1" height="19.056"/>
		<g>
			<path fill="#3C313F" d="M165.661,169.456l26.957,29.665l-16.986,21.192l-36.066-37.825c-6.811-7.142-8.282-17.841-3.648-26.554
				c10.219-19.212,27.072-50.8,28.455-52.777c6.242-8.925,20.657-9.391,20.657-9.391l0.059,28.829l-20.195,41.492
				C164.026,165.866,164.33,167.992,165.661,169.456z"/>
		</g>
		<path opacity="0.34" fill="#261E28" d="M191.161,88.324c0,0-1.159,2.826,0.889,8.469c5.248,14.457,13.946,34.538,15.472,91.185
			c0,0-15.973-32.246-22.048-54.199c-0.25-0.904-0.169-1.861,0.331-2.655l7.199-11.437l-11.33-4.745
			c-0.971-0.406-1.703-1.227-1.991-2.238c-0.725-2.542-1.72-8.078-0.417-16.978C179.266,95.726,186.222,90.897,191.161,88.324z"/>
		<path fill="#5C4A60" d="M192.937,87.109c0,0-1.158,2.827,0.89,8.469c5.248,14.458,12.264,32.043,13.791,88.691
			c0,0-15.044-35.408-20.367-51.705c-0.292-0.893-0.168-1.861,0.332-2.655l7.199-11.438l-11.33-4.744
			c-0.971-0.407-1.703-1.227-1.991-2.238c-0.725-2.542-1.721-8.078-0.418-16.978C181.042,94.511,188,89.684,192.937,87.109z"/>
		<path opacity="0.34" fill="#261E28" d="M194.865,84.919l-2.288,2.599c-4.098,2.155-9.491,5.781-11.197,6.945
			c-4.659,0.722-12.9,2.844-17.224,9.025c-0.248,0.354-0.999,1.671-2.111,3.684c10.228-10.085,18.363,1.793,18.363,1.793
			l25.52-21.204L194.865,84.919z"/>
		<path fill="#261E28" d="M165.661,169.457c-1.128-1.241-1.509-2.955-1.075-4.532c-0.763-0.113-1.54-0.205-2.32-0.265
			c-3.181-0.265-6.402-0.025-8.845,0.504c-1.221,0.258-2.246,0.577-2.968,0.845c-0.721,0.272-1.138,0.482-1.138,0.482
			s0.379,0.272,1.05,0.653c0.67,0.377,1.634,0.851,2.8,1.295c2.331,0.902,5.476,1.638,8.661,1.87
			c1.573,0.124,3.154,0.128,4.646,0.04L165.661,169.457z"/>
	</g>
</g>
</svg>
