<?xml version="1.0" encoding="utf-8"?>
<!-- Generator: Adobe Illustrator 16.0.3, SVG Export Plug-In . SVG Version: 6.00 Build 0)  -->
<!DOCTYPE svg PUBLIC "-//W3C//DTD SVG 1.1//EN" "http://www.w3.org/Graphics/SVG/1.1/DTD/svg11.dtd">
<svg version="1.1" id="Layer_1" xmlns="http://www.w3.org/2000/svg" xmlns:xlink="http://www.w3.org/1999/xlink" x="0px" y="0px"
	 width="1973px" height="2199px" viewBox="0 0 1973 2199" enable-background="new 0 0 1973 2199" xml:space="preserve">
<g>
	<g>
		<g>
			<g>
				<g>
					<path fill="#DBDAD9" d="M1260.655,1648.806l6.554,11.822c0,0,52.896,56.188-13.498,95.59
						c-66.388,39.393-92.296-21.51-92.296-21.51l-2.63-3.314c30.94-23.205,62.149-49.195,89.667-73.211L1260.655,1648.806z"/>
					<path fill="#DBDAD9" d="M877.326,1322.448c0,0,19.181-28.568-36.18-106.795l133.576-82.531l45.987,82.961l-114.228,87.766
						L877.326,1322.448z"/>
				</g>
			</g>
		</g>
		<path fill="#FCD4B5" d="M716.021,1555.177c0,0-0.521-6.449-1.4-17.377c-0.116-1.523-0.239-3.121-0.393-4.809
			c-0.6-7.482-1.344-16.613-2.197-26.871c-3.181-17.748-4.487-35.041-4.347-51.715c0.994-114.998,71.204-200.283,71.204-200.283
			l62.258-38.469c55.361,78.227,36.18,106.795,36.18,106.795l29.156-18.6l114.228-87.766l80.164-61.582
			c23.678-18.201,59.683-10.998,80.414,16.051c20.798,27.029,18.426,63.684-5.208,81.846l-58.108,44.617l1.69,2.113l73.242-56.27
			c27.053-20.742,65.834-15.664,86.547,11.352c20.737,27.053,15.71,65.803-11.311,86.6l-6.234,4.77
			c23.183-9.709,51.967-2.412,69.849,20.738c20.74,27.055,18.028,63.91-5.945,82.357l-15.271,11.736
			c19.768-4.02,43.602,5.605,59.605,26.482c20.739,27.059,20.553,62.021-0.493,78.178l-108.996,83.734l-12.203,9.377
			c-27.519,24.016-58.727,50.006-89.667,73.211c-18.933,14.205-37.768,27.375-55.597,38.383
			c-70.469,43.539-122.854,58.373-164.633,69.178c-22.577,5.83-42.053,10.48-59.587,17.848c-6.071,3.824-11.785-0.166-14.112-3.93
			l-168.027-271.961C688.694,1567.755,718.401,1559.022,716.021,1555.177z"/>
		<g>
			<path fill="#C1E0DA" d="M769.45,1726.632l-84.837-137.32c-8.929-14.449-27.898-18.932-42.356-10l-104.475,64.543
				c-14.453,8.934-18.929,27.906-10.002,42.348l84.843,137.324l35.656-22.025L769.45,1726.632z"/>
			<path fill="#B4CDC8" d="M854.299,1863.956l-84.849-137.324l-121.172,74.869l-35.656,22.025l84.844,137.322
				c8.938,14.469,27.891,18.939,42.351,10.01l104.473-64.555C858.746,1897.378,863.234,1878.421,854.299,1863.956z"/>
		</g>
		<path fill="#C1E0DA" d="M728.065,1978.12c-14.038,8.674-32.45,4.314-41.119-9.723c-8.673-14.033-4.325-32.439,9.71-41.111
			c14.037-8.674,32.444-4.32,41.122,9.717C746.442,1951.038,742.101,1969.448,728.065,1978.12z"/>
		<path fill="#C1E0DA" d="M659.082,2020.739c-14.031,8.664-32.442,4.316-41.114-9.717c-8.672-14.037-4.321-32.445,9.705-41.113
			c14.033-8.67,32.438-4.326,41.121,9.715C677.455,1993.653,673.118,2012.065,659.082,2020.739z"/>
		<g>
			<g>
				<polygon fill="#DBDAD9" points="1030.09,797.612 1030.09,797.612 1022.446,811.448 1120.384,969.97 1797.551,881.872 
					1548.628,478.971 				"/>
				<polygon fill="#EBEAEA" points="1299.69,76.06 916.349,639.724 1014.287,798.233 1030.09,797.612 1548.628,478.971 				"/>
			</g>
			<g>
				<g>
					<path fill="#DDBD37" d="M930.73,644.714c-13.765-22.283-43.007-29.197-65.298-15.428l-497.261,320.24
						c-22.297,13.771-29.203,43.014-15.433,65.301l102.995,166.697l577.989-370.105L930.73,644.714z"/>
					<path fill="#BCA131" d="M455.733,1181.524l102.754,166.318c13.777,22.289,43.014,29.188,65.305,15.416l497.266-320.234
						c22.292-13.771,29.192-43.006,15.422-65.295l-102.758-166.311L455.733,1181.524z"/>
				</g>
				<path fill="#EBEAEA" d="M819.748,778.726c12.622,20.438,6.3,47.23-14.145,59.857l-161.43,99.742
					c-20.436,12.627-47.239,6.299-59.861-14.137l0,0c-12.629-20.436-6.296-47.234,14.144-59.857l161.437-99.74
					C780.331,751.96,807.118,758.29,819.748,778.726L819.748,778.726z"/>
			</g>
			<path fill="#DDBD37" d="M1833.223,841.831c10.564,17.088,5.27,39.498-11.824,50.057l0,0c-17.092,10.561-39.5,5.262-50.055-11.822
				l-481.763-779.747c-10.558-17.091-5.269-39.502,11.823-50.062l0,0c17.093-10.561,39.502-5.262,50.06,11.827L1833.223,841.831z"/>
			<g>
				<g>
					<path fill="#DBDAD9" d="M308.727,1272.083c43.222,69.951,134.334,92.613,207.024,53.025l-161.799-261.883
						C286.015,1110.519,265.515,1202.142,308.727,1272.083z"/>
				</g>
			</g>
			<g>
				<path fill="#DBDAD9" d="M1607.728,89.632c-8.527-9.505-19.146-11.398-23.717-4.227l-73.407,115.059
					c-4.576,7.17-1.377,20.699,7.149,30.193c7.01,7.83,15.431,10.493,20.747,7.211c1.154-0.711,2.154-1.699,2.967-2.978
					l73.403-115.052C1619.444,112.659,1616.247,99.142,1607.728,89.632z"/>
				<path fill="#DBDAD9" d="M1926.467,605.528c4.691,11.881,1.631,22.221-6.833,23.107l-135.738,14.16
					c-8.461,0.881-19.125-8.027-23.803-19.906c-3.863-9.762-2.478-18.494,2.833-21.779c1.156-0.711,2.495-1.168,3.986-1.326
					l135.744-14.158C1911.119,584.739,1921.772,593.655,1926.467,605.528z"/>
				<path fill="#DBDAD9" d="M1761.281,323.294l-116.877,72.211c-6.798,4.193-6.719,16.641,0.163,27.779
					c6.89,11.146,17.979,16.779,24.774,12.576l116.874-72.207c6.794-4.197,6.717-16.637-0.171-27.785
					C1779.162,324.729,1768.068,319.095,1761.281,323.294z"/>
			</g>
		</g>
	</g>
	<g>
		<polygon fill="none" points="0,2196.46 0,2197.606 711.368,1760.104 		"/>
		<path fill="#49494B" d="M809.509,1918.95l-98.141-158.846L0,2197.606L404.316,2199l403.344-243.794
			C817.347,1949.224,818.18,1932.989,809.509,1918.95z"/>
		<path fill="#646468" d="M613.228,1601.259c-8.669-14.027-23.568-20.564-33.257-14.574L0,1939.704v256.756l711.368-436.355
			L613.228,1601.259z"/>
	</g>
</g>
</svg>
