<?xml version="1.0" encoding="utf-8"?>
<!-- Generator: Adobe Illustrator 16.0.3, SVG Export Plug-In . SVG Version: 6.00 Build 0)  -->
<!DOCTYPE svg PUBLIC "-//W3C//DTD SVG 1.1//EN" "http://www.w3.org/Graphics/SVG/1.1/DTD/svg11.dtd">
<svg version="1.1" id="Layer_1" xmlns="http://www.w3.org/2000/svg" xmlns:xlink="http://www.w3.org/1999/xlink" x="0px" y="0px"
	 width="4520px" height="3936px" viewBox="0 0 4520 3936" enable-background="new 0 0 4520 3936" xml:space="preserve">
<g>
	<g>
		<circle fill="#F8B62D" cx="821.554" cy="2129.938" r="534.434"/>
		<circle fill="none" stroke="#FFFFFF" stroke-width="20" stroke-miterlimit="10" cx="821.554" cy="2129.938" r="456.449"/>
		<text transform="matrix(1 0 0 1 525.5254 2073.584)"><tspan x="0" y="0" fill="#3E3A39" font-family="'MicrosoftJhengHeiBold'" font-size="197.3524">多元化</tspan><tspan x="0" y="236.824" fill="#3E3A39" font-family="'MicrosoftJhengHeiBold'" font-size="197.3524">計程車</tspan></text>
	</g>
	<g>
		<circle fill="#8FC31F" cx="3706.977" cy="1379.548" r="534.434"/>
		<circle fill="none" stroke="#FFFFFF" stroke-width="20" stroke-miterlimit="10" cx="3705.563" cy="1379.548" r="456.449"/>
		
			<text transform="matrix(1 0 0 1 3345.2422 1511.1714)" fill="#FFFFFF" font-family="'MicrosoftJhengHeiBold'" font-size="275.5042">UBER</text>
	</g>
	<g>
		<ellipse fill="#604C3F" cx="2293.116" cy="3772.426" rx="1744.97" ry="107.684"/>
		<path fill="#FFFFFF" d="M4449.607,1778.717L3708.885,430.26c-4.148-6.563-11.086-10.773-18.731-11.508v76.055l717.213,1310.628
			c4.754,7.523,12.859,11.641,21.144,11.641c4.566,0,9.191-1.258,13.338-3.873
			C4453.512,1805.822,4456.989,1790.387,4449.607,1778.717z"/>
		<path fill="#FFFFFF" d="M1610.479,2531.353L869.756,1182.896c-4.551-7.201-12.457-11.583-20.975-11.634
			c-4.323-0.002-8.528,1.112-12.229,3.151v90.509l11.815-22.335l719.87,1315.484c4.754,7.523,12.859,11.641,21.144,11.641
			c4.566,0,9.192-1.258,13.339-3.874C1614.383,2558.459,1617.861,2543.022,1610.479,2531.353z"/>
		
			<rect x="628.228" y="635.14" transform="matrix(0.9685 -0.2489 0.2489 0.9685 -99.4788 590.4855)" fill="#C4C4C1" width="3313.69" height="106.894"/>
		<g>
			<path fill="#FFFFFF" d="M980.881,1079.356c0,74.269-60.21,134.471-134.473,134.471c-74.264,0-134.473-60.202-134.473-134.471
				c0-74.265,60.208-134.466,134.473-134.466C920.671,944.891,980.881,1005.091,980.881,1079.356z"/>
			<path fill="#D4D2CE" d="M934.872,1079.356c0,48.86-39.607,88.473-88.464,88.473c-48.861,0-88.469-39.613-88.469-88.473
				c0-48.855,39.608-88.466,88.469-88.466C895.265,990.891,934.872,1030.501,934.872,1079.356z"/>
		</g>
		<rect x="2190.386" y="1036.711" fill="#FFFFFF" width="216.05" height="2000.635"/>
		<g>
			<g>
				<path fill="#E1E1DC" d="M2502.239,3198.532c0-101.403-82.196-183.606-183.606-183.606h-40.434
					c-101.409,0-183.603,82.203-183.603,183.606v266.836h407.643V3198.532z"/>
			</g>
		</g>
		<g>
			<path fill="#D6D4D1" d="M2629.635,3463.336H1967.22c-78.044,0-142.82,56.285-156.291,130.439h974.979
				C2772.465,3519.621,2707.673,3463.336,2629.635,3463.336z"/>
		</g>
		<g>
			<path fill="#C4C4C1" d="M3250.257,3775.346c0-101.406-82.21-183.607-183.606-183.607H1530.169
				c-101.408,0-183.605,82.201-183.605,183.607v1.875h1903.693V3775.346z"/>
		</g>
		<path fill="#E1E1DC" d="M2340.342,387.867c-0.742-0.2-1.461-0.426-2.212-0.62c-1.46-0.355-2.985-0.647-4.448-0.971
			c-10.728-2.412-22.089-3.847-34.249-3.847c-0.355,0-0.685,0.039-1.015,0.039c-0.359,0-0.691-0.039-1.02-0.039
			c-12.162,0-23.515,1.435-34.243,3.847c-1.493,0.324-2.985,0.616-4.455,0.971c-0.741,0.194-1.492,0.42-2.238,0.62
			c-115.349,30.011-146.58,175.963-146.58,175.963v20.382v358.73v4.071c4.93,3.407,9.264,6.926,13.329,10.488
			c15.69,18.617,39.652,52.386,39.652,85.311h271.078c0-32.924,23.971-66.694,39.685-85.311c4.062-3.563,8.399-7.082,13.326-10.488
			v-4.071v-358.73V563.83C2486.952,563.83,2455.693,417.878,2340.342,387.867z"/>
		<path fill="#FFFFFF" d="M2341.227,712.621c0,23.646-19.156,42.808-42.79,42.808c-23.64,0-42.828-19.162-42.828-42.808
			c0-23.637,19.188-42.8,42.828-42.8C2322.07,669.82,2341.227,688.983,2341.227,712.621z"/>
		<path fill="#E1E1DC" d="M2408.48,280.504c0,102.441-49.275,130.45-110.063,130.45c-60.786,0-110.064-28.009-110.064-130.45
			C2188.354,178.07,2298.418,40,2298.418,40S2408.48,178.07,2408.48,280.504z"/>
		<g>
			<path fill="#FFFFFF" d="M3820.082,326.709c0,74.265-60.204,134.468-134.47,134.468c-74.265,0-134.467-60.203-134.467-134.468
				c0-74.268,60.202-134.467,134.467-134.467C3759.878,192.242,3820.082,252.441,3820.082,326.709z"/>
			<circle fill="#D4D2CE" cx="3685.613" cy="326.709" r="88.466"/>
		</g>
		<g>
			<g>
				<g>
					<g>
						<g>
							<polygon fill="#F8F9F7" points="605.448,1127.021 605.448,1127.021 605.441,1127.021 							"/>
						</g>
					</g>
				</g>
			</g>
		</g>
		<g>
			<path fill="#FFFFFF" d="M3068.564,1950.652h1234.1c98.145,0,177.707-79.563,177.707-177.707H2890.855
				C2890.855,1871.09,2970.418,1950.652,3068.564,1950.652z"/>
		</g>
		<path fill="#FFFFFF" d="M3687.909,418.626c-8.458-0.004-16.478,4.243-21.111,11.391l-720.974,1355.471
			c-7.514,11.578-4.218,27.055,7.361,34.574c11.584,7.51,27.058,4.213,34.567-7.369l699.743-1322.742l2.657,4.856v-76.055
			C3689.411,418.682,3688.664,418.631,3687.909,418.626z"/>
		<path fill="#FFFFFF" d="M827.669,1182.654L106.695,2538.125c-7.513,11.577-4.217,27.055,7.361,34.574
			c11.584,7.51,27.058,4.213,34.568-7.37l687.927-1300.406v-90.509C833.012,1176.364,829.934,1179.159,827.669,1182.654z"/>
		<g>
			<path fill="#FFFFFF" d="M229.435,2703.289h1234.101c98.146,0,177.708-79.563,177.708-177.708H51.727
				C51.727,2623.727,131.29,2703.289,229.435,2703.289z"/>
		</g>
	</g>
</g>
</svg>
