<?xml version="1.0" encoding="utf-8"?>
<!-- Generator: Adobe Illustrator 16.0.3, SVG Export Plug-In . SVG Version: 6.00 Build 0)  -->
<!DOCTYPE svg PUBLIC "-//W3C//DTD SVG 1.1//EN" "http://www.w3.org/Graphics/SVG/1.1/DTD/svg11.dtd">
<svg version="1.1" id="分離模式" xmlns="http://www.w3.org/2000/svg" xmlns:xlink="http://www.w3.org/1999/xlink" x="0px"
	 y="0px" width="88px" height="69.637px" viewBox="0 0 88 69.637" enable-background="new 0 0 88 69.637" xml:space="preserve">
<g>
	<path fill="#FFFFFF" d="M59.326,1.822H29.142c-15.263,0-27.636,12.373-27.636,27.636l0,0c0,15.263,12.373,27.636,27.636,27.636
		h43.887L86.96,69.637V45.791V31.106v-1.648C86.96,14.195,74.588,1.822,59.326,1.822z"/>
	<path fill="#1354A2" d="M66.833,21.909c0,0.888-0.72,1.607-1.607,1.607H21.351c-0.888,0-1.608-0.72-1.608-1.607l0,0
		c0-0.889,0.72-1.608,1.608-1.608h43.875C66.114,20.301,66.833,21.021,66.833,21.909L66.833,21.909z"/>
	<path fill="#1354A2" d="M66.833,31.737c0,0.888-0.72,1.607-1.607,1.607H21.351c-0.888,0-1.608-0.72-1.608-1.607l0,0
		c0-0.889,0.72-1.608,1.608-1.608h43.875C66.114,30.129,66.833,30.849,66.833,31.737L66.833,31.737z"/>
	<path fill="#1354A2" d="M66.833,41.565c0,0.888-0.72,1.607-1.607,1.607H21.351c-0.888,0-1.608-0.72-1.608-1.607l0,0
		c0-0.889,0.72-1.608,1.608-1.608h43.875C66.114,39.957,66.833,40.677,66.833,41.565L66.833,41.565z"/>
</g>
</svg>
