<?xml version="1.0" encoding="utf-8"?>
<!-- Generator: Adobe Illustrator 16.0.3, SVG Export Plug-In . SVG Version: 6.00 Build 0)  -->
<!DOCTYPE svg PUBLIC "-//W3C//DTD SVG 1.1//EN" "http://www.w3.org/Graphics/SVG/1.1/DTD/svg11.dtd">
<svg version="1.1" id="分離模式" xmlns="http://www.w3.org/2000/svg" xmlns:xlink="http://www.w3.org/1999/xlink" x="0px"
	 y="0px" width="141.408px" height="30.193px" viewBox="0 0 141.408 30.193" enable-background="new 0 0 141.408 30.193"
	 xml:space="preserve">
<g>
	<g>
		<path fill="#FFFFFF" d="M49.913,17.397l-0.849,2.372h-0.048c-0.151-0.557-0.405-1.345-0.803-2.346l-4.537-11.38h-4.435v18.091
			h2.925V13.014c0-0.686-0.015-1.516-0.043-2.465c-0.016-0.48-0.069-0.865-0.083-1.158h0.064c0.148,0.682,0.304,1.2,0.414,1.548
			l5.44,13.196h2.047l5.398-13.316c0.122-0.304,0.251-0.896,0.371-1.428h0.064c-0.07,1.316-0.131,2.521-0.139,3.249v11.495h3.12
			V6.044h-4.259L49.913,17.397z"/>
		<rect x="61.761" y="11.17" fill="#FFFFFF" width="3.05" height="12.965"/>
		<path fill="#FFFFFF" d="M63.317,5.66c-0.503,0-0.94,0.172-1.3,0.51c-0.361,0.34-0.544,0.767-0.544,1.272
			c0,0.496,0.181,0.916,0.537,1.246c0.355,0.329,0.796,0.496,1.307,0.496c0.51,0,0.951-0.167,1.311-0.496
			c0.361-0.33,0.545-0.75,0.545-1.246c0-0.486-0.178-0.91-0.53-1.259C64.291,5.836,63.844,5.66,63.317,5.66z"/>
		<path fill="#FFFFFF" d="M75.607,11.041c-0.587-0.122-1.16-0.184-1.704-0.184c-1.399,0-2.647,0.3-3.709,0.893
			c-1.063,0.592-1.887,1.438-2.445,2.515c-0.559,1.074-0.842,2.327-0.842,3.727c0,1.225,0.275,2.348,0.816,3.34
			c0.543,0.992,1.311,1.77,2.283,2.307c0.971,0.538,2.093,0.811,3.334,0.811c1.449,0,2.687-0.29,3.679-0.861l0.04-0.023V20.77
			l-0.128,0.094c-0.45,0.328-0.953,0.59-1.492,0.777s-1.031,0.283-1.461,0.283c-1.197,0-2.157-0.375-2.855-1.113
			c-0.698-0.739-1.054-1.776-1.054-3.082c0-1.315,0.37-2.38,1.099-3.165c0.727-0.783,1.689-1.181,2.86-1.181
			c1.003,0,1.979,0.34,2.903,1.009l0.128,0.093v-2.942l-0.041-0.023C76.671,11.323,76.196,11.163,75.607,11.041z"/>
		<path fill="#FFFFFF" d="M85.656,10.944c-0.766,0-1.452,0.247-2.039,0.732c-0.517,0.427-0.888,1.009-1.174,1.739h-0.032V11.17
			h-3.05v12.965h3.05v-6.632c0-1.128,0.257-2.054,0.76-2.754c0.498-0.69,1.162-1.041,1.973-1.041c0.275,0,0.584,0.045,0.918,0.135
			c0.33,0.089,0.569,0.185,0.711,0.287l0.128,0.093v-3.075l-0.05-0.021C86.567,11.007,86.165,10.944,85.656,10.944z"/>
		<path fill="#FFFFFF" d="M93.94,10.857c-2.139,0-3.837,0.627-5.048,1.862c-1.21,1.236-1.823,2.946-1.823,5.084
			c0,2.029,0.599,3.661,1.78,4.852c1.182,1.189,2.788,1.793,4.777,1.793c2.072,0,3.737-0.635,4.948-1.888
			c1.209-1.252,1.822-2.944,1.822-5.032c0-2.063-0.576-3.708-1.711-4.889C97.552,11.457,95.954,10.857,93.94,10.857z M96.365,20.841
			c-0.573,0.719-1.436,1.083-2.563,1.083c-1.119,0-2.004-0.371-2.626-1.104c-0.627-0.736-0.944-1.784-0.944-3.117
			c0-1.374,0.317-2.451,0.944-3.2c0.623-0.743,1.498-1.12,2.602-1.12c1.07,0,1.923,0.36,2.533,1.071
			c0.613,0.716,0.925,1.782,0.925,3.174C97.235,19.036,96.942,20.117,96.365,20.841z"/>
		<path fill="#FFFFFF" d="M107.161,16.527c-0.962-0.387-1.577-0.705-1.831-0.951c-0.244-0.237-0.369-0.573-0.369-0.999
			c0-0.378,0.153-0.679,0.469-0.925c0.317-0.245,0.76-0.37,1.314-0.37c0.515,0,1.041,0.081,1.563,0.241
			c0.522,0.159,0.982,0.372,1.366,0.633l0.126,0.086v-2.819l-0.049-0.022c-0.354-0.15-0.819-0.279-1.386-0.385
			c-0.565-0.105-1.077-0.158-1.521-0.158c-1.454,0-2.658,0.373-3.576,1.106c-0.926,0.737-1.394,1.704-1.394,2.876
			c0,0.609,0.101,1.149,0.301,1.606c0.199,0.461,0.51,0.866,0.923,1.206c0.408,0.339,1.039,0.69,1.876,1.05
			c0.703,0.29,1.227,0.534,1.561,0.729c0.326,0.188,0.557,0.377,0.687,0.563c0.128,0.183,0.192,0.429,0.192,0.736
			c0,0.872-0.652,1.294-1.994,1.294c-0.499,0-1.067-0.104-1.688-0.309c-0.623-0.205-1.204-0.5-1.729-0.876l-0.128-0.093v2.973
			l0.047,0.021c0.437,0.202,0.988,0.372,1.637,0.506s1.237,0.202,1.747,0.202c1.58,0,2.85-0.374,3.776-1.111
			c0.934-0.742,1.407-1.733,1.407-2.945c0-0.874-0.255-1.623-0.757-2.228C109.232,17.564,108.368,17.015,107.161,16.527z"/>
		<path fill="#FFFFFF" d="M118.688,10.857c-2.139,0-3.836,0.627-5.046,1.862c-1.21,1.236-1.824,2.946-1.824,5.084
			c0,2.029,0.6,3.661,1.78,4.852c1.182,1.189,2.789,1.793,4.777,1.793c2.072,0,3.736-0.635,4.947-1.888
			c1.21-1.252,1.824-2.944,1.824-5.032c0-2.063-0.577-3.708-1.711-4.889C122.3,11.457,120.703,10.857,118.688,10.857z
			 M121.113,20.841c-0.572,0.719-1.435,1.083-2.563,1.083c-1.12,0-2.004-0.371-2.626-1.104c-0.626-0.736-0.944-1.784-0.944-3.117
			c0-1.374,0.318-2.451,0.944-3.2c0.622-0.743,1.497-1.12,2.602-1.12c1.07,0,1.923,0.36,2.533,1.071
			c0.613,0.716,0.924,1.782,0.924,3.174C121.983,19.036,121.69,20.117,121.113,20.841z"/>
		<path fill="#FFFFFF" d="M141.408,13.658V11.17h-3.089V7.303l-0.104,0.032l-2.901,0.888l-0.057,0.018v2.93h-4.577V9.539
			c0-0.762,0.171-1.342,0.506-1.73c0.332-0.384,0.809-0.578,1.415-0.578c0.435,0,0.887,0.104,1.342,0.306l0.113,0.051v-2.62
			l-0.053-0.019c-0.424-0.152-1.001-0.229-1.715-0.229c-0.902,0-1.721,0.197-2.434,0.584c-0.715,0.39-1.277,0.945-1.67,1.651
			s-0.592,1.521-0.592,2.422v1.794h-2.15v2.488h2.15v10.477h3.087V13.658h4.577v6.657c0,2.742,1.293,4.133,3.844,4.133
			c0.42,0,0.861-0.05,1.311-0.146c0.459-0.099,0.771-0.197,0.955-0.302l0.041-0.023v-2.513l-0.126,0.084
			c-0.167,0.112-0.376,0.202-0.62,0.271c-0.246,0.068-0.452,0.104-0.61,0.104c-0.598,0-1.039-0.161-1.313-0.479
			c-0.278-0.321-0.419-0.881-0.419-1.667v-6.12H141.408z"/>
	</g>
	<rect fill="#EB6100" width="14.348" height="14.347"/>
	<rect x="15.841" fill="#8FC31F" width="14.347" height="14.347"/>
	<rect y="15.847" fill="#00A0E9" width="14.347" height="14.347"/>
	<rect x="15.841" y="15.847" fill="#FCC800" width="14.347" height="14.347"/>
</g>
</svg>
