<?xml version="1.0" encoding="utf-8"?>
<!-- Generator: Adobe Illustrator 16.0.3, SVG Export Plug-In . SVG Version: 6.00 Build 0)  -->
<!DOCTYPE svg PUBLIC "-//W3C//DTD SVG 1.1//EN" "http://www.w3.org/Graphics/SVG/1.1/DTD/svg11.dtd">
<svg version="1.1" id="圖層_1" xmlns="http://www.w3.org/2000/svg" xmlns:xlink="http://www.w3.org/1999/xlink" x="0px" y="0px"
	 width="294.661px" height="67.046px" viewBox="0 0 294.661 67.046" enable-background="new 0 0 294.661 67.046"
	 xml:space="preserve">
<g>
	<g>
		<polygon fill="#0078D7" points="29.975,32.872 64.8,32.872 64.8,2.251 29.975,7.114 		"/>
		<polygon fill="#0078D7" points="27.498,32.872 27.498,7.46 1,11.161 1,32.872 		"/>
		<polygon fill="#0078D7" points="27.498,35.353 1,35.353 1,57.142 27.498,60.839 		"/>
		<polygon fill="#0078D7" points="29.975,35.353 29.975,61.187 64.8,66.046 64.8,35.353 		"/>
	</g>
	<g>
		<g>
			<path fill="#0078D7" d="M133.575,15.027l-10.809,38.267h-5.255L109.638,25.3c-0.304-1.049-0.498-2.338-0.588-3.867h-0.104
				c-0.144,1.318-0.388,2.586-0.722,3.816l-7.926,28.045h-5.202L83.911,15.027h4.912l8.138,29.354
				c0.338,1.301,0.561,2.58,0.668,3.844h0.105c0.089-1.088,0.359-2.369,0.801-3.844l8.485-29.354h4.324l8.086,29.567
				c0.305,1.104,0.518,2.289,0.643,3.549h0.105c0.089-0.924,0.328-2.143,0.722-3.656l7.816-29.46H133.575z"/>
			<path fill="#0078D7" d="M142.259,16.978c0,0.818-0.283,1.498-0.854,2.043c-0.57,0.543-1.244,0.813-2.027,0.813
				c-0.801,0-1.479-0.262-2.027-0.785c-0.553-0.525-0.828-1.215-0.828-2.07c0-0.764,0.272-1.426,0.816-1.987
				c0.54-0.562,1.221-0.841,2.04-0.841s1.503,0.277,2.055,0.826C141.981,15.53,142.259,16.196,142.259,16.978z M141.511,53.294
				h-4.375V25.97h4.375V53.294z"/>
			<path fill="#0078D7" d="M170.818,53.294h-4.373V37.708c0-5.779-2.119-8.67-6.354-8.67c-2.155,0-3.96,0.813-5.404,2.439
				c-1.448,1.631-2.173,3.707-2.173,6.23v15.586h-4.376V25.97h4.376v4.535h0.102c2.049-3.469,5.038-5.205,8.975-5.205
				c3.003,0,5.29,0.982,6.867,2.938c1.575,1.955,2.361,4.732,2.361,8.326V53.294z"/>
			<path fill="#0078D7" d="M201.191,53.294h-4.376v-4.643h-0.109c-2.027,3.541-5.157,5.311-9.395,5.311
				c-3.449,0-6.198-1.242-8.245-3.723c-2.045-2.48-3.073-5.797-3.073-9.941c0-4.518,1.138-8.145,3.409-10.887
				c2.27-2.738,5.306-4.111,9.113-4.111c3.735,0,6.465,1.479,8.19,4.43h0.109V12.839h4.376V53.294z M196.815,40.94v-4.031
				c0-2.26-0.752-4.135-2.258-5.629c-1.503-1.496-3.33-2.242-5.486-2.242c-2.628,0-4.722,0.975-6.267,2.92
				c-1.548,1.951-2.322,4.65-2.322,8.102c0,3.131,0.729,5.607,2.186,7.432c1.462,1.822,3.43,2.734,5.899,2.734
				c2.4,0,4.379-0.869,5.926-2.615C196.039,45.868,196.815,43.642,196.815,40.94z"/>
			<path fill="#0078D7" d="M233.501,39.526c0,4.338-1.231,7.83-3.696,10.473c-2.465,2.641-5.766,3.963-9.914,3.963
				c-4.037,0-7.264-1.283-9.677-3.855c-2.41-2.57-3.612-5.955-3.612-10.156c0-4.52,1.236-8.088,3.709-10.711
				c2.47-2.627,5.879-3.939,10.221-3.939c4.055,0,7.231,1.268,9.525,3.803C232.354,31.64,233.501,35.112,233.501,39.526z
				 M229.017,39.685c0-3.432-0.76-6.064-2.28-7.9c-1.522-1.828-3.701-2.746-6.529-2.746c-2.809,0-5.028,0.938-6.668,2.814
				c-1.634,1.879-2.455,4.523-2.455,7.939c0,3.271,0.821,5.83,2.47,7.672c1.645,1.84,3.864,2.762,6.653,2.762
				c2.851,0,5.024-0.91,6.539-2.719C228.26,45.688,229.017,43.081,229.017,39.685z"/>
			<path fill="#0078D7" d="M273.334,25.97l-8.191,27.324h-4.535l-5.631-19.561c-0.195-0.676-0.336-1.512-0.426-2.51h-0.111
				c-0.055,0.623-0.232,1.443-0.559,2.457l-6.112,19.613h-4.376l-8.247-27.324h4.593l5.632,20.545
				c0.176,0.715,0.302,1.533,0.371,2.455h0.218c0.034-0.674,0.2-1.51,0.499-2.506l6.278-20.494h4.002l5.684,20.602
				c0.18,0.693,0.303,1.512,0.375,2.453h0.211c0.035-0.854,0.18-1.672,0.426-2.453l5.58-20.602H273.334z"/>
			<path fill="#0078D7" d="M291.982,45.983c0,2.363-0.912,4.285-2.738,5.764c-1.824,1.479-4.244,2.215-7.268,2.215
				c-2.578,0-4.842-0.551-6.779-1.654V47.61c2.15,1.746,4.52,2.615,7.104,2.615c3.465,0,5.201-1.273,5.201-3.816
				c0-1.031-0.338-1.871-1.014-2.52c-0.678-0.652-2.217-1.527-4.621-2.631c-2.418-1.031-4.125-2.139-5.123-3.322
				c-0.992-1.182-1.49-2.752-1.49-4.711c0-2.256,0.904-4.143,2.719-5.656c1.816-1.51,4.119-2.27,6.914-2.27
				c2.15,0,4.1,0.428,5.842,1.281v4.406c-1.779-1.299-3.842-1.949-6.188-1.949c-1.445,0-2.607,0.355-3.484,1.066
				c-0.881,0.711-1.32,1.629-1.32,2.75c0,1.209,0.338,2.139,1.012,2.787c0.678,0.65,2.074,1.42,4.186,2.309
				c2.605,1.104,4.428,2.26,5.477,3.469C291.461,42.628,291.982,44.151,291.982,45.983z"/>
		</g>
	</g>
</g>
</svg>
