<?xml version="1.0" encoding="utf-8"?>
<!-- Generator: Adobe Illustrator 16.0.3, SVG Export Plug-In . SVG Version: 6.00 Build 0)  -->
<!DOCTYPE svg PUBLIC "-//W3C//DTD SVG 1.1//EN" "http://www.w3.org/Graphics/SVG/1.1/DTD/svg11.dtd">
<svg version="1.1" id="圖層_1" xmlns="http://www.w3.org/2000/svg" xmlns:xlink="http://www.w3.org/1999/xlink" x="0px" y="0px"
	 width="47.5px" height="41.5px" viewBox="0 0 47.5 41.5" enable-background="new 0 0 47.5 41.5" xml:space="preserve">
<g>
	<path fill="#FFFFFF" d="M23.853,33.821c-0.441,0-0.796-0.355-0.796-0.801V2.622c0-0.442,0.355-0.801,0.796-0.801
		c0.442,0,0.801,0.358,0.801,0.801v30.398C24.654,33.466,24.295,33.821,23.853,33.821L23.853,33.821z M23.853,33.821"/>
	<path fill="#FFFFFF" d="M14.256,13.02c-0.207,0-0.41-0.077-0.567-0.233c-0.312-0.313-0.312-0.817,0-1.129l9.602-9.603
		c0.312-0.312,0.816-0.312,1.129,0c0.313,0.313,0.313,0.82,0,1.133l-9.598,9.599C14.666,12.942,14.459,13.02,14.256,13.02
		L14.256,13.02z M14.256,13.02"/>
	<path fill="#FFFFFF" d="M33.455,13.02c-0.203,0-0.41-0.077-0.566-0.233l-9.598-9.599c-0.313-0.313-0.313-0.819,0-1.133
		c0.312-0.312,0.816-0.312,1.129,0l9.602,9.603c0.313,0.312,0.313,0.815,0,1.129C33.865,12.942,33.658,13.02,33.455,13.02
		L33.455,13.02z M33.455,13.02"/>
	<path fill="#FFFFFF" d="M33.455,13.02c-0.203,0-0.41-0.077-0.566-0.233l-9.598-9.599c-0.313-0.313-0.313-0.819,0-1.133
		c0.312-0.312,0.816-0.312,1.129,0l9.602,9.603c0.313,0.312,0.313,0.815,0,1.129C33.865,12.942,33.658,13.02,33.455,13.02
		L33.455,13.02z M33.455,13.02"/>
	<path fill="#FFFFFF" d="M46.256,40.22H1.455V29.821c0-0.441,0.359-0.801,0.801-0.801c0.441,0,0.801,0.359,0.801,0.801v8.801h41.597
		v-8.801c0-0.441,0.359-0.801,0.801-0.801s0.801,0.359,0.801,0.801V40.22z M46.256,40.22"/>
</g>
</svg>
