<?xml version="1.0" encoding="utf-8"?>
<!-- Generator: Adobe Illustrator 16.0.3, SVG Export Plug-In . SVG Version: 6.00 Build 0)  -->
<!DOCTYPE svg PUBLIC "-//W3C//DTD SVG 1.1//EN" "http://www.w3.org/Graphics/SVG/1.1/DTD/svg11.dtd">
<svg version="1.1" id="圖樣" xmlns="http://www.w3.org/2000/svg" xmlns:xlink="http://www.w3.org/1999/xlink" x="0px" y="0px"
	 width="247.924px" height="143.193px" viewBox="0 0 247.924 143.193" enable-background="new 0 0 247.924 143.193"
	 xml:space="preserve">
<g>
	<polyline points="1,142.193 48.712,128.928 57.24,111.154 224.051,127.254 244.301,2.85 7.301,38.85 18.533,107.418 35.029,109.01 
		33.551,121.794 1,142.193 	"/>
	<polyline fill="#FFFFFF" points="1,142.193 46.051,126.29 52.109,106.088 218.051,118.4 232.384,17.35 16.718,45.017 
		23.818,101.35 43.074,106.088 38.043,123.85 1,142.193 	"/>
	<g>
		<g>
			<path fill="#040000" d="M47.908,70.914c-1.866-1.014-2.798-1.51-4.664-2.48c-1.876,1.104-2.813,1.645-4.689,2.705
				c-2.875,0.069-4.314,0.103-7.189,0.172c2.813-1.54,4.221-2.336,7.034-3.974c-2.546,0.105-3.818,0.161-6.364,0.267
				c0-0.688,0-1.032,0-1.72c3.515-0.174,5.271-0.262,8.786-0.436c0-0.578,0-0.866,0-1.444c1.907-0.107,2.86-0.16,4.767-0.268
				c0,0.591,0,0.883,0,1.474c0.876-0.044,1.314-0.063,2.191-0.106c-0.186-0.377-0.278-0.566-0.464-0.941
				c1.876-0.101,2.813-0.151,4.688-0.252c0.145,0.386,0.217,0.579,0.361,0.966c0.845-0.042,1.269-0.063,2.114-0.104
				c0,0.761,0,1.139,0,1.899c-3.556,0.147-5.334,0.221-8.891,0.368c-0.361,0.239-0.541,0.36-0.901,0.598
				c1.742-0.067,2.613-0.103,4.354-0.17c2.463,1.271,3.696,1.926,6.159,3.271C52.284,70.809,50.825,70.844,47.908,70.914z
				 M53.706,60.161c0,1.283,0,1.924,0,3.207c-2.319,0.129-3.479,0.194-5.798,0.323c-0.113-0.17-0.17-0.257-0.283-0.427
				c-1.608,0.093-2.413,0.141-4.021,0.233c-0.762-0.846-1.144-1.266-1.906-2.096c1.938-0.131,2.906-0.196,4.843-0.327
				c0.319,0.362,0.48,0.541,0.8,0.906c0.763-0.048,1.144-0.07,1.906-0.119c0-0.558,0-0.836,0-1.394
				c-3.236,0.225-4.854,0.338-8.091,0.563c0-0.668,0-1.003,0-1.671c3.236-0.249,4.854-0.376,8.091-0.625c0-0.473,0-0.708,0-1.181
				c-0.423,0.288-0.633,0.43-1.056,0.716c-2.638,0.21-3.958,0.313-6.597,0.522c-0.381-0.509-0.571-0.76-0.953-1.264
				c0,2.626,0,3.941,0,6.567c-1.732,0.097-2.597,0.146-4.329,0.242c0-1.308,0-1.963,0-3.271c-0.319,0.022-0.48,0.035-0.799,0.058
				c0,0.874,0,1.31,0,2.183c-0.289,0.446-0.433,0.67-0.722,1.113c-1.36,0.076-2.042,0.112-3.402,0.188
				c0.371-0.55,0.558-0.825,0.929-1.38c0-0.752,0-1.128,0-1.879c-0.248,0.018-0.372,0.026-0.619,0.044c0-0.732,0-1.101,0-1.833
				c1.845-0.146,2.767-0.22,4.611-0.366c0-0.486,0.001-0.729,0.001-1.215c-1.659,0.142-2.49,0.211-4.149,0.353
				c0-1.524,0-2.286,0-3.811c1.33-0.137,1.994-0.208,3.324-0.345c0,0.85,0,1.273,0,2.123c0.33-0.03,0.496-0.044,0.825-0.074
				c0-1.044,0-1.567,0-2.611c1.731-0.183,2.597-0.273,4.329-0.456c0,0.968,0,1.451,0,2.419c1.133-1.091,1.701-1.643,2.834-2.759
				c2.062-0.218,3.092-0.327,5.154-0.545c-0.247,0.246-0.37,0.368-0.618,0.612c2.443-0.252,3.665-0.378,6.107-0.63
				c0,0.742,0,1.111,0,1.854c-1.763,1.264-2.645,1.887-4.407,3.108c1.598-0.134,2.396-0.2,3.994-0.334c0,0.603,0,0.907,0,1.51
				c0.381-0.029,0.572-0.046,0.954-0.075c0,0.709,0,1.063,0,1.772C54.278,60.119,54.087,60.135,53.706,60.161z M44.301,55.708
				c-1.463,0.135-2.196,0.203-3.659,0.338c0,0.479,0,0.721,0,1.2c0.495-0.043,0.743-0.064,1.238-0.107
				c-0.216-0.309-0.325-0.46-0.542-0.767c1.092-0.099,1.638-0.151,2.73-0.25c0.227,0.31,0.34,0.464,0.567,0.775
				c0.247-0.021,0.372-0.03,0.619-0.052C44.873,56.389,44.682,56.16,44.301,55.708z M46.131,54.789
				c-0.175,0.167-0.264,0.251-0.439,0.418c0.443-0.042,0.665-0.061,1.108-0.103c0.093,0.142,0.14,0.209,0.232,0.351
				c0.474-0.346,0.711-0.515,1.185-0.863C47.383,54.672,46.965,54.709,46.131,54.789z"/>
			<path fill="#040000" d="M57.956,70.65c0-3.709,0-5.564,0-9.273c4.174-0.264,6.262-0.394,10.437-0.657c0,3.872,0,5.807,0,9.679
				C64.218,70.499,62.13,70.55,57.956,70.65z M60.069,59.827c0-3.389,0-5.083,0-8.471c7.297-0.762,10.946-1.143,18.244-1.904
				c0,3.646,0,5.469,0,9.115C71.016,59.071,67.367,59.323,60.069,59.827z M63.934,63.132c-0.608,0.033-0.912,0.051-1.52,0.084
				c0,2.1,0,3.149,0,5.249c0.608-0.02,0.912-0.032,1.52-0.052C63.934,66.301,63.934,65.244,63.934,63.132z M73.52,52.195
				c-3.463,0.331-5.195,0.494-8.658,0.825c0,1.733,0,2.6,0,4.333c3.463-0.27,5.194-0.405,8.658-0.675
				C73.519,54.885,73.52,53.989,73.52,52.195z M69.525,70.37c0-3.899,0-5.848,0-9.747c4.174-0.264,6.263-0.396,10.438-0.66
				c0,4.063,0,6.095,0,10.157C75.789,70.221,73.7,70.27,69.525,70.37z M75.504,62.481c-0.587,0.032-0.88,0.046-1.468,0.078
				c0,2.2,0,3.3,0,5.5c0.587-0.02,0.88-0.028,1.468-0.048C75.504,65.799,75.504,64.694,75.504,62.481z"/>
			<path fill="#040000" d="M88.438,53.145c1.248-0.108,1.871-0.161,3.119-0.27c0,0.95,0,1.425,0,2.375
				c-1.33,1.875-1.995,2.803-3.325,4.635c0.629-0.039,0.943-0.056,1.572-0.095c0-0.775,0-1.164,0-1.939
				c0.701-0.048,1.052-0.074,1.753-0.122c0,1.721,0,2.582,0,4.303c-3.206,0.17-4.81,0.254-8.016,0.424c0-1,0-1.5,0-2.5
				c1.33-1.725,1.995-2.597,3.325-4.363c-1.34,0.104-2.011,0.156-3.351,0.261c0-0.962,0-1.443,0-2.405
				c1.525-2.065,2.288-3.109,3.813-5.231c1.979-0.209,2.97-0.314,4.949-0.523C90.742,49.902,89.975,50.992,88.438,53.145z
				 M83.567,70.033c0-2.711,0-4.067,0-6.778c0.887-0.044,1.33-0.064,2.217-0.108c0,2.733,0,4.099,0,6.832
				C84.897,70,84.454,70.012,83.567,70.033z M86.427,69.963c0-2.74,0-4.108,0-6.849c0.887-0.044,1.33-0.066,2.217-0.11
				c0,2.763,0,4.143,0,6.905C87.757,69.931,87.314,69.941,86.427,69.963z M89.289,69.894c0-2.77,0-4.154,0-6.924
				c0.886-0.044,1.33-0.064,2.216-0.108c0,2.792,0,4.188,0,6.98C90.618,69.863,90.175,69.872,89.289,69.894z M94.34,69.748
				c-1.01,0.024-1.516,0.036-2.526,0.061c0.206-2.63,0.31-3.946,0.516-6.586c1-0.049,1.5-0.072,2.5-0.121
				C94.633,65.765,94.536,67.094,94.34,69.748z M92.329,61.766c0-5.06,0-7.59,0-12.648c1.309-0.131,1.964-0.197,3.273-0.328
				c0.268-0.605,0.402-0.909,0.67-1.518c2.021-0.213,3.03-0.32,5.051-0.533c-0.248,0.617-0.371,0.925-0.618,1.539
				c1.989-0.199,2.983-0.301,4.973-0.5c0,5.308,0,7.963,0,13.271C100.338,61.335,97.668,61.479,92.329,61.766z M101.787,69.593
				c-2.618,0.063-3.926,0.096-6.544,0.159c0-2.901,0-4.353,0-7.254c1.577-0.08,2.365-0.119,3.942-0.199c0,1.956,0,2.933,0,4.889
				c1.412-0.047,2.118-0.067,3.53-0.114C102.344,68.086,102.158,68.587,101.787,69.593z M101.684,50.542
				c-2.123,0.195-3.186,0.292-5.309,0.487c0,1.08,0,1.621,0,2.701c0.381-0.918,0.572-1.378,0.953-2.303
				c0.845-0.076,1.268-0.116,2.113-0.192c-0.145,0.363-0.217,0.549-0.361,0.911c0.855-0.074,1.283-0.111,2.139-0.186
				c0,1.316,0,1.974,0,3.29c-0.309,0.406-0.464,0.608-0.773,1.013c0.495,0.409,0.742,0.612,1.237,1.025
				C101.684,54.589,101.684,53.242,101.684,50.542z M98.747,54.178c-0.216,0.018-0.326,0.025-0.542,0.043
				c-0.113,0.266-0.169,0.398-0.283,0.664c-0.619,0.048-0.928,0.071-1.546,0.119c0,0.192,0,0.289,0,0.481
				c0.804-0.061,1.207-0.091,2.011-0.151c0.145-0.205,0.216-0.309,0.36-0.514C98.747,54.563,98.747,54.436,98.747,54.178z
				 M96.375,55.869c0,0.876,0,1.313,0,2.189c0.423-0.558,0.634-0.839,1.057-1.401C97.009,56.34,96.798,56.184,96.375,55.869z
				 M101.684,58.33c-0.722,0.046-1.082,0.069-1.804,0.115c-0.299-0.229-0.448-0.344-0.747-0.571
				c-0.206,0.261-0.31,0.394-0.516,0.653c-0.896,0.058-1.346,0.086-2.242,0.144c0,0.224,0,0.336,0,0.56
				c2.123-0.132,3.186-0.197,5.309-0.329C101.684,58.674,101.684,58.558,101.684,58.33z M100.009,66.281
				c-0.216-1.747-0.325-2.62-0.541-4.36c1.01-0.053,1.516-0.077,2.525-0.13c0.206,1.757,0.31,2.638,0.516,4.4
				C101.509,66.228,101.009,66.245,100.009,66.281z M103.514,69.553c-0.34-2.73-0.51-4.094-0.851-6.808
				c1.196-0.058,1.793-0.085,2.989-0.143c0.309,2.744,0.465,4.12,0.774,6.88C105.261,69.511,104.678,69.524,103.514,69.553z"/>
			<path fill="#040000" d="M113.845,54.869c0.206-0.016,0.31-0.023,0.516-0.039c0,5.795,0,8.693,0,14.488
				c-1.773,0.043-2.66,0.064-4.433,0.107c0-5.141,0-7.715,0-12.855c-0.402,0.027-0.603,0.043-1.005,0.07
				c0.711-4.331,1.068-6.508,1.779-10.892c1.824-0.192,2.735-0.289,4.56-0.481C114.695,49.126,114.412,51.047,113.845,54.869z
				 M120.082,69.182c-2.154,0.052-3.231,0.077-5.385,0.129c1.041-1.09,1.561-1.64,2.602-2.748c2.154-0.071,3.231-0.107,5.386-0.179
				C121.643,67.512,121.123,68.072,120.082,69.182z M127.607,46.688c0,0.42,0,0.631,0,1.051c1.546-0.145,2.319-0.216,3.865-0.36
				c0,2.675,0,4.012,0,6.687c-6.412,0.46-9.618,0.689-16.029,1.149c0-2.537,0-3.807,0-6.344c1.546-0.145,2.319-0.214,3.866-0.358
				c0-0.409,0-0.615,0-1.024c-1.536,0.148-2.304,0.223-3.84,0.371c0-0.937,0-1.405,0-2.342c6.587-0.688,9.88-1.032,16.467-1.721
				c0,0.988,0,1.482,0,2.471C130.204,46.435,129.339,46.521,127.607,46.688z M115.933,65.842c0-3.862,0-5.793,0-9.654
				c6.03-0.412,9.044-0.617,15.074-1.029c0,4.059,0,6.088,0,10.146C124.977,65.52,121.963,65.627,115.933,65.842z M119.309,50.689
				c-0.433,0.037-0.65,0.057-1.083,0.094c0,0.813,0,1.22,0,2.033c0.433-0.034,0.65-0.052,1.083-0.086
				C119.309,51.914,119.309,51.506,119.309,50.689z M126.603,57.493c-2.495,0.153-3.742,0.231-6.237,0.386
				c0,0.321-0.001,0.481-0.001,0.803c2.495-0.147,3.743-0.219,6.238-0.366C126.603,57.987,126.603,57.821,126.603,57.493z
				 M126.603,59.979c-2.495,0.134-3.742,0.201-6.237,0.335c0,0.344-0.001,0.516-0.001,0.859c2.495-0.126,3.743-0.19,6.238-0.316
				C126.603,60.507,126.603,60.33,126.603,59.979z M126.603,62.553c-2.495,0.112-3.743,0.169-6.238,0.281c0,0.344,0,0.516,0,0.859
				c2.495-0.105,3.743-0.158,6.238-0.264C126.603,63.079,126.603,62.903,126.603,62.553z M123.947,47.04
				c-0.433,0.042-0.649,0.063-1.082,0.104c0,0.414,0,0.621,0,1.035c0.433-0.04,0.649-0.06,1.082-0.1
				C123.947,47.665,123.947,47.455,123.947,47.04z M123.947,50.292c-0.433,0.037-0.649,0.056-1.082,0.093c0,0.826,0,1.238,0,2.064
				c0.433-0.034,0.649-0.052,1.082-0.086C123.947,51.534,123.947,51.121,123.947,50.292z M126.937,69.017
				c-1.124-1.082-1.686-1.619-2.809-2.681c2.154-0.071,3.231-0.105,5.385-0.177c1.113,1.081,1.67,1.628,2.783,2.729
				C130.153,68.94,129.081,68.965,126.937,69.017z M128.688,49.885c-0.433,0.037-0.648,0.054-1.081,0.091c0,0.839,0,1.26,0,2.099
				c0.433-0.034,0.648-0.052,1.081-0.086C128.688,51.146,128.688,50.727,128.688,49.885z"/>
			<path fill="#040000" d="M153.401,68.351c-0.392-0.495-0.588-0.74-0.979-1.232c-0.31,0.512-0.464,0.766-0.773,1.274
				c-1.804,0.043-2.706,0.066-4.51,0.109c1.103-1.836,1.654-2.763,2.757-4.629c-1.196-1.451-1.793-2.171-2.989-3.595
				c0,1.29,0,1.937,0,3.228c0.391-0.04,0.588-0.06,0.98-0.1c0,0.991,0,1.487,0,2.479c-0.392,0.048-0.589,0.074-0.98,0.122
				c0,1.001,0,1.5,0,2.501c-1.804,0.043-2.705,0.064-4.509,0.108c0-0.844,0-1.267,0-2.11c-3,0.33-4.5,0.49-7.5,0.809
				c0-0.952,0-1.427,0-2.379c0.464-0.063,0.696-0.096,1.16-0.159c0-3.589,0-5.384,0-8.973c-0.402,0.026-0.603,0.041-1.005,0.067
				c0-0.977,0-1.465,0-2.441c8.947-0.652,13.421-0.979,22.368-1.631c0,1.046-0.001,1.568-0.001,2.614
				c-4.205,0.274-6.308,0.409-10.513,0.684c0,1.977,0,2.966,0,4.942c1.804-0.09,2.707-0.136,4.51-0.226
				c0.196,0.259,0.293,0.39,0.489,0.649c0.392-0.644,0.587-0.968,0.979-1.614c-2.144,0.113-3.216,0.171-5.361,0.284
				c0-1.026,0.001-1.541,0.001-2.567c3.845-0.232,5.768-0.351,9.612-0.583c0,1.205,0,1.813,0,3.018
				c-1.062,1.857-1.593,2.776-2.655,4.604c1.463,1.831,2.196,2.759,3.659,4.632C156.245,68.282,155.297,68.305,153.401,68.351z
				 M136.057,52.309c0-3.554,0-5.33,0-8.884c8.123-0.848,12.184-1.272,20.306-2.12c0,3.782,0,5.673,0,9.455
				C148.241,51.379,144.18,51.689,136.057,52.309z M142.397,55.393c-0.825,0.054-1.237,0.079-2.062,0.133c0,0.52,0,0.779,0,1.299
				c0.825-0.051,1.237-0.077,2.062-0.128C142.397,56.174,142.397,55.915,142.397,55.393z M142.396,59.076
				c-0.825,0.044-1.237,0.068-2.062,0.112c0,0.532,0,0.795,0,1.327c0.825-0.041,1.237-0.061,2.062-0.102
				C142.397,59.879,142.396,59.611,142.396,59.076z M142.397,62.762c-0.825,0.035-1.237,0.053-2.062,0.088c0,0.578,0,0.865,0,1.443
				c0.825-0.091,1.237-0.133,2.062-0.225C142.397,63.546,142.397,63.284,142.397,62.762z M151.467,44.291
				c-4.226,0.409-6.339,0.615-10.565,1.024c0,0.426,0,0.638,0,1.063c4.227-0.396,6.339-0.593,10.565-0.988
				C151.467,44.951,151.467,44.73,151.467,44.291z M151.467,47.529c-4.226,0.368-6.339,0.551-10.565,0.919c0,0.415,0,0.623,0,1.038
				c4.227-0.354,6.339-0.532,10.565-0.887C151.467,48.171,151.467,47.958,151.467,47.529z"/>
			<path fill="#040000" d="M160.768,45.336c0-1.168,0-1.752,0-2.92c3.433-0.343,5.148-0.516,8.581-0.858
				c-0.195-0.715-0.294-1.068-0.49-1.78c2.103-0.221,3.155-0.333,5.257-0.554c0.227,0.72,0.341,1.081,0.567,1.804
				c3.381-0.337,5.071-0.508,8.452-0.845c0,1.245,0,1.869,0,3.113C174.189,44.112,169.715,44.521,160.768,45.336z M176.874,67.818
				c-0.278-0.665-0.417-0.996-0.695-1.658c-3.608,0.104-5.412,0.155-9.02,0.259c0-3.072,0-4.608,0-7.681
				c3.917-0.199,5.875-0.299,9.792-0.498c0,2.659,0,3.99,0,6.649c0.443-0.015,0.664-0.022,1.107-0.037c0-3.143,0-4.714,0-7.856
				c-4.803,0.261-7.205,0.391-12.008,0.65c0,4.173,0,6.259,0,10.432c-1.855,0.045-2.782,0.066-4.638,0.111c0-5.2,0-7.8,0-13
				c8.494-0.527,12.74-0.79,21.234-1.317c0,5.523,0,8.284,0,13.808C180.337,67.735,179.183,67.763,176.874,67.818z M162.829,53.778
				c0-2.92,0-4.385,0-7.305c7.318-0.64,10.979-0.957,18.297-1.596c0,3.076,0,4.613,0,7.689
				C173.808,53.05,170.147,53.295,162.829,53.778z M176.436,48.081c-3.545,0.282-5.318,0.422-8.864,0.704c0,0.743,0,1.116,0,1.859
				c3.546-0.263,5.318-0.397,8.864-0.66C176.436,49.223,176.436,48.843,176.436,48.081z M172.983,61.209
				c-0.681,0.029-1.021,0.044-1.701,0.073c0,0.894,0,1.34,0,2.233c0.681-0.025,1.021-0.036,1.701-0.062
				C172.983,62.556,172.983,62.107,172.983,61.209z"/>
			<path fill="#040000" d="M186.663,57.103c0-1.474,0.001-2.211,0.001-3.685c1.629-2.333,2.443-3.512,4.072-5.894
				c-1.659,0.129-2.49,0.196-4.15,0.325c0-1.283,0-1.926,0-3.209c1.69-2.877,2.536-4.333,4.226-7.273
				c2.072-0.218,3.107-0.327,5.179-0.545c-1.659,3.003-2.488,4.488-4.147,7.429c1.783-0.154,2.675-0.232,4.458-0.387
				c0,1.166,0,1.752,0,2.918c-1.062,1.61-1.592,2.408-2.654,3.997c1.092-0.075,1.639-0.112,2.731-0.188c0,2.4,0,3.602,0,6.002
				C192.492,56.798,190.549,56.898,186.663,57.103z M186.664,67.479c0-3.731,0-5.596,0-9.327c1.196-0.06,1.793-0.089,2.989-0.148
				c0,3.762,0,5.642,0,9.403C188.457,67.437,187.859,67.45,186.664,67.479z M190.349,67.392c0-3.77,0-5.654,0-9.424
				c1.093-0.055,1.639-0.081,2.731-0.136c0,3.797,0,5.697,0,9.494C191.988,67.353,191.442,67.365,190.349,67.392z M193.389,51.141
				c-0.69,1.037-1.036,1.554-1.727,2.582c0.69-0.042,1.036-0.063,1.727-0.105C193.389,52.627,193.389,52.131,193.389,51.141z
				 M193.724,67.311c0-3.804,0-5.707,0-9.511c1.062-0.053,1.592-0.08,2.654-0.133c0,3.83,0,5.748,0,9.579
				C195.316,67.271,194.786,67.285,193.724,67.311z M200.784,67.139c-0.423-1.268-0.633-1.901-1.056-3.162
				c1.876-0.062,2.814-0.092,4.69-0.153c0-8.138,0-12.208,0-20.345c-0.989,0.085-1.484,0.131-2.473,0.216
				c-0.351,2.03-0.526,3.041-0.877,5.063c-1.928,0.14-2.892,0.212-4.819,0.352c0.845-4.986,1.269-7.495,2.114-12.536
				c1.948-0.205,2.921-0.308,4.869-0.513c-0.289,1.655-0.432,2.48-0.72,4.129c2.576-0.244,3.864-0.364,6.441-0.608
				c0,10.943,0,16.416,0,27.36C205.685,67.02,204.051,67.06,200.784,67.139z M198.903,61.28c-0.69-4.317-1.036-6.466-1.726-10.743
				c1.824-0.125,2.737-0.188,4.561-0.313c0.711,4.328,1.067,6.504,1.778,10.873C201.671,61.17,200.749,61.207,198.903,61.28z"/>
			<path fill="#E60012" d="M80.79,99.147c0,0.375,0,0.563,0,0.938c-0.719-0.065-1.078-0.099-1.797-0.164c0-0.372,0-0.558,0-0.93
				c-1.693-0.148-2.54-0.224-4.234-0.372c-0.293-0.694-0.441-1.037-0.735-1.729c1.987,0.161,2.981,0.24,4.969,0.401
				c0-1.818,0-2.729,0-4.547c-1.84-0.116-2.76-0.176-4.601-0.292c0-2.904,0-4.356,0-7.261c1.84,0.063,2.76,0.097,4.601,0.16
				c0-0.408,0-0.614,0-1.022c0.719,0.022,1.078,0.033,1.797,0.056c0,0.411,0,0.616,0,1.027c1.833,0.063,2.749,0.098,4.582,0.161
				c0,0.72,0,1.077,0,1.797c-1.833-0.076-2.748-0.114-4.581-0.19c0,1.571,0,2.356,0,3.928c1.833,0.104,2.749,0.157,4.582,0.261
				c0,3.272,0,4.906,0,8.179C83.539,99.389,82.623,99.308,80.79,99.147z M78.993,87.107c-0.464-0.02-0.696-0.029-1.16-0.049
				c0,1.554,0,2.331,0,3.885c0.464,0.026,0.696,0.038,1.16,0.064C78.993,89.447,78.993,88.668,78.993,87.107z M81.931,92.933
				c-0.457-0.029-0.685-0.044-1.141-0.073c0,1.831,0,2.748,0,4.579c0.457,0.037,0.685,0.054,1.141,0.091
				C81.931,95.689,81.931,94.771,81.931,92.933z"/>
			<path fill="#E60012" d="M106.931,101.515c-5.701-0.5-8.552-0.749-14.252-1.249c0-1.206,0-1.81,0-3.016
				c3.711-3.183,5.567-4.834,9.278-8.253c0-2.068,0-3.103,0-5.171c-3.648-0.097-5.474-0.146-9.123-0.242c0-0.996,0-1.492,0-2.488
				c5.639,0.098,8.458,0.146,14.097,0.244c0,3.903,0,5.854,0,9.758c-3.134,2.959-4.7,4.398-7.834,7.187
				c3.587,0.282,5.38,0.421,8.968,0.703C107.611,100.003,107.385,100.508,106.931,101.515z"/>
			<path fill="#E60012" d="M112.263,105.646c-0.628-0.063-0.942-0.096-1.571-0.159c0.897-1.356,1.345-2.038,2.242-3.417
				c-1.144-0.101-1.716-0.151-2.86-0.252c0-1.946,0-2.918,0-4.864c1.835,0.13,2.752,0.196,4.587,0.326c0,1.88,0,2.815,0,4.695
				C113.702,103.456,113.222,104.191,112.263,105.646z"/>
			<path fill="#E60012" d="M121.953,102.834c0-7.392,0-11.087,0-18.479c-1.34-0.035-2.009-0.055-3.349-0.09c0-1.09,0-1.633,0-2.723
				c3.392,0.059,5.087,0.088,8.479,0.146c0,8.639,0,12.957,0,21.595C125.03,103.104,124.004,103.014,121.953,102.834z"/>
			<path fill="#E60012" d="M134.139,103.905c0-8.825,0-13.238,0-22.064c6,0.104,9,0.156,14.999,0.261c0,9.248,0,13.873,0,23.12
				C143.139,104.695,140.139,104.432,134.139,103.905z M144.01,85.06c-1.907-0.051-2.86-0.077-4.767-0.128c0,6.567,0,9.853,0,16.419
				c1.907,0.149,2.86,0.223,4.767,0.372C144.01,95.058,144.01,91.725,144.01,85.06z"/>
			<path fill="#E60012" d="M151.276,105.409c0-9.307,0-13.962,0-23.27c6,0.104,8.999,0.156,14.998,0.261c0,9.729,0,14.596,0,24.325
				C160.275,106.199,157.275,105.936,151.276,105.409z M161.145,85.52c-1.907-0.051-2.859-0.077-4.766-0.128c0,6.92,0,10.38,0,17.3
				c1.907,0.149,2.859,0.224,4.766,0.373C161.145,96.047,161.145,92.538,161.145,85.52z"/>
		</g>
	</g>
</g>
</svg>
