<?xml version="1.0" encoding="utf-8"?>
<!-- Generator: Adobe Illustrator 16.0.3, SVG Export Plug-In . SVG Version: 6.00 Build 0)  -->
<!DOCTYPE svg PUBLIC "-//W3C//DTD SVG 1.1//EN" "http://www.w3.org/Graphics/SVG/1.1/DTD/svg11.dtd">
<svg version="1.1" id="分離模式" xmlns="http://www.w3.org/2000/svg" xmlns:xlink="http://www.w3.org/1999/xlink" x="0px"
	 y="0px" width="26.357px" height="25.908px" viewBox="0 0 26.357 25.908" enable-background="new 0 0 26.357 25.908"
	 xml:space="preserve">
<path fill="#FFFFFF" d="M13.239,0C6.089,0,0,5.85,0,13v12.908h13.478c7.15,0,12.88-5.805,12.88-12.954
	C26.357,5.804,20.389,0,13.239,0z M14.498,21.228c-0.412,0.372-0.933,0.558-1.566,0.558c-0.632,0-1.158-0.19-1.578-0.569
	c-0.419-0.396-0.628-0.862-0.628-1.4c0-0.553,0.209-1.016,0.628-1.388c0.42-0.372,0.946-0.558,1.578-0.558
	c0.625,0,1.144,0.186,1.555,0.558c0.412,0.363,0.616,0.826,0.616,1.388C15.103,20.385,14.901,20.856,14.498,21.228z M18.082,9.82
	c-0.111,0.391-0.273,0.761-0.487,1.109c-0.214,0.348-0.479,0.682-0.795,1.002s-0.681,0.651-1.091,0.991
	c-0.277,0.229-0.521,0.442-0.73,0.641c-0.209,0.197-0.384,0.394-0.521,0.587c-0.14,0.194-0.243,0.399-0.315,0.617
	c-0.07,0.218-0.105,0.465-0.105,0.741c0,0.189,0.024,0.544,0.077,0.741c0.05,0.197,0.12,0.658,0.207,0.658h-3.121
	c-0.078,0-0.14-0.596-0.183-0.854c-0.045-0.256-0.066-0.58-0.066-0.809c0-0.364,0.036-0.736,0.107-1.037
	c0.071-0.3,0.178-0.604,0.32-0.868c0.142-0.266,0.32-0.528,0.533-0.77c0.214-0.241,0.463-0.486,0.748-0.722
	c0.301-0.253,0.563-0.491,0.789-0.708s0.417-0.437,0.575-0.654c0.157-0.218,0.276-0.445,0.356-0.678
	c0.078-0.233,0.118-0.492,0.118-0.776c0-0.246-0.044-0.473-0.13-0.683c-0.087-0.209-0.212-0.39-0.374-0.54
	c-0.162-0.149-0.36-0.269-0.593-0.355c-0.234-0.087-0.493-0.131-0.778-0.131c-0.616,0-1.665,0.129-2.329,0.386
	C9.631,7.965,9,8.354,8,8.877V5.306c1-0.364,1.681-0.637,2.4-0.819c0.721-0.181,1.668-0.272,2.436-0.272
	c0.734,0,1.52,0.081,2.153,0.243c0.632,0.162,1.236,0.417,1.706,0.766c0.471,0.349,0.864,0.793,1.129,1.334
	c0.265,0.542,0.41,1.192,0.41,1.952C18.234,8.991,18.191,9.429,18.082,9.82z"/>
</svg>
