<?xml version="1.0" encoding="utf-8"?>
<!-- Generator: Adobe Illustrator 16.0.3, SVG Export Plug-In . SVG Version: 6.00 Build 0)  -->
<!DOCTYPE svg PUBLIC "-//W3C//DTD SVG 1.1//EN" "http://www.w3.org/Graphics/SVG/1.1/DTD/svg11.dtd">
<svg version="1.1" id="圖層_1" xmlns="http://www.w3.org/2000/svg" xmlns:xlink="http://www.w3.org/1999/xlink" x="0px" y="0px"
	 width="409.635px" height="409.636px" viewBox="0 0 409.635 409.636" enable-background="new 0 0 409.635 409.636"
	 xml:space="preserve">
<g opacity="0.5">
	<path fill-rule="evenodd" clip-rule="evenodd" fill="none" d="M409.635,216.819c0,64.271,0,128.545,0,192.816
		c-64.272,0-128.544,0-192.816,0c4.075-0.509,8.148-1.035,12.226-1.521c42.694-5.1,80-22.154,112.184-50.565
		c1.996-1.762,4.025-3.528,5.765-5.529c2.99-3.438,2.847-8.179-0.093-11.242c-2.858-2.98-7.294-3.369-10.9-0.779
		c-1.721,1.236-3.247,2.752-4.83,4.176c-30.369,27.319-65.859,43.44-106.457,47.676c-41.292,4.306-80.321-3.626-115.759-25.409
		C52.44,331.699,21.49,280.759,17.06,214.546c-2.528-37.788,6.875-73.116,26.08-105.86C83.173,40.426,165.303,3.997,242.581,20.549
		c49.56,10.616,88.95,36.835,117.637,78.54c26.181,38.063,36.126,80.494,31.603,126.352c-1.562,15.842-5.49,31.165-10.996,46.104
		c-2.085,5.657-0.166,10.159,4.616,11.862c4.596,1.635,9.166-0.51,10.81-6.025c3.681-12.348,7.236-24.754,10.142-37.3
		C408.15,232.484,408.598,224.584,409.635,216.819z M118.518,300.897c1.378-0.95,4.249-2.351,6.387-4.484
		c57.182-57.056,114.288-114.188,171.405-171.309c0.753-0.754,1.537-1.486,2.215-2.305c3.126-3.772,3.127-8.406,0.04-11.579
		c-3.179-3.268-7.991-3.274-11.874,0.01c-0.71,0.602-1.352,1.285-2.011,1.944c-57.214,57.211-114.428,114.422-171.625,171.65
		c-1.215,1.216-2.452,2.511-3.286,3.989C106.767,294.136,110.684,300.752,118.518,300.897z M302.121,292.572
		c-2.195-3.036-3.627-5.729-5.699-7.772c-20.381-20.114-40.863-40.127-61.338-60.146c-1.229-1.202-2.537-2.388-3.993-3.281
		c-3.04-1.863-6.121-1.563-8.946,0.537c-2.698,2.006-3.957,4.84-2.98,8.04c0.625,2.052,1.864,4.151,3.392,5.656
		c20.966,20.659,42.028,41.222,63.082,61.792c0.851,0.831,1.788,2.035,2.794,2.157c2.744,0.331,5.978,1.056,8.205-0.036
		C298.845,298.438,300.063,295.333,302.121,292.572z M118.229,108.707c-4.855,0.16-7.433,1.873-8.807,5.076
		c-1.621,3.778-0.357,7.038,2.406,9.803c20.438,20.447,40.863,40.907,61.354,61.301c4.053,4.033,8.95,4.184,12.414,0.737
		c3.46-3.439,3.344-8.393-0.667-12.422c-20.394-20.491-40.832-40.938-61.362-61.292
		C121.885,110.243,119.397,109.389,118.229,108.707z"/>
	<path fill-rule="evenodd" clip-rule="evenodd" d="M409.635,216.819c-1.037,7.765-1.485,15.665-3.244,23.263
		c-2.905,12.546-6.461,24.952-10.142,37.3c-1.644,5.516-6.214,7.66-10.81,6.025c-4.782-1.703-6.701-6.205-4.616-11.862
		c5.506-14.939,9.435-30.263,10.996-46.104c4.523-45.857-5.422-88.289-31.603-126.352c-28.687-41.705-68.077-67.924-117.637-78.54
		C165.303,3.997,83.173,40.426,43.14,108.686c-19.205,32.744-28.607,68.072-26.08,105.86c4.43,66.213,35.38,117.153,91.894,151.895
		c35.438,21.783,74.468,29.715,115.759,25.409c40.597-4.235,76.088-20.356,106.457-47.676c1.583-1.424,3.109-2.939,4.83-4.176
		c3.606-2.59,8.042-2.201,10.9,0.779c2.939,3.063,3.083,7.804,0.093,11.242c-1.74,2.001-3.769,3.768-5.765,5.529
		c-32.183,28.411-69.49,45.466-112.184,50.565c-4.078,0.486-8.151,1.013-12.226,1.521c-8.001,0-16.001,0-24.002,0
		c-1.028-0.226-2.048-0.586-3.087-0.658c-32.04-2.262-62.011-11.426-89.36-28.186c-53.062-32.518-85.717-79.4-97.18-140.734
		C1.754,232.381,1.045,224.568,0,216.819c0-8.001,0-16.002,0-24.002c0.327-2.879,0.66-5.756,0.98-8.636
		c4.902-44.073,21.735-82.953,51.442-115.917c31.54-34.999,70.62-56.848,117.116-65.079c7.706-1.364,15.517-2.139,23.278-3.186
		c8.001,0,16.001,0,24.002,0c1.028,0.226,2.048,0.586,3.087,0.659c32.04,2.261,62.012,11.425,89.359,28.185
		c53.063,32.519,85.718,79.401,97.18,140.735c1.435,7.677,2.145,15.489,3.189,23.238
		C409.635,200.817,409.635,208.818,409.635,216.819z"/>
	<path fill-rule="evenodd" clip-rule="evenodd" fill="none" d="M192.816,0c-7.762,1.047-15.572,1.821-23.278,3.186
		c-46.496,8.231-85.576,30.08-117.116,65.079C22.715,101.229,5.882,140.108,0.98,184.182c-0.32,2.88-0.653,5.757-0.98,8.636
		C0,128.545,0,64.272,0,0C64.272,0,128.544,0,192.816,0z"/>
	<path fill-rule="evenodd" clip-rule="evenodd" fill="none" d="M409.635,192.817c-1.045-7.749-1.755-15.562-3.189-23.238
		c-11.462-61.334-44.118-108.217-97.18-140.735c-27.348-16.76-57.32-25.924-89.359-28.185c-1.04-0.073-2.059-0.434-3.087-0.659
		c64.272,0,128.544,0,192.816,0C409.635,64.272,409.635,128.545,409.635,192.817z"/>
	<path fill-rule="evenodd" clip-rule="evenodd" fill="none" d="M0,216.819c1.045,7.749,1.754,15.562,3.189,23.238
		c11.463,61.334,44.119,108.217,97.18,140.734c27.349,16.76,57.32,25.924,89.36,28.186c1.04,0.072,2.059,0.433,3.087,0.658
		c-64.272,0-128.544,0-192.816,0C0,345.364,0,281.091,0,216.819z"/>
	<path fill-rule="evenodd" clip-rule="evenodd" d="M118.518,300.897c-7.834-0.146-11.751-6.762-8.749-12.083
		c0.834-1.479,2.071-2.773,3.286-3.989c57.197-57.229,114.411-114.439,171.625-171.65c0.659-0.659,1.301-1.343,2.011-1.944
		c3.882-3.284,8.695-3.277,11.874-0.01c3.087,3.173,3.086,7.807-0.04,11.579c-0.678,0.818-1.462,1.551-2.215,2.305
		c-57.117,57.121-114.223,114.253-171.405,171.309C122.767,298.547,119.896,299.947,118.518,300.897z"/>
	<path fill-rule="evenodd" clip-rule="evenodd" d="M302.121,292.572c-2.058,2.761-3.276,5.865-5.485,6.947
		c-2.227,1.092-5.46,0.367-8.205,0.036c-1.006-0.122-1.943-1.326-2.794-2.157c-21.053-20.57-42.115-41.133-63.082-61.792
		c-1.528-1.505-2.767-3.604-3.392-5.656c-0.976-3.2,0.282-6.034,2.98-8.04c2.826-2.101,5.906-2.4,8.946-0.537
		c1.456,0.894,2.764,2.079,3.993,3.281c20.475,20.019,40.958,40.031,61.338,60.146C298.493,286.844,299.925,289.536,302.121,292.572
		z"/>
	<path fill-rule="evenodd" clip-rule="evenodd" d="M118.229,108.707c1.168,0.682,3.657,1.536,5.338,3.203
		c20.53,20.354,40.968,40.801,61.362,61.292c4.011,4.029,4.127,8.982,0.667,12.422c-3.464,3.446-8.361,3.296-12.414-0.737
		c-20.492-20.394-40.917-40.854-61.354-61.301c-2.763-2.765-4.027-6.024-2.406-9.803
		C110.796,110.58,113.374,108.867,118.229,108.707z"/>
</g>
</svg>
