<?xml version="1.0" encoding="utf-8"?>
<!-- Generator: Adobe Illustrator 16.0.3, SVG Export Plug-In . SVG Version: 6.00 Build 0)  -->
<!DOCTYPE svg PUBLIC "-//W3C//DTD SVG 1.1//EN" "http://www.w3.org/Graphics/SVG/1.1/DTD/svg11.dtd">
<svg version="1.1" id="內容" xmlns="http://www.w3.org/2000/svg" xmlns:xlink="http://www.w3.org/1999/xlink" x="0px" y="0px"
	 width="282.999px" height="128.148px" viewBox="0 0 282.999 128.148" enable-background="new 0 0 282.999 128.148"
	 xml:space="preserve">
<g>
	<path stroke="#FFFFFF" stroke-width="13" stroke-linejoin="round" stroke-miterlimit="10" d="M55.461,22.362l-2.347,4.586
		c-2.733-1.097-4.568-1.852-5.503-2.266v3.723H33.557v7.715h13.596v4.748H33.557v8.012h20.232v4.694H8.038v-4.694h20.448v-8.012
		H14.566v-4.748h13.919v-7.715H14.35V24.25c-1.672,0.755-3.534,1.529-5.584,2.32L6.5,22.038c7.805-2.896,13.793-6.195,17.966-9.9
		h-4.37V7.444h13.596C37.324,13.469,44.581,18.441,55.461,22.362z M45.345,23.576c-6.187-3.075-10.961-6.699-14.324-10.871
		c-3.309,3.867-8.408,7.49-15.295,10.871H45.345z"/>
	<path stroke="#FFFFFF" stroke-width="13" stroke-linejoin="round" stroke-miterlimit="10" d="M110.194,24.034h-7.85v16.833H81.357
		V24.034h-9.064v25.195h36.202v4.802H67.33V24.034h-5.098v-4.802h5.098V8.442h4.963v10.79h9.064V6.581h5.018v12.651h11.006V6.581
		h4.964v12.651h7.85V24.034z M97.381,36.065V24.034H86.375v12.031H97.381z"/>
	<path stroke="#FFFFFF" stroke-width="13" stroke-linejoin="round" stroke-miterlimit="10" d="M165.953,38.062l-1.996,4.586
		c-4.011-1.493-7.787-3.444-11.33-5.854V54.84h-5.018V36.281h4.29c-2.932-2.284-5.027-4.451-6.286-6.501h-8.524
		c-1.475,2.122-3.624,4.289-6.447,6.501h4.316c0.018,6.744-1.079,11.33-3.291,13.757s-5.395,4.181-9.549,5.26l-2.859-4.478
		c2.463-0.305,4.59-0.989,6.38-2.05c1.789-1.061,2.958-2.396,3.507-4.006c0.548-1.609,0.823-4.249,0.823-7.917
		c-3.615,2.464-7.185,4.415-10.709,5.854l-2.374-4.478c6.15-2.122,10.97-4.937,14.459-8.443h-10.143V7.849h40.274V29.78h-9.684
		C155.082,33.251,159.803,36.011,165.953,38.062z M138.978,16.616v-4.289h-12.813v4.289H138.978z M138.978,25.248v-4.424h-12.813
		v4.424H138.978z M156.484,16.616v-4.289h-12.705v4.289H156.484z M156.484,25.248v-4.424h-12.705v4.424H156.484z"/>
	<path stroke="#FFFFFF" stroke-width="13" stroke-linejoin="round" stroke-miterlimit="10" d="M201.561,12.246
		c-2.141,3.867-4.289,7.167-6.447,9.9h6.124v4.37h-9.819c-2.086,2.014-3.84,3.597-5.26,4.748h11.923v23.523h-4.802v-2.967H182.57
		v2.967h-4.855V36.848c-0.827,0.485-1.969,1.052-3.426,1.699l-2.428-4.073c4.873-2.122,9.216-4.774,13.029-7.958h-12.328v-4.37
		h10.602v-5.908h-8.12v-4.37h8.12V6.5h4.829v5.368h6.124v4.046c1.15-1.69,2.311-3.588,3.48-5.692L201.561,12.246z M193.279,39.438
		v-3.75H182.57v3.75H193.279z M193.279,47.449v-3.858H182.57v3.858H193.279z M193.846,16.238h-5.854v5.908h1.322
		C190.752,20.618,192.263,18.648,193.846,16.238z M215.723,26.516c3.345,4.766,5.018,9.459,5.018,14.081
		c0,3.058-0.657,5.139-1.969,6.245c-1.313,1.106-3.094,1.659-5.341,1.659c-0.72,0-1.745-0.036-3.075-0.108l-1.322-4.748
		c1.564,0.072,3.183,0.108,4.855,0.108c0.702,0,1.228-0.22,1.578-0.661c0.351-0.44,0.526-1.371,0.526-2.792
		c0-4.262-1.843-8.713-5.53-13.353c1.619-4.226,3.165-8.992,4.64-14.297h-7.122v42.136h-4.802V7.903h16.914v4.748
		C218.115,19.269,216.658,23.891,215.723,26.516z"/>
	<path stroke="#FFFFFF" stroke-width="13" stroke-linejoin="round" stroke-miterlimit="10" d="M276.499,49.607l-1.672,4.478
		c-3.489,0.054-6.429,0.081-8.821,0.081c-5.108,0-9.397-0.117-12.868-0.351c-3.471-0.234-6.398-0.931-8.78-2.091
		c-2.383-1.16-4.402-2.81-6.056-4.95c-2.716,3.884-5.287,6.69-7.715,8.416l-3.372-3.992c4.333-2.877,7.85-7.715,10.547-14.513
		l4.748,1.214c-0.54,1.528-1.205,3.093-1.996,4.693c1.888,2.806,5.044,4.847,9.468,6.124V34.689h-22.174v-4.424h48.179v4.424H255
		v5.018h18.074v4.37H255v5.152C258.47,49.409,265.637,49.536,276.499,49.607z M269.701,26.894h-35.473V7.39h35.473V26.894z
		 M264.657,15.186v-3.372H239.3v3.372H264.657z M264.657,22.578v-3.345H239.3v3.345H264.657z"/>
	<path stroke="#FFFFFF" stroke-width="13" stroke-linejoin="round" stroke-miterlimit="10" d="M55.38,110.265
		c-0.719,3.507-1.668,6.223-2.846,8.146c-1.178,1.924-2.693,2.887-4.545,2.887c-3.094,0-6.169-2.761-9.226-8.282
		c-3.094,2.302-6.501,4.37-10.224,6.205l-2.751-4.101c4.262-1.996,7.994-4.199,11.195-6.609c-0.899-3.471-1.52-9.073-1.861-16.806
		H23.576v7.634c2.751-0.557,5.809-1.331,9.172-2.32l0.108,4.802c-3.328,0.971-6.42,1.745-9.28,2.32v12.247
		c0,1.403-0.288,2.445-0.863,3.129c-0.576,0.684-1.304,1.128-2.185,1.335c-0.881,0.207-2.464,0.31-4.748,0.31
		c-1.709,0-3.381-0.045-5.018-0.135l-1.727-5.233c2.482,0.108,4.514,0.162,6.097,0.162c1.69,0,2.679-0.076,2.967-0.229
		c0.288-0.152,0.432-0.481,0.432-0.984v-9.549c-3.957,0.755-7.58,1.304-10.871,1.646l-0.89-4.586
		c3.561-0.396,7.481-1.025,11.761-1.888v-8.659h-11.6v-4.694h11.6v-6.258c-2.482,0.377-5.611,0.728-9.388,1.052L6.932,77.22
		c9.333-0.558,17.129-2.005,23.388-4.343l2.806,4.073c-3.489,1.241-6.672,2.158-9.549,2.751v7.311h11.492
		c-0.072-2.23-0.108-6.923-0.108-14.082h4.91c-0.054,4.784-0.054,9.478,0,14.082h15.079v4.694H40.031
		c0.125,4.585,0.458,8.893,0.998,12.921c2.554-2.931,4.855-6.519,6.906-10.764l4.316,2.158c-3.004,6.025-6.231,10.611-9.685,13.757
		c1.061,2.158,2.045,3.741,2.954,4.748c0.908,1.007,1.605,1.511,2.09,1.511c1.259,0,2.383-2.841,3.372-8.524L55.38,110.265z
		 M53.465,82.318l-3.993,2.967c-1.979-2.949-4.352-5.62-7.122-8.012l3.804-3.183C48.978,76.572,51.415,79.315,53.465,82.318z"/>
	<path stroke="#FFFFFF" stroke-width="13" stroke-linejoin="round" stroke-miterlimit="10" d="M82.949,120.596h-4.748v-3.642H68.22
		v4.181h-4.882V80.942h4.937c1.384-2.553,2.463-5.358,3.237-8.416l5.099,0.836c-0.27,1.745-1.133,4.271-2.59,7.58h8.929V120.596z
		 M78.201,95.968V85.744H68.22v10.224H78.201z M78.201,112.207v-11.6H68.22v11.6H78.201z M109.655,81.212
		c-0.036,5.287-0.225,12.144-0.566,20.569c-0.342,8.426-0.846,13.394-1.511,14.904c-0.666,1.511-1.677,2.621-3.035,3.332
		s-4.663,1.083-9.914,1.12l-1.834-4.855l7.392-0.054c0.701,0,1.447-0.296,2.239-0.89c0.792-0.593,1.385-4.595,1.781-12.004
		c0.395-7.409,0.584-13.182,0.566-17.318H93.686c-1.727,4.388-3.678,8.129-5.854,11.222l-3.776-3.372
		c3.956-6.402,6.744-13.55,8.362-21.445l4.855,1.052c-0.36,1.871-1.007,4.451-1.942,7.742H109.655z M101.643,105.895l-4.316,2.778
		c-2.374-4.748-4.919-8.713-7.634-11.896l4.316-2.698C97.678,98.665,100.222,102.604,101.643,105.895z"/>
	<path stroke="#FFFFFF" stroke-width="13" stroke-linejoin="round" stroke-miterlimit="10" d="M143.617,83.073l-3.156,3.723
		c-2.662-2.877-6.042-5.773-10.143-8.686c-1.925,2.5-3.938,4.693-6.042,6.582h13.326v4.532h-5.26v4.478h8.012v4.343h-8.012v4.37
		h7.58v18.721h-4.801v-2.698h-10.44v2.698h-4.748v-18.721h7.661v-4.37h-8.821v-4.343h8.821v-4.478h-5.422v-2.725
		c-1.025,0.81-2.05,1.511-3.075,2.104l-2.266-4.073c4.675-2.967,8.596-7.022,11.761-12.166l4.748,0.89
		c-0.054,0.378-0.234,0.765-0.54,1.16C137.368,77.543,140.974,80.43,143.617,83.073z M135.12,113.96v-7.176h-10.44v7.176H135.12z
		 M165.548,91.921c-0.593,6.079-1.79,11.33-3.588,15.753l-4.532-1.618c1.169-2.788,2.113-5.953,2.833-9.496h-4.829v18.667
		c0,3.956-2.068,5.935-6.205,5.935c-1.133,0-2.392-0.063-3.776-0.188l-1.403-4.802c0.971,0.072,2.023,0.108,3.156,0.108
		c1.546,0,2.504-0.117,2.873-0.351c0.368-0.234,0.553-0.702,0.553-1.403V96.561h-8.551v-4.64h9.064
		c-1.763-2.284-4.064-4.784-6.906-7.5l3.803-2.617c0.773,0.684,2.356,2.266,4.748,4.748c1.708-2.05,3.399-4.694,5.071-7.931h-15.565
		v-4.478h20.825v4.478c-1.727,3.579-4.137,7.481-7.229,11.708c0.377,0.666,0.764,1.196,1.16,1.592H165.548z"/>
	<path stroke="#FFFFFF" stroke-width="13" stroke-linejoin="round" stroke-miterlimit="10" d="M221.307,115.849l-1.214,4.586
		c-4.334,0.071-11.321,0.108-20.96,0.108c-8.003,0-14.019-1.826-18.047-5.476c-1.493,2.338-3.102,4.532-4.829,6.582l-4.02-2.887
		c4.46-4.927,7.517-10.151,9.172-15.673h-8.174v-4.801c2.662-2.77,5-5.881,7.014-9.333h-7.526v-4.586h13.38v4.073
		c-1.673,3.111-3.957,6.447-6.852,10.008h7.014v4.586c-0.593,2.59-1.628,5.314-3.102,8.174c1.816,1.618,4.033,2.823,6.649,3.615
		s6.281,1.187,10.993,1.187C204.51,116.01,211.344,115.957,221.307,115.849z M185.726,79.432l-3.534,3.534
		c-2.302-2.337-5.179-4.658-8.632-6.96l3.534-3.642C180.367,74.396,183.245,76.752,185.726,79.432z M220.012,80.888h-10.439
		l3.884,1.699c-0.45,1.169-0.989,2.185-1.619,3.048h6.96v25.735c0,2.464-2.257,3.57-6.771,3.318l-1.564-4.154l3.048,0.054
		c0.162,0,0.341-0.099,0.54-0.297c0.197-0.198,0.296-0.386,0.296-0.566v-19.8h-8.308v2.94h6.366v3.804h-6.366v2.778h5.152v10.332
		h-14.486V99.447h4.802v-2.778h-6.393v-3.804h6.393v-2.94h-8.12v23.82h-4.748V85.636h6.582c-0.666-1.42-1.178-2.437-1.538-3.048
		l3.075-1.699h-9.388V76.68h13.11c-0.288-1.025-0.755-2.059-1.403-3.103l4.991-1.322c0.737,1.349,1.393,2.824,1.969,4.424h13.973
		V80.888z M208.467,80.888h-10.035c0.935,1.816,1.654,3.399,2.158,4.748h5.854C207.324,84.018,207.999,82.435,208.467,80.888z
		 M206.713,106.11v-3.075h-5.638v3.075H206.713z"/>
	<path stroke="#FFFFFF" stroke-width="13" stroke-linejoin="round" stroke-miterlimit="10" d="M273.99,120.974h-4.909v-2.212H234.66
		v2.212h-4.91V73.74h44.24V120.974z M269.081,114.365V78.11H234.66v36.255H269.081z M268.434,101.929l-3.831,2.698
		c-1.062-1.673-2.401-3.381-4.02-5.125c-0.144,2.931-0.674,4.937-1.591,6.016c-0.917,1.079-2.743,1.618-5.476,1.618
		c-0.558,0-1.331-0.027-2.32-0.081l-1.403-3.858c1.042,0.126,1.996,0.189,2.859,0.189c1.169,0,1.951-0.175,2.347-0.526
		s0.594-1.012,0.594-1.983h-9.873v6.582c0,0.863,0.445,1.318,1.335,1.362c0.89,0.045,3.889,0.067,8.997,0.067
		c1.816,0,3.129-0.004,3.938-0.013c0.809-0.009,1.398-0.364,1.767-1.065c0.369-0.702,0.616-1.763,0.742-3.183l4.478,1.888
		c-0.414,2.41-1.196,4.042-2.347,4.896c-1.151,0.854-3.318,1.254-6.501,1.2c-3.183-0.054-7.229-0.081-12.139-0.081
		c-3.345,0-5.018-1.735-5.018-5.207v-4.91c-1.259,0.936-2.329,1.691-3.21,2.266l-2.536-4.073c2.32-1.223,4.64-3.138,6.959-5.746
		h-5.8v-3.534h8.605c0.54-0.827,1.016-1.619,1.43-2.374h-9.091v-3.723h10.763c0.737-1.547,1.457-3.605,2.158-6.178l4.37,0.486
		c-0.36,1.96-0.899,3.857-1.619,5.692h13.542v3.723H251.52c-0.792,1.457-1.232,2.248-1.322,2.374h17.076v3.534h-5.422
		C264.045,96.804,266.239,99.16,268.434,101.929z M247.096,82.21l-3.534,2.482c-1.96-1.438-3.615-2.491-4.963-3.156L242.294,79
		C244.344,80.223,245.945,81.293,247.096,82.21z M258.533,97.235l-2.481-2.374h-8.012c-0.612,0.881-1.223,1.673-1.834,2.374H258.533
		z M265.223,81.428c-1.51,1.331-3.039,2.455-4.585,3.372l-3.588-2.482c1.798-1.007,3.291-2.077,4.478-3.21L265.223,81.428z"/>
</g>
<g>
	<path fill="#22AC38" d="M55.461,22.36l-2.347,4.586c-2.733-1.097-4.568-1.852-5.503-2.266v3.723H33.557v7.715h13.596v4.748H33.557
		v8.012h20.232v4.694H8.038v-4.694h20.448v-8.012H14.566v-4.748h13.919v-7.715H14.351v-4.154c-1.672,0.755-3.534,1.529-5.584,2.32
		L6.5,22.036c7.805-2.896,13.793-6.195,17.966-9.9h-4.37V7.442h13.596C37.324,13.467,44.581,18.439,55.461,22.36z M45.346,23.574
		c-6.187-3.075-10.961-6.699-14.324-10.871c-3.309,3.867-8.408,7.49-15.295,10.871H45.346z"/>
	<path fill="#22AC38" d="M110.195,24.032h-7.85v16.833H81.358V24.032h-9.064v25.195h36.202v4.802H67.331V24.032h-5.098V19.23h5.098
		V8.44h4.963v10.79h9.064V6.579h5.018V19.23h11.006V6.579h4.964V19.23h7.85V24.032z M97.381,36.063V24.032H86.375v12.031H97.381z"/>
	<path fill="#22AC38" d="M165.954,38.06l-1.996,4.586c-4.011-1.493-7.787-3.444-11.33-5.854v18.047h-5.018V36.279h4.29
		c-2.932-2.284-5.027-4.451-6.286-6.501h-8.524c-1.475,2.122-3.624,4.289-6.447,6.501h4.316c0.018,6.744-1.079,11.33-3.291,13.757
		s-5.395,4.181-9.549,5.26l-2.859-4.478c2.463-0.305,4.59-0.989,6.38-2.05c1.789-1.061,2.958-2.396,3.507-4.006
		c0.548-1.609,0.823-4.249,0.823-7.917c-3.615,2.464-7.185,4.415-10.709,5.854l-2.374-4.478c6.15-2.122,10.97-4.937,14.459-8.443
		h-10.143V7.847h40.274v21.932h-9.684C155.083,33.249,159.803,36.009,165.954,38.06z M138.978,16.614v-4.289h-12.813v4.289H138.978z
		 M138.978,25.246v-4.424h-12.813v4.424H138.978z M156.485,16.614v-4.289H143.78v4.289H156.485z M156.485,25.246v-4.424H143.78
		v4.424H156.485z"/>
	<path fill="#22AC38" d="M201.562,12.244c-2.141,3.867-4.289,7.167-6.447,9.9h6.124v4.37h-9.819c-2.086,2.014-3.84,3.597-5.26,4.748
		h11.923v23.523h-4.802v-2.967H182.57v2.967h-4.855V36.846c-0.827,0.485-1.969,1.052-3.426,1.699l-2.428-4.073
		c4.873-2.122,9.216-4.774,13.029-7.958h-12.328v-4.37h10.602v-5.908h-8.12v-4.37h8.12V6.498h4.829v5.368h6.124v4.046
		c1.15-1.69,2.311-3.588,3.48-5.692L201.562,12.244z M193.28,39.436v-3.75H182.57v3.75H193.28z M193.28,47.447v-3.858H182.57v3.858
		H193.28z M193.846,16.236h-5.854v5.908h1.322C190.753,20.616,192.264,18.646,193.846,16.236z M215.724,26.514
		c3.345,4.766,5.018,9.459,5.018,14.081c0,3.058-0.657,5.139-1.969,6.245c-1.313,1.106-3.094,1.659-5.341,1.659
		c-0.72,0-1.745-0.036-3.075-0.108l-1.322-4.748c1.564,0.072,3.183,0.108,4.855,0.108c0.702,0,1.228-0.22,1.578-0.661
		c0.351-0.44,0.526-1.371,0.526-2.792c0-4.262-1.843-8.713-5.53-13.353c1.619-4.226,3.165-8.992,4.64-14.297h-7.122v42.136h-4.802
		V7.901h16.914v4.748C218.115,19.267,216.658,23.889,215.724,26.514z"/>
	<path fill="#22AC38" d="M276.5,49.605l-1.672,4.478c-3.489,0.054-6.429,0.081-8.821,0.081c-5.108,0-9.397-0.117-12.868-0.351
		c-3.471-0.234-6.398-0.931-8.78-2.091c-2.383-1.16-4.402-2.81-6.056-4.95c-2.716,3.884-5.287,6.69-7.715,8.416l-3.372-3.992
		c4.333-2.877,7.85-7.715,10.547-14.513l4.748,1.214c-0.54,1.528-1.205,3.093-1.996,4.693c1.888,2.806,5.044,4.847,9.468,6.124
		V34.688h-22.174v-4.424h48.179v4.424H255v5.018h18.074v4.37H255v5.152C258.471,49.407,265.637,49.534,276.5,49.605z
		 M269.702,26.892h-35.473V7.388h35.473V26.892z M264.657,15.184v-3.372H239.3v3.372H264.657z M264.657,22.576V19.23H239.3v3.345
		H264.657z"/>
	<path fill="#22AC38" d="M55.38,110.263c-0.719,3.507-1.668,6.223-2.846,8.146c-1.178,1.924-2.693,2.887-4.545,2.887
		c-3.094,0-6.169-2.761-9.226-8.282c-3.094,2.302-6.501,4.37-10.224,6.205l-2.751-4.101c4.262-1.996,7.994-4.199,11.195-6.609
		c-0.899-3.471-1.52-9.073-1.861-16.806H23.576v7.634c2.751-0.557,5.809-1.331,9.172-2.32l0.108,4.802
		c-3.328,0.971-6.42,1.745-9.28,2.32v12.247c0,1.403-0.288,2.445-0.863,3.129c-0.576,0.684-1.304,1.128-2.185,1.335
		c-0.881,0.207-2.464,0.31-4.748,0.31c-1.709,0-3.381-0.045-5.018-0.135l-1.727-5.233c2.482,0.108,4.514,0.162,6.097,0.162
		c1.69,0,2.679-0.076,2.967-0.229c0.288-0.152,0.432-0.481,0.432-0.984v-9.549c-3.957,0.755-7.58,1.304-10.871,1.646l-0.89-4.586
		c3.561-0.396,7.481-1.025,11.761-1.888v-8.659h-11.6V87.01h11.6v-6.258c-2.482,0.377-5.611,0.728-9.388,1.052l-2.212-4.585
		c9.333-0.558,17.129-2.005,23.388-4.343l2.806,4.073c-3.489,1.241-6.672,2.158-9.549,2.751v7.311h11.492
		c-0.072-2.23-0.108-6.923-0.108-14.082h4.91c-0.054,4.784-0.054,9.478,0,14.082h15.079v4.694H40.031
		c0.125,4.585,0.458,8.893,0.998,12.921c2.554-2.931,4.855-6.519,6.906-10.764l4.316,2.158c-3.004,6.025-6.231,10.611-9.685,13.757
		c1.061,2.158,2.045,3.741,2.954,4.748c0.908,1.007,1.605,1.511,2.09,1.511c1.259,0,2.383-2.841,3.372-8.524L55.38,110.263z
		 M53.465,82.316l-3.993,2.967c-1.979-2.949-4.352-5.62-7.122-8.012l3.804-3.183C48.978,76.57,51.415,79.313,53.465,82.316z"/>
	<path fill="#22AC38" d="M82.95,120.594h-4.748v-3.642h-9.981v4.181h-4.882V80.94h4.937c1.384-2.553,2.463-5.358,3.237-8.416
		l5.099,0.836c-0.27,1.745-1.133,4.271-2.59,7.58h8.929V120.594z M78.202,95.966V85.742h-9.981v10.224H78.202z M78.202,112.205
		v-11.6h-9.981v11.6H78.202z M109.655,81.21c-0.036,5.287-0.225,12.144-0.566,20.569c-0.342,8.426-0.846,13.394-1.511,14.904
		c-0.666,1.511-1.677,2.621-3.035,3.332s-4.663,1.083-9.914,1.12l-1.834-4.855l7.392-0.054c0.701,0,1.447-0.296,2.239-0.89
		c0.792-0.593,1.385-4.595,1.781-12.004c0.395-7.409,0.584-13.182,0.566-17.318H93.686c-1.727,4.388-3.678,8.129-5.854,11.222
		l-3.776-3.372c3.956-6.402,6.744-13.55,8.362-21.445l4.855,1.052c-0.36,1.871-1.007,4.451-1.942,7.742H109.655z M101.644,105.893
		l-4.316,2.778c-2.374-4.748-4.919-8.713-7.634-11.896l4.316-2.698C97.678,98.663,100.223,102.602,101.644,105.893z"/>
	<path fill="#22AC38" d="M143.618,83.071l-3.156,3.723c-2.662-2.877-6.042-5.773-10.143-8.686c-1.925,2.5-3.938,4.693-6.042,6.582
		h13.326v4.532h-5.26V93.7h8.012v4.343h-8.012v4.37h7.58v18.721h-4.801v-2.698h-10.44v2.698h-4.748v-18.721h7.661v-4.37h-8.821V93.7
		h8.821v-4.478h-5.422v-2.725c-1.025,0.81-2.05,1.511-3.075,2.104l-2.266-4.073c4.675-2.967,8.596-7.022,11.761-12.166l4.748,0.89
		c-0.054,0.378-0.234,0.765-0.54,1.16C137.368,77.541,140.974,80.428,143.618,83.071z M135.121,113.958v-7.176h-10.44v7.176H135.121
		z M165.549,91.919c-0.593,6.079-1.79,11.33-3.588,15.753l-4.532-1.618c1.169-2.788,2.113-5.953,2.833-9.496h-4.829v18.667
		c0,3.956-2.068,5.935-6.205,5.935c-1.133,0-2.392-0.063-3.776-0.188l-1.403-4.802c0.971,0.072,2.023,0.108,3.156,0.108
		c1.546,0,2.504-0.117,2.873-0.351c0.368-0.234,0.553-0.702,0.553-1.403V96.559h-8.551v-4.64h9.064
		c-1.763-2.284-4.064-4.784-6.906-7.5l3.803-2.617c0.773,0.684,2.356,2.266,4.748,4.748c1.708-2.05,3.399-4.694,5.071-7.931h-15.565
		v-4.478h20.825v4.478c-1.727,3.579-4.137,7.481-7.229,11.708c0.377,0.666,0.764,1.196,1.16,1.592H165.549z"/>
	<path fill="#22AC38" d="M221.308,115.847l-1.214,4.586c-4.334,0.071-11.321,0.108-20.96,0.108c-8.003,0-14.019-1.826-18.047-5.476
		c-1.493,2.338-3.102,4.532-4.829,6.582l-4.02-2.887c4.46-4.927,7.517-10.151,9.172-15.673h-8.174v-4.801
		c2.662-2.77,5-5.881,7.014-9.333h-7.526v-4.586h13.38v4.073c-1.673,3.111-3.957,6.447-6.852,10.008h7.014v4.586
		c-0.593,2.59-1.628,5.314-3.102,8.174c1.816,1.618,4.033,2.823,6.649,3.615s6.281,1.187,10.993,1.187
		C204.511,116.008,211.344,115.955,221.308,115.847z M185.727,79.43l-3.534,3.534c-2.302-2.337-5.179-4.658-8.632-6.96l3.534-3.642
		C180.367,74.395,183.245,76.75,185.727,79.43z M220.013,80.886h-10.439l3.884,1.699c-0.45,1.169-0.989,2.185-1.619,3.048h6.96
		v25.735c0,2.464-2.257,3.57-6.771,3.318l-1.564-4.154l3.048,0.054c0.162,0,0.341-0.099,0.54-0.297
		c0.197-0.198,0.296-0.386,0.296-0.566v-19.8h-8.308v2.94h6.366v3.804h-6.366v2.778h5.152v10.332h-14.486V99.445h4.802v-2.778
		h-6.393v-3.804h6.393v-2.94h-8.12v23.82h-4.748V85.634h6.582c-0.666-1.42-1.178-2.437-1.538-3.048l3.075-1.699h-9.388v-4.208h13.11
		c-0.288-1.025-0.755-2.059-1.403-3.103l4.991-1.322c0.737,1.349,1.393,2.824,1.969,4.424h13.973V80.886z M208.467,80.886h-10.035
		c0.935,1.816,1.654,3.399,2.158,4.748h5.854C207.325,84.016,208,82.433,208.467,80.886z M206.714,106.108v-3.075h-5.638v3.075
		H206.714z"/>
	<path fill="#22AC38" d="M273.991,120.972h-4.909v-2.212h-34.421v2.212h-4.91V73.738h44.24V120.972z M269.082,114.363V78.108
		h-34.421v36.255H269.082z M268.434,101.927l-3.831,2.698c-1.062-1.673-2.401-3.381-4.02-5.125
		c-0.144,2.931-0.674,4.937-1.591,6.016c-0.917,1.079-2.743,1.618-5.476,1.618c-0.558,0-1.331-0.027-2.32-0.081l-1.403-3.858
		c1.042,0.126,1.996,0.189,2.859,0.189c1.169,0,1.951-0.175,2.347-0.526s0.594-1.012,0.594-1.983h-9.873v6.582
		c0,0.863,0.445,1.318,1.335,1.362c0.89,0.045,3.889,0.067,8.997,0.067c1.816,0,3.129-0.004,3.938-0.013
		c0.809-0.009,1.398-0.364,1.767-1.065c0.369-0.702,0.616-1.763,0.742-3.183l4.478,1.888c-0.414,2.41-1.196,4.042-2.347,4.896
		c-1.151,0.854-3.318,1.254-6.501,1.2c-3.183-0.054-7.229-0.081-12.139-0.081c-3.345,0-5.018-1.735-5.018-5.207v-4.91
		c-1.259,0.936-2.329,1.691-3.21,2.266l-2.536-4.073c2.32-1.223,4.64-3.138,6.959-5.746h-5.8v-3.534h8.605
		c0.54-0.827,1.016-1.619,1.43-2.374h-9.091v-3.723h10.763c0.737-1.547,1.457-3.605,2.158-6.178l4.37,0.486
		c-0.36,1.96-0.899,3.857-1.619,5.692h13.542v3.723H251.52c-0.792,1.457-1.232,2.248-1.322,2.374h17.076v3.534h-5.422
		C264.046,96.802,266.24,99.158,268.434,101.927z M247.096,82.208l-3.534,2.482c-1.96-1.438-3.615-2.491-4.963-3.156l3.695-2.536
		C244.345,80.221,245.945,81.291,247.096,82.208z M258.534,97.233l-2.481-2.374h-8.012c-0.612,0.881-1.223,1.673-1.834,2.374
		H258.534z M265.224,81.426c-1.51,1.331-3.039,2.455-4.585,3.372l-3.588-2.482c1.798-1.007,3.291-2.077,4.478-3.21L265.224,81.426z"
		/>
</g>
</svg>
