<?xml version="1.0" encoding="utf-8"?>
<!-- Generator: Adobe Illustrator 16.0.3, SVG Export Plug-In . SVG Version: 6.00 Build 0)  -->
<!DOCTYPE svg PUBLIC "-//W3C//DTD SVG 1.1//EN" "http://www.w3.org/Graphics/SVG/1.1/DTD/svg11.dtd">
<svg version="1.1" id="圖層_5" xmlns="http://www.w3.org/2000/svg" xmlns:xlink="http://www.w3.org/1999/xlink" x="0px" y="0px"
	 width="763.946px" height="163.109px" viewBox="0 0 763.946 163.109" enable-background="new 0 0 763.946 163.109"
	 xml:space="preserve">
<g>
	<g>
		<path fill="#474747" d="M269.65,93.979l-4.581,12.807h-0.266c-0.813-2.991-2.186-7.245-4.329-12.66l-24.511-61.473h-23.955v97.732
			h15.802V70.292c0-3.698-0.084-8.185-0.248-13.318c-0.075-2.591-0.369-4.663-0.443-6.262h0.355
			c0.803,3.691,1.629,6.497,2.241,8.366l29.381,71.307h11.058l29.166-71.949c0.654-1.634,1.359-4.837,2.008-7.724h0.341
			c-0.378,7.121-0.705,13.637-0.747,17.557v62.116h16.857V32.653h-23.011L269.65,93.979z"/>
		<rect x="333.647" y="60.339" fill="#474747" width="16.483" height="70.046"/>
		<path fill="#474747" d="M342.062,30.563c-2.708,0-5.081,0.936-7.019,2.756c-1.957,1.829-2.942,4.152-2.942,6.874
			c0,2.688,0.985,4.957,2.909,6.736c1.919,1.78,4.296,2.694,7.051,2.694c2.76,0,5.141-0.915,7.088-2.687
			c1.952-1.787,2.942-4.057,2.942-6.744c0-2.626-0.971-4.919-2.867-6.795C347.325,31.525,344.911,30.563,342.062,30.563"/>
		<path fill="#474747" d="M408.464,59.636c-3.167-0.646-6.266-0.99-9.204-0.99c-7.569,0-14.308,1.623-20.042,4.821
			c-5.744,3.208-10.198,7.774-13.215,13.596c-3.012,5.785-4.539,12.563-4.539,20.113c0,6.627,1.48,12.697,4.408,18.046
			c2.928,5.365,7.08,9.552,12.333,12.47c5.244,2.907,11.301,4.39,18.011,4.39c7.832,0,14.513-1.577,19.87-4.656l0.223-0.138v-15.088
			l-0.687,0.5c-2.432,1.776-5.159,3.178-8.073,4.2c-2.909,1.026-5.562,1.537-7.882,1.537c-6.468,0-11.651-2.026-15.429-6.023
			c-3.773-3.995-5.692-9.586-5.692-16.638c0-7.107,1.99-12.862,5.926-17.104c3.932-4.23,9.124-6.381,15.457-6.381
			c5.425,0,10.692,1.837,15.693,5.452l0.687,0.511V62.342l-0.223-0.12C414.202,61.165,411.643,60.299,408.464,59.636"/>
		<path fill="#474747" d="M462.762,59.124c-4.147,0-7.854,1.327-11.026,3.944c-2.792,2.308-4.796,5.461-6.342,9.405h-0.177V60.339
			h-16.479v70.046h16.479V94.546c0-6.089,1.383-11.099,4.109-14.871c2.685-3.744,6.281-5.633,10.66-5.633
			c1.481,0,3.144,0.242,4.95,0.737c1.785,0.477,3.073,0.999,3.847,1.541l0.687,0.495V60.213l-0.267-0.11
			C467.674,59.444,465.507,59.124,462.762,59.124"/>
		<path fill="#474747" d="M507.5,58.646c-11.551,0-20.728,3.384-27.26,10.065c-6.542,6.672-9.853,15.904-9.853,27.459
			c0,10.964,3.236,19.78,9.615,26.213c6.379,6.425,15.064,9.684,25.813,9.684c11.198,0,20.187-3.427,26.729-10.19
			c6.528-6.76,9.849-15.912,9.849-27.189c0-11.146-3.115-20.032-9.242-26.411C527.015,61.884,518.381,58.646,507.5,58.646
			 M520.604,112.575c-3.096,3.892-7.752,5.863-13.855,5.863c-6.047,0-10.819-2.005-14.172-5.972
			c-3.386-3.969-5.104-9.629-5.104-16.832c0-7.424,1.718-13.244,5.104-17.284c3.354-4.014,8.083-6.059,14.042-6.059
			c5.781,0,10.395,1.948,13.697,5.795c3.31,3.861,5,9.627,5,17.138C525.315,102.836,523.719,108.668,520.604,112.575"/>
		<path fill="#474747" d="M578.927,89.288c-5.192-2.087-8.521-3.822-9.89-5.149c-1.317-1.291-2-3.093-2-5.4
			c0-2.037,0.827-3.666,2.55-4.978c1.705-1.331,4.095-2.018,7.088-2.018c2.779,0,5.632,0.444,8.448,1.317
			c2.821,0.843,5.304,2.003,7.378,3.409l0.691,0.467v-15.23l-0.275-0.122c-1.907-0.814-4.423-1.515-7.481-2.08
			c-3.054-0.572-5.818-0.859-8.219-0.859c-7.858,0-14.358,2.012-19.327,5.974c-4.988,3.995-7.522,9.223-7.522,15.541
			c0,3.286,0.541,6.206,1.624,8.686c1.075,2.487,2.75,4.672,4.987,6.519c2.2,1.811,5.618,3.719,10.134,5.669
			c3.796,1.56,6.63,2.869,8.428,3.92c1.757,1.029,3.003,2.052,3.713,3.056c0.686,0.98,1.032,2.312,1.032,3.962
			c0,4.707-3.517,6.996-10.764,6.996c-2.694,0-5.772-0.547-9.129-1.672c-3.371-1.097-6.505-2.692-9.335-4.721l-0.69-0.506v16.071
			l0.251,0.104c2.362,1.1,5.328,2.011,8.84,2.73c3.511,0.728,6.682,1.109,9.446,1.109c8.532,0,15.386-2.029,20.4-6.015
			c5.04-4.005,7.594-9.355,7.594-15.908c0-4.727-1.374-8.776-4.082-12.045C590.125,94.885,585.455,91.903,578.927,89.288"/>
		<path fill="#474747" d="M641.205,58.646c-11.551,0-20.714,3.384-27.27,10.065c-6.528,6.672-9.848,15.904-9.848,27.459
			c0,10.964,3.236,19.78,9.624,26.213c6.374,6.425,15.074,9.684,25.818,9.684c11.184,0,20.178-3.427,26.715-10.19
			c6.537-6.76,9.848-15.912,9.848-27.189c0-11.146-3.105-20.032-9.237-26.411C660.715,61.884,652.09,58.646,641.205,58.646
			 M654.309,112.575c-3.101,3.892-7.752,5.863-13.851,5.863c-6.047,0-10.823-2.005-14.181-5.972c-3.386-3.969-5.1-9.629-5.1-16.832
			c0-7.424,1.714-13.244,5.1-17.284c3.358-4.014,8.087-6.059,14.055-6.059c5.786,0,10.381,1.948,13.692,5.795
			c3.31,3.861,4.987,9.627,4.987,17.138C659.011,102.836,657.419,108.668,654.309,112.575"/>
		<path fill="#474747" d="M763.946,73.778V60.339h-16.685V39.452l-0.564,0.17l-15.676,4.801l-0.303,0.091v15.826h-24.727v-8.813
			c0-4.114,0.926-7.249,2.732-9.338c1.802-2.083,4.375-3.132,7.649-3.132c2.353,0,4.795,0.556,7.252,1.656l0.611,0.261V26.823
			l-0.29-0.099c-2.292-0.823-5.402-1.232-9.27-1.232c-4.866,0-9.283,1.053-13.14,3.153c-3.867,2.101-6.902,5.1-9.036,8.916
			c-2.111,3.809-3.188,8.216-3.188,13.083v9.697h-11.609v13.438h11.609v56.607h16.678V73.778h24.727v35.977
			c0,14.813,6.98,22.328,20.76,22.328c2.283,0,4.661-0.269,7.093-0.807c2.475-0.534,4.156-1.067,5.156-1.634l0.219-0.126v-13.565
			l-0.678,0.46c-0.905,0.602-2.035,1.083-3.353,1.457c-1.335,0.375-2.441,0.569-3.292,0.569c-3.226,0-5.626-0.877-7.112-2.591
			c-1.484-1.726-2.251-4.759-2.251-9.005V73.778H763.946z"/>
		<rect fill="#CD4F2A" width="77.511" height="77.5"/>
		<rect x="85.575" fill="#75A131" width="77.511" height="77.5"/>
		<rect y="85.597" fill="#2D86B9" width="77.511" height="77.513"/>
		<rect x="85.575" y="85.597" fill="#E0A82B" width="77.511" height="77.513"/>
	</g>
</g>
</svg>
