<?xml version="1.0" encoding="utf-8"?>
<!-- Generator: Adobe Illustrator 16.0.3, SVG Export Plug-In . SVG Version: 6.00 Build 0)  -->
<!DOCTYPE svg PUBLIC "-//W3C//DTD SVG 1.1//EN" "http://www.w3.org/Graphics/SVG/1.1/DTD/svg11.dtd">
<svg version="1.1" id="分離模式" xmlns="http://www.w3.org/2000/svg" xmlns:xlink="http://www.w3.org/1999/xlink" x="0px"
	 y="0px" width="252.593px" height="81.35px" viewBox="0 0 252.593 81.35" enable-background="new 0 0 252.593 81.35"
	 xml:space="preserve">
<g>
	<g>
		<g>
			<path fill="#FFFFFF" d="M100.682,20.288c0-0.43-0.344-0.784-0.776-0.784l-7.81,0.001c-0.434,0-0.778,0.354-0.778,0.784
				l0.005,40.613c0,0.438,0.345,0.782,0.778,0.782l7.81-0.001c0.433,0,0.776-0.345,0.776-0.782L100.682,20.288z"/>
			<path fill="#FFFFFF" d="M39.925,61.742l-3.681,0c-0.869,0-1.359-0.014-1.462-0.255c2.796-1.287,4.607-3.292,4.606-5.562
				l-0.004-30.55c0-3.883-5.334-7.043-11.898-7.042c-6.565,0.001-11.897,3.163-11.896,7.046l0.004,30.55
				c0,3.89,5.333,7.053,11.897,7.052c0.943,0,1.865-0.08,2.753-0.194c0.09,1.049,0.362,1.562,1.017,2.265
				c0.965,0.828,2.163,1.186,4.343,1.211l4.321,0c0.454,0,0.793-0.344,0.793-0.767l-0.001-2.954
				C40.717,61.666,39.925,61.742,39.925,61.742 M27.514,58.189c-1.463,0-2.63-0.876-2.631-1.962l-0.004-30.85
				c0-1.072,1.167-1.947,2.63-1.947c1.45,0,2.624,0.875,2.624,1.947l0.004,30.85C30.137,57.313,28.964,58.189,27.514,58.189"/>
			<path fill="#FFFFFF" d="M8.592,19.517L0.78,19.518c-0.428,0-0.78,0.354-0.78,0.784l0.001,7.807c0,0.437,0.349,0.792,0.78,0.792
				l7.812-0.001c0.437,0,0.771-0.356,0.771-0.793L9.363,20.3C9.363,19.87,9.028,19.516,8.592,19.517"/>
			<path fill="#FFFFFF" d="M54.246,19.576l-7.802,0.001c-0.427,0-0.776,0.339-0.776,0.773l0.006,40.608
				c0,0.446,0.349,0.784,0.775,0.783l7.803-0.001c0.424,0,0.768-0.337,0.768-0.784l-0.005-40.608
				C55.015,19.915,54.671,19.576,54.246,19.576"/>
			<path fill="#FFFFFF" d="M8.594,33.283l-7.813,0.001c-0.427,0-0.779,0.354-0.779,0.78l0.003,26.854
				c0,0.433,0.354,0.777,0.78,0.777l7.812-0.001c0.437,0,0.772-0.345,0.772-0.782l-0.004-26.85
				C9.365,33.638,9.029,33.283,8.594,33.283"/>
			<path fill="#FFFFFF" d="M87.753,20.564c0.029-0.098,0.052-0.173,0.052-0.274c0-0.402-0.478-0.732-0.879-0.768l-7.852-0.015
				c-0.589,0-0.766,0.5-0.766,0.519l-5.122,13.187l-5.151-13.233c-0.125-0.288-0.391-0.471-0.717-0.471l-8.26,0.017
				c-0.399,0.036-0.563,0.366-0.563,0.768c0,0.101,0.041,0.274,0.041,0.274l9.791,25.279l0.002,15.039v0.025
				c0,0.433,0.35,0.777,0.769,0.777l3.342,0l1.124,0l3.604,0c0.438,0,0.791-0.345,0.791-0.777v-0.025l-0.002-15.039L87.753,20.564z"
				/>
			<path fill="#FFFFFF" d="M100.65,15.53c-0.152-2.129-0.732-4.988-2.111-6.93c-1.385-1.978-2.724-2.93-4.634-3.799
				C88.324,2.238,70.93-0.002,50.352,0h-0.008l0,0C29.759,0.003,12.355,2.248,6.783,4.813c-1.912,0.87-3.256,1.822-4.659,3.8
				c-1.36,1.943-1.948,4.802-2.099,6.931c-0.021,0.255,0.1,0.741,0.584,0.741l8.243-0.008c0.511,0,0.572-0.395,0.68-0.701
				c0.329-0.949,1.076-2.434,1.98-3.228c1.533-1.367,2.573-1.765,4.685-2.064c8.59-1.252,22.307-1.938,34.148-1.94
				c11.825-0.001,25.552,0.681,34.131,1.931c2.117,0.298,3.16,0.696,4.688,2.063c0.909,0.794,1.675,2.279,1.983,3.228
				c0.107,0.306,0.168,0.701,0.692,0.701l8.245,0.006C100.575,16.271,100.678,15.785,100.65,15.53"/>
			<path fill="#FFFFFF" d="M100.657,65.827c-0.152,2.116-0.731,4.972-2.11,6.925c-1.383,1.968-2.722,2.932-4.632,3.795
				c-5.581,2.554-22.975,4.8-43.553,4.803h-0.008l0,0C29.77,81.353,12.365,79.11,6.792,76.558c-1.912-0.862-3.256-1.825-4.66-3.793
				c-1.36-1.952-1.948-4.808-2.1-6.924c-0.021-0.287,0.099-0.755,0.583-0.755l8.243,0.02c0.511,0,0.572,0.405,0.68,0.675
				c0.329,0.966,1.077,2.453,1.982,3.255c1.533,1.353,2.573,1.747,4.685,2.054c8.591,1.249,22.308,1.925,34.148,1.924
				c11.825-0.001,25.553-0.682,34.131-1.933c2.117-0.307,3.16-0.702,4.688-2.055c0.908-0.802,1.674-2.292,1.981-3.255
				c0.108-0.271,0.169-0.676,0.693-0.676l8.244-0.022C100.582,65.072,100.684,65.541,100.657,65.827"/>
		</g>
	</g>
	<g>
		<path fill="#FFFFFF" d="M150.952,43.561c-0.511,0-1.225-0.212-1.725-1.219c-1.033-1.721-2.433-3.759-4.168-6.072
			c-0.637-1.018-0.698-2.047,0.205-2.52c0.397-0.204,0.75-0.295,1.085-0.295c0.594,0,1.137,0.282,1.615,0.838
			c2.44,2.79,3.978,5.097,4.568,6.859c0.254,1.021,0.28,1.822-0.956,2.313C151.33,43.535,151.137,43.561,150.952,43.561z"/>
		<path fill="#FFFFFF" d="M117.105,45.063c-0.484,0-0.924-0.194-1.308-0.577c-0.657-1.04-0.461-1.969,0.543-2.721
			c2.402-1.83,4.142-3.916,5.17-6.203c0.477-0.861,1.091-1.286,1.868-1.286c0.251,0,0.52,0.047,0.8,0.14
			c1.054,0.655,1.312,1.553,0.809,2.692c-1.518,2.802-3.649,5.294-6.329,7.392C118.104,44.871,117.578,45.063,117.105,45.063z"/>
		<path fill="#FFFFFF" d="M154.27,60.57c-6.679-0.115-13.105-1.391-19.099-3.791l-0.071-0.028l-0.071,0.027
			c-5.312,1.941-11.792,3.161-19.26,3.623c-1.28,0-1.938-0.712-1.938-1.908c0.124-1.182,0.824-1.824,2.082-1.948
			c0.467-0.001,9.911-0.983,14.633-1.917l0.44-0.087l-0.361-0.267c-2.269-1.675-3.965-3.289-5.044-4.797l-0.113-0.157l-0.16,0.108
			c-2.916,1.977-5.763,3.321-8.459,3.997c-0.207,0.046-0.399,0.069-0.583,0.069c-0.837,0-1.419-0.475-1.731-1.411
			c-0.132-1.152,0.388-2.001,1.496-2.494c5.216-1.556,9.375-4.111,12.341-7.59l0.157-0.186l-0.214-0.117
			c-1.401-0.769-2.113-2.103-2.114-3.966v-3.486c0-0.83,0.337-1.402,1.001-1.702l-0.082-0.379l-8.576,0.001
			c-0.369,0-0.859,0.126-0.859,1.209v3.486c0.001,1.023-0.599,1.63-1.733,1.753c-0.002,0-0.004,0-0.005,0
			c-0.82,0-1.771-0.275-1.771-1.579l-0.001-4.706c0-2.32,0.943-3.497,2.801-3.497l5.979-0.001l-0.134-0.282
			c-0.259-0.548-0.75-1.291-1.461-2.207c-0.252-0.313-0.482-0.803-0.165-1.376l0.162-0.293l-3.859,0
			c-1.255-0.123-1.929-0.791-1.929-1.93c0.125-1.04,0.833-1.579,2.103-1.579c2.207,0.057,4.247,0.086,6.057,0.086
			c1.811,0,3.466-0.03,4.917-0.087l8.198-0.001c4.976-0.232,9.36-0.643,13.044-1.22c0.242-0.044,0.466-0.066,0.673-0.066
			c0.984,0,1.591,0.48,1.804,1.429c0.004,1.301-0.692,2.066-2.066,2.315l-0.646,0.096c-0.853,0.09-1.465,0.097-1.993,0.155
			l-0.41,0.046l0.291,0.291c0.116,0.117,0.208,0.249,0.27,0.392c0.213,0.495,0.097,1.131-0.346,1.894
			c-0.361,0.632-0.835,1.309-1.405,2.012l-0.264,0.323l6.04,0c1.823,0,2.996,0.746,3.488,2.218c0.477,1.437,0.24,3.184-0.705,5.192
			c-0.581,1.066-1.265,1.613-2.026,1.613c-0.211,0-0.428-0.042-0.646-0.124c-1.277-0.704-1.428-1.792-0.8-3.045
			c0.544-0.872,0.783-1.557,0.683-1.965c-0.093-0.368-0.501-0.555-1.214-0.555l-15.605,0.002l0.643,0.37
			c0.086,0.049,0.17,0.104,0.256,0.165c0.824,0.708,1.604,1.545,2.307,2.479c0.631,1.014,0.835,1.847-0.017,2.509
			c-0.363,0.215-0.685,0.309-0.996,0.309c-0.544,0-1.063-0.283-1.543-0.842c-0.574-0.797-1.27-1.495-2.059-2.062
			c-1.19-1.017-0.923-1.873-0.211-2.357c0.106-0.094,0.187-0.153,0.27-0.206l0.563-0.365l-5.178,0.001l-0.088,0.375
			c0.616,0.306,0.929,0.879,0.929,1.705v3.137c0.108,1.521,1.073,2.254,2.952,2.254c0,0,5.271-0.008,5.507-0.008
			c0.688,0,1.182-0.103,1.514-0.469c0.413-0.456,0.568-1.224,0.464-2.282c-0.001-1.139,0.597-1.82,1.732-1.947
			c1.22,0,1.775,0.82,1.775,2.102c0,1.939-0.271,3.385-1.152,4.321c-0.804,0.855-2.028,1.288-3.64,1.288
			c-0.204,0-0.415-0.007-0.635-0.02l-6.165,0.001l-1.479,2.069l16.022-0.002c1.69,0,2.354,0.822,2.614,1.514
			c0.253,1.137-0.16,2.181-1.271,3.167c-2.039,1.718-4.761,3.511-8.088,5.327l-0.437,0.239l0.481,0.127
			c3.414,0.896,8.193,1.509,14.205,1.825c1.133,0.001,1.791,0.599,1.919,1.733c0.082,1.313-0.459,1.98-1.929,1.95H154.27z
			 M129.213,48.359c1.844,1.94,3.801,3.497,5.816,4.628l0.084,0.048l0.089-0.038c3.481-1.47,6.164-2.962,7.975-4.433
			c0.086-0.064,0.157-0.123,0.215-0.172l0.362-0.305l-0.471-0.043c-0.122-0.011-0.288-0.021-0.512-0.021l-13.876,0.002
			L129.213,48.359z M136.661,28.547l-0.131,0.281l5.104,0l0.06-0.076c0.874-1.109,1.406-2.201,2.305-3.487
			c0.22-0.274,0.424-0.539,0.598-0.771l0.251-0.335l-0.419,0.019c-2.461,0.107-5.541,0.257-9.175,0.446l-0.402,0.021l0.263,0.306
			c0.4,0.468,0.855,1.06,1.249,1.845c0.104,0.213,0.178,0.336,0.262,0.515C136.624,27.312,136.944,28.027,136.661,28.547z
			 M124.253,24.987c0.321,0.432,0.732,1.039,1.221,1.804c0.402,0.562,0.551,1.455,0.435,1.773l-0.096,0.266l8.141-0.001
			l-0.201-0.307c-0.149-0.228-0.39-0.552-0.715-0.961c-0.35-0.465-0.646-0.878-0.881-1.232c-0.25-0.499-0.29-0.97-0.106-1.38
			l0.124-0.278l-8.157,0.001L124.253,24.987z"/>
	</g>
	<g>
		<path fill="#FFFFFF" d="M200.907,35.485c-0.125,0-0.255-0.006-0.391-0.02c-7.251-0.905-13.156-3.838-17.546-8.72l-0.18-0.201
			l-0.137,0.233c-3.131,5.309-9.253,8.058-18.196,8.171c-1.137,0-1.804-0.539-1.93-1.558c0-1.249,0.706-1.821,1.729-1.95
			c7.461-0.432,12.342-2.256,14.492-5.423l0.209-0.309l-12.937,0.002c-0.789-0.085-1.755-0.461-1.755-1.754
			c0.125-1.14,0.793-1.754,1.931-1.754l13.761-0.002c0,0,0.406-1.711,0.522-2.291c0.087-0.703,0.483-1.558,1.903-1.717
			c1.241-0.015,1.82,0.709,1.949,1.73c0.024,0.612-0.156,1.771-0.221,2.032l-0.062,0.246l15.609-0.002
			c0.632,0,1.419,0.3,1.579,1.733c0,0.708-0.237,1.612-1.378,1.773l-13.36,0.003l0.377,0.344c3.134,2.855,7.973,4.843,14.382,5.908
			c1.142,0.128,1.674,0.86,1.55,2.119C202.578,35.016,201.954,35.485,200.907,35.485z"/>
		<path fill="#FFFFFF" d="M169.166,55.548c-1.103,0-1.913-0.28-2.411-0.834c-0.483-0.538-0.673-1.334-0.564-2.368l-0.002-6.254
			c0-2.095,0.958-3.157,2.849-3.158c0.101,0,0.205,0.003,0.312,0.009l17.069-0.003c0.116-0.006,0.236-0.009,0.353-0.009
			c1.114,0,1.945,0.281,2.472,0.835c0.501,0.532,0.729,1.315,0.673,2.332l0.002,6.089c0.111,1.109-0.094,1.948-0.606,2.515
			c-0.506,0.559-1.313,0.841-2.399,0.841c-0.217,0-0.443-0.011-0.683-0.033l-16.367,0.003
			C169.627,55.536,169.39,55.548,169.166,55.548z M185.25,46.428c-0.118,0-0.245,0.006-0.382,0.02L171.08,46.45
			c-1.083,0-1.208,0.591-1.208,1.035l0.001,3.486c-0.053,0.427-0.01,0.725,0.132,0.887c0.099,0.111,0.257,0.167,0.471,0.167
			c0.072,0,0.148-0.006,0.23-0.018l14.668-0.004c0.369,0,0.858-0.126,0.858-1.209l-0.001-3.485c0.025-0.185-0.021-0.447-0.173-0.622
			C185.91,46.514,185.676,46.428,185.25,46.428z"/>
		<path fill="#FFFFFF" d="M191.066,61.422c-1.807,0-4.029-0.29-6.604-0.861c-1.051-0.39-1.446-1.149-1.187-2.313
			c0.314-0.942,0.898-1.429,1.736-1.429c0.178,0,0.373,0.023,0.578,0.068c2.16,0.551,3.932,0.832,5.257,0.832
			c2.867,0,3.011-1.294,3.057-1.718L193.9,39.998l-29.793,0.004c-0.674-0.064-1.154-0.273-1.447-0.635
			c-0.265-0.326-0.367-0.768-0.306-1.313c0.125-1.15,0.832-1.733,2.102-1.733l37.996-0.005c1.134,0,1.801,0.599,1.928,1.733
			c0.001,1.143-0.598,1.824-1.733,1.949l-5.062,0.002l0.003,16.895c-0.169,3.001-2.362,4.529-6.519,4.529H191.066z"/>
	</g>
	<g>
		<path fill="#FFFFFF" d="M249.039,61.516c-0.411,0-0.869-0.156-1.36-0.463l-3.474-2.257c0,0-0.237-0.005-0.386-0.005
			c-2.075,0-10.756,0.295-26.537,0.9l-2.475,0.177c-0.901-0.134-1.379-0.739-1.379-1.756c0.129-0.923,0.72-1.406,1.755-1.406
			l6.018-0.174l2.268-2.42l-11.075,0.001c-1.034,0-1.58-0.545-1.58-1.579c0-1.034,0.546-1.581,1.58-1.581l38.345-0.005
			c1.144,0,1.49,0.847,1.579,1.557c-0.089,0.757-0.435,1.603-1.579,1.603l-7.248,0.001l6.339,4.387
			c0.755,0.761,0.882,1.598,0.375,2.491C249.848,61.352,249.466,61.516,249.039,61.516z M225.906,56.342l0.475-0.014
			c6.438-0.19,10.945-0.342,13.398-0.449l0.526-0.023l-2.182-1.746l-10.137,0.001L225.906,56.342z"/>
		<path fill="#FFFFFF" d="M222.678,49.929c-0.63,0-1.415-0.208-1.578-1.201c0-0.457,0.123-0.83,0.37-1.078
			c0.235-0.237,0.584-0.358,1.033-0.358l20.739-0.003c0.908,0,1.407,0.5,1.408,1.405c-0.133,0.807-0.666,1.231-1.58,1.231
			L222.678,49.929z"/>
		<path fill="#FFFFFF" d="M248.298,47.66c-2.745,0-4.196-1.027-4.196-2.973L244.1,33.338c0-0.83,0.158-1.539-1.275-1.539l-1.683,0
			l-0.021,0.174c-0.129,1.055-0.351,2.527-0.658,4.377c-0.09,0.539-0.146,0.941-0.164,1.198l-0.006,0.089l2.936,2.934
			c0.83,0.876,0.705,1.656,0.174,2.118c-0.479,0.488-0.925,0.717-1.352,0.717c-0.292,0-0.575-0.107-0.84-0.32l-2.128-2.124
			l-0.137,0.186c-1.419,1.937-2.597,3.311-3.598,4.199c-0.595,0.464-1.095,0.484-1.561,0.484c-0.479,0-0.914-0.161-1.294-0.48
			l-0.063-0.078l-0.178-0.27l-0.16,0.28c-0.194,0.34-0.538,0.552-1.021,0.632l-17.997,1.399c-1.017,0-1.605-0.404-1.737-1.202
			c-0.001-0.927,0.521-1.479,1.555-1.609l7.507-0.342v-1.729l-6.263,0.001c-0.552,0-1.244-0.239-1.406-1.379
			c0.131-0.841,0.616-1.257,1.405-1.257l6.263,0v-1.907c0-0.802,0.524-1.274,1.556-1.404c1.335,0.162,1.604,0.854,1.604,1.404v1.907
			l6.089-0.001c0.907,0,1.406,0.499,1.406,1.405c-0.271,0.837-0.858,1.231-1.754,1.231l-5.74,0.001v1.527l0.217-0.022
			c5.811-0.564,6.825-0.647,7.059-0.657c0.101-0.016,0.172-0.021,0.24-0.021c0.323,0,0.597,0.138,0.813,0.41l0.205,0.257l0.132-0.3
			c0.147-0.335,0.413-0.67,0.787-0.997c1.589-1.377,2.599-2.619,3-3.688l0.047-0.127l-0.101-0.09
			c-0.37-0.334-1.126-0.978-2.247-1.913c-0.646-0.643-0.724-1.395-0.211-2.163c0.381-0.385,0.769-0.566,1.177-0.566
			c0.322,0,0.658,0.114,0.998,0.34c0.277,0.186,0.698,0.479,1.266,0.881l0.254,0.18l0.056-0.307c0.153-0.856,0.28-1.92,0.372-3.164
			l0.017-0.213l-3.811,0c-0.794,0-1.232-0.499-1.232-1.405c0.163-1.157,0.855-1.406,1.407-1.406l3.666,0v-1.667
			c0-0.966,1.631-1.199,1.631-1.199s-1.803-0.029-1.803-1.186v-0.631l-11.874,0.001v0.985c0.001,0.781-1.169,0.933-1.774,0.933
			l-0.402,0c0,0,0.436,0.229,0.443,0.582v0.267l5.756,0c0.794,0,1.231,0.437,1.231,1.231c0,0.907-0.438,1.406-1.231,1.406l-5.74,0
			v1.546l7.135-0.001c0.628,0,1.41,0.208,1.578,1.201c-0.001,0.457-0.125,0.831-0.371,1.079c-0.236,0.237-0.583,0.357-1.033,0.357
			l-4.149,0c0,0,0,1.307,0,1.395c0,0.464,0.334,0.705,0.95,0.704c0.171,0,0.36-0.01,0.57-0.029c0.866-0.001,1.45-0.31,1.768-0.943
			c0.254-0.426,0.578-0.648,0.953-0.648c0.219,0,0.455,0.074,0.702,0.222c0.658,0.396,0.865,0.957,0.6,1.622
			c-0.569,1.591-1.836,2.395-3.77,2.396c-0.137,0-0.278-0.004-0.423-0.013c-0.189,0.009-0.387,0.013-0.578,0.013
			c-1.728,0-2.863-0.317-3.472-0.97c-0.363-0.391-0.524-0.897-0.481-1.506l-0.002-2.241l-3.637,0l-0.012,0.187
			c-0.177,2.893-2.517,4.589-6.951,5.042c-0.003,0-0.004,0-0.006,0c-1.048,0-1.636-0.404-1.766-1.2
			c-0.001-0.706,0.235-1.619,1.376-1.783c2.37-0.197,3.712-0.872,3.978-2.002l0.057-0.244l-4.531,0c-0.793,0-1.23-0.498-1.231-1.405
			c0-0.794,0.438-1.231,1.231-1.232l8.354-0.001v-1.546l-6.61,0.001c-0.795,0-1.233-0.499-1.233-1.406
			c0.132-0.806,0.604-1.231,1.406-1.231l6.454-0.001v-0.266c0-0.582,0.834-0.975,1.26-1.089l0.346-0.093
			c0,0-0.403-0.208-0.403-0.382v-0.937l-8.702,0.001c-1.269,0-1.976-0.523-2.102-1.556c0.127-1.079,0.834-1.602,2.102-1.603
			l8.719-0.001V20.36c0-1.108,1.244-1.391,1.869-1.391c0.619,0,1.785,0.423,1.785,1.397v0.782l11.843-0.001v-0.687
			c0-0.632,0.3-1.419,1.731-1.579c1.156,0.001,1.816,0.464,1.95,1.377v0.888l8.704-0.001c1.264,0,1.971,0.523,2.102,1.556
			c-0.131,1.079-0.838,1.603-2.102,1.603l-8.721,0.001v0.623c0,1.231-1.67,1.193-1.67,1.193s1.67,0.234,1.67,1.198v1.669l2.273,0
			c2.917,0,4.195,1.244,4.195,4.02l0.002,10.283c0,0.458,0.49,0.512,0.858,0.512c0,0,0.093,0.006,0.094,0.006
			c0.157,0,0.382-0.055,0.485-0.167c0.416-0.45,0.281-1.741,0.28-3.822c0-0.519,0.138-0.926,0.407-1.197
			c0.265-0.264,0.659-0.399,1.172-0.399c1.026,0.128,1.581,0.735,1.581,1.754c0.238,3.087,0.058,5.053-0.551,6.024
			C251.327,47.106,250.104,47.659,248.298,47.66z"/>
	</g>
</g>
</svg>
