<?xml version="1.0" encoding="utf-8"?>
<!-- Generator: Adobe Illustrator 16.0.3, SVG Export Plug-In . SVG Version: 6.00 Build 0)  -->
<!DOCTYPE svg PUBLIC "-//W3C//DTD SVG 1.1//EN" "http://www.w3.org/Graphics/SVG/1.1/DTD/svg11.dtd">
<svg version="1.1" id="圖層_1" xmlns="http://www.w3.org/2000/svg" xmlns:xlink="http://www.w3.org/1999/xlink" x="0px" y="0px"
	 width="85px" height="14px" viewBox="0 0 85 14" enable-background="new 0 0 85 14" xml:space="preserve">
<g>
	<g enable-background="new    ">
		<path fill="#7B7B7B" d="M48.832,9.776v4.234H47.52V2.808h3.078c1.198,0,2.127,0.292,2.785,0.875
			c0.659,0.583,0.988,1.406,0.988,2.469s-0.365,1.933-1.098,2.609c-0.731,0.677-1.72,1.016-2.965,1.016H48.832z M48.832,3.995v4.594
			h1.375c0.906,0,1.598-0.207,2.074-0.621s0.715-0.999,0.715-1.754c0-1.479-0.875-2.219-2.625-2.219H48.832z"/>
		<path fill="#7B7B7B" d="M64.512,14.011h-1.563l-1.875-3.141c-0.172-0.292-0.338-0.54-0.5-0.746
			c-0.161-0.206-0.326-0.374-0.496-0.504c-0.169-0.13-0.352-0.226-0.547-0.285s-0.415-0.09-0.66-0.09h-1.078v4.766H56.48V2.808
			h3.344c0.49,0,0.941,0.062,1.355,0.184S61.953,3.3,62.258,3.55s0.543,0.562,0.715,0.934s0.258,0.809,0.258,1.309
			c0,0.391-0.059,0.749-0.176,1.074s-0.283,0.616-0.5,0.871c-0.216,0.255-0.477,0.473-0.781,0.652s-0.646,0.319-1.027,0.418v0.031
			c0.188,0.083,0.351,0.179,0.488,0.285c0.139,0.106,0.27,0.233,0.395,0.379S61.878,9.814,62,9.999
			c0.123,0.185,0.26,0.399,0.41,0.645L64.512,14.011z M57.793,3.995v4.063h1.781c0.328,0,0.632-0.05,0.91-0.148
			c0.279-0.099,0.52-0.241,0.723-0.426s0.362-0.411,0.477-0.68c0.115-0.269,0.172-0.569,0.172-0.902
			c0-0.599-0.193-1.066-0.582-1.402c-0.388-0.336-0.949-0.504-1.684-0.504H57.793z"/>
		<path fill="#7B7B7B" d="M71.988,14.011h-5.938V2.808h5.688v1.188h-4.375v3.727h4.047v1.18h-4.047v3.922h4.625V14.011z"/>
		<path fill="#7B7B7B" d="M82.473,2.808l-4.148,11.203h-1.445L72.816,2.808h1.461l3.102,8.883c0.1,0.286,0.175,0.617,0.227,0.992
			h0.031c0.042-0.313,0.128-0.648,0.258-1.008l3.164-8.867H82.473z"/>
	</g>
	<polyline fill="none" stroke="#7B7B7B" stroke-miterlimit="10" points="9.918,0.344 1.225,8.999 36.494,8.999 	"/>
</g>
</svg>
