<?xml version="1.0" encoding="utf-8"?>
<!-- Generator: Adobe Illustrator 16.0.3, SVG Export Plug-In . SVG Version: 6.00 Build 0)  -->
<!DOCTYPE svg PUBLIC "-//W3C//DTD SVG 1.1//EN" "http://www.w3.org/Graphics/SVG/1.1/DTD/svg11.dtd">
<svg version="1.1" id="圖層_1" xmlns="http://www.w3.org/2000/svg" xmlns:xlink="http://www.w3.org/1999/xlink" x="0px" y="0px"
	 width="85px" height="14px" viewBox="0 0 85 14" enable-background="new 0 0 85 14" xml:space="preserve">
<g>
	<g enable-background="new    ">
		<path fill="#7B7B7B" d="M9.851,14.015H8.242l-5.766-8.93C2.33,4.861,2.21,4.627,2.117,4.382H2.07
			c0.042,0.239,0.063,0.753,0.063,1.539v8.094H0.82V2.812h1.703l5.609,8.789c0.234,0.364,0.385,0.614,0.453,0.75h0.031
			c-0.052-0.323-0.078-0.872-0.078-1.648V2.812h1.313V14.015z"/>
		<path fill="#7B7B7B" d="M18.726,14.015h-5.938V2.812h5.688v1.188h-4.375v3.727h4.047v1.18h-4.047v3.922h4.625V14.015z"/>
		<path fill="#7B7B7B" d="M28.617,14.015h-1.602l-2.578-4.289c-0.078-0.13-0.164-0.315-0.258-0.555h-0.031
			c-0.052,0.12-0.141,0.305-0.266,0.555l-2.656,4.289h-1.609l3.75-5.633l-3.453-5.57h1.609l2.289,3.938
			C23.963,7.01,24.096,7.27,24.21,7.53h0.031c0.167-0.344,0.313-0.614,0.438-0.813l2.383-3.906h1.508l-3.523,5.555L28.617,14.015z"
			/>
		<path fill="#7B7B7B" d="M37.203,3.999h-3.234v10.016h-1.313V3.999h-3.227V2.812h7.773V3.999z"/>
	</g>
	<polyline fill="none" stroke="#7B7B7B" stroke-miterlimit="10" points="74.605,0.349 83.8,9.003 47.529,9.003 	"/>
</g>
</svg>
